<svg xmlns="http://www.w3.org/2000/svg" xmlns:xlink="http://www.w3.org/1999/xlink" viewBox="0 0 369.13 378.48"><defs><style>.cls-1{fill:url(#linear-gradient);}</style><linearGradient id="linear-gradient" x1="18.65" y1="194.79" x2="387.78" y2="194.79" gradientUnits="userSpaceOnUse"><stop offset="0" stop-color="#00c10a"/><stop offset="0.25" stop-color="#00be0a"/><stop offset="0.4" stop-color="#00b609"/><stop offset="0.52" stop-color="#00a809"/><stop offset="0.63" stop-color="#009308"/><stop offset="0.73" stop-color="#007906"/><stop offset="0.82" stop-color="#005905"/><stop offset="0.91" stop-color="#003203"/><stop offset="0.99" stop-color="#000700"/><stop offset="1"/></linearGradient></defs><title>cedar</title><g id="Cedar"><path class="cls-1" d="M330.75,232c2-2,4.12-3.92,5.89-6.11,2.88-3.56,5.47-7.35,8.28-11a12.45,12.45,0,0,1,2.54-1.92c2.76,5.84,1.78,7.66-12.07,22.89,6.41.67,11.38-4.28,13.49-11.27,1.6-5.29,5-10,7.64-15l1.63.51c.4,3.67,1.82,7.62.92,10.94-.95,3.5-4.12,6.4-6.59,9.95.39.22,1.77,1.25,1.94,1.09a84.42,84.42,0,0,0,6.93-7.73c2.07-2.75,3.77-5.78,5.63-8.69l2.25.86c-.41,2.81-.81,5.62-1.39,9.7,2.87-2.28,4.77-4.77,7.21-5.52,3.72-1.14,7.81-1.08,11.73-1.53.34.65.67,1.31,1,2l-8.07,9.06,2.31,3.22L361.8,237c0,.43,0,.86-.05,1.29,3.17,1.57,6.47,2.95,9.46,4.81,1.34.83,2.06,2.64,3.06,4-1.5.07-3.14.57-4.47.12-4.16-1.41-8.11-3.56-12.33-4.7-3.16-.85-6.61-.64-9.93-.76-1.74-.07-3.49.17-6.5.35,4.74,2.67,8.51,5.17,12.59,7,3.86,1.71,8.15,8.11,7.89,14.19-3.92-2.53-7.55-4.48-10.72-7-3.85-3.08-6.92-7.39-11.13-9.68-1.93-1.05-5.35-3.78-8.61-1-.81.7-2.3.59-4.56,1.08,2.87,2,5.24,3.41,7.41,5.11,4.41,3.46,8.78,7,13,10.69.75.66.59,2.35.84,3.56-1.12-.18-2.4-.06-3.33-.58-5.31-3-10.53-6.19-15.22-9L314.54,259a25.2,25.2,0,0,0,1.41,2.27c3.45,4.63,7,9.17,10.32,13.89.49.7-.13,2.18-.24,3.29-1-.24-2.34-.14-2.9-.76-4.92-5.4-9.74-10.9-14.52-16.43-2.92-3.37-5.12-8.41-8.76-9.8-3.14-1.19-6.8-4.8-11.25-2.18-1.11.66-3.17-.29-5.86-.65,10,12.3,23.33,19.87,33.58,31.79-5.94,1.76-9.21-1.25-12.27-3.48-6.91-5-14.73-9.64-19.74-16.26-5.76-7.61-12.59-2.55-18.43-5.07L264.81,257c1.61,1.93,3.35,3.78,4.81,5.81a55.25,55.25,0,0,1,5,7.83c2.74,5.61,5.12,11.4,7.77,17.05.32.69,1.43,1,2.13,1.48l7.56-7.53,1.67,1.23c-1.63,3.13-3.35,6.21-4.86,9.39a26.21,26.21,0,0,0-2.12,6.13c-.08.38,2.15,1.88,3,1.64a19.72,19.72,0,0,0,6.83-3.14c3.49-2.82,6.39-6.37,9.9-9.15,1.81-1.42,4.42-1.84,6.66-2.71-1,2.26-1.47,4.94-3,6.69-2.4,2.71-5.52,4.78-8.53,7.29,3.75,4,7.31.71,10.15-.26,6.81-2.31,13.23-5.77,19.87-8.65,1.54-.67,3.3-.85,6.12-1.54-4.43,11.72-15.11,12.64-23.52,17l11.23,7.68-1.1,2.14c-3.24-1.17-6.77-1.87-9.66-3.62-3.76-2.28-7.25-3.81-11.84-2.95-2.8.53-5.85-.24-8.78-.43l-.45,1.25c3.71,3.33,7.58,6.51,11.07,10.05,2,2.07,3.47,4.72,5.17,7.11-2.65-1-5.75-1.42-7.86-3.09-5-4-9.21-9.07-14.47-12.65-3.19-2.17-7.74-2.35-11.69-3.43l-1.06,2,26.73,20.91-1.25,2.2c-3.08-1.07-6.36-1.79-9.19-3.32-3-1.62-5.55-4-8-5.82l-10.65,7.77,9.47,11.78-1.29,1.17c-6.9-.52-9.15-7.47-13.87-10.72L246.3,338.7l12.3,14.5L257.23,355c-2.28-1.22-4.87-2.1-6.79-3.74-3.09-2.64-5.75-5.78-8.58-8.73-4.46-4.66-5.11-4.75-10.52-1.27q10.72,6.81,21.5,13.63l-.67,2c-1.73,0-3.73.57-5.16-.09-6.8-3.13-14-5.79-19.9-10.23-3.57-2.7-7.82-1.78-11.06-4.42-.8-.66-3.09.5-5.36,1,10.79,8.21,20.53,16.77,26.7,28.48l-.81,1.48c-1.53-.58-3.43-.77-4.53-1.81-4.29-4.07-8-8.93-12.66-12.38-1.93-1.42-5.93,0-9,.07a10.25,10.25,0,0,0,.78,2.89c1.59,2.59,3.61,5,4.93,7.67.55,1.12-.24,2.89-.42,4.37a16,16,0,0,1-3.54-2.21c-2.87-3.08-5.49-6.39-8.35-9.49a3.18,3.18,0,0,0-2.94-.45l5.56,4.48-.7,1.7-16.43-4.28c1.34,3.82,2.6,6.48,3.11,9.28.22,1.24-1.07,2.76-1.68,4.16-.8-1-1.93-1.88-2.36-3-1.66-4.41-3-9-8.1-10.89-6.57,7.53,5.28,9.53,4.16,15.54-5.52-.07-9.29-3.45-12.1-7.14-3.56-4.67-7-7.66-13.38-6.71-3.67.55-7.57-.52-13-1l13.24,18.32L157.65,384c-2.5-1.55-5.55-2.62-7.39-4.75-3.68-4.27-6.34-9.45-10.16-13.57-2-2.2-5.51-3.42-8.55-4.29-5.79-1.64-11.71-2.88-17.63-4-4.06-.74-8.58-2.14-12.25-1.06-4.53,1.32-8.84,4.46-10.19,9.86-.18.73-.43,1.45-.82,2.73l-6.1-1.7c2-5.54,3.74-10.59,5.57-15.61a2.66,2.66,0,0,1,1.06-1.46c3.33-1.57,4.25-4.06,4.53-7.75.36-4.58,2.13-9.05,3.17-13.6a4.68,4.68,0,0,0-.21-3,62.23,62.23,0,0,0-5.51-8.66c-3.73-4.58-7.75-8.93-11.77-13.27-2.52-2.73-5.38-5.15-7.87-7.9-5.13-5.67-11.94-3-18-3.86-5.57-.77-11.2-1.37-15.81-4.88l.16-1.39H54.14l-3.29-5.42.76-1.14,13.88,7.63.8-1.18a76.84,76.84,0,0,0-5.11-7c-4.85-5.29-11.88-3.18-17.77-4.95-6.74-2-13.32-4.56-19.94-7-.7-.26-1.16-1.19-1.74-1.81l.41-1.48,21.56,3.79-1-4.95,10.6,6.9c.38-4.51-3.34-9-7.77-9.27a25.69,25.69,0,0,1-16.92-7.65A5.59,5.59,0,0,1,27.22,248c3.8,1.32,7.54,3,11.44,3.81,1.56.34,3.51-1.08,5.28-1.7-.84-1.26-1.4-2.89-2.54-3.72-6.63-4.76-13.44-9.28-20.09-14-1.12-.79-1.79-2.22-2.66-3.36l1-1.15,16.52,7.94c-.58-7.86-8.59-9.49-12.68-14.37l.54-1.14,5.45.51c-.37-6.76-5.83-12.79-2.93-21.23,6.52,8.51,8.5,18.29,14.18,27,1.21-4.19,2.37-8.22,3.72-12.88L47,216.46l22.55-4.82L58.08,205.3l1-2.35,19.62,6.15.43-1.24A92.39,92.39,0,0,1,70.68,203c-1.23-.88-1.79-2.68-2.66-4.06,1.38,0,2.86-.39,4.11,0,2,.61,3.86,1.7,6.53,1.73-1.49-1.06-2.91-2.24-4.48-3.17-6.35-3.76-12.76-7.41-19.06-11.24-.48-.28-.27-1.69-.45-3.13l17.83,8.57.58-.94c-1.88-2.8-3.75-5.59-5.62-8.4-4.15-6.25-11.84-7.63-17.09-12.4-1.13-1-2.61-1.66-3.8-2.63-.48-.38-.62-1.16-.91-1.76.74-.13,1.63-.59,2.21-.33,4.43,1.94,8.8,4,13.67,6.27-1.08-7.48-6.41-11.91-11.06-16.77-1.1-1.16-2-2.5-3-3.76l4.27,1.31c-1.32-4.92-2.8-10.44-4.29-16l1.48-.4,5,11.45,1.67-1.1c2.87,5.79,5.67,11.44,8.48,17.09l1.32-.32a27.08,27.08,0,0,1,1.48-3.55A15.43,15.43,0,0,1,69,157.13a12.62,12.62,0,0,1,1.93,2.74,4.53,4.53,0,0,1,.19,3.18c-2.74,5.47-1.13,10,3.45,15,1.72-6.83,3.68-13,1.7-19.72l1-.89c1.27,1.27,3.26,2.35,3.7,3.86,1.45,5,2.28,10.08.25,15.4-.94,2.47-.16,5.6.85,8.47l1.35-4.41,6.06,6.5c4.36-6.47.73-11.45-4.49-16.25,4.6-2.34,5.82,1.59,8.6,3.39,1-2.57,1.89-5.07,3-7.44.45-.93,1.52-1.55,2.31-2.31.65.88,1.94,1.83,1.85,2.63-.57,5-1.29,10-2.28,14.87-.73,3.57-2,7-3,10.73,10.34-3.13,6.3,8.25,11.18,12,4.2-8.83,4.41-17.18-1.21-25.38,5.07-.9,7.28,1.74,9.41,10.08,1.82-2.63,3.84-5.14,5.42-7.91,1.26-2.2,1.91-4.74,3-7a9.16,9.16,0,0,1,1.94-2.06,11.2,11.2,0,0,1,1.49,2.57c1.37,5.15-.92,9.61-3.17,13.89-2.84,5.38-5.91,10.54-7.57,16.55-1.17,4.25-4,8.05-5.85,11.66,1.5,5.47,2.43,10.92,8.27,14-.55-3-1.09-5.86-1.88-10.07l4.94,4.3c3.27-7.26,1.18-14.12-1-21l1.71-.6c1.5,2.55,3,5.1,5.1,8.68,3.23-6.61,6.34-12.94,10.13-20.67.44,3.3,1.52,5.82.91,7.83-2.24,7.41-5,14.65-7.65,21.93q-1.89,5.24-4,10.36a26.28,26.28,0,0,1-2.24,3.59l2,6.17c.75-4.16,1.4-7.8,2-11.44h1.69l2.06,7.13,8.8-15.75c.74,1.53,1.33,2.75,2.19,4.56l9.84-10.74v7.14l4-3.57c3.33,7.68-2.29,13.51-3.24,20.57,1-.59,1.77-.78,1.86-1.13,2.19-9,8.44-16.26,10.17-25.81,1.47-8.11.41-15.37-1.14-22.9s-3.46-15.09-5.21-22.63c-1.65-7.13-9.14-13.11-16.36-13.56-3.81-.24-7.57-1.36-11.38-1.88-5.59-.77-11.22-1.26-16.82-2s-11.27-1.69-16.87-2.72c-.85-.15-1.51-1.27-3.21-2.8,10.69-3.09,20.69-.33,30.39-1l-3.89-10.12,1.78-1.22c2.8,3.06,5.52,6.19,8.44,9.14.78.78,2.12,1,3.2,1.5a12.8,12.8,0,0,0-.41-3.49c-1.69-4.05-3.63-8-5.31-12-.37-.88-.05-2-.05-4.44,1.71,1.74,2.9,2.56,3.55,3.69,3.13,5.47,6.08,11,9.22,16.51.37.64,1.53.82,1.86,1-.94-5.75-1.83-11.32-2.78-16.89-.09-.55-.38-1.34-.81-1.54-3.18-1.48-6.45-2.79-9.65-4.26-5.62-2.6-11.26-5.19-16.79-8-1-.52-1.61-1.93-2.4-2.93,1.28-.21,2.58-.38,3.85-.65,2-.41,4-.89,5.94-1.33l10.65,6.56c-.3-2.74-.49-4.45-.71-6.4,5.35-.3,4.55,4.52,7.52,7.47-.36-3-.6-5.15-.85-7.28l1.19-.57L146,120.22l1.42-.83c-1.34-3.73-2.93-7.4-4-11.22-1.59-5.85-7.49-6.21-11.2-9.33-4.66-3.92-9.46-7.69-14.06-11.68-1-.9-1.46-2.48-2.17-3.75l.8-1L122.66,85c.24-.16.62-.28.7-.5.56-1.46,1-2.94,1.55-4.42.91,1.39,1.81,2.79,2.73,4.17,1.68,2.52,2,6.33,6.11,6.62,1.1-2.66-3.05-6.79,3.3-7.81L120.33,65.92l1.06-1.48c2.93-.4,5.44,1.42,6.94,3.53,2.15,3,4.34,2.06,6.4.78,2.23-1.39.45-3.11.08-5-1.37-7.1-8.72-6.89-12.46-11-1.9-2.08-4.39-3.62-6.06-6.11,5.84-1.92,8.37,3.09,12.3,4.82l1.54-2.84,3.09,3.52c.92-3.79-1.54-10.05-4.75-12.1-3.76-2.41-8.7-10.54-9.13-15.21C125.1,23.38,125,33,131.41,31c-2.45-5.08-4.83-10-7.52-15.59l4.78,2.32c-.26-4.36-.5-8.25-.74-12.15,9.68,6,9.93,14.7,8.19,24.17l7.45-9,1.84.82c-.33,2.19-.24,4.56-1.07,6.55-1.56,3.79-3.88,7.27-5.39,11.08-.51,1.29.47,3.18,1.74,4.76.46-1.45.91-2.91,1.37-4.36l1.19-.77c.07,1.26.14,2.52.23,4.2l9.13-8.59,1.58.43c-.19,2.14.23,4.61-.71,6.33a25.74,25.74,0,0,1-5.75,6.67c-2.65,2.3-5.43,4.39-6.07,8.08A3.4,3.4,0,0,0,143,59l3.73-5.27.93.23v7.45c2.91-2.52,5.76-4.27,7.62-6.75,2.48-3.34,5.44-2.3,8-1.26s1.65,3.41-.14,4.77q-5.47,4.15-11.26,7.88A51.63,51.63,0,0,1,145.54,69V84.45l.65,0,3.49-10.67,1.47.2,1.24,5.73c2.52-3.2,4.55-5.76,6.86-8.68l2.13,3a63.5,63.5,0,0,1,7.29-3.34c1.07-.36,2.51.41,3.79.67-.27,1.25-.26,3.44-.85,3.62-7.6,2.27-6.13,8.25-5.88,13.76,0,.29.09.57.36,2.18,2.19-2.66,3.94-4.59,5.46-6.68,2.8-3.87,5.38-7.88,8.23-11.71.68-.91,2-1.3,3.09-1.93.23,1.29,1,2.84.6,3.82-2.06,4.46-4.34,8.84-6.78,13.1-2.2,3.84-4.67,7.52-7.11,11.2a44.1,44.1,0,0,1-3.55,4.52c-5.64,6.49-.23,13.83-2.41,20.58l1.21.29,5.61-20.36,1.95.39c2.85,5.13-2.16,10.32-.52,15.46,7.12-2.15,6-1.59,8.94-14.93a25.91,25.91,0,0,1,3.56-8.28c3.87,5.44,1,10.24.28,16,3.28-3,6.68-5.78,9.82-8.86,3.68-3.61,7.05-7.55,10.78-11.1.92-.89,2.73-.84,4.14-1.23.14,1.55,1,3.51.3,4.55a49.38,49.38,0,0,1-6.41,7.83c-4.24,4.37-8.64,8.58-13.05,12.78a47.9,47.9,0,0,1-4.15,3.24c-.32,5.83-.65,11.93-1,18.73a27.56,27.56,0,0,0,7.43-5.68c2.92-2.91,5.26-6.37,8.14-9.3s4.86-7.11,7.51-10.5a93.31,93.31,0,0,1,7.46-8.08,2.43,2.43,0,0,1,2.3-.45,2.54,2.54,0,0,1,.86,2.31c-1.66,3.78-3.15,7.72-5.44,11.11-3.42,5.06-7.51,9.66-11.2,14.54-1.86,2.48-3.47,5.16-5.19,7.74-1,.44-2.33.62-3,1.37-1.69,1.89-3.1,4-4.62,6.09l-.69-.52c-.69,4.73-1.37,9.47-2.27,15.62,1.82-1.53,3.4-2.25,3.39-3,0-7.47,4.31-13.3,7.09-19.71,4.43-.57,4,1.67,2.86,4.67a84.41,84.41,0,0,0-4.12,13.15c9.88-3.36,9.65-13.94,14.94-20.93,1.59,3.68,1.59,3.68-1.92,15.22,4.23-2.29,7.62-4.09,11-6,1.84-1,3.56-2.29,5.44-3.22,1.73-.85,4.78-1,5.19-2.15a23.61,23.61,0,0,0,.91-9c-.3-5.58-1.72-11.18-1.43-16.71.42-8.27-3.81-13.65-8.93-19.27-3.55-3.88-5.83-8.93-9.26-14.36,10.93.24,11.11,9.85,17.38,15-1.06-4.36-1.8-7.77-2.77-11.12-.25-.84-1.29-1.44-1.94-2.17C219.57,78.09,215,73,210.48,67.83c-.44-.5-.06-1.7-.06-2.83l10,2.13c1.13,2.19,3,5.88,5,9.58,2.4-8.76-3-14.85-5.91-21.73-1.19-2.78-1.93-5.74-2.87-8.62l1.55-.73L223.42,52c-3.06-9.83-2.89-19.69-.34-30.09,6.87,6,6.35,14,6.91,22.29,1.52-1.31,2.72-2.34,4.87-4.21,2.07,8.07-4.66,14.73-2.63,22.31,1.74-1.51.68-6.38,5-3.18.4.3,2.94-2.3,4.49-3.56a26,26,0,0,1,3.43-2.73c2.74-1.51,3.62.21,3,2.4a26.81,26.81,0,0,1-3.71,8.13c-2.06,2.82-5,5-7.36,7.6a8.3,8.3,0,0,0-1.46,3,25.41,25.41,0,0,0-.62,3c-.48,2.33-1,4.65-1.45,7l2.28.68c2-4.72,3.92-9.45,5.95-14.14a6.29,6.29,0,0,1,1.61-2.21c3.42,1.62,4.76-1.1,6.67-2.87a3,3,0,0,1,2.78-.45A3.37,3.37,0,0,1,254,67.72a10.84,10.84,0,0,1-1.54,4.72c-2.08,3-4.52,5.81-6.79,8.7a4.09,4.09,0,0,0-1.06,1.69,61.21,61.21,0,0,0-.44,12.39l9.88-15.65,1.73.83c-.25,4.08,1.42,8.21-2.2,12.11-5,5.36-9.65,11-14.13,16.75-1.44,1.85-1.86,4.49-1.84,7.46,1-1,2.07-2.07,3.12-3.1,1.48-1.46,1.49-4.76,5-3.8.46.13,1.42-1.37,2.06-2.18,1.88-2.34,3.64-4.78,5.6-7,.46-.53,1.54-.51,2.33-.74.25.92.94,2,.65,2.71-.89,2.2-2.15,4.26-3.65,7.09l9.45-3.59c2,9.2-8.06,12-10.85,20,2.8-2,4.86-2.92,6.23-4.48,4.23-4.82,8.42-9.7,12.2-14.87,4.4-6,4.87-12.82,3.65-20.12-1-5.72-.23-11.73-1.29-17.41-.7-3.74-2.86-7.41-5.07-10.62-3.41-4.93-7.51-9.38-11.14-14.16-1-1.28-1.33-3-2-4.55l.83-1,12.77,7.72,1.78-1c-1.71-7.11-3.42-14.21-5.3-22l4.35,1.73c1-5.88,2.11-11.76,3.37-18.78,6.27,4.87,5.07,11.07,5.67,16.12.64,5.38-.8,11-1.4,17.31a44.56,44.56,0,0,1,3.9-3.36,31.64,31.64,0,0,1,3.9-2c.25,1.71,1.23,3.81.59,5.06-1.26,2.44-4.9,4.41-4.91,6.58,0,4.35-4.28,8-1.81,12.56.56,1,.32,2.51,1,4,.9-2.78,1.8-5.57,2.86-8.83l2.59,1.76,12.19-9.46c1.65,9.09-2.85,14-8.57,18.59,3.51,1,6.44,1.26,9.06-1.47a2.9,2.9,0,0,1,2.84,0,3.45,3.45,0,0,1,.77,2.83c-.9,5.17-4.89,8.32-8.64,11.07-5.21,3.82-10.14,7.56-11.4,14.72,3.17-3.39,6.84-6.46,9.38-10.27,2.25-3.36,3.08-1.41,5.07,1.1,4.29-6.72,9.56-12.21,11.11-20.2,1.42-7.28,3.57-14.43,5.39-21.64l1.44,0c.55,3.88,1.1,7.76,1.78,12.5,2.13-3,3.57-5.58,5.52-7.66,1.49-1.57,3.65-2.53,5.5-3.76,0,2.45.93,5.43-.14,7.25-2.32,3.92-5.87,7.08-8.47,10.87-1.57,2.29-2.31,5.16-3.43,7.79,5.7,2,1.13,5.38.78,8.71l3.14-.7L322,68.11l1.82.23,1.32,7.86c2.24-2.49,3.87-4.83,6-6.56,4.37-3.57,3.51,1.32,4.26,2.64,4-1.14,7.74-2.41,11.58-3.26,2.43-.53,3.38,1,2.88,3.31-.69,3.2-6.75,7.67-10,8.08-2.09.26-4,1.64-6.11,2.13-6.15,1.45-12.74,1.81-18.4,4.3-5.2,2.29-12,.53-15.78,6.21a2.61,2.61,0,0,1-1.2.68c-4,1.59-6.73,4.27-9.83,7.38-6.74,6.74-9.65,15.51-15.91,23.21,9.49-2.7,13.15-9.91,17.25-16.77,2-3.37,4.39-6.53,6.61-9.78l1.59.57c.23,1.25.5,2.5.68,3.75.17,1.08.24,2.17.35,3.25,1.31-.59,2.91-.89,3.87-1.83,2-1.92,3.59-4.19,6.36-5.88.21,5.29,0,10.24-3.24,16,2.84-1.38,4.79-2.16,6.58-3.23,3.91-2.34,8-1.5,11.89-.41.5.14.92,3.18.3,4.28-1.44,2.56-4.34,4.29-3.22,8.09.18.59-2.49,2-3.72,3.91,4.23-.65,8.48-1.21,12.68-2,.79-.16,1.29-1.64,2.12-1.9a53.38,53.38,0,0,1,5.94-1.2c-.17,1.67-.31,3.34-.54,5a4.4,4.4,0,0,1-.63,1.24c5.58.4,11.44-.51,15.93,3.85a19.09,19.09,0,0,1,2.46,3.71c-2.75,3.34-7.86-1.86-9.08,3.38l-18.88-5.19c3.46,3.92,6.17,6.82,8.65,9.9.63.79.55,2.17.79,3.28-1.24,0-2.81.48-3.66-.1-3.72-2.52-7.06-5.62-10.86-8a105.48,105.48,0,0,0-11.67-5.78c-.58-.27-1.49.28-2.23.2A72.5,72.5,0,0,0,297,132c5.94,6.16,15.69,8.69,15.81,19.89l6.38-8.31c3.29,9,1.44,15.81-4.84,21.89l1.17.5,5.08-2.44c.69,3.78-1.41,6.26-6.85,8.57l.3,1.32c2.15-.63,4.53-.87,6.39-2a22.07,22.07,0,0,0,5.75-5.07c3.29-4,6.2-8.36,9.48-12.4.29-.36,2.78.24,3,.88a5.61,5.61,0,0,1-.15,4c-1.12,2.56-3.64,4.55-1.87,8,.31.6-2.25,2.66-3.49,4.05l.7,1.32,19.95-9.89c-.86,3.2-1.51,5.65-2.14,8,4.36-.74,9.57-2.46,14.12,1.35a19.57,19.57,0,0,1,2.74,3.68c-1.4.83-2.76,1.74-4.21,2.45-1.24.61-2.59,1-3.6,2.28L344,177.27l-.34.71L354,186.89c-6.65,3.3-10.77-.67-13.4-3.27-3.69-3.65-8.45-2.17-12.16-4.46l4.64,3.06L330,184.91c4.33,3.94,10.95,5.94,10.9,13.88-1.36-.3-2.66-.24-3.52-.83a143.59,143.59,0,0,1-13-9.37,43.29,43.29,0,0,0-14.12-7.9,1.32,1.32,0,0,0-.89.18,14.84,14.84,0,0,0-1.43,1.13l8.77,4.84-.41,1.27H287.58c-.87,2-.87,2,6.49,9.49a23.09,23.09,0,0,0,2.58-1.44c.82-.59,1.51-1.37,3.31-3-.78,7.66-3.71,14.64,2.38,20.64.55-1.69,1-3.12,1.51-4.67,3.41,2.49,4,6.73,1.88,10.82a11.61,11.61,0,0,0-.65,3.12l2.85-.65c2.13-.51,4.25-1,6.39-1.47.05,0,.61,1.39.41,1.58-1.71,1.59-3.38,4-5.38,4.38-7.8,1.4-11.81,6.66-14.86,12.93l8.77-.4c1.24-2.56,6.45-.66,8.37-4.87,2-4.39,5-8.31,7.33-12.56,2.91-5.31,4.53-11.41,10.14-16.15,2.69,9.28-3.71,15.41-6.18,22.74l8.59-1.58-.68,5.13c-5.08,1.34-10.85,1.31-14.7,7.31,2.11-.51,3.25-1.05,4.37-1A10.87,10.87,0,0,0,330.75,232Zm-86-32.5c-1.39,7.69-8.55,10.77-13.21,15.7-2.26,2.4-2.08,4-2.18,6.74l22.82-10.56c2.13-4.69,4.39-9.58,6.56-14.52.58-1.32,1.62-3.23,1.12-4.09-2.19-3.8-4.29-8-7.56-10.71-2.55-2.11-6.76-2.2-10.43-3.24a90.35,90.35,0,0,0-6,25.31c1.61-1.15,2.55-2.59,3.83-3.59,1.44-1.13,2.31-4.22,5.09-1.95ZM105.42,299.07c3.2-5.48,3.38-12.85,10.29-16.28.41,1.47,1.07,2.49.81,3.16-3,7.69-5.42,15.8-9.6,22.84-3.62,6.09-5,9.21-1.23,15.39a25.42,25.42,0,0,0,2.88-4.07c3.6-8.14,7.06-16.33,10.59-24.5.67-1.55,1.47-3.05,2.2-4.59,2.59-5.5,5-11.07,7.79-16.48,3-5.82-.19-11-2.2-15.72-2.45-5.8-6.44-11-9.91-16.31-2.94-4.54-6.67-7.4-12.69-6.35-3.11.54-6.46-.43-9.65-.17-4.17.35-8.2.68-12.44-.05-2.71-.46-5.72.78-7.63,1.1-3,6.51-6.44,12.67-8.69,19.22-1,2.91-4,5.81-1.75,9.68,1.53,2.62,2.32,5.68,3.44,8.54l1.23-.2c-.21-4.33-.42-8.67-.68-14l4.12,2.77,7-9.9,1.59.65c.09,1.56.57,3.24.19,4.68A62.38,62.38,0,0,1,78,267c-2.11,5-5.51,9.73-2.86,15.47,1.36,2.93,3.25,5.61,4.76,8.18,5.12-5.47-2.71-10.71-.44-17.19L84,278.91a77.13,77.13,0,0,1,2.36-8.34c.48-1.2,1.91-2,2.91-3,.67,1.11,2.06,2.33,1.91,3.32-1.17,7.89-2.63,15.72-4,23.58l2.17,7.91.47-.09-.63-14,1.58-.37c.84,1.44,1.67,2.87,2.67,4.57,5.06-6,5-15.19,12.57-19.76.27,2.93.32,5.86-.75,8.3C102.65,287,101.42,292.78,105.42,299.07ZM194,228.6c8.72.43,14.59-6.3,22.85-5.77,1,.06,2.33-2.06,3.22-3.36a39.61,39.61,0,0,0,2.73-5.05c.66-1.35,1.23-2.74,1.75-4.14.3-.83.3-1.78.65-2.58,1.6-3.72,3.49-7.32,4.86-11.11,1.65-4.57,2.67-9.36,4.37-13.91.87-2.32.88-3.7-1.81-3.81-3.38-.13-7.07.95-10.09-.08-5.37-1.84-7.91,1.69-9.57,4.85-2.73,5.22-4.11,11.14-6.25,16.69a69.79,69.79,0,0,1-4,8.33c-1.8,3.26-3.88,6.36-5.69,9.61-.21.37.45,1.25.85,2.22L208,214l4.76,2.52Zm77-55.06c3.83.41,6.67,1.29,9.3.87,7.08-1.15,10.58-6.41,12.51-12.7s3.43-12.9,5.19-19.63c-3.66-4.07-6.53-9.65-13.33-11.16-2.42-.53-3.19-.54-4.06,1.63a93.33,93.33,0,0,1-5.12,11.5c-2.18,3.78-5.11,7.11-7.57,10.74-1.85,2.72-3.48,5.6-5.21,8.4l1,.67c1.15-1,2.14-2.48,3.46-2.89,2.25-.71,4.07-6,7.22-1,.16.24,2.51-.3,3.14-1.06,2.76-3.32,4.88-7.27,8-10.17,2.44-2.28,3.12-7.13,8.53-6.53-.11,1.64.14,3.25-.37,4.55a38.8,38.8,0,0,1-11.68,15.6C278.07,165.69,274.7,169.77,271,173.54ZM61.32,244.65c4.92-.54,7.66-6,5.18-12.22l15.85-2.27-1.49-4.6a27,27,0,0,1,4.62.49c4.15,1.18,8.24,2.55,13.17,4.11l-3.74-7.56,5,1.38c0-.62.17-1.36,0-1.47-5.92-3.31-11.71-6.59-19.1-4.86-4.6,1.08-9.5.76-14.22,1.37-3.73.48-7.4,1.42-11.73,2.28,1.24,1.41,2,1.86,2,2.3,0,5.12-.27,10.25-.24,15.37,0,3.49-3.27,6.28-1.57,10.22,1.28,3,1.6,6.33,2.35,9.52h1.18Q59.92,251.68,61.32,244.65Zm125.1,2.54c-7.69-2.27-15.08-1.3-22.29-.45-2.42.29-4.51,3.34-6.75,5.13l1.39.48c-.29,1.92-.12,4.06-.93,5.71-2.48,5-5.44,9.84-8,14.84a84.51,84.51,0,0,0-3.18,8.14l6.25-.57c8-11.26,15.91-22.16,26-31.42-2.76,12.4-10.87,21.81-18.36,32.51,8.34-2.1,8.35-2.1,10.88-7.53,1.14-2.43,2.06-5,3.4-7.31C178.48,260.31,182.35,254,186.42,247.19ZM274.19,227c4.69-5.54,9.06-10.64,13.37-15.79,3.47-4.15,3.23-8.84-.4-12.73-.71-.76-.91-2-1.54-3.43l-4.45-2.16,3.41-2-6.68-2.74-.91,1.11,3.81,5-6.07,3.24c0,1.83-.79,4.53.18,6.21,1.62,2.81,1.31,4.06-2.82,4.66,2.07.87,3.33,1,3.93,1.76s.48,2,.68,3L271.78,211c-5.14,2.06-1.46,4.61-.07,6.44-.87,5.4-8.26,5.91-7.68,12.7l9.34-7.59ZM173.87,286.58c3-.43,5.43-.46,7.68-1.18,3.42-1.1,7.48,0,10.23-3.67,3.45-4.55,7.53-8.62,11.09-13.1.54-.67,0-2.57-.51-3.64-2-3.85-4.09-7.65-6.34-11.36a48.44,48.44,0,0,0-4.22-5.07c-3.72,8.25-6.82,15.11-9.92,22l1.58,1,12.86-10.1c.37.35.7.52.79.77a3.39,3.39,0,0,1,.16,1.34c-.52,6.24-6.13,7.92-10.1,10.89C182.56,277.89,176.61,279.74,173.87,286.58ZM249.12,162c15.49-5.24,17.6-20.18,25.75-30.34-2.19-1.48-7.82-.56-8.85,1.11-4,6.56-8.27,13-12.22,19.62C252,155.32,250.76,158.57,249.12,162Zm28.62,158.78c-7.3-6.64-14-14.9-26.09-11.52A31.8,31.8,0,0,0,254.6,313c2.54,2.4,5.73,4.27,7.79,7C267,326.2,272.63,326.55,277.74,320.76ZM165,299.56l-12-3.24-11,20.46A47.13,47.13,0,0,0,165,299.56ZM265.3,277.2c-11.4,5.49-13.4,9.4-8.14,17.86,3.5-3.86,7-7.42,10.14-11.24,4-4.84,3.66-6.92-1.74-11.62C265.45,274.2,265.38,275.67,265.3,277.2Zm33-54.67c-10.4,5-20.26,8.23-25.93,17.65,4.92.84,9.44,1.14,13.22-2.19a36.76,36.76,0,0,0,4.11-4.52C292.34,230.19,294.91,226.84,298.28,222.53ZM142.54,335.61c-8-4.91-16.59-2-27,15.21Zm1.73-39.19-.44-1.06c-1.33.73-3.06,1.16-3.89,2.27a48.9,48.9,0,0,0-3.68,6.72q-5.85,11.08-11.68,22.17c3.14-1.06,6.8-2,8-4.26C136.9,313.88,140.43,305.07,144.27,296.42Zm71.08-69.07L185.14,239c3.42.55,6.78-.59,9.72.08A17.4,17.4,0,0,0,215.35,227.35Zm5.15-74.6a17,17,0,0,0-2.64,1.19c-2.23,1.47-4.3,3.24-6.62,4.56-6.58,3.72-12.74,7.7-13.78,17.67C206.74,169.08,214.94,162.53,220.5,152.75Zm24,160.82c-2.73,5.54-8,.22-12.25,3.26,1.73,3,3.43,6,5.18,8.93a3.65,3.65,0,0,0,1.3,1.16c.37.22,1.11.44,1.3.26,3.37-3.25,6.67-6.56,10.22-10.07ZM237,161.64c8.94-7.57,14.89-16.85,20.4-26.71C250,136.67,237.13,153.29,237,161.64Zm37.37,120.55c-2.62,4.49-4.15,7.49-6,10.24-1.67,2.44-3.74,4.61-6.45,7.89,2.77-.58,4.31-1.43,5.09-1,4.28,2.49,6.62-3.11,10.44-2.36a3.12,3.12,0,0,0,1.17-2.24C277.47,290.85,276.06,287,274.41,282.19ZM154.47,322.5c9,.84,12.05-6.22,16.6-10.46,1.65-1.53.56-6,.72-9.14l-1.29-.37Zm75.32-34.11,5.92-2.53v6.38l8.45-7.85-4-6.54c-3.16,1.58-5.66,3.12-8.35,4.13C226.24,284.06,226.17,284.08,229.79,288.39ZM47.52,221.15c-3.13,7.34-2.21,14.44,1.35,22.19,1.8-7.81,3.46-15,5.12-22.19Zm145.62,94.54-1.95.11c-1.55,2.72-4.05,5.36-4.31,8.2-.17,1.85,2.93,4,4.56,6,2.36-2.56,5.6-4.79,6.68-7.81C198.63,320.82,194.93,317.91,193.14,315.69Zm-3.6-21,1,2.64,17.25-2.4-3.12-8.57Zm-58.73,5.73-.92-.41c-2.55,2.84-5.16,5.63-7.62,8.55a11,11,0,0,0-1.58,3.22c-.71,1.86-1,3.91-2,5.6-1.86,3.27-4.06,6.35-6.11,9.5l1.26.79c2.56-2.12,6.78-2.08,7-7.25.11-2.69,2.7-5.25,4.06-7.93C126.92,308.53,128.85,304.48,130.81,300.45Zm32.79,43.08-12.74,11C156,357,156,357,169,345.85Zm80.65-78.15c.41.77.7,2.26,1.45,2.56a98.81,98.81,0,0,0,11.68,3.91,5.09,5.09,0,0,0,4.29-1,5.46,5.46,0,0,0,.8-4.51c-.26-.88-2.26-1.76-3.46-1.75C254.25,264.67,249.5,265.07,244.25,265.38Zm-53.92,76.49a42.27,42.27,0,0,0,20.53,11.74C207.21,346.25,196.38,340.37,190.33,341.87ZM253.6,224.73l2.07,1.28c.88-1.36,1.83-2.67,2.6-4.08s1.19-2.72,1.84-4.05c2.21-4.51,4.63-8.93,6.54-13.56.47-1.15-.69-3-1.1-4.48-.89,1.22-2.09,2.32-2.63,3.68-1.94,4.89-3.53,9.92-5.52,14.78A50,50,0,0,1,253.6,224.73Zm-107,41-.39-.62c-2.32,2.79-4.86,5.42-6.89,8.41-1.65,2.42-2.59,5.32-4,7.9s-3.17,5-4.78,7.52l1.67,1.33c2-1.59,4.9-2.75,6-4.84C141.35,279,143.85,272.3,146.63,265.7Zm-42.78-55.4a28.87,28.87,0,0,1-2.76-4.56c-1.06-2.8-1.49-5.86-2.76-8.55-.47-1-2.53-1.3-3.86-1.91-.16,1.52-.68,3.12-.4,4.55a41.65,41.65,0,0,0,2.25,6.71c.34.92.84,2.34,1.49,2.47,3.2.66,3.63,3.13,4.3,5.62a11.43,11.43,0,0,0,1.74,2.69Zm142.61,10.2c-6.28,2.54-12.69,5-19,7.79-1.23.54-2,2.21-2.93,3.35l1,1c4.52-1.46,9.07-2.83,13.56-4.39C243.27,226.81,247.16,225,246.46,220.5ZM102.67,349.36c9.2-.06,9.07-10.47,16.86-13.44l-5.36-2.39C112.19,340.42,102.47,341.07,102.67,349.36Zm33.45-83.1,16.7-24.4L152,241a39,39,0,0,0-2.91,2.84c-2.32,2.71-4.28,5.79-6.9,8.15C138.07,255.7,134.85,259.5,136.12,266.26Zm17.32-115.95,1.37-1c-2.54-6.41-5-12.85-7.71-19.19-.47-1.1-2-1.76-3-2.62l-1.84,1.58Zm172,102.94c-5.38-6.24-12.33-5.48-19.45-5C311.13,255.75,318.85,252.3,325.42,253.25ZM308.17,166c-3.11-1.49-12.07,3.61-15.5,8.95C299.56,175,306,174.16,308.17,166Zm-115,5.94-1-1.58a22.77,22.77,0,0,0-3.63,1.91c-1.05.82-1.65,2.26-2.75,3-3.48,2.21-2.61,5.15-1.42,8,.14.33,2.75.33,3.05-.19C189.53,179.43,191.31,175.64,193.19,171.91Zm-32.4,158.6h12.63c.41-2.91,1.08-4.77.76-6.45-.19-1-2.63-2.55-2.9-2.34C167.9,324.28,164.74,327.12,160.79,330.51Zm54.48-65c-1.7,6.19,4.74,6.82,6.68,11.45l4.73-7.92ZM181.8,123.6c-9.38,5.25-3.68,13.29-4.86,20l2,.38Q180.38,133.83,181.8,123.6Zm57.29,135.11,19,1.76c-4.74-8.17-11.18-4.31-16.71-4.42C240.73,256,240,257.58,239.09,258.71Zm47.68-37,.72.8,13.18-7.26-6.21-4.86Zm-49.32,15.57-.48-1.64-21.25,4.44.27,1.25C223.29,240.67,231.11,242.33,237.45,237.29ZM159.23,81.48c-.47,1.82-1.08,3.63-1.37,5.48s-.27,3.83-.41,5.75c-.2,2.54-.43,5.09-.68,8.17C162,97.36,163,90.32,159.23,81.48ZM217.31,260l12.7,3.86c.29-4.73-3-6.23-6.5-6.93C220.93,256.39,217.5,255.46,217.31,260ZM157.2,112.75l-1.85,9.2c-.12.57-.48,1.2-.34,1.69,1,3.43,2.07,6.83,3.34,11,.52-7.65,1-14.93,1.53-22.67Zm155.13,42.7c-1.66-1.21-2.84-2.52-4.28-3a4.11,4.11,0,0,0-3.36,1.07,27.47,27.47,0,0,0-3.76,5,6.63,6.63,0,0,0-.46,2.38c.72.08,1.55.42,2.14.18,2.51-1.06,5-2.25,7.41-3.5A14.12,14.12,0,0,0,312.33,155.45Zm-60.18-43.54-1.06-.85c-2.92,3.3-5.45,7.12-8.9,9.73-2.73,2.07-3.23,4.1-3.06,8C244.45,123.06,249.14,118.1,252.15,111.91ZM239.46,298.35l8.29,1.43c3-2.68,3-5-.45-8.21-1.22,1.13-2.42,2.28-3.67,3.37S241.22,296.92,239.46,298.35Zm-52-81.29c-5.73,2.21-6.74,7.91-10.57,12.29C183.22,227.62,188,222,187.48,217.06Zm72,110.6-5.5-6.17,1.33,1.35-8,5.63.44,1.12ZM100.94,298.33l-1.58-.42-3.58,6.27c.54,2.9,1.11,6,1.69,9.07l.92,0ZM235,104.21l1.86.42c.91-3.6,1.76-7.22,2.76-10.79s-.62-3.61-3.27-2.8C235.88,95.55,235.44,99.88,235,104.21ZM213.53,318.76c3.09,1.95,4.48,5.93,7.62,2.66,1.13-1.19,5-3,1.48-5.22Zm-43.25-92.35-8.58,13.64C168,237.68,170.69,232.89,170.28,226.41ZM182.92,354c4.34,3.72,6.91-.7,10.18-2l-4.48-2.42Zm86-172c1.35,3.77-3.32,6.82,1.31,8.84.55.24,2.92-3.72,4.67-6Zm-41.62-18.3-.75-.74-7.2,8.4,7.54-2.51C227.08,166.91,227.21,165.29,227.34,163.68ZM153.87,337.55l-3.72-1.76-9.91,8.5.46.8ZM233,330.44c-2-2.22-3.67-4.06-5.4-6l-3,2.06c.95,1.7,1.86,3.35,2.79,5ZM171.2,145.9c.19-4.33.38-8.66.57-13.13C168.11,134.1,167.74,138.46,171.2,145.9Zm16.72,162.44.8-1.66c-1.79-6.1-8.65-1-9.93-3.48Zm14.13-2.65-.82,1.59,12.37,3.53.52-2.09ZM177.3,181.76c-3.63.73-5.48,7.28-3.73,12.15Zm-35.06,56-1.23-.59c-1.79,3-6.4,4.69-3.21,10.1Zm72.4,89.3-4.72-3.43-1.52.9,3.1,7.69C213,329.86,213.73,328.57,214.64,327.07ZM290.2,122l3.44-6.5-1-.74q-3.56,3.63-7.13,7.25l.78.8ZM88,191l-5-3.72-1.13.76c1.54,2.75,3.09,5.51,4.84,8.61C87.19,194.6,87.57,193,88,191Zm165.72,39.72-7.9,7.22.82.95,4.52-.73ZM150.86,89.13c-.21,2.45.15,4.79-.68,6.58-1.25,2.69-1.1,4.14,1.92,5C153.18,89.8,153.18,89.8,150.86,89.13Zm13.27,49.67-.87.22c-.32,3.73-.64,7.46-1,11.9l2.71,1.66C164.65,147.62,164.39,143.21,164.13,138.8Zm20.53,151-10,2.13C177.47,294.59,183.37,293.4,184.66,289.75Zm70.15-12.2-.23-1.52-7.25-2.19c1.18,2.7,1.68,5.35,2.56,5.49C251.4,279.56,253.16,278.22,254.81,277.55Z" transform="translate(-18.65 -5.55)"/></g></svg>