<svg xmlns="http://www.w3.org/2000/svg" xmlns:xlink="http://www.w3.org/1999/xlink" viewBox="0 0 298.01 394.38"><defs><style>.cls-1{fill:url(#radial-gradient);}.cls-2{fill:#42210b;}.cls-3,.cls-4,.cls-5{stroke:#000;stroke-miterlimit:10;stroke-width:0.5px;}.cls-3{fill:url(#linear-gradient);}.cls-4{fill:url(#linear-gradient-2);}.cls-5{fill:url(#linear-gradient-3);}</style><radialGradient id="radial-gradient" cx="194.96" cy="160.61" r="149.34" gradientTransform="translate(-25.63 10.01) scale(1.15 1.18)" gradientUnits="userSpaceOnUse"><stop offset="0" stop-color="#f60"/><stop offset="0" stop-color="#f45e00"/><stop offset="0" stop-color="#d84800"/><stop offset="0" stop-color="#aa2501"/><stop offset="0" stop-color="#7e0301"/><stop offset="0.15" stop-color="#850c04"/><stop offset="0.41" stop-color="#98260b"/><stop offset="0.48" stop-color="#9e2e0d"/><stop offset="0.99" stop-color="#bf6f00"/></radialGradient><linearGradient id="linear-gradient" x1="193.38" y1="154.18" x2="179.26" y2="160.17" gradientUnits="userSpaceOnUse"><stop offset="0.01" stop-color="#f60" stop-opacity="0"/><stop offset="0.09" stop-color="#fc6f09" stop-opacity="0.02"/><stop offset="0.19" stop-color="#f5841f" stop-opacity="0.08"/><stop offset="0.22" stop-color="#f5841c" stop-opacity="0.12"/><stop offset="0.26" stop-color="#f58614" stop-opacity="0.24"/><stop offset="0.32" stop-color="#f68808" stop-opacity="0.43"/><stop offset="0.36" stop-color="#f68900" stop-opacity="0.56"/><stop offset="0.4" stop-color="#f49000" stop-opacity="0.62"/><stop offset="0.48" stop-color="#efa300" stop-opacity="0.78"/><stop offset="0.57" stop-color="#e9bd00"/></linearGradient><linearGradient id="linear-gradient-2" x1="266.76" y1="198.81" x2="253.34" y2="192.26" gradientUnits="userSpaceOnUse"><stop offset="0.01" stop-color="#ed7520" stop-opacity="0"/><stop offset="0.12" stop-color="#ed7620" stop-opacity="0.01"/><stop offset="0.22" stop-color="#ee7a20" stop-opacity="0.06"/><stop offset="0.31" stop-color="#ef801f" stop-opacity="0.13"/><stop offset="0.4" stop-color="#f0881f" stop-opacity="0.23"/><stop offset="0.48" stop-color="#f2931f" stop-opacity="0.36"/><stop offset="0.54" stop-color="#f49d1e" stop-opacity="0.48"/><stop offset="0.91" stop-color="#e9bd00"/></linearGradient><linearGradient id="linear-gradient-3" x1="142.42" y1="243.61" x2="156.18" y2="218.8" gradientUnits="userSpaceOnUse"><stop offset="0.01" stop-color="#f60" stop-opacity="0"/><stop offset="0.1" stop-color="#fa6502" stop-opacity="0.02"/><stop offset="0.17" stop-color="#ea6408" stop-opacity="0.08"/><stop offset="0.25" stop-color="#cf6112" stop-opacity="0.17"/><stop offset="0.28" stop-color="#c15f17" stop-opacity="0.22"/><stop offset="0.3" stop-color="#c86e13" stop-opacity="0.35"/><stop offset="0.33" stop-color="#cf810f" stop-opacity="0.5"/><stop offset="0.36" stop-color="#d6910b" stop-opacity="0.64"/><stop offset="0.39" stop-color="#dc9f07" stop-opacity="0.75"/><stop offset="0.43" stop-color="#e1aa05" stop-opacity="0.84"/><stop offset="0.48" stop-color="#e5b303" stop-opacity="0.91"/><stop offset="0.53" stop-color="#e7b901" stop-opacity="0.96"/><stop offset="0.61" stop-color="#e9bc00" stop-opacity="0.99"/><stop offset="0.8" stop-color="#e9bd00"/></linearGradient></defs><title>mapleleaf</title><g id="Maple_leaf" data-name="Maple leaf"><g id="Maple_leaf-2" data-name="Maple leaf"><path class="cls-1" d="M215.18,396.48a2.81,2.81,0,0,1-2.47-1.64,3,3,0,0,1,0-1.54,6.64,6.64,0,0,1,1.14-2.49l.26-.39c.15-.25.59-1.69,1.32-4.07a44.2,44.2,0,0,1,1.4-4.32c.24-.49.46-.84.64-1.14a4.62,4.62,0,0,0,.71-1.61,2.86,2.86,0,0,0,0-1.31,4.05,4.05,0,0,1,0-1.48,6.43,6.43,0,0,1,.68-2,5.38,5.38,0,0,0,.69-2.22,3.61,3.61,0,0,0,0-.67,5.05,5.05,0,0,1,0-.72,9.6,9.6,0,0,1,1.33-4.19l.07-.12c.51-.93.57-1.51.84-4,.11-1.06.26-2.46.5-4.37.43-3.5.72-5.09.92-6.26a25.1,25.1,0,0,0,.44-3.54,29.59,29.59,0,0,0,0-4.24,29.89,29.89,0,0,1,0-4.16,36.18,36.18,0,0,1,.68-5.58,34.15,34.15,0,0,0,.68-5.64c0-.22,0-.24,0-1.64,0-1.12,0-6.87,0-6.87v-6.9c.06-1.55.14-2.71.21-3.66a12.6,12.6,0,0,0-.2-4.68,10.69,10.69,0,0,0-.56-1.69,13.94,13.94,0,0,1-.8-2.52c-.14-.57-.24-1.07-.32-1.5a5,5,0,0,0-1-2.6,4.36,4.36,0,0,0-2.58-1.32,3.73,3.73,0,0,0-.6-.05c-.89,0-2.39.32-6,2.82a26.27,26.27,0,0,0-2.53,1.91c-.64.54-1.36,1.15-2.92,2.29-1.16.84-2,1.41-2.68,1.86a10.74,10.74,0,0,0-2.74,2.3,7.8,7.8,0,0,0-1.18,1.82,11.09,11.09,0,0,1-1.55,2.38,13.73,13.73,0,0,1-1.29,1.38c-.53.53-1.37,1.36-2.82,2.84l-5.46,5.61a40.69,40.69,0,0,1-17.86,9.88c-3.64.94-6.55,1.1-12.33,1.41-1,.05-2.17.08-3.72.08-1.79,0-4.06,0-7.17-.08-7.31-.11-9.67-.3-12.43-1.42-2.29-.94-4.89-2-5.6-4.37-.39-1.27,0-2.13,1.22-5,.41-.94.91-2.11,1.52-3.58.82-2,1.16-2.95,1.45-3.77s.56-1.58,1.28-3.25c1.94-4.51,2.91-6.78,4.12-8.45a13.6,13.6,0,0,1,3.22-3.14c1.27-1,3.18-2.54,6.37-5.32,3.88-3.37,4.68-4.25,5.41-5.54a34.23,34.23,0,0,0,2.67-6.84l0-.06c-.54-4.16-1.87-6.91-4-8.18a7.36,7.36,0,0,0-3.15-.82c-.87-.12-2-.28-3.58-.55-2.53-.43-3.6-.72-4.38-.92a14.89,14.89,0,0,0-2.44-.48,22.69,22.69,0,0,0-2.73-.18,25.89,25.89,0,0,0-2.66.17,24.71,24.71,0,0,1-2.8.18,24.33,24.33,0,0,1-2.72-.17,14,14,0,0,1-2.53-.47c-.8-.2-1.89-.48-4.32-.93-1.69-.32-2.48-.42-4.57-.71-1.14-.15-2.68-.36-5-.69l-5.72-.83a31,31,0,0,0-5.17-.57H102c-1,0-1.73,0-2.41.07s-1.12.05-1.73.05-1.46,0-2.32-.12a38.88,38.88,0,0,1-6.29-1.27l-.57-.14c-4.23-1.06-6.65-1.63-8.12-2a10.67,10.67,0,0,1-2.85-.84c-2.1-1.07-4.15-3.07-8.24-7-5.44-5.28-5.71-6.51-5.54-7.25.63-2.74,6.38-3.93,9.76-4.39,1.23-.17,2.28-.22,3.13-.26,1.73-.09,2.78-.14,3.54-1.06a4.54,4.54,0,0,0,0-5.28c-.68-.82-1.54-.88-2.68-.88H77a10.29,10.29,0,0,1-3.35-.45c-2.3-.74-3.35-2.13-5.27-4.65-.78-1-1.76-2.32-3-3.84a32.61,32.61,0,0,0-4.6-4.66,20.46,20.46,0,0,1-3.6-3.75,33.94,33.94,0,0,1-6.87-14.12c-.58-2.91-1-5,0-7.17,1.21-2.56,3.52-3.42,8.13-5.14l1.57-.59a84,84,0,0,0,10.09-4.36,9.93,9.93,0,0,1,3.6-1.26,25.28,25.28,0,0,1,4.61-.43,38.38,38.38,0,0,1,3.88.24,27.45,27.45,0,0,0,2.77.19,9.52,9.52,0,0,0,5-1.37,11.86,11.86,0,0,0,5.36-5.49,9.37,9.37,0,0,0,.58-2.27,21.89,21.89,0,0,1,.77-3.32c1-3,1.49-4.7,2.82-5.72a3.71,3.71,0,0,1,2.45-.77c1.75,0,4.3.71,8.7,2.13,3.65,1.17,5.94,2,8.15,2.76,1.3.46,2.59.92,4.14,1.44,3.75,1.27,5.91,1.89,7.49,2.35a18.45,18.45,0,0,1,4.83,1.88c3.25,1.78,5.77,3.87,9.6,7,1.12.92,1.94,1.64,2.67,2.28a46.54,46.54,0,0,0,4.14,3.32c2,1.43,3.62,2.35,6.8,4.19,6.45,3.71,8.1,4.08,9.45,4.17.39,0,.87.06,1.39.06,1.92,0,3.18-.45,3.85-1.36,1.16-1.58.23-4.13-1.39-8.17a32.36,32.36,0,0,0-5.42-9.74c-2.06-2.45-5.19-4.55-10.87-8.37-2.12-1.42-3.29-2.16-5.4-3.5-1.31-.82-3-1.89-5.52-3.5-4.11-2.63-6.13-4-7.43-4.81s-2-1.3-3.48-2.19c-3.44-2.05-5.38-3-6.94-3.83a35.4,35.4,0,0,1-5.36-3.19,66.45,66.45,0,0,1-9.59-8.45,94.72,94.72,0,0,1-6.85-8.43c-3.5-4.61-5.26-6.92-6.84-9.84A65.09,65.09,0,0,1,94,113.1c-1.88-5.17-2.82-7.77-2.75-9.9a10.75,10.75,0,0,1,1.24-4.69,14.76,14.76,0,0,0,1.49-5.14A16.08,16.08,0,0,0,93.67,88c-.24-1.23-.42-2.13.31-3.14,1.16-1.61,3.79-2.43,7.82-2.43a51.3,51.3,0,0,1,8.81.93l1.09.21a14,14,0,0,0,2.56.37,2.25,2.25,0,0,0,1.6-.52c.84-.75,1.06-2.22-.08-8.18-.77-4-1.46-6.39-2-8.17-.69-2.44-1-3.66-.78-5.92.18-1.53,1-3.85,2.74-8.46,1-2.64,2.48-6.37,2.71-7-.2-.78-1.17-4.95.12-5.8a.74.74,0,0,1,.39-.12c.46,0,1.34.41,5.23,2.85A12.73,12.73,0,0,0,128.12,40,4.1,4.1,0,0,0,129,36.9a13.17,13.17,0,0,1,.48-3.85,8,8,0,0,1,1.66-3.13A22.12,22.12,0,0,0,133.54,26c.54-1.05,1.27-3,2.72-7,1.67-4.53,2.59-7,2.72-8.36a14.82,14.82,0,0,0-.24-4.49c-.2-1.12-.34-1.92.3-2.66a3.3,3.3,0,0,1,2.59-.92c3.06,0,7.53,2.08,9.31,3l.73.35c1.28.61,1.36.65,7.5,5.28A54.87,54.87,0,0,1,166,16.83a20.34,20.34,0,0,1,2.72,3.65c.82,1.26,2.06,3.16,4.13,6.2l.88,1.29c1.77,2.58,3.43,5,4.59,7.14S181,40.46,181,40.48l0,.06a13.64,13.64,0,0,0,4.49-2,15.93,15.93,0,0,0,4-4.14,16.11,16.11,0,0,0,1.67-2.92c.37-.78.59-1.25,1.21-1.38a1.54,1.54,0,0,1,.3,0c2,0,4.35,4.16,6.8,8.57a38.12,38.12,0,0,1,2.74,5.64,25.62,25.62,0,0,1,1.33,4.88,23.19,23.19,0,0,0,1.4,4.93,34.47,34.47,0,0,0,2.71,5.56c.39.64.76,1.17,1.08,1.66,1,1.5,1.68,2.48,1.69,4.08,0,.29,0,.56,0,.83a7.16,7.16,0,0,0,0,1.94c.09.63.35,2.3,1.2,2.6a.27.27,0,0,0,.14,0H212a3.89,3.89,0,0,1,.6,0h.4l.74.07.33,0c.08,0,.09,0,.11,0s0-.21,0-.53-.05-.4-.06-.68a8.83,8.83,0,0,1,0-1.44,5,5,0,0,1,1.43-3c.33-.34.8-.71,2.82-1.46a22.28,22.28,0,0,1,2.69-.85,3.78,3.78,0,0,0,1.36-.53,3.59,3.59,0,0,0,1.33-1.4,3.24,3.24,0,0,1,1.41-1.41,5.13,5.13,0,0,1,2.09-.6,3.09,3.09,0,0,0,2-.77c.37-.34,1.19-1.21,1.35-1.38.54-1,1-1.5,1.48-1.5h.11c1.08.18,1.41,3,1.58,7.25,0,.44,0,.59,0,1.53v2.68c0,1.25,0,12.62,0,12.62,0,.62,0,1.25,0,1.87,0,1.22,0,2.49,0,3.73s.09,2.25.13,2.93a7.07,7.07,0,0,1-.14,2.75,11.75,11.75,0,0,1-.62,1.66,7.74,7.74,0,0,0-.74,2.51,7,7,0,0,0,0,1.56c0,.34,0,.7,0,1.22a10.31,10.31,0,0,1-.76,3.64,17.48,17.48,0,0,0-.61,2,7.68,7.68,0,0,0-.12,3.23,18.69,18.69,0,0,1,.12,3.74,31.41,31.41,0,0,1-1.37,7,36.13,36.13,0,0,1-1.44,4.41,27,27,0,0,0-1.29,4,28.52,28.52,0,0,0-.66,3.55,18.64,18.64,0,0,1-.71,3.47c-.3,1-1.11,3-2.73,7-2.22,5.47-2.4,5.91-2.73,7a31.83,31.83,0,0,0-1.35,7,16.83,16.83,0,0,0,.06,3.52,11.86,11.86,0,0,1-.06,3.5q-.09.6-.18,1.11c-.23,1.3-.38,2.16.14,2.92a4,4,0,0,0,2.58,1.3,8.19,8.19,0,0,0,1.9.21,10.64,10.64,0,0,0,2.08-.21c1.46-.3,3.88-.79,5.31-2.71a3.21,3.21,0,0,0,.69-1.87,6.2,6.2,0,0,1,.66-2.3,6.94,6.94,0,0,1,2.41-2.73,15.83,15.83,0,0,0,3.08-2.92,26.43,26.43,0,0,0,2.7-4.16,26.86,26.86,0,0,0,1.34-2.78,26.1,26.1,0,0,1,1.39-2.84,15.7,15.7,0,0,1,1.75-2.59,5,5,0,0,0,1-1.59,8.22,8.22,0,0,0,.66-3.42,8.8,8.8,0,0,1,.7-3.59c.17-.39,1-1.59,2.75-4.23l1.48-2.19a12.64,12.64,0,0,0,1.24-2,23.12,23.12,0,0,0,1.34-5.55c.32-1.77.49-3,.61-3.82a10.55,10.55,0,0,1,.78-3.24,18.85,18.85,0,0,1,2.76-4.26,16.17,16.17,0,0,1,4.15-4.26,6.92,6.92,0,0,1,3.72-1.48,3.48,3.48,0,0,1,.55,0,4.83,4.83,0,0,1,2.88,1.48,3.48,3.48,0,0,1,.71,1.27c.16.36.36.86.7,1.6.41.89.61,1.27.78,1.58s.31.58.59,1.22.46,1.15.6,1.52c.28.75.37,1,.67,1.18a1.77,1.77,0,0,0,1,.28,4.67,4.67,0,0,0,1.49-.31,6.47,6.47,0,0,0,3.24-2.91,21.08,21.08,0,0,1,2.12-2.64c1.62-1.64,3.38-2.51,6.9-4.25a25,25,0,0,1,3.41-1.43,30.37,30.37,0,0,0,3.42-1.38,37.64,37.64,0,0,0,4.34-2.33A17,17,0,0,1,303,94.56a28.89,28.89,0,0,1,6.89-1.41,6.2,6.2,0,0,1,.79,0h.83l5.22,0h8.19l1.36,0c1.2-.05,2-.12,2.58-.16.39,0,.67-.06.88-.06a1,1,0,0,1,.81.28c.69.66.37,1.7-.11,3.27a27,27,0,0,0-1.17,5.35,9.7,9.7,0,0,0,0,1.41c0,.92,0,2.55,0,5.57,0,2.08,0,2.94,0,3.57s0,1,0,2c0,2.22,0,3.57,0,4.47a21.61,21.61,0,0,1,0,2.56,34.31,34.31,0,0,1-1.38,7.06,40,40,0,0,1-2.74,7.05c-1.19,2.34-1.78,3.51-2.81,4.29l-.19.14a3.12,3.12,0,0,0-1.1,1.17,2.87,2.87,0,0,0,0,2.57,3.49,3.49,0,0,0,2.57,1.28,6.35,6.35,0,0,0,1.23.14,7.3,7.3,0,0,0,.94-.07,12,12,0,0,1,1.37-.08h.51a16.83,16.83,0,0,1,5.54,1.41c1.54.58,2.39.9,2.84,1.49,1.15,1.5.61,3.6,0,5.82a12.35,12.35,0,0,1-2.78,5.71,6.7,6.7,0,0,1-1.84,1.4c-.52.3-1.23.72-2.3,1.44-.61.41-2.23,1.68-5.45,4.2-4.09,3.19-4.5,3.52-5.47,4.21-1.39,1-2.07,1.42-2.57,1.73a12.47,12.47,0,0,0-1.51,1.06,17.92,17.92,0,0,0-2.81,2.8,25.85,25.85,0,0,1-2.64,2.8,10.59,10.59,0,0,1-1.25,1c-.59.44-1.71,1.25-4.23,3.21-1,.76-1.71,1.34-2.3,1.81-1.23,1-1.9,1.49-3.16,2.4s-1.79,1.24-2.29,1.57-.92.59-1.81,1.23a39.59,39.59,0,0,0-3.39,2.74c-.82.73-1.75,1.55-3.42,2.86-1.45,1.14-2.29,1.74-3,2.22a19.49,19.49,0,0,0-2.48,2c-.22.19-.26.24-.93.93l-3.15,3.26-4.1,4.21-1.5,1.44a6.8,6.8,0,0,0-1.2,1.32c-.69,1-2.11,3.17-1.34,5.39a4,4,0,0,0,2.55,2.64,2.27,2.27,0,0,0,.5.06,3.69,3.69,0,0,0,1.58-.49,9.51,9.51,0,0,1,3.3-1,6.13,6.13,0,0,1,.78-.05,3.81,3.81,0,0,1,.77.07,3.75,3.75,0,0,0,.5,0,3.62,3.62,0,0,0,.66-.06,7.21,7.21,0,0,0,2.78-1.26c.64-.39,1.45-.88,2.61-1.52a30.15,30.15,0,0,1,2.75-1.41,18.51,18.51,0,0,1,2.57-.92c.46-.13.93-.27,1.54-.49a26.91,26.91,0,0,0,5.41-2.78,19.49,19.49,0,0,0,2.62-1.83,6.26,6.26,0,0,1,1.49-1c2.29-1.14,4.42-1.24,8.29-1.43.76,0,1.28-.05,1.85-.05l1.4,0,3.59,0h1.05c2.59,0,4,0,4.85-.06l1,0a10.65,10.65,0,0,1,1.31.08c2.83.3,5.09,1.14,9.6,2.81a32.7,32.7,0,0,1,5.71,2.6,14.29,14.29,0,0,0,3.84,1.61l.4.11c1.14.32,2,.56,2.48,1.4.29.49,1,1.64-2.73,8.65a34,34,0,0,1-2.6,4.35,11.7,11.7,0,0,0-1.48,2.65l-.28.63a7.45,7.45,0,0,1-2.54,3.68,4.84,4.84,0,0,1-1.25.61,4.93,4.93,0,0,0-1.47.78,5.88,5.88,0,0,0-1.3,1.34,5.88,5.88,0,0,1-1.44,1.47,4,4,0,0,1-.76.42l-2,1-5.46,2.8c-3.56,1.85-8,4.14-9.43,8.27-.64,1.86-.66,3.19,0,4,.35.44.75.52,1.49.65a11.52,11.52,0,0,1,2.5.68,9.29,9.29,0,0,1,4.2,2.88,5,5,0,0,1,1.42,3c0,3-4.94,5.13-9.7,7.23-1.16.51-1.91.79-2.71,1.1-1,.38-2.1.79-4.12,1.7a38.58,38.58,0,0,0-5.43,2.79,22.72,22.72,0,0,0-2.09,1.52,8.8,8.8,0,0,1-2,1.3,9.82,9.82,0,0,1-2.5.75c-.68.14-1.62.34-3,.67-1.09.26-2.55.64-5.46,1.4-2,.52-3.16.84-3.87,1a9.71,9.71,0,0,1-1.62.38,12.75,12.75,0,0,1-3.49,0,11.86,11.86,0,0,0-1.66-.12,12.85,12.85,0,0,0-1.67.12,9.71,9.71,0,0,0-2.63.66,11,11,0,0,1-2.83.74,17.77,17.77,0,0,1-2.39.14c-1.13,0-2.54-.06-4.48-.14-1,0-1.82-.09-2.43-.12s-1.14-.07-1.53-.07a5.44,5.44,0,0,0-1.43.18,9,9,0,0,0-1.78.66,8.36,8.36,0,0,1-2.33.75,6.28,6.28,0,0,1-1.1.08c-.47,0-1.2,0-2.49-.06l-.56,0c-2.21-.07-3.42-.1-4.14-.1a4.93,4.93,0,0,0-1.26.1,6.21,6.21,0,0,0-2,.74,4.66,4.66,0,0,1-2.11.66,5.76,5.76,0,0,1-.69,0,10.56,10.56,0,0,1-1.25-.1,6.26,6.26,0,0,0-1-.09,4.7,4.7,0,0,0-1.14.15,4.86,4.86,0,0,0-2.61,1.32,3.84,3.84,0,0,0-.82,2.08c-.12.52-.26,1.17-.48,2s-.61,2-1.36,4.19c-.41,1.2-.68,1.94-.87,2.46a7.49,7.49,0,0,0-.5,1.74,8.06,8.06,0,0,0,0,1.79c0,.52,0,1.26.06,2.37v25.7c0,1.25,0,2.49,0,3.74,0,2.18,0,3.52,0,4.42a16.65,16.65,0,0,1-.06,2.61,14.7,14.7,0,0,1-.86,3.88,7.36,7.36,0,0,0-.5,3.1,19,19,0,0,0,.2,2.16,6.29,6.29,0,0,1-.22,3.54,5.89,5.89,0,0,1-.69,1.31,3.76,3.76,0,0,0-.66,1.46,6.17,6.17,0,0,0-.08,2c0,.52.06,1.21.08,2.18a24.16,24.16,0,0,1,0,2.84,6.83,6.83,0,0,1-.71,2.19,6.38,6.38,0,0,0-.65,2,3.71,3.71,0,0,0,0,1.3,5,5,0,0,1,0,1.49,7,7,0,0,1-.73,2.41,8.8,8.8,0,0,0-.64,1.82,4.22,4.22,0,0,0-.06,1.85,9.18,9.18,0,0,1,.06,2.32,35.53,35.53,0,0,1-1.36,5.64,36.36,36.36,0,0,1-1.38,4.25,14.25,14.25,0,0,1-.71,1.48c-.17.32-.36.69-.66,1.33-.71,1.52-1.11,2.67-1.41,3.5-.46,1.33-.7,2-1.47,2.24A1.79,1.79,0,0,1,215.18,396.48Z" transform="translate(-49.4 -2.35)"/><path class="cls-2" d="M141.63,2.85c3.33,0,8.36,2.52,9.2,2.94,2.13,1.07,1.09.26,8.19,5.61a56.3,56.3,0,0,1,6.83,5.6c1.71,1.8,1.48,2,6.82,9.82,2.07,3,4.12,6,5.46,8.41,1.09,2,2.59,5.28,2.62,5.35l0,0,.09.22a13.9,13.9,0,0,0,4.78-2.1,16.36,16.36,0,0,0,4.09-4.2c2-2.8,1.78-4,2.73-4.21l.25,0c1.89,0,4.29,4.32,6.58,8.44A38.69,38.69,0,0,1,202,44.34c1.65,4.39,1,5.54,2.73,9.81a33.68,33.68,0,0,0,2.73,5.61c1.57,2.54,2.72,3.58,2.73,5.6a13,13,0,0,0,0,2.81c.11.7.38,2.45,1.36,2.8a.7.7,0,0,0,.23,0c.15,0,.32-.05.76-.05h.38c.55,0,.87.1,1.08.1a.36.36,0,0,0,.28-.1c.2-.21.07-.53,0-1.4a11.54,11.54,0,0,1,0-1.4,4.9,4.9,0,0,1,1.37-2.81A6.94,6.94,0,0,1,218.4,64c2.85-1.06,3-.74,4.09-1.4,1.71-1.09,1.15-1.94,2.73-2.8s2.76-.19,4.1-1.41c.42-.37,1.36-1.4,1.36-1.4.63-1.14,1-1.4,1.3-1.4h.07c1.1.18,1.29,5,1.36,7,0,.69,0,.66,0,4.2V79.38c0,1.87,0,3.74,0,5.61.12,3.9.38,4.22,0,5.6-.45,1.67-1.11,2.22-1.36,4.21a21.8,21.8,0,0,0,0,2.8c-.06,2.51-.85,3.39-1.37,5.61-.64,2.8.24,3.09,0,7a31.85,31.85,0,0,1-1.36,7c-1.17,4.39-1.77,4.53-2.73,8.41-.91,3.68-.44,3.79-1.37,7-.29,1-1.1,3-2.73,7-2.2,5.42-2.4,5.9-2.73,7a32.32,32.32,0,0,0-1.36,7c-.28,3.76.47,3.75,0,7-.28,1.94-.72,3.15,0,4.2a4.24,4.24,0,0,0,2.73,1.4,7.92,7.92,0,0,0,2,.22,10.26,10.26,0,0,0,2.13-.22c1.48-.3,4-.8,5.46-2.8,1.14-1.53.35-2.12,1.37-4.21,1.25-2.56,2.74-2.27,5.46-5.6a25.88,25.88,0,0,0,2.73-4.21c1.4-2.53,1.34-3.17,2.73-5.6,1.66-2.93,2-2.46,2.73-4.21,1.27-3,.1-4,1.37-7,.15-.37,1-1.65,2.73-4.2a38.3,38.3,0,0,0,2.73-4.21,24,24,0,0,0,1.36-5.6c.84-4.71.6-5.23,1.37-7a18.52,18.52,0,0,1,2.73-4.21,15.9,15.9,0,0,1,4.09-4.2,6.54,6.54,0,0,1,3.58-1.44,3.2,3.2,0,0,1,.52,0,4.6,4.6,0,0,1,2.73,1.4c.48.53.42.75,1.36,2.8.82,1.78.82,1.53,1.37,2.8.82,1.92.78,2.41,1.36,2.81a2,2,0,0,0,1.16.32,5.05,5.05,0,0,0,1.57-.32c2.65-.94,3-3.1,5.46-5.61,1.58-1.61,3.33-2.48,6.83-4.2,3.18-1.58,3.32-1.19,6.82-2.81,4.71-2.18,4.76-3,8.19-4.2a28.35,28.35,0,0,1,6.83-1.4,5.87,5.87,0,0,1,.77,0c.64,0,2,0,6.05,0h5.46l2.73,0,1.37,0c2-.07,2.93-.22,3.45-.22a.79.79,0,0,1,.64.22c1.07,1-.83,3.36-1.36,8.41-.05.47,0,.22,0,7,0,4,0,3.48,0,5.61,0,5.62.11,5.65,0,7a34.62,34.62,0,0,1-1.37,7,40.31,40.31,0,0,1-2.73,7c-1.17,2.31-1.75,3.46-2.73,4.2a3.74,3.74,0,0,0-1.36,1.4,3.06,3.06,0,0,0,0,2.81c.55.94,1.61,1.17,2.73,1.4a6.77,6.77,0,0,0,1.28.14c.74,0,1.29-.15,2.31-.15h.5a16.56,16.56,0,0,1,5.46,1.4c1.55.58,2.34.88,2.73,1.4,1.07,1.4.55,3.47,0,5.61a12,12,0,0,1-2.73,5.6c-1,1.13-1.41,1-4.09,2.81-.61.41-2.23,1.67-5.46,4.2-4.05,3.17-4.5,3.52-5.46,4.21-2.77,2-2.69,1.67-4.1,2.8-2.69,2.16-2.65,3-5.46,5.61-1,.94-.56.4-5.46,4.2-3,2.31-3.58,2.86-5.46,4.21-2.32,1.67-2.25,1.46-4.09,2.8-3.08,2.23-3.21,2.76-6.83,5.61-3.27,2.56-3.5,2.4-5.46,4.2-.39.36-.21.21-4.09,4.21l-4.1,4.2c-2,2-2.23,2-2.73,2.8-.69,1.05-2.17,3.28-1.36,5.61a4.25,4.25,0,0,0,2.73,2.8,2.13,2.13,0,0,0,.55.07c1.31,0,2.2-1.17,4.91-1.47.3,0,.55,0,.75,0,.6,0,.82.12,1.27.12a3.71,3.71,0,0,0,.71-.08c1.62-.28,2.1-.94,5.46-2.8a28.63,28.63,0,0,1,2.73-1.4c1.82-.8,2.5-.83,4.09-1.4a27.68,27.68,0,0,0,5.46-2.81c3-1.82,2.51-2,4.1-2.8,2.19-1.09,4.22-1.21,8.19-1.4.75,0,1.27-.05,1.83-.05,1,0,2.16,0,5,.05h1.06c3.81,0,5-.08,5.85-.08a10.3,10.3,0,0,1,1.28.08c2.8.29,5.05,1.13,9.56,2.8,6.57,2.44,5.19,2.94,9.55,4.21,1.34.39,2.23.56,2.73,1.4.3.5.78,1.76-2.73,8.41-2.68,5.08-2.74,3.93-4.09,7-.75,1.7-1.22,3.17-2.73,4.2-1.05.72-1.5.48-2.73,1.4-1.44,1.08-1.28,1.74-2.73,2.81a29.12,29.12,0,0,1-2.73,1.4l-2.73,1.4-2.73,1.4c-3.53,1.82-8.09,4.18-9.56,8.41-.23.67-1,2.92,0,4.21.74.93,1.71.46,4.1,1.4a9.07,9.07,0,0,1,4.09,2.8,4.82,4.82,0,0,1,1.37,2.8c0,2.81-4.94,5-9.56,7-2.61,1.15-3.22,1.17-6.82,2.81a37.81,37.81,0,0,0-5.46,2.8c-2.35,1.51-2.39,2-4.1,2.8-1.26.6-1.54.47-5.46,1.4-1.09.26-2.55.65-5.46,1.41-4.88,1.27-4.69,1.3-5.46,1.4a13.22,13.22,0,0,1-1.73.12c-1.32,0-2.08-.24-3.39-.24a12.81,12.81,0,0,0-1.7.12c-2.76.36-2.58,1-5.46,1.4a16.27,16.27,0,0,1-2.36.14c-1.13,0-2.53-.06-4.47-.14-2.17-.09-3.21-.19-4-.19a5.49,5.49,0,0,0-1.49.19c-1.81.46-2.13,1.07-4.09,1.4a5.13,5.13,0,0,1-1.06.08c-.54,0-1.4,0-3-.08-2.22-.07-3.43-.1-4.15-.1a5.87,5.87,0,0,0-1.31.1c-2.25.47-2.11,1.22-4.09,1.4a5.56,5.56,0,0,1-.67,0c-.91,0-1.48-.19-2.23-.19a6.17,6.17,0,0,0-3.93,1.55c-.8.88-.66,1.56-1.37,4.21-.23.87-.6,2-1.36,4.2-1.07,3.14-1.21,3.21-1.37,4.21a27.94,27.94,0,0,0,0,4.2v23.83c0,1.87,0,3.74,0,5.61,0,5.62.15,5.63,0,7-.44,4.14-1.43,3.94-1.36,7,.06,2.5.75,3.62,0,5.6-.51,1.34-1,1.39-1.37,2.81-.22.95-.07,1.31,0,4.2a23.32,23.32,0,0,1,0,2.8c-.3,2-1.07,2.26-1.36,4.21-.21,1.39.18,1.33,0,2.8-.24,2-1,2.37-1.37,4.21s.19,1.78,0,4.2a36.25,36.25,0,0,1-1.36,5.61,33.57,33.57,0,0,1-1.37,4.2c-.54,1.31-.68,1.34-1.36,2.81-1.78,3.81-1.63,5.25-2.73,5.6a1.62,1.62,0,0,1-.49.08,2.58,2.58,0,0,1-2.24-1.48,2.51,2.51,0,0,1,0-1.4,7.69,7.69,0,0,1,1.36-2.8,40.46,40.46,0,0,0,1.37-4.21c.76-2.51,1.15-3.77,1.36-4.2.68-1.33,1.12-1.65,1.37-2.81.29-1.34-.22-1.39,0-2.8.28-1.81,1.18-2.17,1.36-4.2.07-.7,0-.67,0-1.41a9.49,9.49,0,0,1,1.37-4.2c.77-1.39.57-2.07,1.36-8.41.88-7,1.15-6.42,1.37-9.81.28-4.3-.23-4.08,0-8.41.29-5.49,1.09-5.66,1.36-11.22,0-.39,0-.15,0-8.41v-7c.18-4.9.63-5.92,0-8.41-.43-1.76-.79-1.81-1.36-4.21-.52-2.17-.48-3.2-1.37-4.2a4.6,4.6,0,0,0-2.73-1.41,4,4,0,0,0-.63-.05c-1.1,0-2.74.51-6.19,2.86-2.56,1.74-2.25,1.87-5.46,4.2-3.41,2.49-4.13,2.61-5.46,4.21s-1,2-2.73,4.2c-.66.83-.67.72-4.1,4.21l-2.73,2.8c-2.61,2.69-2.69,2.77-2.73,2.8A40.77,40.77,0,0,1,172,330.28c-3.62.94-6.51,1.09-12.29,1.4-1,.05-2.22.08-3.7.08-1.8,0-4.08,0-7.22-.08-7.45-.11-9.62-.32-12.28-1.4-2.27-.93-4.78-1.95-5.46-4.21-.48-1.59.33-2.55,2.73-8.41,1.69-4.13,1.33-3.75,2.73-7,1.93-4.5,2.9-6.75,4.09-8.41,1.62-2.24,2-1.88,9.56-8.41,4-3.45,4.73-4.31,5.46-5.6a37.88,37.88,0,0,0,2.73-7c-.68-5.3-2.5-7.45-4.1-8.41-1.31-.79-2.16-.6-6.82-1.4s-4.25-1.09-6.83-1.41a23.13,23.13,0,0,0-2.76-.18c-2.07,0-3.32.35-5.46.35a24.16,24.16,0,0,1-2.7-.17c-2.41-.26-1.93-.49-6.82-1.4-2.63-.48-3-.47-9.56-1.4-8.58-1.22-8.81-1.38-10.92-1.4H102c-1.82,0-2.83.12-4.14.12-.64,0-1.36,0-2.29-.12a42.09,42.09,0,0,1-6.83-1.4c-10.22-2.56-9.91-2.29-10.92-2.81-2.07-1-4.11-3-8.19-7-5.6-5.45-5.58-6.49-5.46-7,.69-3,8.29-4,9.56-4.21,3.74-.51,5.59.09,6.82-1.4a4.8,4.8,0,0,0,0-5.61,3.3,3.3,0,0,0-2.87-1H77a10.15,10.15,0,0,1-3.27-.44c-3.17-1-3.87-3.27-8.19-8.41-4.64-5.51-4.79-4.06-8.19-8.41-5-6.38-6.36-11.66-6.83-14-.59-3-1-5,0-7,1.29-2.74,4-3.5,9.56-5.61,11.83-4.48,9.85-4.91,13.65-5.6a24.91,24.91,0,0,1,4.57-.43c2.68,0,4.69.43,6.64.43a9.75,9.75,0,0,0,5.17-1.41,12,12,0,0,0,5.46-5.6c.73-1.78.41-2.61,1.36-5.61s1.47-4.63,2.73-5.61a3.57,3.57,0,0,1,2.3-.71c1.69,0,4.22.7,8.62,2.12,5.76,1.85,8.08,2.77,12.29,4.2,8.85,3,9.09,2.44,12.28,4.21s5.77,3.88,9.56,7c3.11,2.57,3.93,3.55,6.82,5.61a77.8,77.8,0,0,0,6.83,4.2c6.55,3.78,8.18,4.12,9.55,4.21.4,0,.88.06,1.41.06,1.43,0,3.15-.24,4-1.46,1.28-1.74.2-4.53-1.36-8.41a32.89,32.89,0,0,0-5.46-9.81c-2-2.43-5-4.46-10.92-8.41-3.42-2.29-4.28-2.76-10.92-7-8.67-5.55-8.06-5.3-10.92-7-7.43-4.42-8-3.95-12.29-7a66.43,66.43,0,0,1-9.55-8.41,94.65,94.65,0,0,1-6.83-8.41c-3.5-4.6-5.25-6.9-6.82-9.81a65.08,65.08,0,0,1-4.1-9.81c-1.87-5.15-2.8-7.73-2.73-9.81.15-4.25,2.15-4.68,2.73-9.81s-1.32-6.58,0-8.41,4.42-2.33,7.62-2.33a51.61,51.61,0,0,1,8.76.92,23.6,23.6,0,0,0,3.7.59,2.51,2.51,0,0,0,1.76-.59c1-.86,1.13-2.53,0-8.41-1.79-9.33-3.18-10.16-2.73-14,.18-1.51,1-3.81,2.73-8.41,1.06-2.88,2.73-7,2.73-7h0s-1.23-4.79,0-5.61a.46.46,0,0,1,.25-.08c.4,0,1.39.49,5.21,2.89a13.43,13.43,0,0,0,4.1-2.81c1.6-1.91.33-3.41,1.36-7,.84-2.89,1.86-2.58,4.1-7,.54-1.07,1.27-3.05,2.73-7,1.73-4.7,2.59-7.07,2.73-8.41.43-4.29-1.1-5.76,0-7a3.08,3.08,0,0,1,2.4-.84m0-.5a3.53,3.53,0,0,0-2.78,1c-.72.82-.56,1.72-.35,2.86a14.85,14.85,0,0,1,.23,4.43c-.13,1.31-1,3.78-2.7,8.28-1.45,3.94-2.18,5.92-2.71,7a21.78,21.78,0,0,1-2.43,3.88,8.4,8.4,0,0,0-1.7,3.22,13.3,13.3,0,0,0-.49,3.91,3.83,3.83,0,0,1-.78,2.91,12.17,12.17,0,0,1-3.67,2.56c-3.88-2.43-4.73-2.82-5.25-2.82a.89.89,0,0,0-.52.16c-1.37.91-.58,4.67-.25,6-.37.72-1.06,2.49-2.68,6.85-1.71,4.64-2.57,7-2.75,8.53a13.35,13.35,0,0,0,.78,6c.5,1.77,1.19,4.19,2,8.15,1.12,5.8.92,7.27.16,7.94a2,2,0,0,1-1.43.46,13.7,13.7,0,0,1-2.51-.37l-1.1-.21a51.65,51.65,0,0,0-8.85-.93c-4.12,0-6.82.85-8,2.53-.79,1.11-.6,2.09-.35,3.34a15.87,15.87,0,0,1,.26,5.31,14.46,14.46,0,0,1-1.48,5.07A10.9,10.9,0,0,0,91,103.19c-.07,2.18.87,4.8,2.76,10a65.86,65.86,0,0,0,4.13,9.88c1.59,2.94,3.35,5.26,6.86,9.87a95.61,95.61,0,0,0,6.86,8.45,67.35,67.35,0,0,0,9.63,8.48,35.51,35.51,0,0,0,5.4,3.21c1.55.79,3.49,1.78,6.92,3.82,1.5.89,2,1.24,3.47,2.18s3.32,2.19,7.44,4.82l5.52,3.51c2.11,1.34,3.27,2.07,5.39,3.49,6.09,4.09,8.86,6,10.82,8.32a32.07,32.07,0,0,1,5.37,9.67c1.59,4,2.51,6.46,1.43,7.93-.62.85-1.81,1.26-3.65,1.26-.51,0-1,0-1.37-.06-1.33-.08-2.94-.45-9.34-4.14a76.76,76.76,0,0,1-6.79-4.18,49.2,49.2,0,0,1-4.12-3.3c-.73-.64-1.55-1.36-2.67-2.28-3.84-3.17-6.37-5.26-9.64-7.06a18.48,18.48,0,0,0-4.88-1.9c-1.58-.45-3.73-1.07-7.48-2.34l-4.14-1.44c-2.21-.79-4.51-1.6-8.15-2.77-4.43-1.42-7-2.14-8.78-2.14a4,4,0,0,0-2.6.82c-1.39,1.07-1.93,2.77-2.9,5.85a20.38,20.38,0,0,0-.79,3.35,8.72,8.72,0,0,1-.56,2.22,11.57,11.57,0,0,1-5.25,5.36,9.28,9.28,0,0,1-4.92,1.34c-.87,0-1.78-.09-2.74-.18a36,36,0,0,0-3.9-.25,25.66,25.66,0,0,0-4.66.43A10.28,10.28,0,0,0,70,186.7,85.38,85.38,0,0,1,59.88,191l-1.57.59c-4.52,1.69-7,2.62-8.26,5.28-1.06,2.23-.63,4.36,0,7.31a34.22,34.22,0,0,0,6.92,14.23,20.91,20.91,0,0,0,3.64,3.79,31.48,31.48,0,0,1,4.56,4.64c1.28,1.51,2.25,2.79,3,3.82,2,2.56,3,4,5.39,4.74a10.57,10.57,0,0,0,3.43.46h.67a2.86,2.86,0,0,1,2.5.79,4.33,4.33,0,0,1,0,5c-.69.84-1.64.88-3.37,1-.84,0-1.9.09-3.14.26-3.44.47-9.31,1.7-10,4.59-.19.84.08,2.11,5.6,7.47,4.11,4,6.18,6,8.31,7.1a10.61,10.61,0,0,0,2.91.86c1.45.35,3.89.92,8.12,2l.56.14a39.5,39.5,0,0,0,6.34,1.28c.86.08,1.61.12,2.34.12s1.16,0,1.74-.05,1.42-.07,2.4-.07h.39a31.56,31.56,0,0,1,5.13.56l5.72.84,5,.69c2.07.29,2.85.39,4.54.7,2.42.45,3.5.73,4.3.94a15.23,15.23,0,0,0,2.56.47,22.25,22.25,0,0,0,5.57,0,23.28,23.28,0,0,1,2.64-.17,22.22,22.22,0,0,1,2.7.18,13.85,13.85,0,0,1,2.4.47c.79.21,1.87.49,4.4.93,1.58.27,2.74.43,3.6.55a7,7,0,0,1,3,.79c2,1.21,3.31,3.88,3.85,7.94h0a34.1,34.1,0,0,1-2.65,6.79c-.66,1.18-1.3,1.95-5.35,5.48-3.19,2.76-5.1,4.29-6.36,5.3a13.83,13.83,0,0,0-3.27,3.19c-1.23,1.7-2.2,4-4.15,8.5-.72,1.68-1,2.41-1.29,3.26s-.62,1.75-1.44,3.76c-.61,1.48-1.11,2.65-1.52,3.58-1.23,2.84-1.64,3.8-1.23,5.17.75,2.48,3.41,3.56,5.75,4.52,2.8,1.14,5.17,1.33,12.47,1.44,3.15,0,5.42.08,7.22.08,1.55,0,2.7,0,3.73-.08,5.81-.31,8.72-.47,12.38-1.42a41,41,0,0,0,18-9.95l.61-.62,2.12-2.18,2.73-2.8c1.45-1.48,2.29-2.31,2.82-2.84a14.19,14.19,0,0,0,1.31-1.4,11.9,11.9,0,0,0,1.57-2.43,7.52,7.52,0,0,1,1.15-1.77,10.74,10.74,0,0,1,2.69-2.25c.68-.46,1.52-1,2.68-1.87,1.57-1.14,2.3-1.76,2.94-2.3a27,27,0,0,1,2.51-1.9c3.61-2.46,5.05-2.77,5.91-2.77a3.51,3.51,0,0,1,.55.05,4,4,0,0,1,2.44,1.24,4.61,4.61,0,0,1,.93,2.48c.09.43.19.93.32,1.51a15.45,15.45,0,0,0,.82,2.56,10.82,10.82,0,0,1,.55,1.65,12.32,12.32,0,0,1,.19,4.6c-.06.94-.15,2.11-.2,3.67,0,.08,0,1.7,0,6.81v.21c0,3.69,0,5.68,0,6.79,0,1.38,0,1.4,0,1.6a34.75,34.75,0,0,1-.68,5.6,35.35,35.35,0,0,0-.69,5.61,30.47,30.47,0,0,0,0,4.2,29.16,29.16,0,0,1,0,4.21,26.59,26.59,0,0,1-.43,3.51c-.21,1.17-.49,2.77-.93,6.27-.24,1.91-.39,3.33-.5,4.37-.26,2.41-.32,3-.81,3.86l-.06.11a9.59,9.59,0,0,0-1.36,4.31,4.49,4.49,0,0,0,0,.75,2.57,2.57,0,0,1,0,.63,5.25,5.25,0,0,1-.66,2.13,6.2,6.2,0,0,0-.7,2,4,4,0,0,0,0,1.56,2.64,2.64,0,0,1,0,1.22,4.32,4.32,0,0,1-.67,1.53c-.19.31-.4.66-.65,1.15a42.16,42.16,0,0,0-1.4,4.29c-.7,2.32-1.17,3.85-1.31,4.08s-.17.26-.26.39a7.06,7.06,0,0,0-1.17,2.58,3.11,3.11,0,0,0,0,1.68,3.05,3.05,0,0,0,2.71,1.8,2.2,2.2,0,0,0,.64-.1c.9-.29,1.16-1,1.64-2.39a33.65,33.65,0,0,1,1.39-3.48c.3-.64.49-1,.66-1.32a14.63,14.63,0,0,0,.72-1.5,37.63,37.63,0,0,0,1.38-4.26A35.7,35.7,0,0,0,223,378a9.09,9.09,0,0,0-.07-2.38,4.24,4.24,0,0,1,.06-1.75,8.15,8.15,0,0,1,.63-1.77,7.6,7.6,0,0,0,.75-2.49,5.38,5.38,0,0,0,0-1.55,3.57,3.57,0,0,1,0-1.24,6.17,6.17,0,0,1,.64-2,7,7,0,0,0,.73-2.25,22.63,22.63,0,0,0,0-2.89c0-1-.05-1.66-.08-2.18a6,6,0,0,1,.07-1.9,3.42,3.42,0,0,1,.63-1.38,6.55,6.55,0,0,0,.72-1.36,6.75,6.75,0,0,0,.23-3.66,16.82,16.82,0,0,1-.2-2.14,7.05,7.05,0,0,1,.49-3,15.66,15.66,0,0,0,.87-3.94,17.1,17.1,0,0,0,.06-2.64c0-.9,0-2.24-.06-4.42V303.64c0-1.12,0-1.85,0-2.38a7.69,7.69,0,0,1,0-1.75,7,7,0,0,1,.49-1.68c.19-.53.46-1.27.85-2.43.76-2.24,1.14-3.36,1.38-4.24s.37-1.51.48-2a3.6,3.6,0,0,1,.77-2,4.6,4.6,0,0,1,2.48-1.25,4.71,4.71,0,0,1,1.08-.14,7.15,7.15,0,0,1,.94.08,9,9,0,0,0,1.29.11c.23,0,.47,0,.71,0a4.94,4.94,0,0,0,2.21-.69,6.18,6.18,0,0,1,1.94-.72,5.33,5.33,0,0,1,1.21-.09c.73,0,2,0,4.13.1l.56,0c1.3,0,2,.06,2.5.06a5.69,5.69,0,0,0,1.14-.09,8.12,8.12,0,0,0,2.4-.77,9.24,9.24,0,0,1,1.73-.64,5.41,5.41,0,0,1,1.37-.17c.38,0,.85,0,1.51.07s1.4.08,2.44.12c1.95.08,3.35.14,4.49.14a16.68,16.68,0,0,0,2.43-.15,11.39,11.39,0,0,0,2.88-.74,9.63,9.63,0,0,1,2.57-.66,12.3,12.3,0,0,1,1.64-.11,13.21,13.21,0,0,1,1.63.11,12.56,12.56,0,0,0,1.76.13,13,13,0,0,0,1.79-.13,9,9,0,0,0,1.65-.38l3.88-1c2.9-.76,4.36-1.14,5.45-1.4,1.39-.33,2.32-.53,3-.67a9.81,9.81,0,0,0,2.55-.76,9.13,9.13,0,0,0,2.08-1.34,23,23,0,0,1,2.08-1.5,37.46,37.46,0,0,1,5.39-2.77c2-.91,3.08-1.31,4.11-1.7.8-.3,1.56-.59,2.71-1.1,4.84-2.13,9.84-4.33,9.86-7.46a5.23,5.23,0,0,0-1.47-3.12,9.71,9.71,0,0,0-4.31-3,12.75,12.75,0,0,0-2.55-.69c-.78-.14-1.06-.2-1.34-.55-.56-.71-.53-2,.08-3.73,1.41-4.05,5.79-6.31,9.32-8.13l2.73-1.41,2.73-1.4,2-1a4.57,4.57,0,0,0,.8-.44,6.1,6.1,0,0,0,1.49-1.52,5.66,5.66,0,0,1,1.25-1.29,4.56,4.56,0,0,1,1.4-.74,5.07,5.07,0,0,0,1.31-.65,7.66,7.66,0,0,0,2.63-3.78l.27-.63A12.3,12.3,0,0,1,341.8,227a33.27,33.27,0,0,0,2.62-4.37c3.33-6.29,3.24-8,2.72-8.9s-1.47-1.18-2.63-1.51l-.39-.11a14,14,0,0,1-3.78-1.59,33.17,33.17,0,0,0-5.74-2.61c-4.54-1.68-6.81-2.53-9.68-2.83a11,11,0,0,0-1.33-.08l-1,0c-.9,0-2.26.06-4.84.06h-1.06c-1.68,0-2.77,0-3.58,0h-1.41c-.6,0-1.14,0-1.86.05-3.9.19-6.05.29-8.39,1.45a6.45,6.45,0,0,0-1.54,1,18.73,18.73,0,0,1-2.59,1.81,27.87,27.87,0,0,1-5.37,2.76c-.6.21-1.06.35-1.52.48a18.53,18.53,0,0,0-2.6.93A30.8,30.8,0,0,0,285,214.9c-1.15.64-2,1.13-2.61,1.53a6.91,6.91,0,0,1-2.69,1.22,4.18,4.18,0,0,1-.62.07,3.41,3.41,0,0,1-.46-.05,5.06,5.06,0,0,0-.81-.07,6,6,0,0,0-.81.05,9.68,9.68,0,0,0-3.37,1,3.61,3.61,0,0,1-1.48.46,2.28,2.28,0,0,1-.44-.05,3.78,3.78,0,0,1-2.37-2.48c-.73-2.1.65-4.17,1.31-5.17a6.08,6.08,0,0,1,1.17-1.28c.34-.33.82-.78,1.49-1.44.18-.17,1.48-1.52,4.08-4.19l3.19-3.29c.66-.69.7-.73.91-.92a21,21,0,0,1,2.45-2c.68-.48,1.53-1.08,3-2.22,1.68-1.32,2.61-2.14,3.43-2.87a40.68,40.68,0,0,1,3.38-2.73c.88-.63,1.32-.92,1.79-1.22s1.09-.7,2.3-1.58,1.94-1.44,3.17-2.41c.6-.47,1.32-1,2.31-1.8,2.52-2,3.63-2.77,4.23-3.21a11.53,11.53,0,0,0,1.26-1,26.27,26.27,0,0,0,2.66-2.82,17,17,0,0,1,2.77-2.76,11.82,11.82,0,0,1,1.5-1.05c.5-.31,1.18-.74,2.58-1.74,1-.69,1.4-1,5.47-4.21,3.23-2.52,4.84-3.79,5.44-4.19,1.07-.72,1.77-1.13,2.28-1.44a6.64,6.64,0,0,0,1.9-1.44,12.57,12.57,0,0,0,2.85-5.82c.55-2.18,1.13-4.44-.09-6-.49-.64-1.36-1-2.95-1.57a16.94,16.94,0,0,0-5.62-1.43h-.52a12.63,12.63,0,0,0-1.4.08,7,7,0,0,1-.91.07,5.82,5.82,0,0,1-1.18-.13c-1.18-.24-2-.45-2.4-1.17a2.55,2.55,0,0,1,0-2.33,2.83,2.83,0,0,1,1-1.07l.2-.15c1.07-.81,1.68-2,2.88-4.38a41,41,0,0,0,2.76-7.1,34.93,34.93,0,0,0,1.39-7.1,22.14,22.14,0,0,0,0-2.58c0-.9,0-2.25,0-4.47,0-1,0-1.44,0-2v-3.57c0-3,0-4.63,0-5.55a13.54,13.54,0,0,1,0-1.4,26.86,26.86,0,0,1,1.17-5.31c.51-1.66.85-2.75.05-3.52a1.32,1.32,0,0,0-1-.35c-.23,0-.51,0-.9.06-.58.05-1.37.11-2.57.16l-1.35,0h-8.19l-5.22,0h-.83a6.45,6.45,0,0,0-.81,0,29.09,29.09,0,0,0-6.95,1.42A17,17,0,0,0,299,96.23a39.44,39.44,0,0,1-4.32,2.32,32.5,32.5,0,0,1-3.39,1.37,24.61,24.61,0,0,0-3.45,1.44c-3.54,1.75-5.31,2.63-7,4.3a19.78,19.78,0,0,0-2.14,2.67c-.94,1.32-1.61,2.28-3.13,2.82a4.51,4.51,0,0,1-1.4.29,1.52,1.52,0,0,1-.88-.24c-.24-.16-.31-.34-.58-1-.13-.37-.32-.87-.6-1.53s-.43-.93-.6-1.24-.37-.69-.77-1.58c-.34-.73-.55-1.23-.7-1.59a3.69,3.69,0,0,0-.76-1.34,5.16,5.16,0,0,0-3-1.56,3.86,3.86,0,0,0-.58,0,7,7,0,0,0-3.85,1.52,16.21,16.21,0,0,0-4.22,4.32,19.06,19.06,0,0,0-2.79,4.31,10.45,10.45,0,0,0-.8,3.3c-.12.87-.29,2-.6,3.82a22.91,22.91,0,0,1-1.33,5.48,12.46,12.46,0,0,1-1.21,2c-.36.51-.83,1.21-1.48,2.18-1.84,2.73-2.6,3.87-2.78,4.29a8.9,8.9,0,0,0-.72,3.67,7.93,7.93,0,0,1-.64,3.34,5.05,5.05,0,0,1-.93,1.52,16.56,16.56,0,0,0-1.77,2.63,25,25,0,0,0-1.41,2.86,31.9,31.9,0,0,1-4,6.88,16.18,16.18,0,0,1-3,2.89,7.1,7.1,0,0,0-2.49,2.81,6.62,6.62,0,0,0-.67,2.38,3.09,3.09,0,0,1-.65,1.75c-1.37,1.85-3.74,2.33-5.15,2.61a10.32,10.32,0,0,1-2,.21,8.24,8.24,0,0,1-1.84-.2,3.84,3.84,0,0,1-2.44-1.2c-.46-.67-.32-1.45-.1-2.74.06-.34.13-.71.18-1.11a12,12,0,0,0,.07-3.56,16.58,16.58,0,0,1-.06-3.49,32.25,32.25,0,0,1,1.34-6.9c.32-1.08.5-1.52,2.72-7,1.62-4,2.44-6,2.75-7.06a20,20,0,0,0,.71-3.51,25.14,25.14,0,0,1,.66-3.52,27.25,27.25,0,0,1,1.27-4,37.55,37.55,0,0,0,1.45-4.43,32.43,32.43,0,0,0,1.38-7.1,18.23,18.23,0,0,0-.13-3.79,7.59,7.59,0,0,1,.12-3.14,16.86,16.86,0,0,1,.61-2,10.52,10.52,0,0,0,.77-3.73c0-.53,0-.9,0-1.23a6.6,6.6,0,0,1,0-1.52,7.45,7.45,0,0,1,.72-2.44,12.69,12.69,0,0,0,.63-1.7,7,7,0,0,0,.15-2.82c0-.68-.1-1.6-.14-2.93s0-2.5,0-3.72c0-.62,0-1.25,0-1.87V66.76c0-1.31,0-2.13,0-2.68,0-.95,0-1.1,0-1.54-.2-5.34-.67-7.3-1.78-7.48H232c-.56,0-1.09.49-1.7,1.61-.37.39-1,1.05-1.3,1.32a2.8,2.8,0,0,1-1.82.71,5.52,5.52,0,0,0-2.18.63,3.62,3.62,0,0,0-1.51,1.5,3.29,3.29,0,0,1-1.24,1.32,3.62,3.62,0,0,1-1.29.5,22.23,22.23,0,0,0-2.71.85c-2.07.77-2.56,1.16-2.92,1.52a5.3,5.3,0,0,0-1.5,3.11,9.35,9.35,0,0,0,0,1.48q0,.42.06.69a1.31,1.31,0,0,1,0,.27l-.18,0-.75-.07h-.41a4.21,4.21,0,0,0-.64,0h-.18c-.7-.25-1-1.88-1-2.41a7,7,0,0,1,0-1.87c0-.27,0-.55,0-.86,0-1.67-.73-2.74-1.73-4.22-.32-.48-.69-1-1.07-1.65a33,33,0,0,1-2.7-5.53,23.08,23.08,0,0,1-1.38-4.88,27.26,27.26,0,0,0-1.34-4.92,39.08,39.08,0,0,0-2.76-5.67c-2.49-4.47-4.84-8.7-7-8.7a2,2,0,0,0-.35,0c-.75.16-1,.74-1.38,1.53a17.77,17.77,0,0,1-1.65,2.88,16,16,0,0,1-4,4.08,13.52,13.52,0,0,1-4.2,1.93c-.33-.72-1.62-3.5-2.58-5.26-1.16-2.13-2.83-4.57-4.6-7.16l-.89-1.29c-2.06-3-3.3-4.94-4.12-6.2a20.69,20.69,0,0,0-2.75-3.68A55.3,55.3,0,0,0,159.32,11c-6.16-4.64-6.24-4.68-7.55-5.31l-.72-.35c-1.79-.9-6.31-3-9.42-3Z" transform="translate(-49.4 -2.35)"/><path class="cls-3" d="M215.67,219.54c4.73,32.08,5.62,39.23,5.46,39.25-.31,0-1.5-28.17-13.65-60.27-4.95-13.08-5.19-9.55-30-57.47-13-25-18.16-36.13-21.84-51.86a158.12,158.12,0,0,1-4.1-33.64" transform="translate(-49.4 -2.35)"/><path class="cls-4" d="M293.48,141.05a116,116,0,0,0-17.75,16.82c-5.82,6.81-9.29,12.46-13.65,19.63-6.64,10.9-11.85,19.47-16.38,32.23a120.37,120.37,0,0,0-6.82,30.84,105.87,105.87,0,0,0,0,15.42" transform="translate(-49.4 -2.35)"/><path class="cls-5" d="M101,211.13c6.7,2.37,16.07,5.7,27.3,9.82,17.65,6.46,20.81,7.86,24.57,9.81A113.28,113.28,0,0,1,178.81,249a105,105,0,0,1,12.29,14" transform="translate(-49.4 -2.35)"/></g></g></svg>