<svg xmlns="http://www.w3.org/2000/svg" xmlns:xlink="http://www.w3.org/1999/xlink" viewBox="0 0 537.26 333.05"><defs><style>.cls-1{fill:#4d4d4d;}.cls-2{fill:#f93b48;}.cls-3{fill:#efd1a9;}.cls-4{fill:#cc882b;}.cls-5{fill:#ec0008;}.cls-6{fill:#c20016;}.cls-7{fill:#eccea8;}.cls-8{fill:#e9c288;}.cls-9{fill:#e1a83c;}.cls-10{fill:#7c4300;}.cls-11{fill:#dfa24c;}.cls-12{fill:#ecce9b;}.cls-13{fill:#e7ba87;}.cls-14{fill:#d0a86e;}.cls-15{fill:#d49d52;}.cls-16{fill:#e3c18c;}.cls-17{fill:#d6b073;}.cls-18{fill:#706252;}.cls-19{fill:#958f88;}.cls-20{fill:#b3b3b3;}.cls-21{fill:url(#linear-gradient);}.cls-22{fill:url(#linear-gradient-2);}.cls-23{fill:#fbb03b;}.cls-24{fill:#a0555d;}</style><linearGradient id="linear-gradient" x1="280.96" y1="233.12" x2="537.26" y2="233.12" gradientUnits="userSpaceOnUse"><stop offset="0" stop-color="#534741"/><stop offset="0.2" stop-color="#68513e"/><stop offset="0.47" stop-color="#7c5a3b"/><stop offset="0.74" stop-color="#88603a"/><stop offset="1" stop-color="#8c6239"/></linearGradient><linearGradient id="linear-gradient-2" x1="165.55" y1="109.33" x2="537.26" y2="109.33" xlink:href="#linear-gradient"/></defs><g id="Layer_2" data-name="Layer 2"><g id="Layer_1-2" data-name="Layer 1"><path class="cls-1" d="M20.85,88.79,41.47,119s5-9.29,17.77-9c0,0-7.49-1.92,27.95-1.23l117.4-12.09L169.78,53.43Z"/><path class="cls-2" d="M54,132.83s30.86,2.52,36.55-3.16a24.06,24.06,0,0,0,3.57-8.16c.91-4.46.07-9.68-6.93-12.74,0,0-36.89-7.64-45.72,10.21Z"/><path class="cls-3" d="M210.88,104.5l-116.76,17s2.55-8.6-6.93-12.74l117.4-12.09Z"/><polygon class="cls-4" points="90.55 129.67 212.59 109.49 210.88 104.5 94.12 121.51 90.55 129.67"/><path class="cls-2" d="M114.93,194.79s9.22-12.83,37.9-6.09c0,0,6.64-16.84-3.27-19,0,0-44.1-8.61-40.45,11C109.11,180.67,107.87,186.33,114.93,194.79Z"/><path class="cls-2" d="M130.89,214.57s3.33-17.56,27.52-8.34c0,0,4.89-20.19-5.27-18.94,0,0-26.42-7.27-35.88,5.53a16.5,16.5,0,0,0-2.88,6.79S112.05,219.37,130.89,214.57Z"/><path class="cls-5" d="M117.26,192.82s7.92-15.58,35.88-5.53l1.82-6.53S109.85,167.47,117.26,192.82Z"/><path class="cls-5" d="M130.89,214.57s-8.33-18.49,28.61-20.15c0,0,4.76,7.64-1.09,11.81C158.41,206.23,142.14,199.23,130.89,214.57Z"/><path class="cls-2" d="M143,234s-.62-9.95,33.32-7.3a18.32,18.32,0,0,1-2-7.56,25,25,0,0,1,.85-8.13s-44.9-20.81-43.13,12C132,223,133.39,234.89,143,234Z"/><path class="cls-5" d="M174.31,219.15S136.12,213.24,143,234c0,0,3.73-9.5,33.32-7.3Z"/><path class="cls-2" d="M138.27,239.41,143,234s5.58-14.29,43.85-6.12a13.19,13.19,0,0,1,2.06,3.59c.76,2.05,1,4.61-1.25,6.67l-47.53,9.07Z"/><path class="cls-2" d="M90.51,181.34s9.27-2.08,15.38-6.32a29.76,29.76,0,0,0,1.63-7.52c.35-4.71-.75-10.1-7.19-11.24,0,0-17.12-8.67-27.42,1.7Z"/><path class="cls-5" d="M107.52,167.5s-21.23-6.92-27.62-.26l10.61,14.1S109.34,179.55,107.52,167.5Z"/><path class="cls-2" d="M88.76,179s-1.26-6.27,20.91-5.15c0,0-.08,8.12,2.49,13.8,1.12,2.47,2.75,4.48,5.1,5.15a10.4,10.4,0,0,0-2.88,6.79s-4.18-1.48-6.8,4.41Z"/><path class="cls-5" d="M115.87,189.06s-13.77-1.94-15.23,5.74l6.94,9.22s2.18-5.91,6.8-4.41c0,0-.35-4.78,2.88-6.79Z"/><line class="cls-5" x1="71.29" y1="181.83" x2="112" y2="184.93"/><path class="cls-6" d="M120.42,221.08s2.22-4,11.41-2.1c0,0,0-2.59,2.15-7.81,0,0-5.18,7.57-15,2.26,0,0-6.11-3.27-4.61-13.82,0,0-4.22-1.86-6.8,4.41Z"/><path class="cls-6" d="M140.1,247.22,143,234s-10.92,1.7-11.14-15c0,0-9-3.65-11.41,2.1Z"/><path class="cls-5" d="M189.35,234.92s-28.36-4.77-49.25,12.3L188.7,238A8.43,8.43,0,0,0,189.35,234.92Z"/><path class="cls-6" d="M141.56,240.5s1.14,4.47,4.86,5.52l-6.32,1.2-2.17-6.28Z"/><path class="cls-7" d="M81.42,132.5s5.67.06,8.56-3l123.81-20.83,10.56,13.11-128.61,22-10.39-2.26Z"/><path class="cls-8" d="M95.74,143.79s5.41,5.19,5,8.83l132.14-20.78-8.53-10Z"/><path class="cls-9" d="M100.74,152.62l-.41,3.64s1.27.62,4.89,2.47l136.56-15.82-8.9-11.07Z"/><polygon class="cls-10" points="241.78 142.91 191.38 150.15 245.07 146.98 241.78 142.91"/><polygon class="cls-10" points="164.77 206.82 279.65 189.96 284.29 195.73 169.19 208.64 164.77 206.82"/><path class="cls-8" d="M107.41,163.67,248.31,151l-3.24-4-53.69,3.17,37.78-5.82-123.94,14.4S107.26,161.88,107.41,163.67Z"/><path class="cls-11" d="M149.56,169.7l102.71-13.76-4-4.92-140.9,12.65s1.28,10.19-1,9.87c0,0-1.53-.4,3.21.33,0,0,3.12-7.4,19.77-6.05C129.44,167.82,139,168.21,149.56,169.7Z"/><path class="cls-12" d="M149.56,169.7s5.26.22,4.79,13.89L264.46,168.7l-12.19-12.76Z"/><path class="cls-13" d="M154.35,183.59a31.79,31.79,0,0,0-1.21,3.7L267.06,172l-2.6-3.34Z"/><path class="cls-14" d="M153.14,187.29s4.67-.48,6.36,7.13L271.21,176l-4.15-4Z"/><path class="cls-15" d="M159.5,194.42s2.56,10.38-1.09,11.81c0,0-.19-1,6.36.59L279.65,190l-8.44-14Z"/><polygon class="cls-16" points="169.19 208.64 175.16 211.02 174.32 214.88 290.55 200.39 284.29 195.73 169.19 208.64"/><path class="cls-13" d="M176.29,226.71s2.62-.26,10.53,1.18,109.86-16.46,109.86-16.46l-6.13-11L174.32,214.88S173.48,222.12,176.29,226.71Z"/><path class="cls-17" d="M186.82,227.89S191.18,233,188.7,238l110.85-19.29-2.87-7.23Z"/><path class="cls-18" d="M140.67,247.35l-16.17,85.7S111,265.11,140.67,247.35Z"/><polygon class="cls-19" points="299.55 218.66 284.04 289.93 122.76 332.67 140.1 247.22 299.55 218.66"/><path class="cls-20" d="M20.85,88.79S.56,79.82,0,171L122.76,332.67s-4-74.85,17.34-85.45Z"/><polygon class="cls-21" points="284.04 289.93 280.96 304.08 512.78 251.91 537.26 162.15 299.55 218.66 284.04 289.93"/><polygon class="cls-22" points="169.78 53.42 299.55 218.66 537.26 162.15 389.66 0 165.55 46.14 169.78 53.42"/><polygon class="cls-19" points="163.64 54.88 165.55 46.14 169.78 53.42 163.64 54.88"/><polygon class="cls-18" points="270.27 293.58 280.96 304.08 284.04 289.93 270.27 293.58"/><polygon class="cls-23" points="312.33 232.53 298.47 290.17 501.92 242.7 520.91 180.31 312.33 232.53"/><ellipse class="cls-24" cx="328.45" cy="241.33" rx="9.2" ry="6.29" transform="translate(-51.04 92.65) rotate(-14.91)"/><ellipse class="cls-24" cx="349.44" cy="236.56" rx="8.93" ry="6.1" transform="translate(-49.11 97.89) rotate(-14.91)"/><ellipse class="cls-24" cx="371.14" cy="231.14" rx="8.93" ry="6.1" transform="translate(-46.98 103.29) rotate(-14.91)"/><ellipse class="cls-24" cx="392.85" cy="225.71" rx="8.93" ry="6.1" transform="translate(-44.85 108.69) rotate(-14.91)"/><ellipse class="cls-24" cx="414.55" cy="220.29" rx="8.93" ry="6.1" transform="translate(-42.73 114.09) rotate(-14.91)"/><ellipse class="cls-24" cx="436.25" cy="214.86" rx="8.93" ry="6.1" transform="translate(-40.6 119.49) rotate(-14.91)"/><ellipse class="cls-24" cx="457.95" cy="208.08" rx="8.93" ry="6.1" transform="translate(-38.12 124.85) rotate(-14.91)"/><ellipse class="cls-24" cx="479.65" cy="202.66" rx="8.93" ry="6.1" transform="translate(-36 130.25) rotate(-14.91)"/><ellipse class="cls-24" cx="501.35" cy="197.23" rx="8.93" ry="6.1" transform="translate(-33.87 135.65) rotate(-14.91)"/><ellipse class="cls-24" cx="322.86" cy="258.1" rx="9.2" ry="6.29" transform="translate(-55.54 91.77) rotate(-14.91)"/><ellipse class="cls-24" cx="344.02" cy="252.84" rx="8.93" ry="6.1" transform="matrix(0.97, -0.26, 0.26, 0.97, -53.48, 97.04)"/><ellipse class="cls-24" cx="365.72" cy="247.41" rx="8.93" ry="6.1" transform="translate(-51.35 102.44) rotate(-14.91)"/><ellipse class="cls-24" cx="387.42" cy="241.99" rx="8.93" ry="6.1" transform="translate(-49.22 107.84) rotate(-14.91)"/><ellipse class="cls-24" cx="409.12" cy="236.56" rx="8.93" ry="6.1" transform="translate(-47.1 113.24) rotate(-14.91)"/><ellipse class="cls-24" cx="430.82" cy="231.14" rx="8.93" ry="6.1" transform="translate(-44.97 118.65) rotate(-14.91)"/><ellipse class="cls-24" cx="452.52" cy="224.36" rx="8.93" ry="6.1" transform="translate(-42.49 124) rotate(-14.91)"/><ellipse class="cls-24" cx="474.23" cy="218.93" rx="8.93" ry="6.1" transform="translate(-40.37 129.4) rotate(-14.91)"/><ellipse class="cls-24" cx="495.93" cy="213.51" rx="8.93" ry="6.1" transform="translate(-38.24 134.81) rotate(-14.91)"/><ellipse class="cls-24" cx="317.27" cy="276.26" rx="9.2" ry="6.29" transform="translate(-60.41 90.95) rotate(-14.91)"/><ellipse class="cls-24" cx="339.63" cy="270.67" rx="9.2" ry="6.29" transform="matrix(0.97, -0.26, 0.26, 0.97, -58.21, 96.51)"/><ellipse class="cls-24" cx="360.29" cy="265.05" rx="8.93" ry="6.1" transform="translate(-56.07 101.64) rotate(-14.91)"/><ellipse class="cls-24" cx="382" cy="259.62" rx="8.93" ry="6.1" transform="translate(-53.94 107.04) rotate(-14.91)"/><ellipse class="cls-24" cx="403.7" cy="254.2" rx="8.93" ry="6.1" transform="translate(-51.82 112.44) rotate(-14.91)"/><ellipse class="cls-24" cx="425.4" cy="248.77" rx="8.93" ry="6.1" transform="translate(-49.69 117.84) rotate(-14.91)"/><ellipse class="cls-24" cx="447.1" cy="241.99" rx="8.93" ry="6.1" transform="translate(-47.21 123.2) rotate(-14.91)"/><ellipse class="cls-24" cx="468.8" cy="236.56" rx="8.93" ry="6.1" transform="translate(-45.09 128.6) rotate(-14.91)"/><ellipse class="cls-24" cx="490.5" cy="231.14" rx="8.93" ry="6.1" transform="translate(-42.96 134) rotate(-14.91)"/></g></g></svg>