<svg id="Layer_1" data-name="Layer 1" xmlns="http://www.w3.org/2000/svg" viewBox="0 0 188.93 352.94"><defs><style>.cls-1{fill:#009245;}.cls-1,.cls-2,.cls-3,.cls-4,.cls-5,.cls-6{stroke:#42210b;stroke-miterlimit:10;stroke-width:0.75px;}.cls-2{fill:none;}.cls-3{fill:#52c13a;}.cls-4{fill:#d6e00e;}.cls-5{fill:#c4750c;}.cls-6{fill:#66c60a;}</style></defs><g id="Mullein"><g id="Mullein-2" data-name="Mullein"><path class="cls-1" d="M243.13,309.65s-10.82-49.23-46.19-55.33c0,0-4.47-.26-6.58-3.63s-11.62-7.08-14-5.76c0,0-5.7,2.45-20.66-16.73,0,0-7.55-15.65-22.75-16.9,0,0-1.62.81-4.1-4.67,0,0-14.3-34.58-27.8-43,0,0,27.74,12,34.39,10.32,0,0,8,3.42,11.3,10.83,0,0,12.65,19.29,27.19,19.63,0,0,14.92,1.36,19.46,11.51,0,0,13.8,16.09,15.83,18.64,0,0,12,22.33,21.81,42.67C238.42,293.05,244.7,307.57,243.13,309.65Z" transform="translate(-100.84 -20.22)"/><path class="cls-2" d="M230,276.55s-19-38-35.83-42.77c0,0-31.88-15.31-37.1-23.29,0,0-6.67-10.42-22.44-16.06,0,0-27.95-21.37-31.76-29.87" transform="translate(-100.84 -20.22)"/><path class="cls-2" d="M191.44,232.46s-3.32-8.9-16.52-20.52" transform="translate(-100.84 -20.22)"/><path class="cls-2" d="M174.08,225.71s-17.19,4.28-29-17" transform="translate(-100.84 -20.22)"/><path class="cls-2" d="M144.23,199s-3.48-19.62-16.25-20.08" transform="translate(-100.84 -20.22)"/><path class="cls-3" d="M268.1,367.36,231.28,257.07s-3.74,8.87-6.31,1.4l-2.56.31,1.83,3.16c51.85,133.93,35.85,104.25,41.24,109.82C262.12,368.21,272.66,378.68,268.1,367.36Z" transform="translate(-100.84 -20.22)"/><path class="cls-4" d="M225.81,216.73s-3.12,13.66,8.09,12.78c0,0,12.71.59,10.39-11,0,0-4.63-11.83-9.16-9.39,0,0,12.25-1.48,11.16-9.83,0,0-3.2-12.57-10.32-9.91s-8.73,8.06-8.73,8.06,3.43-12-4.24-14.21-13.39,4.46-11.32,13.41a13.36,13.36,0,0,0,8.92,6.17s-10.74-11-16.85-1.39c0,0-.44,18,15.43,11.31S199,210.54,210.93,226,230.1,213.64,225.81,216.73Z" transform="translate(-100.84 -20.22)"/><path class="cls-5" d="M214.6,205.87l11.59,1s-6.81-5.36-5.16-9.82,5.18,7,5.18,7,1.57-6.67,6.13-5.6-3.29,8.92-5.29,10.41-9.67,2.12-12.24-.76S212.86,205.77,214.6,205.87Z" transform="translate(-100.84 -20.22)"/><path class="cls-4" d="M185.85,199.21s-3.12,13.66,8.09,12.78c0,0,12.71.59,10.39-11,0,0-4.63-11.82-9.16-9.38,0,0,12.25-1.49,11.16-9.83,0,0-3.2-12.58-10.32-9.92s-8.73,8.07-8.73,8.07,3.43-12-4.24-14.22-13.39,4.47-11.32,13.42a13.36,13.36,0,0,0,8.92,6.16s-10.74-11-16.85-1.39c0,0-.44,18,15.43,11.32S159,193,171,208.51,190.05,196.15,185.85,199.21Z" transform="translate(-100.84 -20.22)"/><path class="cls-5" d="M174.64,188.35l11.59,1s-6.81-5.36-5.16-9.82,5.18,7,5.18,7,1.57-6.67,6.13-5.6-3.29,8.92-5.29,10.41-9.67,2.12-12.24-.76C172.09,187.81,172.8,188.29,174.64,188.35Z" transform="translate(-100.84 -20.22)"/><path class="cls-4" d="M205.62,170.69s-3.12,13.65,8.08,12.78c0,0,12.71.59,10.4-11,0,0-4.63-11.83-9.17-9.38,0,0,12.26-1.49,11.17-9.83,0,0-3.2-12.58-10.32-9.92s-8.73,8.07-8.73,8.07,3.43-12-4.24-14.22-13.39,4.47-11.33,13.41a13.36,13.36,0,0,0,8.93,6.17s-10.75-11-16.86-1.39c0,0-.43,18,15.44,11.31s-20.23-2.15-8.26,13.34S209.78,167.53,205.62,170.69Z" transform="translate(-100.84 -20.22)"/><path class="cls-5" d="M194.41,159.82l11.59,1s-6.81-5.35-5.17-9.81,5.19,7,5.19,7,1.57-6.67,6.13-5.6-3.29,8.91-5.29,10.41-9.67,2.12-12.24-.76S192.54,159.67,194.41,159.82Z" transform="translate(-100.84 -20.22)"/><path class="cls-4" d="M174.8,150.5s-3.11,13.65,8.09,12.78c0,0,12.71.58,10.39-11,0,0-4.63-11.83-9.16-9.39,0,0,12.25-1.48,11.16-9.83,0,0-3.2-12.57-10.32-9.91s-8.73,8.06-8.73,8.06S179.66,119.22,172,117s-13.38,4.47-11.32,13.41a13.36,13.36,0,0,0,8.92,6.17s-10.74-11-16.85-1.39c0,0-.43,18,15.43,11.31s-20.23-2.15-8.25,13.33S179,147.43,174.8,150.5Z" transform="translate(-100.84 -20.22)"/><path class="cls-5" d="M163.59,139.63l11.59,1s-6.81-5.36-5.16-9.81,5.19,7,5.19,7,1.56-6.67,6.12-5.6-3.28,8.91-5.29,10.41-9.67,2.12-12.24-.77S161.76,139.57,163.59,139.63Z" transform="translate(-100.84 -20.22)"/><path class="cls-4" d="M170,121.87s-3.12,13.66,8.09,12.78c0,0,12.71.59,10.39-11,0,0-4.63-11.83-9.16-9.39,0,0,12.25-1.48,11.16-9.83,0,0-3.2-12.57-10.32-9.91s-8.73,8.06-8.73,8.06,3.43-12-4.24-14.21-13.39,4.46-11.33,13.41a13.39,13.39,0,0,0,8.93,6.17s-10.75-11-16.86-1.39c0,0-.43,18,15.44,11.31s-20.23-2.15-8.26,13.33S174.18,118.81,170,121.87Z" transform="translate(-100.84 -20.22)"/><path class="cls-5" d="M158.77,111l11.59,1s-6.81-5.36-5.16-9.81,5.18,7,5.18,7,1.57-6.67,6.13-5.59-3.29,8.91-5.29,10.41-9.67,2.11-12.24-.77C156.22,110.47,156.93,111,158.77,111Z" transform="translate(-100.84 -20.22)"/><path class="cls-3" d="M227.16,242.06s-6,13.26-1.5,20c0,0,4.15,7.1,9.87,2.4,0,0,8.63-8.88,9.17-15.17C244.7,249.28,241.64,230.25,227.16,242.06Z" transform="translate(-100.84 -20.22)"/><path class="cls-4" d="M227.48,242.91s5.44,19.42,15.76,5.32C243.27,248.32,242.43,231.77,227.48,242.91Z" transform="translate(-100.84 -20.22)"/><path class="cls-3" d="M185.3,227.17s10.74,9.87,18.53,7.6c0,0,5-1.13,5.84-5a6.25,6.25,0,0,0-.51-3.65s-5.71-11-11.62-13.38C197.63,212.74,178.57,209.72,185.3,227.17Z" transform="translate(-100.84 -20.22)"/><path class="cls-4" d="M186.25,227.14s20.16.79,10-13.33C196.22,213.81,180.27,209.41,186.25,227.14Z" transform="translate(-100.84 -20.22)"/><path class="cls-3" d="M197.17,235.23s8.46,11.78,16.58,11.21c0,0,8.28-.11,7-7.31,0,0-3.4-12-8.56-15.48C212.26,223.61,194.24,216.79,197.17,235.23Z" transform="translate(-100.84 -20.22)"/><path class="cls-4" d="M198.19,235.38s19.58,5,12.52-11.08C210.61,224.33,195.85,216.83,198.19,235.38Z" transform="translate(-100.84 -20.22)"/><path class="cls-3" d="M221.51,222.93s-6,13.25-1.5,20c0,0,4.15,7.1,9.86,2.4,0,0,8.64-8.88,9.18-15.17C239.05,230.15,236,211.12,221.51,222.93Z" transform="translate(-100.84 -20.22)"/><path class="cls-4" d="M221.86,223.87s5.44,19.42,15.76,5.32C237.62,229.19,236.87,212.6,221.86,223.87Z" transform="translate(-100.84 -20.22)"/><path class="cls-3" d="M200.51,175.59s-6,13.25-1.5,20c0,0,4.15,7.1,9.87,2.4,0,0,8.63-8.88,9.17-15.16C218.08,182.9,215,163.86,200.51,175.59Z" transform="translate(-100.84 -20.22)"/><path class="cls-4" d="M200.86,176.52s5.44,19.43,15.76,5.32C216.62,181.84,215.87,165.26,200.86,176.52Z" transform="translate(-100.84 -20.22)"/><path class="cls-3" d="M168.85,165.42s10.73,9.87,18.53,7.6c0,0,5-1.13,5.84-5a6.26,6.26,0,0,0-.51-3.65s-5.71-11-11.62-13.38C181.18,151,162.12,148,168.85,165.42Z" transform="translate(-100.84 -20.22)"/><path class="cls-4" d="M169.8,165.39s20.15.8,10-13.33C179.82,151.93,163.82,147.66,169.8,165.39Z" transform="translate(-100.84 -20.22)"/><path class="cls-3" d="M207,256.42s10.74,9.87,18.53,7.6c0,0,5-1.13,5.84-5a6.25,6.25,0,0,0-.51-3.65s-5.71-11-11.62-13.38C219.25,242,200.28,239,207,256.42Z" transform="translate(-100.84 -20.22)"/><path class="cls-4" d="M208,256.39s20.16.8,10-13.33C217.89,243,201.89,238.7,208,256.39Z" transform="translate(-100.84 -20.22)"/><path class="cls-3" d="M149.78,64.94s-5.08,11.83-1,17.89c0,0,3.68,6.42,8.57,2.35,0,0,7.41-7.89,7.78-13.48C165.12,71.7,162.22,54.53,149.78,64.94Z" transform="translate(-100.84 -20.22)"/><path class="cls-3" d="M136.37,93.33a7.54,7.54,0,0,0,1.84,3.8c2.87,3.09,9.7,9.4,15.58,8.27,0,0,5-.69,6.07-4.62a8.17,8.17,0,0,0,.14-3,7.23,7.23,0,0,0-.43-1.44c-.84-2.25-3.95-9.73-7.85-13.29a6.67,6.67,0,0,0-3.15-1.6C144.55,80.67,134.09,80.09,136.37,93.33Z" transform="translate(-100.84 -20.22)"/><path class="cls-3" d="M159.66,82.82s-6.78,10.43-3.53,16.26c0,0,1.78,3.92,5.26,3.8a5.57,5.57,0,0,0,3-1s8.53-6.6,9.71-11.74C174.16,90.21,173.66,74.28,159.66,82.82Z" transform="translate(-100.84 -20.22)"/><path class="cls-3" d="M140.1,49.88a6.9,6.9,0,0,0-2.64,3.23c-1.54,3.88-4.51,12.79-1,17.79,0,0,3.9,6.44,9.46,2.76a7.84,7.84,0,0,0,1.14-1c1.62-1.67,7.1-7.56,8.72-12.65a6.93,6.93,0,0,0,.16-3.58C154.8,52.39,151,42.5,140.1,49.88Z" transform="translate(-100.84 -20.22)"/><path class="cls-3" d="M129.32,74.19a5.84,5.84,0,0,0,2,2.87c2.87,2.24,9.58,6.78,14.91,5.32,0,0,4.46-.92,5.13-4.27a5.15,5.15,0,0,0-.15-2.4,6.1,6.1,0,0,0-.55-1.18c-.94-1.67-4.41-7.53-8.27-10.14a5.39,5.39,0,0,0-3-1C135.61,63.3,126.13,63.64,129.32,74.19Z" transform="translate(-100.84 -20.22)"/><path class="cls-3" d="M128.44,42.39s-6,13.25-1.5,20c0,0,4.14,7.09,9.86,2.4,0,0,8.64-8.89,9.17-15.17C146,49.61,142.92,30.57,128.44,42.39Z" transform="translate(-100.84 -20.22)"/><path class="cls-4" d="M128.75,43.23s5.44,19.42,15.76,5.32C144.54,48.65,143.79,32.06,128.75,43.23Z" transform="translate(-100.84 -20.22)"/><path class="cls-6" d="M134.69,70.26s-8.61,3.54-25.43-20.92c0,0,13.2,10.76,16.33,12.58S135.15,64.65,134.69,70.26Z" transform="translate(-100.84 -20.22)"/><path class="cls-6" d="M151.88,50.28s5.69-1.91,3.56-20.76c0,0-1.86,10.73-2.64,12.94S149.23,47.75,151.88,50.28Z" transform="translate(-100.84 -20.22)"/><path class="cls-6" d="M140.54,81.63s-8.61,3.54-25.43-20.92c0,0,13.2,10.76,16.33,12.58S141,76,140.54,81.63Z" transform="translate(-100.84 -20.22)"/><path class="cls-6" d="M157.73,61.65s5.69-1.91,3.56-20.76c0,0-1.86,10.73-2.64,13S155.08,59.12,157.73,61.65Z" transform="translate(-100.84 -20.22)"/><path class="cls-6" d="M151.19,99s-8.61,3.54-25.43-20.92c0,0,13.2,10.76,16.33,12.58S151.62,93.29,151.19,99Z" transform="translate(-100.84 -20.22)"/><path class="cls-6" d="M168.38,79S172,87,170,68.08c0,0-17.78,29.28-5.81,15.3C165.6,81.56,165.82,76.46,168.38,79Z" transform="translate(-100.84 -20.22)"/><path class="cls-3" d="M138.67,86.92s10.73,9.87,18.53,7.6c0,0,5-1.13,5.83-5a6.1,6.1,0,0,0-.51-3.65s-5.71-11-11.61-13.38C151,72.49,132,69.57,138.67,86.92Z" transform="translate(-100.84 -20.22)"/><path class="cls-4" d="M139.62,86.89s20.15.8,10-13.33C149.58,73.56,133.63,69.16,139.62,86.89Z" transform="translate(-100.84 -20.22)"/><path class="cls-6" d="M140.66,44.54s5.69-1.91,3.56-20.75c0,0-1.86,10.73-2.63,12.94S138,42,140.66,44.54Z" transform="translate(-100.84 -20.22)"/><path class="cls-6" d="M133.7,43.62s5.69-1.91,3.56-20.76c0,0-1.86,10.73-2.64,13S131.05,41.09,133.7,43.62Z" transform="translate(-100.84 -20.22)"/><path class="cls-6" d="M131.11,46.41s-5.55,2.28-16.3-13.34c0,0,8.44,6.88,10.48,8S131.45,42.75,131.11,46.41Z" transform="translate(-100.84 -20.22)"/><path class="cls-6" d="M134.11,55.85s-5.55,2.29-16.3-13.33c0,0,8.44,6.88,10.47,8S134.45,52.2,134.11,55.85Z" transform="translate(-100.84 -20.22)"/><path class="cls-6" d="M140.49,64.36s-5.55,2.29-15-9.87c0,0,7.78,5.1,9.67,5.88S141,61.4,140.49,64.36Z" transform="translate(-100.84 -20.22)"/><path class="cls-3" d="M180.92,126.86s-5.08,11.83-1,17.88c0,0,3.68,6.42,8.57,2.36,0,0,7.41-7.9,7.78-13.48C196.26,133.62,193.36,116.45,180.92,126.86Z" transform="translate(-100.84 -20.22)"/><path class="cls-6" d="M214.19,219.05s-15.28,6.24-41.86-28c0,0,21.72,14.42,27,16.73S215.63,210.61,214.19,219.05Z" transform="translate(-100.84 -20.22)"/><path class="cls-6" d="M235.32,245.31s12.22-4.14,10.4-38.15c0,0-5.46,19.66-7.34,23.77S230.1,241.07,235.32,245.31Z" transform="translate(-100.84 -20.22)"/><path class="cls-1" d="M265.6,370.64s-19.44-33.73,1.89-56.64c0,0,3-2.61,2.58-5.66s4.25-10.34,6.6-10.9c0,0,5.32-1.78,5.27-20.76,0,0-3.34-12.95,6.62-22,0,0,1.66-.41.3-4.91,0,0-9-27.4-4.11-39.57,0,0-12.82,22-18.32,24.68,0,0-3.64,6.26-1.9,12.34,0,0,1.74,17.82-8.16,25.89,0,0-9.67,9-7.23,17.22,0,0-.82,16.64-.83,19.21,0,0,3.85,19.16,8.22,36C259.82,358.61,263.4,370.18,265.6,370.64Z" transform="translate(-100.84 -20.22)"/><path class="cls-2" d="M256.66,344.73s-7.5-31.78,1.56-43.82c0,0,13.85-26.09,13-33.47,0,0-1.1-9.51,6.86-21.35,0,0,7.82-27.36,5.77-34.28" transform="translate(-100.84 -20.22)"/><path class="cls-2" d="M259.41,298.66s-2.56-6.84.31-20.61" transform="translate(-100.84 -20.22)"/><path class="cls-2" d="M267.7,285.42s14.34-7.07,10.86-25.52" transform="translate(-100.84 -20.22)"/><path class="cls-2" d="M273.85,253.87s-8.28-13,.32-20.29" transform="translate(-100.84 -20.22)"/><path class="cls-1" d="M257.2,347.31s-6.38-36.8-39.36-38.78c0,0-4.21.18-6-2.25s-10.41-4.44-12.78-3.34c0,0-5.55,2.28-18.24-11.12a22.61,22.61,0,0,0-20.18-11.14s-1.61.81-3.47-3.3c0,0-10.84-25.3-22.9-30.72,0,0,25.25,7,31.64,5.25,0,0,7.25,2,9.82,7.44,0,0,10.46,13.7,24,12.9,0,0,13.95-.09,17.47,7.35,0,0,11.77,11.19,13.51,13,0,0,9.56,16.18,17.21,30.94C254.06,334.92,258.87,345.51,257.2,347.31Z" transform="translate(-100.84 -20.22)"/><path class="cls-2" d="M247.58,323.57s-15-27.5-30.5-29.92c0,0-28.87-9.28-33.13-14.95,0,0-5.45-7.46-19.83-10.52,0,0-24.72-14.15-27.6-20.43" transform="translate(-100.84 -20.22)"/><path class="cls-2" d="M214.61,292.76s-2.45-6.56-13.93-14.43" transform="translate(-100.84 -20.22)"/><path class="cls-2" d="M198.88,288.93s-16.55,4.58-26-10.78" transform="translate(-100.84 -20.22)"/><path class="cls-2" d="M172.79,270.81s-1.77-14.71-13.7-14.09" transform="translate(-100.84 -20.22)"/><path class="cls-6" d="M220.45,181s18.34-19.77,5.74-68.65c0,0,.54,45.16-1.9,50.35S213.83,175.52,220.45,181Z" transform="translate(-100.84 -20.22)"/><path class="cls-6" d="M171.85,174.87s-15.28,6.25-41.86-28c0,0,21.72,14.41,27,16.72S173.29,166.44,171.85,174.87Z" transform="translate(-100.84 -20.22)"/><path class="cls-6" d="M195.14,137.78s12.22-4.14,10.4-38.16c0,0-5.46,19.66-7.34,23.77S189.92,133.53,195.14,137.78Z" transform="translate(-100.84 -20.22)"/><path class="cls-6" d="M155.84,122.89s-8.6,3.53-25.43-20.93c0,0,13.2,10.76,16.34,12.58S156.27,117.18,155.84,122.89Z" transform="translate(-100.84 -20.22)"/><path class="cls-6" d="M173,102.91s5.69-1.92,3.56-20.76c0,0-1.87,10.73-2.64,12.94S170.38,100.37,173,102.91Z" transform="translate(-100.84 -20.22)"/></g></g></svg>