<svg xmlns="http://www.w3.org/2000/svg" viewBox="0 0 337.47 381.92"><defs><style>.cls-1{isolation:isolate;}.cls-2{fill:#281200;}.cls-3{fill:#281303;}.cls-4{fill:#332119;}.cls-5{fill:#3e200d;}.cls-6{fill:#a04b32;}.cls-11,.cls-7{mix-blend-mode:screen;}.cls-8{fill:#c56641;}.cls-9{opacity:0.3;mix-blend-mode:multiply;}.cls-10,.cls-12{fill:#62331b;}.cls-11{fill:#c97a2f;}.cls-12{opacity:0.7;}</style></defs><title>pine</title><g class="cls-1"><g id="Pine"><path class="cls-2" d="M315.59,289.49q4-3.94,7.9-8.11c7.12-7.39,14.28-15.1,17.49-24.56,2.41-4.53,3.8-9.54,1.71-13.81a19.09,19.09,0,0,0-9.3-8.38c12.83-9.88,24.46-22.17,27.88-37.25a21.77,21.77,0,0,0,2-6c.84-4.79-1.73-8-4.64-11-1.81-1.87-6.06-6.26-10-7.51A77.49,77.49,0,0,0,362,158.62c5.32-7.56,6.57-13.05,5.71-20.43a35.12,35.12,0,0,0-.8-10.75c-1.6-7.5-5.31-18.14-12.92-20.76,5.07-5.27,9.37-11.69,7.15-18.12.42-2.72,0-3.88-2.15-5.46a3.57,3.57,0,0,0-3.7-.09c-2.43-5.42-3.77-10.79-9.2-14.55a39.2,39.2,0,0,0-15.18-6.12c2.49-2.5,4.91-5,7.22-7.48s6.07-6.49,5.64-9.32c1.38-3.52-8-8.23-9.31-9.06-11.5-7.27-21.86-17.31-32.83-25.43-2.54-1.89-4.44-1.1-5.75.68.07-.25.15-.52.23-.78s-.2-.1-.26,0c-3.31,7.17-6.27,14.43-9.14,21.69-6.51-6.62-15.12-11.1-23.5-14.91-4.64-2.13-9.75-5.92-15-3.21-2.77.47-5.5,1.47-5.76,4.82-.44,5.11-.92,10.16-1.31,15.23-7.26-6.68-22.18-5.86-31.28-6.35-1.31-.07-13.86-.29-12.49,4.18-2.64,6.78.44,21.22.75,26.42.17,3.27.23,6.64,1.15,9.59-2-.32-3.09-1.55-4.66-3.45-4.09-4.9-10.16-8.6-16.09-10.78-4.47-1.61-17.67-6-23.34-1.69-7.55,2.11-6.13,17.72-6.39,23.35a5.4,5.4,0,0,0,0,.7c-1.24-3.6-2.8-7-4-9.74-2.69-6.27-11.19-2-15,2.69A2.15,2.15,0,0,0,128,70.79c-1.18,3.85-1.34,8.08-1.53,12.17-2.82.18-7.7-.72-10.88.47a94.53,94.53,0,0,0-4.4,12c-.92,3.39-1.68,6.75-2.44,10.15-.2,2-.34,4.07-.39,6.09-1.32,8.47-1.46,17.37-4,25.42-.33-5.72,1-12.33,1.07-17.64.06-4.39-.2-12-2.87-15.45-3.57-4.62-9.66,2.13-13,6.82-6.07,4.6-5.37,11-5.78,18.58,0,.49,0,1,0,1.47-16.31-8.05-19.49,16.85-20.4,27.93a185.66,185.66,0,0,0-.08,25c-2.71-2.83-7-4.68-10-5.55a13.53,13.53,0,0,0-6.65.62l0,0c.18-.25-.19-.31-.34-.18a4.88,4.88,0,0,0-1.08,1,2.11,2.11,0,0,0-.67,1c-2.18,3.93-1.5,10.52-1.4,14.12.12,3.87.61,7.74,1.05,11.61a4.52,4.52,0,0,0-1-.1,2.16,2.16,0,0,0-1.92,1.22c-4.14,8.5-.11,20.26,1.69,28.18.52,2.31,1.1,4.58,1.71,6.81-2.1-.62-4.32-1.38-6.4-.34a2.24,2.24,0,0,0-1.44,1.63c-1.5,10.33,1.25,21.41,2.58,31.31,1.38,10.06,4.07,19.21,6.61,28.73,0,.06-.12.09-.14.13s-.22.22-.32.34h0a.22.22,0,0,1,0,.06,5,5,0,0,0-.72,1.17,20.73,20.73,0,0,0-5.23-3c-.08,0-.38.11-.3.26,3.17,6.46,8.73,11.66,13,17.55,2.34,6.5,4.79,13.1,8.1,18.81,2.34,4,7.23,6.58,10.47,9.69s6.07,7.31,9.44,10.62a96.94,96.94,0,0,0,12,10c11.57,10.59,29.39,15.23,44.25,17.06a59.15,59.15,0,0,0,18.67-.77c3.38.9,6.92,1.5,10.34,2.17,10,1.91,21,3.45,31.41,2.55,6.26-.53,21.73-4.29,23.53-10.63.22,0,.43-.05.64,0,7.26.23,15,.23,22.1-2.25,6.36-2.25,14.31-5.47,20.78-10.23,6.39-3.56,11.71-8.31,12.29-14.83,0-.22-.34-.11-.38,0s-.05.1-.07.17a8.34,8.34,0,0,0-.2-2.49A129.05,129.05,0,0,0,287.37,342c8.47-6.71,17.9-15.22,23.73-25.15C317.44,309.06,320,297.61,315.59,289.49Z" transform="translate(-30.94 -8.8)"/><path class="cls-3" d="M144.2,377.45c-3.62-1.88-7.21-3.84-10.74-5.91-6.53-3.7-13.25-7.25-19.37-11.66-12.76-9.33-23.61-21.06-36.38-30.4-.68-.5.56-1.19,1.3-1.1-1.33-1.18-3-1.57-4.84.56a18.87,18.87,0,0,0-3.3,5.51c-1.86,4.81-2.42,10,.34,14.17,2.36,3.58,6,6,8.11,9.79.33.36.64.73,1,1a96.94,96.94,0,0,0,12,10c11.57,10.59,29.39,15.23,44.25,17.06a59.15,59.15,0,0,0,18.67-.77,7.48,7.48,0,0,0,.84.22,4.82,4.82,0,0,1,.46-.36C153.6,381.31,148.55,379.74,144.2,377.45Z" transform="translate(-30.94 -8.8)"/><path class="cls-3" d="M285.57,44.5C284.42,55.55,285,75.77,298,78c6,1,11.95-2.62,17.26-5.87,4.2-2.58,8.43-5.21,12.48-8,1.77-1.24,3.56-2.56,5.35-3.94,1.73-1.77,3.42-3.54,5.06-5.25,2.33-2.47,6.07-6.49,5.64-9.32,1.38-3.52-8-8.23-9.31-9.06-11.5-7.27-21.86-17.31-32.83-25.43-2.54-1.89-4.44-1.1-5.75.68.07-.25.15-.52.23-.78s-.2-.1-.26,0c-2.13,4.65-4.11,9.31-6,14A101.13,101.13,0,0,0,285.57,44.5Z" transform="translate(-30.94 -8.8)"/><path class="cls-4" d="M331.44,62.44l-.52-.1,0,0c-3.82-1.11-7.86-2.26-11.11-.8-5.84,2.6-10.42,12.72-13.15,18.27-5.59,11.37-10.31,24-2.72,34.25,6.74,9.14,19.37,13.67,30.92,9a47.71,47.71,0,0,0,18.26-13.42c.72-.82,1.35-1.65,2-2.47a11,11,0,0,0-1.1-.48A35.93,35.93,0,0,0,359.85,99c.49-1.1,1-2.19,1.36-3.33a11.35,11.35,0,0,0-.06-7.08c.42-2.72,0-3.88-2.15-5.46a3.57,3.57,0,0,0-3.7-.09c-2.43-5.42-3.77-10.79-9.2-14.55a39,39,0,0,0-10.46-5A32.94,32.94,0,0,1,331.44,62.44Z" transform="translate(-30.94 -8.8)"/><path class="cls-5" d="M242.12,22.74c-.32,4-.68,7.89-1,11.82-.24-.2-.49-.4-.72-.61-1.9,15.87-1.13,33.1,12.64,38.17,12.78,4.71,29.78-3.31,37.54-16.18,6.08-10.09.48-16.42-3.71-23.74-.05.15-.13.31-.16.43-6.51-6.62-15.12-11.1-23.5-14.91-4.64-2.13-9.75-5.92-15-3.21-2,.32-4,1-5,2.52C242.87,18.83,242.49,20.74,242.12,22.74Z" transform="translate(-30.94 -8.8)"/><path class="cls-3" d="M252.77,106.52a23.41,23.41,0,0,0,8.1,12.42c1.74,1,3.48,1.91,5.16,2.92.83.48,1.63,1,2.44,1.53,8.39,3.31,18.49,3,26.58-2.27,8.32-5.43,15.28-13.39,21.49-21.3,3-3.79,6.72-8.46,1.12-11-2.79-1.24-5.85-1.78-8.71-2.82-8.78-3.28-17.51-7.22-23.65-14.53-5.24-6.21-10.39-14.9-19-16.49-7.19,4.62-9.4,16.94-11.34,24.53C252.83,88.16,250.59,98.1,252.77,106.52Z" transform="translate(-30.94 -8.8)"/><path class="cls-5" d="M194.78,65.17c-3.48,8.67-5.18,18-4.14,26.61,2.1,17.46,17.1,31.78,34.82,29.89,10.42-1.1,20-7,27.65-15,4.34-4.58,8.67-9.88,11.11-15.75.83-2.06-8.72-6.08-10.22-7C239.22,75.34,224.48,65,215.21,50c-3-1.16-5.4-3.4-7.63-5.64A72.08,72.08,0,0,0,198,58.11c0,.26.05.51.08.7.17,3.27.23,6.64,1.15,9.59C197.35,68.06,196.25,66.94,194.78,65.17Z" transform="translate(-30.94 -8.8)"/><path class="cls-4" d="M353.13,153.05c-5.08-3.52-11.1-5.94-16.76-8.48-7.64-3.4-15.58-6.36-22.6-10.88-5.33-3.48-10.32-7.6-11.68-14.29-3.72-3.28-7.76-7.11-10-11.83-16.54,12.85-24.34,39-12.81,55.17s35.32,23.43,54.68,12.82a53.09,53.09,0,0,0,13.33-10.16c2.26-2.41,4.1-5,6.17-7.58C355.74,155,355.06,154.39,353.13,153.05Z" transform="translate(-30.94 -8.8)"/><path class="cls-3" d="M258.33,119.49c-6.4-3.48-12.79-7-17.65-12.52a66.18,66.18,0,0,1-15.8-8.51c-2.35-1.72-4.62-3-6.73.17a22.18,22.18,0,0,0-2.35,4.88c-2.84,8.11-3.93,16.8-4.64,25.15-.59,6.72-1.24,13.68-.7,20.32,1.78,21.78,23,35.19,43.1,33.6a51.34,51.34,0,0,0,27-10.71,79,79,0,0,0,11.72-10.53c2.49-2.8,6.6-7.54,5.66-11.53-.86-3.66-5-5.3-7.75-7.06a58.14,58.14,0,0,1-6.32-5c-5.14-4.31-10.14-9-15.79-12.64l-.84-.54A28.41,28.41,0,0,1,258.33,119.49Z" transform="translate(-30.94 -8.8)"/><path class="cls-5" d="M212.77,136.61c-4.88-3.9-9.64-8-14.15-12.33a209.27,209.27,0,0,1-21.94-24.94c-.07,0-.11,0-.15-.09-4.29-3.65-8.94-6.88-13.09-10.68-2.84-2.65-8.63,7.54-9.85,9.79a89.12,89.12,0,0,0-9.75,30.71c-1.31,10.12-1.13,20.7,4.52,28.73,5.77,8.21,14.75,13.54,24.49,15.76s20.72,2.32,30.52-3c8.74-4.7,20.22-12.43,24.06-22.46C228.12,146.44,214.39,137.91,212.77,136.61Z" transform="translate(-30.94 -8.8)"/><path class="cls-4" d="M338.44,209.4a13.26,13.26,0,0,0-4.34-3.79,98.3,98.3,0,0,0-12.94-4.93c-4.45-1.48-8.64-3.56-12.94-5.44-5.62-2.49-11.38-5-16.4-8.5a29.57,29.57,0,0,1-6.56-5.92c-1.81-2.27-3.48-4.46-6.19-5.54a.75.75,0,0,1-.57,0C272.62,172,267,168.45,261.15,165c-3-1.72-5.28-1.37-8.15,1.23a37.78,37.78,0,0,0-5.67,6.5c-6,8.69-11.31,18.77-9.85,29.13,3.53,25.08,26.19,38.41,49.79,36.55,12.11-1,23.7-5,34.65-11.51,5.16-3.06,11.18-6.64,14.65-11.89C337.57,213.57,339.64,210.9,338.44,209.4Z" transform="translate(-30.94 -8.8)"/><path class="cls-3" d="M256.72,206.54c-9.87-9.1-21.42-15.82-32.31-23.6-8.08-5.76-15.18-13.63-24-18.39.12.57-1.24,1.14-1.75.73-5.66-4.29-12.5-6.47-18.68-9.86-7.19,11.32-13.58,23.79-15.1,37a47.16,47.16,0,0,0,7.44,31.81c11,16.3,32.42,28.65,53.27,24.2a55.47,55.47,0,0,0,27.52-15.69c3.51-3.59,8.92-8.63,10.51-13.6C265.4,213.65,259.94,209.53,256.72,206.54Z" transform="translate(-30.94 -8.8)"/><path class="cls-5" d="M183.73,210.4a92.91,92.91,0,0,1-11.64-11.24c-7.67-8.76-14.35-18.44-22.37-26.82-6.48-6.78-13.67-12.78-19.23-20.42-.34,0-.63-.06-.75-.37-.18-.48-.38-1-.59-1.62-.26-.43-.57-.8-.85-1.25a.44.44,0,0,1,.15-.61c-1.95-4.68-4.95-9.6-10.24-3.82A48,48,0,0,0,108,161.11c-3.72,10.53-5.27,22.22-3.31,32.75,3.78,20.56,19.62,34,39.36,36.56a42.15,42.15,0,0,0,31.2-8.15,57,57,0,0,0,6.23-5.42C183.39,214.89,186.45,212.58,183.73,210.4Z" transform="translate(-30.94 -8.8)"/><path class="cls-4" d="M286.14,262.64c-6.2-2.44-12.44-4.8-18.64-7.26-7.05-2.82-14.07-5.74-21-8.84-4.65-2.07-9-5-13.72-7a1.48,1.48,0,0,1-1.48.2,17.41,17.41,0,0,1-1.7-1.41c-.36-.09-.7-.22-1.06-.32-.59-.17-.6-.56-.34-.89-3.29-3-6.66-6.75-10.79-8.45-5.38-2.25-9.73,6.68-12.41,10.82-6.74,10.48-13.6,23.11-12,35.51,3.1,23.76,25.9,38.54,48.34,38.21,12.88-.2,24.88-5.56,35.21-14.77a133,133,0,0,0,14-14.6c1.83-2.22,3.71-4.47,5.44-6.8,1.25-1.69,4.67-5,4.07-7.27C298.84,265.22,290.12,264.18,286.14,262.64Z" transform="translate(-30.94 -8.8)"/><path class="cls-3" d="M223.62,272.73c-5.06-5.07-12.58-7.62-19-10.49-8.42-3.76-15.6-9.83-24-13.52-6-2.59-13.89-5.14-17.72-10.9a1.14,1.14,0,0,1-1.16-.17,49.71,49.71,0,0,0-10.86-11.14c-3-2.23-6.56-3.55-8.82-6.51-6.59,11-12.14,23.15-13.89,35.69-1.8,12.75,1.93,23.44,10.19,31.9,15.16,15.51,41.64,26.54,63,11a130.14,130.14,0,0,0,16-14C220,281.7,227.41,276.51,223.62,272.73Z" transform="translate(-30.94 -8.8)"/><path class="cls-5" d="M138.93,263.67c-1.83-1.47-3.61-3-5.28-4.6-8.14-7.83-15.53-16.38-23.91-23.92s-17-14.57-25.22-22.15a.61.61,0,0,1-.17-.3c-2.54-2-5.08-3.68-6.86-6.39C68.17,220.64,62.38,239.07,66.34,255a41,41,0,0,0,35,30.47,37.33,37.33,0,0,0,24.05-5.58,44,44,0,0,0,10.88-10C137.3,268.6,140.76,265.16,138.93,263.67Z" transform="translate(-30.94 -8.8)"/><path class="cls-4" d="M263.06,331.13a24.27,24.27,0,0,0-5.51-2.26c-13.57-4.67-27.38-9.59-40-16.36-7.81-4.18-20.25-9.88-23.07-19.57a.9.9,0,0,1-.33-.09c-3.81-2.34-7.53-5-11.62-6.85-3.3-1.52-6.79-2.63-10.14-4.09-2.5-1.08-4.3-3.53-6.85-1.05A30.53,30.53,0,0,0,157.22,297c-2.36,11.44-1.33,22.85,3.67,32.56,9.66,18.79,29.77,30.82,50.93,31.63,11.24.4,23.14-2,33.33-8.65a60.3,60.3,0,0,0,16.65-15.8C262.85,335.28,265.05,332.47,263.06,331.13Z" transform="translate(-30.94 -8.8)"/><path class="cls-3" d="M178.12,330.94a11.79,11.79,0,0,0-3.45-4.93,88.18,88.18,0,0,0-8.86-7.38c-9.21-6.88-17.14-15.47-25.88-23-10.45-9-21.42-17.29-33.65-23.61a1.58,1.58,0,0,1-1.72.51c-2.18-1.49-4-3.43-6.16-4.89-1.16-.77-3.89-3.62-5.52-1.74A40.92,40.92,0,0,0,90,269.73a47.07,47.07,0,0,0-5,8.79,43.36,43.36,0,0,0-3.55,17,52.29,52.29,0,0,0,11.12,30.74c12.6,16.52,34.67,29.43,56.94,23.54a77.18,77.18,0,0,0,21.21-9A32,32,0,0,0,178.12,330.94Z" transform="translate(-30.94 -8.8)"/><path class="cls-5" d="M70.86,348.84a79,79,0,0,1,5.73,6.47,13.9,13.9,0,0,0,9.33-3.68c6.81-6.8,12.63-16.2,17.85-24.3,1.37-2.11,2.72-4.21,4-6.37.81-1.33-.08-.51-1.6-.58a14.52,14.52,0,0,1-6.5-2.57c-13.9-8.71-24.53-20.51-34.56-33.65S46,257.09,37.23,242.9a1.8,1.8,0,0,0-.41.88c-1.5,10.33,1.25,21.41,2.58,31.31,1.38,10.06,4.07,19.21,6.61,28.73,0,.06-.12.09-.14.13s-.22.22-.32.34h0a.22.22,0,0,1,0,.06,5,5,0,0,0-.72,1.17,20.73,20.73,0,0,0-5.23-3c-.08,0-.38.11-.3.26,3.17,6.46,8.73,11.66,13,17.55,2.34,6.5,4.79,13.1,8.1,18.81C62.73,343.19,67.62,345.73,70.86,348.84Z" transform="translate(-30.94 -8.8)"/><path class="cls-4" d="M220.45,379.82c.06,0,.1,0,.16,0,2.71-8.45-12.43-13-18.26-14.28a171.23,171.23,0,0,1-26.57-7.85c-8-3.19-15.53-6.8-22.09-12.33-2.58-2.17-9.42-9.51-13.54-6.5a32.24,32.24,0,0,0-8.25,9.43c-7.52,12.75-4.23,26.6,4.82,35.56,1.1,1.09,2.24,2,3.39,3a60.5,60.5,0,0,0,15.06-1.09c3.38.9,6.92,1.5,10.34,2.17,10,1.91,21,3.45,31.41,2.55C203.18,389.92,218.65,386.16,220.45,379.82Z" transform="translate(-30.94 -8.8)"/><path class="cls-6" d="M294.34,19c2.11,4.59,4.28,9.16,6.59,13.61.65,1.21,1.29,2.54,1.95,3.86a50.43,50.43,0,0,0,5.45,6.18A30.11,30.11,0,0,0,343,46.94c1.72-2.26,1.95-5.39-.34-9.29-6.1-10.43-17.11-17.9-27.25-23.72a51.76,51.76,0,0,0-11.09-5,20.31,20.31,0,0,0-7.1.45C294.51,11.84,293.79,15.26,294.34,19Z" transform="translate(-30.94 -8.8)"/><path class="cls-6" d="M241.13,30.41a36.76,36.76,0,0,0-4.44-9.74,19.11,19.11,0,0,0-14-2.84c-1.53.26-3.28.58-5.14,1-5.11,1.91-10.17,3.95-15.23,6.14A16.44,16.44,0,0,0,199,28.35c-.34.53-.64,1.06-1,1.57a5.88,5.88,0,0,1-.35.71c2,7.69,23.57,10.05,29.19,10.45,1.89.14,3.76.13,5.66.17,1.44.08,12.53,1.27,10.86-4.53C242.72,34.5,241.8,32.57,241.13,30.41Z" transform="translate(-30.94 -8.8)"/><path class="cls-6" d="M250.33,33.05c3.32,3.08,6.1,7,9.89,9.38,7,4.43,15.41,6.67,23.86,7.24,4.6.32,12.27.23,11-7.1a57,57,0,0,0-1.78-7.35c-1-3-1.87-6.18-2.91-9.25-1.2-2.7-2.37-5.34-3.53-8,0-.08-.07-.15-.1-.23-5.09-8.54-12.62-8.94-22.23-8.16-3.37.25-23.13,1.85-19.85,8.79a1.68,1.68,0,0,1,.11.9c.57,1.39,1.11,2.76,1.65,4.15a16,16,0,0,1,1.61,4Z" transform="translate(-30.94 -8.8)"/><path class="cls-6" d="M361.23,86.32C360,80,358.17,73,355,67.49c-2.1-3.46-6.17-6.63-11-8.87-7.6.21-15.17,0-22.69-.37a7.06,7.06,0,0,0-3.2,5c3.07,10.32,16.3,27.35,20.24,29.78C345.09,97.32,364.55,102.41,361.23,86.32Z" transform="translate(-30.94 -8.8)"/><path class="cls-6" d="M272.92,78.22c4.46,6.6,8.92,13.23,16.77,15.52,6.5,1.86,26.12,7.08,31.91-.38a6.43,6.43,0,0,0,1.26-4.71q-4.35-6.87-8.34-13.9c-.6-.74-1.16-1.43-1.56-2-3.77-5.37-6.55-11.29-11.46-15.5l-1.17-.61c-8.32-.85-16.63-1.84-24.89-2.91-2.29-.34-4.61-.6-6.92-.88C259.44,56.92,269.74,73.43,272.92,78.22Z" transform="translate(-30.94 -8.8)"/><path class="cls-6" d="M207.42,63.55c2.81,8.41,6.84,15.37,14.29,19.94,8.33,5.1,17.61,7.76,27.48,8.91,3.26.37,13.53,2.24,15.51-2.36a10,10,0,0,0,.16-7.36c-.32-.68-.66-1.35-.95-2a74.56,74.56,0,0,1-6.67-15.19c-2.06-4.89-4.11-9.8-6.08-14.77-14-1.7-28.06-3.6-41.78-6.29C203,46.62,205.43,57.6,207.42,63.55Z" transform="translate(-30.94 -8.8)"/><path class="cls-6" d="M162.58,77.78a122.34,122.34,0,0,0,14.73,5.46c5.9,1.71,28.15,8.83,26.63-3.51-3.12-8-6.23-16.14-8.93-24.39-6-8.58-15.2-13-26.32-13.33-5.06,3-10,6.07-15,9.32C149.34,61.4,152.9,73.46,162.58,77.78Z" transform="translate(-30.94 -8.8)"/><path class="cls-6" d="M146,73.62c-.21-1-.46-1.93-.7-2.9-.54-2.32-1-4.71-1.52-7.11a1.94,1.94,0,0,1-.28-.29A6.72,6.72,0,0,0,139.85,61c-3.62,2.66-7.15,5.4-10.66,8.2-.44,1.82,1.2,3.7,2.56,4.68a1.12,1.12,0,0,1,.44.61q6,1.73,12.05,3.28l0,0A7.74,7.74,0,0,0,146,73.62Z" transform="translate(-30.94 -8.8)"/><path class="cls-6" d="M344.41,110.73q9.06,13,18,26c.63.91,1.31,1.84,1.94,2.77a10.53,10.53,0,0,0,3.86,1.72c.07-1.65.12-3.28.12-4.9.06-6.06.1-12.07-.42-17.92-.34-3.74-.77-7.37-1.22-11-2.3-3.2-6.15-4.39-10.3-4.65-4.19.58-8.39.93-12.59,1.2C343.29,105.58,343.55,107.92,344.41,110.73Z" transform="translate(-30.94 -8.8)"/><path class="cls-6" d="M255,150.71c1.59.36,3.19.71,4.79,1.11,6.11,1.58,12.28,3.32,18.64,3.93,7.52.75,22.4,3.35,21.93-9.09-1.38-2.2-2.78-4.46-4.13-6.73a78.74,78.74,0,0,1-4.74-6.63,50.87,50.87,0,0,1-4.66-9.16c-4.55-7.84-9-15.75-13.22-23.79-6.89-.78-13.79-1.52-20.66-2.17-10.76-1-21.51-2.06-32.25-3.25-2.38,2-2,6.24-.84,10.53q4.66,11.72,9.74,23.13c3.83,6.82,8.72,12.87,15.28,16.95A71.39,71.39,0,0,0,255,150.71Z" transform="translate(-30.94 -8.8)"/><path class="cls-6" d="M159.74,91.58c-1.11,7.55,1,15,3.86,21.48,5.67,12.75,13.63,24.54,26.62,29.91,7.44,3.08,15.7,6.05,23.86,7.14,5.85.79,16.2.94,14.35-9-.07-.44-.2-.86-.29-1.27-6.26-13-12-26.24-17-39.93-.77-2.09-1.48-4.19-2.19-6.3-14.63-1.81-29.19-4-43.58-6.74C162.48,87.48,160.16,88.81,159.74,91.58Z" transform="translate(-30.94 -8.8)"/><path class="cls-6" d="M143.51,82.05c-5-1.23-10.12-2.55-15.13-4-7.4-.12-14.06,3-15.69,11.94a57.74,57.74,0,0,0,2.12,28.17c4.21,12.47,15.89,19,28.27,20.92,3,.5,16.64,3.58,17.25-2.32a47.39,47.39,0,0,0-.07-7.54c-3.07-11.16-5.95-22.4-8.77-33.66-.84-3.26-1.62-6.57-2.45-9.87A26.77,26.77,0,0,0,143.51,82.05Z" transform="translate(-30.94 -8.8)"/><path class="cls-6" d="M104.5,123.07a40.34,40.34,0,0,0,.84-6.49c-.35-3.82-.4-7.69-.37-11.52-.34-3.3-.93-6.84-2.14-9a11.05,11.05,0,0,0-3.64.75c-4.57,4.79-9,9.7-13.2,14.79a20.93,20.93,0,0,0-.73,2.15c-.12,5.86,4.45,10.14,9.75,12.16C98.23,127.13,103.31,128.49,104.5,123.07Z" transform="translate(-30.94 -8.8)"/><path class="cls-6" d="M339.93,159.26c6.23.35,19.07-.35,16.27-10.82-1.5-5.58-4.5-10-7.13-15l-2.35-4.32a56.56,56.56,0,0,1-4.89-8.21c-5.13-7.66-11.32-13.76-21.1-16.56-7-.25-14-.72-20.94-1.33-12.06,2.37-10.78,12.48-5.81,22.42,1.21,2.13,2.45,4.23,3.74,6.33.36.6.73,1.17,1.08,1.79A81.38,81.38,0,0,0,308.07,145C317,153.53,327.26,158.51,339.93,159.26Z" transform="translate(-30.94 -8.8)"/><path class="cls-6" d="M338.68,262a8.2,8.2,0,0,0,.84-.93c5.24-6.81,8.35-19.89,3.07-26.6-4-5.09-9.68-6.19-15.69-6.26-10,.64-20,1.19-30,1.4a7.28,7.28,0,0,0-2.53,2.31,1.84,1.84,0,0,1-.52.56,9.52,9.52,0,0,0-.05,3.77c2.18,3.07,4.37,6.15,6.53,9.25,2.55,3.57,5.11,7.18,7.66,10.79C317.38,264.57,329.09,268.92,338.68,262Z" transform="translate(-30.94 -8.8)"/><path class="cls-6" d="M301,262.89q-4.37-6.3-8.55-12.77c-4.34-6.74-8.66-13.5-12.91-20.35-21.36-.2-42.65-1.31-63.75-3.44a10.73,10.73,0,0,0-2.76,2.25c-.21,7.45,8.46,20.87,10.86,24.27,7.34,10.43,15.48,20,27.85,24.17s26.2,4.15,39.66.5C301.59,274.71,302.81,269,301,262.89Z" transform="translate(-30.94 -8.8)"/><path class="cls-6" d="M225.61,273.35a15.42,15.42,0,0,0,.15-3.37q-14.35-21.92-26.87-45.07c-.07-.15-.16-.31-.22-.44q-6.16-.79-12.26-1.68c-13.1-1.93-26.1-4.17-39.12-6.41-5.09,1.06-7.06,4.6-7.28,9.08a132,132,0,0,0,4.61,13.34c4.24,9.82,9.14,18.79,17.91,24.95,14.17,9.9,31.11,12.16,48.42,13.72C214,277.75,224.59,279.32,225.61,273.35Z" transform="translate(-30.94 -8.8)"/><path class="cls-6" d="M140.52,257.21a87.61,87.61,0,0,0-3.82-13.6c-.4-1-.77-2-1.14-3.11-1.88-5-3.68-9.95-5.39-15-.63-1.47-1.28-2.86-2-4.19a26.28,26.28,0,0,0-8-9.32c-12.2-1.82-24.45-3.56-36.37-6.38-1.44-.35-2.86-.75-4.3-1.1-3.44,1.65-4.32,6.44-4,11.88q2.59,10.74,5.78,21.27a42.68,42.68,0,0,0,19.8,19.5c8.48,2.81,17.18,5.22,26,7.3,1.09.12,2.18.24,3.29.3C134.65,265,142.25,265.57,140.52,257.21Z" transform="translate(-30.94 -8.8)"/><path class="cls-6" d="M47.93,229c3.45,2.88,24.89,19.72,29.4,14,0,0,0,0,0,0a399.86,399.86,0,0,1-10.72-42c-7.48-2.22-14.84-4.76-22-7.69C34,198.08,42.31,224.32,47.93,229Z" transform="translate(-30.94 -8.8)"/><path class="cls-6" d="M251,293.17a121.37,121.37,0,0,0,7.2,10.62c6.38,8,14.12,16.68,23.52,21.06s19.11,4.08,26.54-3.87c1.73-2.39,3.45-4.82,5.11-7.26a124.68,124.68,0,0,0,8-17.51,13.39,13.39,0,0,0-2-6.92c-.47-.75-1-1.49-1.42-2.24a20.45,20.45,0,0,0-10-5.46c-13.86,1.77-27.77,2.3-41.25,2.87-4.31.14-8.61.22-12.9.21C250.1,285.8,247.76,288,251,293.17Z" transform="translate(-30.94 -8.8)"/><path class="cls-6" d="M264.12,322.65c-2.59-7.19-24.13-31.57-28.79-38.32a489.7,489.7,0,0,1-56.13-5.83c-2.78-.43-5.58-.85-8.39-1.34-3.89,1.64-6.56,5.45-4.41,10a35.81,35.81,0,0,0,1.91,3.82c4.76,8.35,9.47,17,15.64,24.33a60.07,60.07,0,0,0,33.18,20.18C225.73,337.51,272.24,345.08,264.12,322.65Z" transform="translate(-30.94 -8.8)"/><path class="cls-6" d="M177.17,321.37A361.16,361.16,0,0,1,156.36,287a40,40,0,0,0-8.4-8.12c-6.13-4.18-12.52-5.16-19.61-7.22-4.14-1.22-29.56-10.13-34.87-6.73.44,4.6,2.79,10.67,3.47,12.43a114.64,114.64,0,0,0,7.63,15.86c7.86,13.29,17.44,25.63,29.71,33.23,11.84,4.92,25.54,6.11,39,6.3a13.9,13.9,0,0,0,5.34-2C179.56,328.35,178.73,325,177.17,321.37Z" transform="translate(-30.94 -8.8)"/><path class="cls-6" d="M109.76,315c-3.61-6-7.09-12.1-10.35-18.31a317.77,317.77,0,0,1-14.85-32.94c-3-3.72-28.19-20.71-31.25-22.1-5-2.08-11.76-4.47-15-.41a33,33,0,0,0-.16,5.31,95.69,95.69,0,0,0,20,49c7.15,9,15.69,17.25,26.42,21.6A79,79,0,0,0,102,321.92C108.41,322.91,110,319.62,109.76,315Z" transform="translate(-30.94 -8.8)"/><path class="cls-6" d="M48.18,308.52s.06,0,.08,0l.83.33c1.54-.56,2.51-2,1.95-5.17a57.63,57.63,0,0,0-1.47-6.26,254.47,254.47,0,0,1-12.08-29.5c-.47-.63-.94-1.29-1.42-1.95a30.08,30.08,0,0,0-2.52-2.9,7.9,7.9,0,0,0-2.61-.61,146.55,146.55,0,0,0,7.21,40.25C40.85,305.47,44.72,306.76,48.18,308.52Z" transform="translate(-30.94 -8.8)"/><path class="cls-6" d="M222.89,366.85a1.6,1.6,0,0,1,.81.34,32.72,32.72,0,0,0,25.15,8.2,153.11,153.11,0,0,0,25.4-17.26c7.11-9.76-2.7-11.85-10.48-12.89-19.63,1.12-39-.89-58.23-2.88-2.16.63-3.17,2.27-.71,5.16,1.89,2.19,4,4.15,5.95,6.25,3.78,4,7.26,8.3,11.2,12.17C222.25,366.24,222.57,366.53,222.89,366.85Z" transform="translate(-30.94 -8.8)"/><path class="cls-6" d="M159.94,381.86c-4.15-4.44-8.18-9-12-13.65q-9.42-11.41-18.18-23.37c-4.28-4.42-8.55-9.11-14.12-11.4a107,107,0,0,0-19.35-5.19c-2.19-.43-22.22-3.6-21.79-.59a1.69,1.69,0,0,1-.09.73c2.74,9.13,10.84,15.89,16.93,22.33,7.8,8.29,16,16.24,25.82,22a98.21,98.21,0,0,0,28,11.14c1.77.41,9.84,2.22,13.76,1.44A6.24,6.24,0,0,0,159.94,381.86Z" transform="translate(-30.94 -8.8)"/><path class="cls-6" d="M105.35,373.85A209.5,209.5,0,0,1,79.47,346.3a50.27,50.27,0,0,1-8.55-11.65c-1.27-1.83-2.53-3.72-3.74-5.57-.36-.57-.71-1.2-1.07-1.78a1.45,1.45,0,0,1-.84-.65c-3-5.32-7-7.89-12.95-8.9-1.27-.2-5.91-1.25-8.27-.36a119.65,119.65,0,0,0,7.08,12.7,130.3,130.3,0,0,0,47,43.19C101.41,374.13,104,374.44,105.35,373.85Z" transform="translate(-30.94 -8.8)"/><path class="cls-6" d="M220.7,373.14a321.69,321.69,0,0,1-28.17-30.8c-8.93-1.34-17.9-2.36-26.94-3.25-2.14-.19-4.61-.73-7.2-1.22-3.57-.48-7.16-1-10.72-1.51a19.62,19.62,0,0,0-7.46,1c-3.31,2.32-4.07,5-2.25,8.16.15.13.28.26.46.39A1.53,1.53,0,0,1,139,347a34.63,34.63,0,0,0,2.74,4.22c2.18,2.82,4.52,5.47,6.77,8.24,5.48,6.85,11.49,13.42,18.79,18.18a54.62,54.62,0,0,0,39.33,8.54C213.66,384.26,223.29,380.56,220.7,373.14Z" transform="translate(-30.94 -8.8)"/><path class="cls-6" d="M340.43,204.91c-9.56-11.93-18.49-24.49-26.95-37.4-18.9-.65-37.5-2.46-56.06-4.82-8.55,4,1.57,18,5,23.13.25.37.51.72.72,1.07A94.34,94.34,0,0,0,283.67,204c12.48,7.66,25.71,10.14,39.53,10.86C333.2,214.94,341.44,212.83,340.43,204.91Z" transform="translate(-30.94 -8.8)"/><path class="cls-6" d="M178.87,161a63.53,63.53,0,0,0,3.52,11.78,99.2,99.2,0,0,0,9,16.47c8,11.8,17.82,21.93,31.52,26.43,9.78,3.2,21.82,5.82,32.62,5.13,13.8-.86,10.94-10.74,6.52-19.56-4.9-8.25-9.76-16.56-14.5-24.95-.15-.27-.28-.49-.41-.75-3-5.1-5.82-10.21-8.62-15.4-1-.15-1.95-.28-2.95-.44-17.43-2.55-34.9-5-52.27-7.83C180,153.23,177.8,156.13,178.87,161Z" transform="translate(-30.94 -8.8)"/><path class="cls-6" d="M168.52,212.5c3.09.57,18.13,3.94,18.9-2a18.66,18.66,0,0,0-.73-7.54c-1.86-6.16-10.41-25.27-11.68-29-.07-.2-.16-.36-.23-.57q-1.62-4.22-3.2-8.44c0-.07-.08-.16-.13-.26-2.24-4.91-4.79-10.41-8.95-13.86a24.34,24.34,0,0,0-8.54-4.34q-7.86-1.63-15.69-3.56c-4.5-1.09-9.19-2.13-13.91-3.22-10.67.67-4.63,22.9-3,29.21,2.65,10.59,6.82,21.6,14.87,28.63C145.23,205.35,156.61,210.23,168.52,212.5Z" transform="translate(-30.94 -8.8)"/><path class="cls-6" d="M120.25,196.69a67.63,67.63,0,0,0-.81-6.87,1.65,1.65,0,0,1,0-.59c-1.41-5.54-2.79-11.13-4-16.74-1.7-7.92-3.32-15.92-4.85-23.93-1.76-4.59-3.71-9.38-7.57-11.67-8-4.71-20.72-10.59-30.88-7.23-1,1.43-2,2.86-3,4.33-.06.1-.15.21-.24.34-6.06,14.31,1,41.29,5.55,49.49,5.33,9.5,12,15.15,22.48,17.26,3.55.71,16.88,3.8,21.82.44A11.68,11.68,0,0,0,120.25,196.69Z" transform="translate(-30.94 -8.8)"/><path class="cls-6" d="M56,191.54c3.72,1.06,7.37,2.4,8.57-2.07q-2.78-16.32-4.43-32.91c-.47-1.2-1.14-2.69-2.24-3a3.26,3.26,0,0,0-.64.43,238.92,238.92,0,0,0-12.94,27.7C44.8,187.75,50.8,190.07,56,191.54Z" transform="translate(-30.94 -8.8)"/><path class="cls-6" d="M343.78,197.81a3.64,3.64,0,0,0,.33.55c3.16,2.58,6.18,6,10.14,7.3a4.19,4.19,0,0,0,3.88-.54,6.64,6.64,0,0,0,.64-1,35.84,35.84,0,0,0,2.82-6.39c.8-3.93,1.54-7.83,2.21-11.77.42-4.49.4-9.48-1.46-13.09-2.17-4.15-5.62-5.86-9.54-6.48A215.58,215.58,0,0,1,329,167.77c-5.22,5.13,4.68,17.82,7.09,21.38a64.34,64.34,0,0,0,6.37,7.94A1.73,1.73,0,0,1,343.78,197.81Z" transform="translate(-30.94 -8.8)"/><g class="cls-7"><path class="cls-8" d="M317.28,30.09c8.13,5.71,17.14,10.62,27,12.54a10.9,10.9,0,0,0-1.65-5c-6.1-10.43-17.11-17.9-27.25-23.72a51.76,51.76,0,0,0-11.09-5,19.52,19.52,0,0,0-6.87.42C300.79,18.41,310.06,25,317.28,30.09Z" transform="translate(-30.94 -8.8)"/><path class="cls-8" d="M243.52,37.67a3.07,3.07,0,0,0-.15-1c-.65-2.22-1.57-4.15-2.24-6.31a36.76,36.76,0,0,0-4.44-9.74,19.11,19.11,0,0,0-14-2.84c-1.53.26-3.28.58-5.14,1-5.11,1.91-10.17,3.95-15.23,6.14A16.44,16.44,0,0,0,199,28.35c-.13.19-.24.39-.36.57C214.36,23.19,230.61,30.08,243.52,37.67Z" transform="translate(-30.94 -8.8)"/><path class="cls-8" d="M258.77,17.87a82.43,82.43,0,0,1,16.12,7.35,54,54,0,0,1,13.66,11.6c2.28,2.83,4.27,5.9,6.46,8.79a6.77,6.77,0,0,0,.06-3,57,57,0,0,0-1.78-7.35c-1-3-1.87-6.18-2.91-9.25-1.2-2.7-2.37-5.34-3.53-8,0-.08-.07-.15-.1-.23-5.09-8.54-12.62-8.94-22.23-8.16-2.79.21-16.62,1.34-19.63,5.56C249.28,16.56,254.38,16.35,258.77,17.87Z" transform="translate(-30.94 -8.8)"/><path class="cls-8" d="M330.39,65a97,97,0,0,1,11.76,9c4.26,3.6,8.63,7.24,12.07,11.76,2.14,2.82,3.79,6.09,5.78,9.06,1.46-1.73,2.08-4.42,1.23-8.47C360,80,358.17,73,355,67.49c-2.1-3.46-6.17-6.63-11-8.87-7.6.21-15.17,0-22.69-.37a8,8,0,0,0-1.58,1.42C323.23,61.48,327,63,330.39,65Z" transform="translate(-30.94 -8.8)"/><path class="cls-8" d="M292.15,65.36c11.52,7.3,20.54,17.19,30.25,26.63a7.15,7.15,0,0,0,.46-3.34q-4.35-6.87-8.34-13.9c-.6-.74-1.16-1.43-1.56-2-3.77-5.37-6.55-11.29-11.46-15.5l-1.17-.61c-8.32-.85-16.63-1.84-24.89-2.91-2.29-.34-4.61-.6-6.92-.88a5.86,5.86,0,0,0-2.49,2C275.51,55.13,284.77,60.73,292.15,65.36Z" transform="translate(-30.94 -8.8)"/><path class="cls-8" d="M241.58,64.9A103.2,103.2,0,0,1,256.93,80a107.85,107.85,0,0,0,8,9.38,10.12,10.12,0,0,0,0-6.68c-.32-.68-.66-1.35-.95-2a74.56,74.56,0,0,1-6.67-15.19c-2.06-4.89-4.11-9.8-6.08-14.77-14-1.7-28.06-3.6-41.78-6.29a5.3,5.3,0,0,0-2.74,2.11C218.43,52.53,231.15,56.39,241.58,64.9Z" transform="translate(-30.94 -8.8)"/><path class="cls-8" d="M169.92,52.18a59.11,59.11,0,0,1,14.23,9.21c7.41,6.13,14.33,13.15,19.56,21.47a7.58,7.58,0,0,0,.23-3.13c-3.12-8-6.23-16.14-8.93-24.39-6-8.58-15.2-13-26.32-13.33-4.11,2.44-8.17,4.93-12.17,7.54C161.05,50.13,165.62,50.37,169.92,52.18Z" transform="translate(-30.94 -8.8)"/><path class="cls-8" d="M144.76,77.07A7.2,7.2,0,0,0,146,73.62c-.21-1-.46-1.93-.7-2.9-.54-2.32-1-4.71-1.52-7.11a1.94,1.94,0,0,1-.28-.29A6.72,6.72,0,0,0,139.85,61c-1.92,1.42-3.83,2.85-5.71,4.32C137.49,69.46,141.06,73.32,144.76,77.07Z" transform="translate(-30.94 -8.8)"/><path class="cls-8" d="M368.24,122.76c-.07-1.45-.15-2.89-.28-4.32-.34-3.74-.77-7.37-1.22-11-2.3-3.2-6.15-4.39-10.3-4.65-4.19.58-8.39.93-12.59,1.2a5.93,5.93,0,0,0-.27,1.22C354.11,107.36,361.66,114.57,368.24,122.76Z" transform="translate(-30.94 -8.8)"/><path class="cls-8" d="M300.25,148.68a16.15,16.15,0,0,0,.08-2c-1.38-2.2-2.78-4.46-4.13-6.73a78.74,78.74,0,0,1-4.74-6.63,50.87,50.87,0,0,1-4.66-9.16c-4.55-7.84-9-15.75-13.22-23.79-6.89-.78-13.79-1.52-20.66-2.17-10.76-1-21.51-2.06-32.25-3.25a4.72,4.72,0,0,0-1.56,2.83C251.68,105.39,278.81,123.65,300.25,148.68Z" transform="translate(-30.94 -8.8)"/><path class="cls-8" d="M228.5,144.71a9.78,9.78,0,0,0-.07-3.64c-.07-.44-.2-.86-.29-1.27-6.26-13-12-26.24-17-39.93-.77-2.09-1.48-4.19-2.19-6.3-14.63-1.81-29.19-4-43.58-6.74a10.12,10.12,0,0,0-3.62,1.52C191.23,97,214,117.29,228.5,144.71Z" transform="translate(-30.94 -8.8)"/><path class="cls-8" d="M127.33,85.54c5,4.6,8.45,10.53,12.11,16.32,7.15,11.39,14.05,23,20.91,34.58a48.14,48.14,0,0,0-.09-7.22c-3.07-11.16-5.95-22.4-8.77-33.66-.84-3.26-1.62-6.57-2.45-9.87a26.77,26.77,0,0,0-5.53-3.64c-5-1.23-10.12-2.55-15.13-4a17.71,17.71,0,0,0-9.25,2.11A30.69,30.69,0,0,1,127.33,85.54Z" transform="translate(-30.94 -8.8)"/><path class="cls-8" d="M104.36,123.53c0-.16.09-.31.14-.46a40.34,40.34,0,0,0,.84-6.49c-.35-3.82-.4-7.69-.37-11.52-.34-3.3-.93-6.84-2.14-9a11.05,11.05,0,0,0-3.64.75c-2.14,2.21-4.21,4.5-6.26,6.78C99.24,106.32,102.24,115.54,104.36,123.53Z" transform="translate(-30.94 -8.8)"/><path class="cls-8" d="M325.3,121.28a185.86,185.86,0,0,1,20.13,19.36c3.78,4.12,7.11,8.71,10.73,13a8.36,8.36,0,0,0,0-5.18c-1.5-5.58-4.5-10-7.13-15l-2.35-4.32a56.56,56.56,0,0,1-4.89-8.21c-5.13-7.66-11.32-13.76-21.1-16.56-7-.25-14-.72-20.94-1.33a12.58,12.58,0,0,0-7,3.42C304.84,107.76,316.26,114.06,325.3,121.28Z" transform="translate(-30.94 -8.8)"/><path class="cls-8" d="M324.35,237.7c4.73,1.57,9.65,3.51,13.67,6.49,2.27,1.75,4.4,3.72,6.57,5.64,1.29-5.62,1-11.5-2-15.32-4-5.09-9.68-6.19-15.69-6.26-10,.64-20,1.19-30,1.4a7.28,7.28,0,0,0-2.53,2.31,1.84,1.84,0,0,1-.52.56,1.08,1.08,0,0,0,0,.35C304.12,233.22,314.79,234.47,324.35,237.7Z" transform="translate(-30.94 -8.8)"/><path class="cls-8" d="M261.67,239.65c9.26,3.61,17.27,7.6,24.35,14.7,5.08,5.14,9.85,10.64,15.38,15.22a12.54,12.54,0,0,0-.43-6.68q-4.37-6.3-8.55-12.77c-4.34-6.74-8.66-13.5-12.91-20.35-21.36-.2-42.65-1.31-63.75-3.44a10.71,10.71,0,0,0-2.62,2.1C228.88,233.33,246.23,233.56,261.67,239.65Z" transform="translate(-30.94 -8.8)"/><path class="cls-8" d="M190.51,242.46a205.15,205.15,0,0,1,24.23,19.23c3.62,3.26,7.53,6.29,11,9.68,0-.45,0-.91,0-1.39q-14.35-21.92-26.87-45.07c-.07-.15-.16-.31-.22-.44q-6.16-.79-12.26-1.68c-13.1-1.93-26.1-4.17-39.12-6.41a8.87,8.87,0,0,0-4.69,2.43C160.14,223.45,175.61,232.51,190.51,242.46Z" transform="translate(-30.94 -8.8)"/><path class="cls-8" d="M92.2,211.14c8.1,4.05,15.84,7.67,22.33,14.2,10.63,10.63,17.65,24.23,25.21,37.42.93-1.14,1.34-2.9.78-5.55a87.61,87.61,0,0,0-3.82-13.6c-.4-1-.77-2-1.14-3.11-1.88-5-3.68-9.95-5.39-15-.63-1.47-1.28-2.86-2-4.19a26.28,26.28,0,0,0-8-9.32c-12.2-1.82-24.45-3.56-36.37-6.38-1.44-.35-2.86-.75-4.3-1.1a8.26,8.26,0,0,0-.69.46C83.54,206.25,87.88,209,92.2,211.14Z" transform="translate(-30.94 -8.8)"/><path class="cls-8" d="M47.56,196c3.84,3.92,7.63,8,11.14,12.26,6.82,8.31,11.54,18.36,16.63,28.06C71.93,224.73,69,213,66.63,201c-7.31-2.17-14.51-4.63-21.55-7.48A29.55,29.55,0,0,1,47.56,196Z" transform="translate(-30.94 -8.8)"/><path class="cls-8" d="M291.31,294.18c9.43,2.41,17.87,6.69,26.23,11.2,1.36-3,2.6-6.09,3.78-9.17a13.39,13.39,0,0,0-2-6.92c-.47-.75-1-1.49-1.42-2.24a20.45,20.45,0,0,0-10-5.46c-13.86,1.77-27.77,2.3-41.25,2.87-4.31.14-8.61.22-12.9.21a9.24,9.24,0,0,0-2.95,1.45C264,289.82,278,290.84,291.31,294.18Z" transform="translate(-30.94 -8.8)"/><path class="cls-8" d="M224,300.91c9.86,4.74,19.62,10.06,28.19,16.81,4.37,3.4,8.53,7.11,12.83,10.61a13.52,13.52,0,0,0-.91-5.68c-2.59-7.19-24.13-31.57-28.79-38.32a489.7,489.7,0,0,1-56.13-5.83c-2.78-.43-5.58-.85-8.39-1.34a8.5,8.5,0,0,0-4.64,4.3A241,241,0,0,1,224,300.91Z" transform="translate(-30.94 -8.8)"/><path class="cls-8" d="M144.29,290.46c12.33,10.57,23,23,34.27,34.74a28,28,0,0,0-1.39-3.83A361.16,361.16,0,0,1,156.36,287a40,40,0,0,0-8.4-8.12c-6.13-4.18-12.52-5.16-19.61-7.22-3.83-1.15-25.79-8.79-33.32-7.3C112.68,270.89,129.89,278.12,144.29,290.46Z" transform="translate(-30.94 -8.8)"/><path class="cls-8" d="M38.47,248.63C45,252.26,52,255.18,57.94,259.71A148.6,148.6,0,0,1,80,280.27c6.7,7.69,12.76,16,19.67,23.55,3.17,3.43,6.41,6.76,9.52,10.26-3.41-5.72-6.7-11.47-9.8-17.4a317.77,317.77,0,0,1-14.85-32.94c-3-3.72-28.19-20.71-31.25-22.1-5-2.08-11.76-4.47-15-.41a33,33,0,0,0-.16,5.31C38.3,247.28,38.38,248,38.47,248.63Z" transform="translate(-30.94 -8.8)"/><path class="cls-8" d="M50.69,302a43.89,43.89,0,0,0-1.12-4.59,254.47,254.47,0,0,1-12.08-29.5c-.47-.63-.94-1.29-1.42-1.95a30.08,30.08,0,0,0-2.52-2.9,7.9,7.9,0,0,0-2.61-.61,162.19,162.19,0,0,0,1.78,17.74C39,287.25,45.08,294.41,50.69,302Z" transform="translate(-30.94 -8.8)"/><path class="cls-8" d="M266.26,364.34c2.71-2,5.4-4,8-6.21,7.11-9.76-2.7-11.85-10.48-12.89-19.63,1.12-39-.89-58.23-2.88a4.56,4.56,0,0,0-1.43.71C223.81,352.28,248.86,351.35,266.26,364.34Z" transform="translate(-30.94 -8.8)"/><path class="cls-8" d="M127.47,352.65a229.22,229.22,0,0,1,22.31,21.24c3.2,3.34,6.46,6.68,9.89,9.75a7.17,7.17,0,0,0,.27-1.78c-4.15-4.44-8.18-9-12-13.65q-9.42-11.41-18.18-23.37c-4.28-4.42-8.55-9.11-14.12-11.4a107,107,0,0,0-19.35-5.19c-1.8-.36-15.57-2.53-20.25-1.67C94.39,333,112.28,340.28,127.47,352.65Z" transform="translate(-30.94 -8.8)"/><path class="cls-8" d="M52.89,324.71a75.57,75.57,0,0,1,8.76,6.81C69.1,337.8,75.38,345.09,82,352.26c5.66,6.2,11.17,12.61,18.18,17.18.46.31,1,.65,1.46.94A211.15,211.15,0,0,1,79.47,346.3a50.27,50.27,0,0,1-8.55-11.65c-1.27-1.83-2.53-3.72-3.74-5.57-.36-.57-.71-1.2-1.07-1.78a1.45,1.45,0,0,1-.84-.65c-3-5.32-7-7.89-12.95-8.9-1.27-.2-5.91-1.25-8.27-.36.45.94,1,1.83,1.43,2.78C47.74,322,50.48,323.23,52.89,324.71Z" transform="translate(-30.94 -8.8)"/><path class="cls-8" d="M187.42,356.91c11.16,6.89,22.11,14.11,33,21.47a6.24,6.24,0,0,0,.3-5.24,321.69,321.69,0,0,1-28.17-30.8c-8.93-1.34-17.9-2.36-26.94-3.25-2.14-.19-4.61-.73-7.2-1.22-3.57-.48-7.16-1-10.72-1.51a19.62,19.62,0,0,0-7.46,1,14.18,14.18,0,0,0-1.14.9C155.91,342.79,172.65,347.79,187.42,356.91Z" transform="translate(-30.94 -8.8)"/><path class="cls-8" d="M301.63,179.21c14.27,7.4,26.14,18.26,38.8,28.06a8.46,8.46,0,0,0,0-2.36c-9.56-11.93-18.49-24.49-26.95-37.4-18.9-.65-37.5-2.46-56.06-4.82a6.1,6.1,0,0,0-2.32,1.84C271.56,166,287.38,171.8,301.63,179.21Z" transform="translate(-30.94 -8.8)"/><path class="cls-8" d="M227.64,173.39c13.52,10.11,24.54,23.07,37.11,34.26a43.82,43.82,0,0,0-2.72-6.43c-4.9-8.25-9.76-16.56-14.5-24.95-.15-.27-.28-.49-.41-.75-3-5.1-5.82-10.21-8.62-15.4-1-.15-1.95-.28-2.95-.44-17.43-2.55-34.9-5-52.27-7.83a7.88,7.88,0,0,0-2,1.2C197.71,157.59,214.07,163.27,227.64,173.39Z" transform="translate(-30.94 -8.8)"/><path class="cls-8" d="M144.33,155.93c8.79,5.46,15.78,13.85,22.25,21.92C172.83,185.6,179.83,193,186,201c-2.63-7.46-9.85-23.67-11-27.1l-.23-.57q-1.62-4.22-3.2-8.44c0-.07-.08-.16-.13-.26-2.24-4.91-4.79-10.41-8.95-13.86a24.34,24.34,0,0,0-8.54-4.34q-7.86-1.63-15.69-3.56c-4.5-1.09-9.19-2.13-13.91-3.22a5.5,5.5,0,0,0-4.57,2.73C127.47,147.69,136.38,151,144.33,155.93Z" transform="translate(-30.94 -8.8)"/><path class="cls-8" d="M89.46,141.2c4.78,5.89,8.36,13,11.54,20,6.11,13.36,10.93,27.41,17.23,40.63a3.38,3.38,0,0,0,.58-.34,11.68,11.68,0,0,0,1.44-4.83,67.63,67.63,0,0,0-.81-6.87,1.65,1.65,0,0,1,0-.59c-1.41-5.54-2.79-11.13-4-16.74-1.7-7.92-3.32-15.92-4.85-23.93-1.76-4.59-3.71-9.38-7.57-11.67-6.69-3.93-16.65-8.67-25.67-8.16A118.71,118.71,0,0,1,89.46,141.2Z" transform="translate(-30.94 -8.8)"/><path class="cls-8" d="M58.29,173.27a123.66,123.66,0,0,1,5.56,17.79,6,6,0,0,0,.69-1.59q-2.78-16.32-4.43-32.91c-.47-1.2-1.14-2.69-2.24-3a3.26,3.26,0,0,0-.64.43c-1.59,2.95-3.1,5.9-4.58,8.87C55.66,165,56.88,169.6,58.29,173.27Z" transform="translate(-30.94 -8.8)"/><path class="cls-8" d="M352.94,178.29a58.24,58.24,0,0,1,10.72,8.36c0-.21.1-.46.14-.67.42-4.49.4-9.48-1.46-13.09-2.17-4.15-5.62-5.86-9.54-6.48A215.58,215.58,0,0,1,329,167.77a4.92,4.92,0,0,0-1.3,2.33C336.35,171.88,345.34,173.81,352.94,178.29Z" transform="translate(-30.94 -8.8)"/></g><g class="cls-9"><path class="cls-10" d="M342.66,37.65a52.7,52.7,0,0,0-12.86-14.2c1.32,5.83,3,11.47,2.74,17.72a1,1,0,0,1-.62.78c-5.8,1.87-13.32,3.6-20.23,3.33A30,30,0,0,0,343,46.94C344.72,44.68,345,41.55,342.66,37.65Z" transform="translate(-30.94 -8.8)"/><path class="cls-10" d="M243.37,36.72c-.65-2.22-1.57-4.15-2.24-6.31a36.76,36.76,0,0,0-4.44-9.74,6.57,6.57,0,0,0-1-.58c-.33,5.34-.57,10.81-4.91,14.43-3.38,2.86-7.68,4.47-12,5.63,3.41.56,6.41.82,8,.93,1.89.14,3.76.13,5.66.17C234,41.33,245,42.52,243.37,36.72Z" transform="translate(-30.94 -8.8)"/><path class="cls-10" d="M295.07,42.57a57,57,0,0,0-1.78-7.35c-1-3-1.87-6.18-2.91-9.25-1.2-2.7-2.37-5.34-3.53-8,0-.08-.07-.15-.1-.23a21.35,21.35,0,0,0-2.51-3.35,81.81,81.81,0,0,1,1.79,11c.4,5.12.29,9.59-4.72,12.51-5.89,3.41-12.59,4.93-19,5.7a52.68,52.68,0,0,0,21.73,6C288.68,50,296.35,49.9,295.07,42.57Z" transform="translate(-30.94 -8.8)"/><path class="cls-10" d="M361.23,86.32C360,80,358.17,73,355,67.49a18.57,18.57,0,0,0-3.18-3.78c.43,6.17.47,12.46,1,18.65a.89.89,0,0,1-.43.64c-6.41,3.82-14.13,4.24-21.1,2.63,3,3.72,5.62,6.58,7.06,7.44C345.09,97.32,364.55,102.41,361.23,86.32Z" transform="translate(-30.94 -8.8)"/><path class="cls-10" d="M322.86,88.65q-4.35-6.87-8.34-13.9c-.6-.74-1.16-1.43-1.56-2-2.88-4.1-5.2-8.55-8.32-12.3,2.18,6.91,4.54,13.76,6.12,20.91.05.16-.1.38-.24.51-6.35,5.35-18.83,8.78-28.79,7.35a20.18,20.18,0,0,0,8,4.52c6.5,1.86,26.12,7.08,31.91-.38A6.43,6.43,0,0,0,322.86,88.65Z" transform="translate(-30.94 -8.8)"/><path class="cls-10" d="M264.7,90a10,10,0,0,0,.16-7.36c-.32-.68-.66-1.35-.95-2a74.56,74.56,0,0,1-6.67-15.19c-2.06-4.89-4.11-9.8-6.08-14.77-.21,0-.38,0-.56,0,1.47,6,1.58,12.32,1.46,18.69-.08,2.26.69,4.23-1.36,5.59a39,39,0,0,1-7.35,3.91c-6.68,2.69-15,4.92-22.35,4.16.25.16.47.33.71.5,8.33,5.1,17.61,7.76,27.48,8.91C252.45,92.77,262.72,94.64,264.7,90Z" transform="translate(-30.94 -8.8)"/><path class="cls-10" d="M203.94,79.73c-3.12-8-6.23-16.14-8.93-24.39A30.41,30.41,0,0,0,187.74,48a68.36,68.36,0,0,1,7.14,23.93c.1.64-.95.88-1.38.84C181.59,70.89,163.24,74,153,66.93a17.74,17.74,0,0,0,9.61,10.85,122.34,122.34,0,0,0,14.73,5.46C183.21,85,205.46,92.07,203.94,79.73Z" transform="translate(-30.94 -8.8)"/><path class="cls-10" d="M146,73.62c-.21-1-.46-1.93-.7-2.9-.54-2.32-1-4.71-1.52-7.11a1.94,1.94,0,0,1-.28-.29A6.72,6.72,0,0,0,139.85,61c-3.62,2.66-7.15,5.4-10.66,8.2-.44,1.82,1.2,3.7,2.56,4.68a1.12,1.12,0,0,1,.44.61q6,1.73,12.05,3.28l0,0A7.74,7.74,0,0,0,146,73.62Z" transform="translate(-30.94 -8.8)"/><path class="cls-10" d="M368.38,136.36c.06-6.06.1-12.07-.42-17.92-.25-2.51-.53-5-.8-7.4-1,8.93-2,17.89-4,26.72.41.6.82,1.17,1.22,1.78a10.53,10.53,0,0,0,3.86,1.72C368.33,139.61,368.38,138,368.38,136.36Z" transform="translate(-30.94 -8.8)"/><path class="cls-10" d="M300.33,146.66c-1.38-2.2-2.78-4.46-4.13-6.73a78.74,78.74,0,0,1-4.74-6.63,50.87,50.87,0,0,1-4.66-9.16c-4-7-7.93-13.89-11.72-21,.68,3.87,2.24,7.64,3.4,11.09,1.45,4.34,3.27,8.57,4.62,13,2.08,6.63-8.1,10.58-12.75,11.95-13.34,3.91-30.27,1.76-39.45-8.34a44,44,0,0,0,13.95,14.74A71.39,71.39,0,0,0,255,150.71c1.59.36,3.19.71,4.79,1.11,6.11,1.58,12.28,3.32,18.64,3.93C285.92,156.5,300.8,159.1,300.33,146.66Z" transform="translate(-30.94 -8.8)"/><path class="cls-10" d="M228.43,141.07c-.07-.44-.2-.86-.29-1.27-5.14-10.66-9.92-21.53-14.25-32.67.23,1.75.43,3.48.59,5.24.41,5.38,1.16,11.63-4.13,15.21-11.1,7.45-24.12,9-34.95,4.62A40.77,40.77,0,0,0,190.22,143c7.44,3.08,15.7,6.05,23.86,7.14C219.93,150.9,230.28,151.05,228.43,141.07Z" transform="translate(-30.94 -8.8)"/><path class="cls-10" d="M160.33,136.76a47.39,47.39,0,0,0-.07-7.54c-3.07-11.16-5.95-22.4-8.77-33.66-.83-3.25-1.63-6.52-2.42-9.77-.14,1.89-.3,3.82-.49,5.75-.71,7.29-1.47,14.65-1.69,21.92a.88.88,0,0,1-.65.77c-11.26,4.35-25.23.89-33.95-7.34a59.77,59.77,0,0,0,2.52,11.27c4.21,12.47,15.89,19,28.27,20.92C146.12,139.58,159.72,142.66,160.33,136.76Z" transform="translate(-30.94 -8.8)"/><path class="cls-10" d="M104.5,123.07a40.34,40.34,0,0,0,.84-6.49c-.35-3.82-.4-7.69-.37-11.52-.34-3.3-.93-6.84-2.14-9,0,0-.11,0-.18,0,1.15,6.85,2.27,15.72-2.24,20.29-3,3.17-7.68,4.74-12.17,5A17.29,17.29,0,0,0,95,125.93C98.23,127.13,103.31,128.49,104.5,123.07Z" transform="translate(-30.94 -8.8)"/><path class="cls-10" d="M356.2,148.44c-1.5-5.58-4.5-10-7.13-15l-2.35-4.32a56.56,56.56,0,0,1-4.89-8.21,47,47,0,0,0-9-10.27c1.89,4.3,4,8.54,5.73,13s4.47,8.17,6.15,12.57c2.24,5.79-.78,11-6.82,13.19-7.22,2.67-15.24,2.09-22.17.31-1-.21-2-.5-3-.82a47.15,47.15,0,0,0,27.28,10.39C346.16,159.61,359,158.91,356.2,148.44Z" transform="translate(-30.94 -8.8)"/><path class="cls-10" d="M342.59,234.51a14.33,14.33,0,0,0-3.2-3c1.05,4,2,8.13.73,12.11-1.62,5.13-5.59,8.72-10.34,10.74-5.95,2.55-13.84,4-20.63,3,9.17,7.57,20.33,11.35,29.53,4.74a8.2,8.2,0,0,0,.84-.93C344.76,254.3,347.87,241.22,342.59,234.51Z" transform="translate(-30.94 -8.8)"/><path class="cls-10" d="M301,262.89q-4.37-6.3-8.55-12.77c-4.34-6.74-8.66-13.5-12.91-20.35-.3,0-.6,0-.9,0,.7,7.61.92,15.43,3.82,22.34.11.24,0,.42-.19.69-7.45,8.34-17.1,15.77-27.73,17.77a31.17,31.17,0,0,1-16.06-1.09A41.88,41.88,0,0,0,251.71,277c12.49,4.22,26.2,4.15,39.66.5C301.59,274.71,302.81,269,301,262.89Z" transform="translate(-30.94 -8.8)"/><path class="cls-10" d="M225.61,273.35a15.42,15.42,0,0,0,.15-3.37q-14.35-21.92-26.87-45.07c-.07-.15-.16-.31-.22-.44a2.49,2.49,0,0,0-.56-.09c.83,3.27,1.95,6.44,2.85,9.74,1.67,6.07,2,12.52,3.63,18.64,0,.26-.25.54-.43.67-16.12,10.2-37.46,9.91-51.67,0a40.88,40.88,0,0,0,10,10.3c14.17,9.9,31.11,12.16,48.42,13.72C214,277.75,224.59,279.32,225.61,273.35Z" transform="translate(-30.94 -8.8)"/><path class="cls-10" d="M140.52,257.21a87.61,87.61,0,0,0-3.82-13.6c-.4-1-.77-2-1.14-3.11-1.88-5-3.68-9.95-5.39-15-.63-1.47-1.28-2.86-2-4.19a27.57,27.57,0,0,0-5.72-7.46c2,8.8,3.81,17.71,5.12,26.71.08.48-.54.75-.89.84a.86.86,0,0,1-.28.1c-11.07,8.36-29.83,9.36-41.31,2.34a41.86,41.86,0,0,0,16,13.32c8.48,2.81,17.18,5.22,26,7.3,1.09.12,2.18.24,3.29.3C134.65,265,142.25,265.57,140.52,257.21Z" transform="translate(-30.94 -8.8)"/><path class="cls-10" d="M68.1,208C68,214.6,67,220.81,59,222.13a41.56,41.56,0,0,1-15.67-.52c1.42,3.42,3.1,6.17,4.58,7.4,3.45,2.88,24.89,19.72,29.4,14,0,0,0,0,0,0C73.73,231.54,70.68,219.83,68.1,208Z" transform="translate(-30.94 -8.8)"/><path class="cls-10" d="M321.32,296.21a13.39,13.39,0,0,0-2-6.92c-.47-.75-1-1.49-1.42-2.24a19.3,19.3,0,0,0-7.11-4.58c-.2,6.72-.14,14.76-4.41,20.17-4.84,6.18-13.13,9.65-20.22,10.69a38.92,38.92,0,0,1-23.38-4c5.41,6.22,11.67,12.11,18.92,15.51,9.41,4.36,19.11,4.08,26.54-3.87,1.73-2.39,3.45-4.82,5.11-7.26A124.68,124.68,0,0,0,321.32,296.21Z" transform="translate(-30.94 -8.8)"/><path class="cls-10" d="M264.12,322.65c-2-5.54-15.4-21.48-23.49-31.48,0,.07,0,.15.05.23,1.31,5.2,3.39,10.62,3.84,16,.62,7-4.12,12-10,15-12.15,6.19-26.64,4.1-39.19,3.39a62.63,62.63,0,0,0,21.82,9.66C225.73,337.51,272.24,345.08,264.12,322.65Z" transform="translate(-30.94 -8.8)"/><path class="cls-10" d="M177.17,321.37A361.16,361.16,0,0,1,156.36,287a44.13,44.13,0,0,0-7.18-7.21c1.49,9.29,7.89,17.61,10.7,26.42.09.25-18.6,14.14-27.92,18.7.76.53,1.53,1,2.33,1.54,11.84,4.92,25.54,6.11,39,6.3a13.9,13.9,0,0,0,5.34-2C179.56,328.35,178.73,325,177.17,321.37Z" transform="translate(-30.94 -8.8)"/><path class="cls-10" d="M109.76,315c-3.61-6-7.09-12.1-10.35-18.31q-5-9.6-9.31-19.59.87,3.6,1.49,7.21c1,5.77,8.25,13.38,2.24,15.17s-31.55-.13-34.46-2.44c6.9,8.42,15.1,16,25.22,20.13A79,79,0,0,0,102,321.92C108.41,322.91,110,319.62,109.76,315Z" transform="translate(-30.94 -8.8)"/><path class="cls-10" d="M49.12,308.84c1.51-.57,2.47-2,1.92-5.15a57.63,57.63,0,0,0-1.47-6.26,254.47,254.47,0,0,1-12.08-29.5c-.47-.63-.94-1.29-1.42-1.95a30.08,30.08,0,0,0-2.52-2.9c-.22-.12-.43-.12-.62-.21C36.6,278.79,40.33,295.7,49.12,308.84Z" transform="translate(-30.94 -8.8)"/><path class="cls-10" d="M263.77,345.24l-2.49.1c2.78.87,5.54,1.84,8.31,2.87a.53.53,0,0,1,.21.79c-6.3,11.55-20.48,16.1-31.81,16.93a53.86,53.86,0,0,1-17.24-1.26c.4.42.79.84,1.23,1.27.27.3.59.59.91.91a1.6,1.6,0,0,1,.81.34,32.72,32.72,0,0,0,25.15,8.2,153.11,153.11,0,0,0,25.4-17.26C281.36,348.37,271.55,346.28,263.77,345.24Z" transform="translate(-30.94 -8.8)"/><path class="cls-10" d="M159.94,381.86c-4.15-4.44-8.18-9-12-13.65q-9.42-11.41-18.18-23.37c-1.84-1.9-3.72-3.87-5.67-5.65,2,3.53,4.23,7,6.33,10.5,2.35,4,6.32,7.85,7.82,12.44,2.23,6.91-5.71,8.91-10.82,8.56-8.59-.64-16.67-4.27-23.79-8.57l-2.15-1.29a89.56,89.56,0,0,0,15.68,11.85,98.21,98.21,0,0,0,28,11.14c1.77.41,9.84,2.22,13.76,1.44A6.24,6.24,0,0,0,159.94,381.86Z" transform="translate(-30.94 -8.8)"/><path class="cls-10" d="M79.47,346.3A64.29,64.29,0,0,1,74,339.72c3.59,7.4,7,14.86,9.32,22.93.09.38-.32.65-.71.74a133.6,133.6,0,0,0,15.45,9.89c3.31.85,5.93,1.16,7.25.57A209.5,209.5,0,0,1,79.47,346.3Z" transform="translate(-30.94 -8.8)"/><path class="cls-10" d="M220.7,373.14a321.69,321.69,0,0,1-28.17-30.8c-.46-.1-.94-.13-1.41-.22,4.77,9.57,9.78,19,16,27.48.15.21,0,.55-.19.72-12.19,10.76-30.56,10-44.63,3.68a51.3,51.3,0,0,0,5,3.67,54.62,54.62,0,0,0,39.33,8.54C213.66,384.26,223.29,380.56,220.7,373.14Z" transform="translate(-30.94 -8.8)"/><path class="cls-10" d="M340.43,204.91c-9.56-11.93-18.49-24.49-26.95-37.4-.43,0-.88-.08-1.32-.06,2.39,6.38,5.93,12.15,7.8,18.8.67,2.35,1.8,5.9.59,8.54-1.55,3.3-4.62,5.84-7.46,7.88-6.44,4.5-13.89,7.41-21.15,5.54a3.74,3.74,0,0,1-.54-.17c10.16,4.53,20.82,6.28,31.8,6.85C333.2,214.94,341.44,212.83,340.43,204.91Z" transform="translate(-30.94 -8.8)"/><path class="cls-10" d="M262,201.22c-4.9-8.25-9.76-16.56-14.5-24.95-.15-.27-.28-.49-.41-.75-3-5.1-5.82-10.21-8.62-15.4-.39-.07-.7-.09-1.09-.15,4.12,12.25,9.29,24,12.29,36.8.05.26-.25.52-.44.65-9.32,6.77-20.12,11.87-31.11,11.58a43.3,43.3,0,0,1-10.53-1.67,50,50,0,0,0,15.27,8.32c9.78,3.2,21.82,5.82,32.62,5.13C269.31,219.92,266.45,210,262,201.22Z" transform="translate(-30.94 -8.8)"/><path class="cls-10" d="M187.42,210.47a18.66,18.66,0,0,0-.73-7.54c-1.86-6.16-10.41-25.27-11.68-29l-.23-.57q-1.62-4.22-3.2-8.44c0-.07-.08-.16-.13-.26a70.75,70.75,0,0,0-4.24-8.25c1.34,7.39,3,14.69,4.23,22.13.68,4.36,1.19,6.34-2.73,9.37a26.19,26.19,0,0,1-9.78,4.66c-10.91,2.7-22.23,1.22-30.49-4.81a36.91,36.91,0,0,0,7.74,9.76c9,7.85,20.43,12.73,32.34,15C171.61,213.07,186.65,216.44,187.42,210.47Z" transform="translate(-30.94 -8.8)"/><path class="cls-10" d="M120.25,196.69a67.63,67.63,0,0,0-.81-6.87,1.65,1.65,0,0,1,0-.59c-1.41-5.54-2.79-11.13-4-16.74-1.7-7.92-3.32-15.92-4.85-23.93a34.62,34.62,0,0,0-4.44-8.85c.79,12.93,4,25.36,3.08,38.55-.07.78-1.05,1-1.59.77C95.5,175,78,172.82,68.12,163.44c1.63,8.76,4.28,16.58,6.39,20.38,5.33,9.5,12,15.15,22.48,17.26,3.55.71,16.88,3.8,21.82.44A11.68,11.68,0,0,0,120.25,196.69Z" transform="translate(-30.94 -8.8)"/><path class="cls-10" d="M64.54,189.47q-2.78-16.32-4.43-32.91a6.45,6.45,0,0,0-1.62-2.65c.81,12.79,1,26.91-10.3,34.29A25.07,25.07,0,0,0,56,191.54C59.69,192.6,63.34,193.94,64.54,189.47Z" transform="translate(-30.94 -8.8)"/><path class="cls-10" d="M361.59,197.75c.8-3.93,1.54-7.83,2.21-11.77.42-4.49.4-9.48-1.46-13.09a11.36,11.36,0,0,0-6-5.53c3.65,12.18,1.28,25.18-2.6,38.09a5.54,5.54,0,0,0,.54.21,4.19,4.19,0,0,0,3.88-.54,6.64,6.64,0,0,0,.64-1A35.84,35.84,0,0,0,361.59,197.75Z" transform="translate(-30.94 -8.8)"/></g><path class="cls-11" d="M276.36,11.55c-3.93-.2-7.62-1.1-11.61-.94A71,71,0,0,0,250,13c-.42.12-.59.71-.1.73,8.61.75,17.73-.28,26.43-2.12C276.37,11.59,276.42,11.51,276.36,11.55Z" transform="translate(-30.94 -8.8)"/><path class="cls-11" d="M317.34,16.28c-5-4.38-11-4.86-17.35-6.31-.11,0-.45.11-.32.24,1.33,1.52,3.93,1.92,5.77,2.55,3.69,1.26,7.14,3.22,10.79,4.65C316.8,17.64,318,16.84,317.34,16.28Z" transform="translate(-30.94 -8.8)"/><path class="cls-11" d="M299.73,59.07c-7.55-2.23-15.4-4.34-23.53-4.5-.59,0-1.63.87-.77,1.23,7.14,3.06,16.27,3.79,24.27,3.37C299.74,59.17,299.79,59.1,299.73,59.07Z" transform="translate(-30.94 -8.8)"/><path class="cls-11" d="M246.41,52.71c-9.6-3.2-20.31-5.87-30.7-5.94-.36,0-1,.54-.46.79,9.47,3.68,20.77,4.44,31.08,5.28C246.4,52.86,246.53,52.72,246.41,52.71Z" transform="translate(-30.94 -8.8)"/><path class="cls-11" d="M232.16,18.94c-2,.14-4.15-.49-6.19-.48a32.89,32.89,0,0,0-6.51.69c-4.28.79-9.13,1.58-12.78,4.48-.67.51-.49,1.42.32,1.45,4,.09,8.54-1.81,12.55-2.85S228.4,21,232.2,19.12C232.32,19.06,232.28,19,232.16,18.94Z" transform="translate(-30.94 -8.8)"/><path class="cls-11" d="M171.41,43.77a10.43,10.43,0,0,1-2.83.48,9.69,9.69,0,0,0-2.72.87c-1,.4-4.33,1.39-3.54,3.07s3.92-.37,5-1.09a24.33,24.33,0,0,0,4.26-3.2C171.61,43.8,171.51,43.75,171.41,43.77Z" transform="translate(-30.94 -8.8)"/><path class="cls-11" d="M140.91,63.05a.24.24,0,0,0-.27-.21A6,6,0,0,0,136.93,65c-.52.68.43.82.85.63a5,5,0,0,0,1.48-1.11c.1-.09,1.23-1.18,1.23-1.13s.26,0,.31-.07A.5.5,0,0,0,140.91,63.05Z" transform="translate(-30.94 -8.8)"/><path class="cls-11" d="M207.17,95.78c-1.92,0-3.92-1.41-5.75-1.89-2.45-.65-5-1.06-7.51-1.47-5.65-.91-11.22-2.56-17.13-1.72-.41.07-1.4.84-.72,1.25,4.84,2.65,10.95,2.62,16.51,3.42,4.17.64,10.19,2.12,14.56.69C207.26,96,207.35,95.78,207.17,95.78Z" transform="translate(-30.94 -8.8)"/><path class="cls-11" d="M144.84,85.56c-3.33-2.66-7.71-4-11.86-5-.65-.16-8.48-2.35-8.62-1.07,0-.07-.13,0-.19,0l-.13.12c-.08.08-.08.15,0,.21,6.1,3.07,12.49,6.48,19.42,7.47C144.25,87.44,145.75,86.32,144.84,85.56Z" transform="translate(-30.94 -8.8)"/><path class="cls-11" d="M268.85,102.3c-9.85-.37-19-4.77-29.21-2.56-.57.13-1.75,1.28-.67,1.5,9.13,1.94,20.16,3.18,29.79,1.38C269,102.61,269.14,102.3,268.85,102.3Z" transform="translate(-30.94 -8.8)"/><path class="cls-11" d="M232.8,161.51c-9.75-1.77-19.79-5.79-30-5.32-.82,0-1.87,1.36-.8,1.74a75.8,75.8,0,0,0,30.69,3.81C232.88,161.72,233,161.52,232.8,161.51Z" transform="translate(-30.94 -8.8)"/><path class="cls-11" d="M308.09,169.11c-3.48,0-7.07-1.25-10.58-1.5a64,64,0,0,0-12.07,0c-.78.1-1.84,1.32-.77,1.67,3.33,1.25,7.14,1,10.76.87,4-.13,8.62.32,12.64-.92C308.16,169.21,308.21,169.09,308.09,169.11Z" transform="translate(-30.94 -8.8)"/><path class="cls-11" d="M352.67,167.8c-2,1.08-5,.16-7.2.44a64.8,64.8,0,0,0-8,1.33c-.66.17-.89,1.06-.13,1.15,3.2.48,6.29-1,9.53-1.35,1.81-.23,4.33-.22,6-1.37C353.1,167.87,352.82,167.72,352.67,167.8Z" transform="translate(-30.94 -8.8)"/><path class="cls-11" d="M326.35,107.76c-3.59-.61-6.93-2.27-10.58-2.89a34.17,34.17,0,0,0-13.4.1c-.61.11-1.9,1.36-.73,1.6,4.17,1,8.68.47,13,.78,3.76.29,7.81,1,11.66.61C326.39,107.93,326.47,107.79,326.35,107.76Z" transform="translate(-30.94 -8.8)"/><path class="cls-11" d="M345.63,61.81c-1-1.63-4.71-1.59-6.37-1.82a21,21,0,0,0-8.9.11c-.47.13-1.26,1-.62,1.37,2,1.15,4.5.29,6.79.25,1.33,0,2.67,0,4,0s3.75-.71,4.86.28C345.48,62,345.68,61.92,345.63,61.81Z" transform="translate(-30.94 -8.8)"/><path class="cls-11" d="M361,106a7.36,7.36,0,0,0-3.34-.85,17.67,17.67,0,0,0-4.7-.26c-1.08.15-2.49,1.7-1.06,2.27,2.71,1.12,6-.32,8.87-.83C360.87,106.26,361.18,106,361,106Z" transform="translate(-30.94 -8.8)"/><path class="cls-11" d="M270.65,231.87c-9.8-.58-19.14-3.94-29.26-2.85-1.07.11-2.67,1.9-1.08,2.38,4.56,1.35,9.49,1.23,14.33,1.11,5.22-.11,10.72.53,15.93-.47C270.65,232,270.75,231.87,270.65,231.87Z" transform="translate(-30.94 -8.8)"/><path class="cls-11" d="M329.77,230.3c-6.3-.68-12.65-1.2-19.09.27-.93.21-1.9,1.57-.54,1.7,6.46.81,13-1,19.53-1.56C329.87,230.67,330.05,230.35,329.77,230.3Z" transform="translate(-30.94 -8.8)"/><path class="cls-11" d="M300.26,285.07a.79.79,0,0,0-.61.08c-.11,0-.13.14,0,.15-3.69.22-7.69-.54-11.44-.51a44.32,44.32,0,0,0-11.45,1c-1,.23-1.42,1.66-.26,1.8,4.12.48,8.3-.14,12.48-.48,3.56-.3,7.92,0,11.3-1.77C300.41,285.26,300.42,285.08,300.26,285.07Z" transform="translate(-30.94 -8.8)"/><path class="cls-11" d="M226.75,288.59c-4.63-3-10.53-3.51-16-4.32-7.57-1-15.07-1.9-22.85-1.19-.91.09-2.26,1.68-.93,2,12.82,3.26,26.62,1.63,39.64,3.69C226.67,288.81,226.87,288.65,226.75,288.59Z" transform="translate(-30.94 -8.8)"/><path class="cls-11" d="M190,226.42c-8.37-1.9-16.29-4.85-25.09-5.47-1.05,0-2.8,1.54-1.3,2.11,4.81,1.91,9.83,2.6,15,3.3,3.36.5,7.84,1.36,11.33.27C190,226.57,190.08,226.45,190,226.42Z" transform="translate(-30.94 -8.8)"/><path class="cls-11" d="M115.76,213.6c-2.78-.28-5.58-2.37-8.35-3A39.2,39.2,0,0,0,98,209c-1.05,0-2.69,1.37-1.26,2.09,3.19,1.55,6.92,1.61,10.45,2.11,2.62.38,5.82,1.11,8.54.56C115.8,213.7,115.84,213.64,115.76,213.6Z" transform="translate(-30.94 -8.8)"/><path class="cls-11" d="M101.78,138.32c-3.33-5.18-10.82-6.1-16.35-7.49-.11,0-.47.12-.32.28A23.8,23.8,0,0,0,91,135.5c2.87,1.7,5.24,4,8.63,4.64C100.43,140.3,102.54,139.56,101.78,138.32Z" transform="translate(-30.94 -8.8)"/><path class="cls-11" d="M56.93,161.76c0-.71.11-1.44.11-2.15A5.94,5.94,0,0,0,56,157.22c-.13-.21-.61,0-.62.19a9.68,9.68,0,0,1-.38,2.84c-.3.9-.32,1.72.49,2.19C55.87,162.64,56.93,162.49,56.93,161.76Z" transform="translate(-30.94 -8.8)"/><path class="cls-11" d="M64.07,202.64a11.55,11.55,0,0,0-3.8-2,18.18,18.18,0,0,0-2.31-.59,8.66,8.66,0,0,1-1.1-.24c-.25-.07-1.23.2-.79-.13,0,0,0-.07,0-.1a1.52,1.52,0,0,1-.29,0c-.09,0-.35.13-.32.28.42,1.35,1.64,2.17,2.62,3.05a5.21,5.21,0,0,0,5.25,1.38C64.05,204.13,64.69,203.18,64.07,202.64Z" transform="translate(-30.94 -8.8)"/><path class="cls-11" d="M79.07,264.46C71,253.05,58.84,246.51,46.47,241c0,0-.15,0-.13.11,2.34,4.45,7.39,8.14,11.35,10.86,6.59,4.57,11.81,11,19.09,14.46C77.64,266.82,79.89,265.61,79.07,264.46Z" transform="translate(-30.94 -8.8)"/><path class="cls-11" d="M34.81,276a4,4,0,0,0-.23-2.71c-.38-.94-1.27-1.69-1.25-2.84,0-.13-.26-.11-.3,0a9.49,9.49,0,0,0,.16,5.92C33.48,277.09,34.62,276.74,34.81,276Z" transform="translate(-30.94 -8.8)"/><path class="cls-11" d="M61.88,323.55c-.73-1.55-2.48-2.17-4-2.83-2.15-1-3.93-.71-6.27-.37-.13,0-.42.22-.3.36,1.18,1.33,2.95,2.11,4.35,3.22,1.57,1.25,3,1.94,5.12,1.34C61.57,325.07,62.23,324.29,61.88,323.55Z" transform="translate(-30.94 -8.8)"/><path class="cls-11" d="M119.14,337.57c-2.92-3.63-8-4.58-12.3-5.91a36.29,36.29,0,0,0-13.15-1.79c-.17,0-.4.28-.17.34l.51.11s.08,0,.06,0c1.57,2.26,5.83,3,8.59,3.93,4.8,1.6,9.54,4.91,14.74,5.1C118.08,339.37,119.89,338.49,119.14,337.57Z" transform="translate(-30.94 -8.8)"/><path class="cls-11" d="M141.45,277.87c-6.76-5.39-15.93-7.07-24.52-7.77-.11,0-.35.2-.21.3,3,2.15,7,2.92,10.3,4.46,4,1.85,8.33,4.85,13,4.83C140.76,279.67,142.48,278.69,141.45,277.87Z" transform="translate(-30.94 -8.8)"/><path class="cls-11" d="M184.91,344.94c-2.65-3.79-10.15-3.68-14.51-4.33-5.15-.79-11.07-1.78-16-.72.07,0,.14-.15,0-.14l-.79,0c-.15,0-.43.22-.21.34a63.34,63.34,0,0,0,13.44,4c5.32.89,11,3.59,16.62,2.7C184.17,346.64,185.51,345.8,184.91,344.94Z" transform="translate(-30.94 -8.8)"/><path class="cls-11" d="M257.94,350.3c-6.29-2.23-13.35-2.44-20.09-3-3.89-.32-7.7-.87-11.6-1-1.51-.07-4.09.63-5.47-.05-.12-.06-.45.09-.32.3,1.79,2.45,10.28,2.87,13.29,3.51a83.15,83.15,0,0,0,23.31,2.25C258,352.19,259.18,350.74,257.94,350.3Z" transform="translate(-30.94 -8.8)"/><path class="cls-11" d="M159.29,151.3c-5.76-3.89-12.45-5.18-19.16-7.06-4.16-1.17-9.5-2.37-13.92-1.83-.31.05-.84.51-.49.79,3.36,2.65,7.67,3.2,11.73,4.44,6.92,2.08,13.35,4.89,20.84,5C158.78,152.57,160.07,151.81,159.29,151.3Z" transform="translate(-30.94 -8.8)"/><path class="cls-12" d="M280.44,28.8a15.34,15.34,0,0,0-5.74-5.27,36.24,36.24,0,0,0-6-2.11c-.34-.13-.68-.21-1-.32-.54-.19-1.1-.37-1.61-.6,0,0-.08,0-.06,0a5.36,5.36,0,0,0,.39.42c-.35.12-.68.38-.56.71,1.72,4.91,8.64,8.22,13.53,8.26C279.83,29.91,280.87,29.43,280.44,28.8Z" transform="translate(-30.94 -8.8)"/><path class="cls-12" d="M328.16,36.46c-2.12-4.39-9.1-7.14-13.33-8.75,0,0,0,.06,0,.05-.33-.09-.8.19-.74.52a.52.52,0,0,0-.2.53c.71,2.62,4.07,4.52,6.17,5.75s5.11,3.29,7.71,2.56C328,37,328.28,36.74,328.16,36.46Z" transform="translate(-30.94 -8.8)"/><path class="cls-12" d="M352.18,83.74c.12-2-1.75-3.66-2.9-5a13.46,13.46,0,0,0-5.83-3.9c-.1,0-.36.08-.24.19a1.3,1.3,0,0,0,.16.21c-.44.09-.94.38-.93.77,0,1.86,2.16,3.82,3.31,5,1.34,1.34,3.17,3.38,5.24,3.55C351.38,84.6,352.15,84.28,352.18,83.74Z" transform="translate(-30.94 -8.8)"/><path class="cls-12" d="M304.14,73.84c-.5-.81-1-1.6-1.47-2.36s-1.63-1-2.3-1.46a31.65,31.65,0,0,0-5.09-3.27s0-.06-.07,0c-.36-.38-1.38-.11-1.27.55.42,2.77,2.23,4.16,4.37,5.56,1.35.84,3.24,2.2,5,2C303.75,74.79,304.45,74.28,304.14,73.84Z" transform="translate(-30.94 -8.8)"/><path class="cls-12" d="M248.17,70.18c-.46-2-2.53-3.85-4-5.08-2.06-1.79-4.38-2.55-6.77-3.73a.17.17,0,0,0-.21.18c-.51,0-1.08.41-.93.87.76,2.41,2.93,4.6,4.78,6.08,1.74,1.33,3.89,2.78,6.21,2.57C247.68,71,248.29,70.64,248.17,70.18Z" transform="translate(-30.94 -8.8)"/><path class="cls-12" d="M221.88,27.16A6.27,6.27,0,0,0,218.17,26a10.79,10.79,0,0,0-4.41.63,0,0,0,0,0,0,0,.2.2,0,0,0-.14.12,1.85,1.85,0,0,0-.76.44c-.24.19-.52.65-.26.91a5.11,5.11,0,0,0,3.5,1.34c1.81.18,3.44-.5,5.18-1.07C221.85,28.26,222.38,27.6,221.88,27.16Z" transform="translate(-30.94 -8.8)"/><path class="cls-12" d="M176.5,55.82c-1.27-2.18-3.81-3.69-6.08-4.61a10.06,10.06,0,0,0-3.72-.61,9.07,9.07,0,0,0-1,.06l-.15.11a.08.08,0,0,1-.09,0c-.21,0-.41.41-.14.39.11,0,.25,0,.37,0-.24.17-.4.48-.15.69a17.17,17.17,0,0,0,5.29,3.42c1.31.53,3.9,1.89,5.45,1.07A.43.43,0,0,0,176.5,55.82Z" transform="translate(-30.94 -8.8)"/><path class="cls-12" d="M132.63,91.33c-.39-3.29-3.12-5.58-5.81-7,0,0,0,0,0-.06-.09-.33-.45-.42-.8-.33a1.81,1.81,0,0,0-.4-.19c-.1,0-.37.12-.23.24s.11.07.15.12a.68.68,0,0,0-.37.73,14.86,14.86,0,0,0,6.07,7.26C131.67,92.47,132.72,92.05,132.63,91.33Z" transform="translate(-30.94 -8.8)"/><path class="cls-12" d="M201.54,108.68c-2.5-4.36-7.37-8.22-12.55-8.87a1.08,1.08,0,0,0-.56,0c-.25,0-.52-.06-.76-.06s-.36.18-.19.26a.34.34,0,0,0,.19.08c-.34.22-.54.56-.25.92,3.21,4,7.64,7.54,12.6,9C200.63,110.13,202,109.5,201.54,108.68Z" transform="translate(-30.94 -8.8)"/><path class="cls-12" d="M267,117.79c-2.35-3.34-8.07-7.56-12.79-7.52h-.36a6.51,6.51,0,0,0-1,.1c-.07,0-.19.13-.07.17a.69.69,0,0,1,.15.07c-.42.29-.68.75-.38,1.17,2.69,3.94,8.2,8.8,13.49,7.5C266.59,119.16,267.36,118.35,267,117.79Z" transform="translate(-30.94 -8.8)"/><path class="cls-12" d="M329.63,123.58a27.75,27.75,0,0,0-5.57-5.73,17.94,17.94,0,0,0-3.76-2.15,13,13,0,0,0-2.65-.65l-.35-.22a1,1,0,0,0-.88-.1c-.2,0-.38-.1-.56-.14s-.29,0-.2.13a.93.93,0,0,0,.29.21,1,1,0,0,0-.47.93c.37,2.64,3.19,4.61,5,6.11,2.05,1.68,4.7,3.29,7.54,3.26C328.68,125.21,330.3,124.49,329.63,123.58Z" transform="translate(-30.94 -8.8)"/><path class="cls-12" d="M355.84,180.14c-1-1.89-2.94-3.2-4.66-4.25a9.94,9.94,0,0,0-3.16-1.25,4.15,4.15,0,0,0-1.92.06l-.05,0c-.79-.51-2.63.27-2.1,1.44.94,2.07,3.55,3.56,5.5,4.5,1.57.75,3.94,1.81,5.78.89A1.06,1.06,0,0,0,355.84,180.14Z" transform="translate(-30.94 -8.8)"/><path class="cls-12" d="M312.94,185.29c-4.21-4.91-8.93-7.89-15.26-9a3.57,3.57,0,0,0-.45-.27c-.61-.39-2.64.15-2.24,1.25,2.42,6.45,9.68,8.49,15.7,9.88C311.43,187.33,313.9,186.41,312.94,185.29Z" transform="translate(-30.94 -8.8)"/><path class="cls-12" d="M232,176.28a15.93,15.93,0,0,0-7.12-7.1,23.58,23.58,0,0,0-4.42-1.77c-.41-.13-1-.21-1.47-.31a2.41,2.41,0,0,0-1-.22,3.88,3.88,0,0,1-.91-.47c-.1-.1-.41.1-.32.23a4.38,4.38,0,0,0,.36.39l-.35.12c-.52.31-1,.94-.66,1.49,1.46,2.54,5,4.47,7.32,6.07,1.82,1.23,4.44,3.33,6.81,3.31C231.19,178,232.55,177.35,232,176.28Z" transform="translate(-30.94 -8.8)"/><path class="cls-12" d="M98.23,108.33a8.08,8.08,0,0,0-3.34-4,2.14,2.14,0,0,0-.47-.6c-.38-.35-1.17-.07-1.47.34-.82,1.06-1.08,1.81-.11,2.73a23,23,0,0,0,3.84,2.34C97.09,109.42,98.54,109.07,98.23,108.33Z" transform="translate(-30.94 -8.8)"/><path class="cls-12" d="M158.3,167.63c-.83-2.48-2.59-4.32-4.33-6.15a12.55,12.55,0,0,0-5-3.25s0,0,0,0c-.46-.51-2.07-.09-1.81.8a15.05,15.05,0,0,0,4.88,7.29c1.26,1.13,3.56,3,5.5,2.34C157.88,168.52,158.47,168.1,158.3,167.63Z" transform="translate(-30.94 -8.8)"/><path class="cls-12" d="M94.46,147.39c-.36-5.68-5.14-9.61-9.77-11.52,0,0-.13,0-.07.1a7.25,7.25,0,0,1,.62.62c-.52.1-1.07.55-.91,1a24.51,24.51,0,0,0,3.27,6.28c1.08,1.65,3.36,4.13,5.27,4.6C93.52,148.64,94.53,148.24,94.46,147.39Z" transform="translate(-30.94 -8.8)"/><path class="cls-12" d="M56.66,169a15.15,15.15,0,0,0-1-3.24,7.91,7.91,0,0,0-1.28-1.59,7.62,7.62,0,0,1-.46-1.08c-.23-.6-1.16-.34-1.46.19-.68,1.31-1.07,2.37-.49,3.68a5.47,5.47,0,0,0,3.42,3.11C55.9,170.18,56.83,169.68,56.66,169Z" transform="translate(-30.94 -8.8)"/><path class="cls-12" d="M60.81,210.59a32,32,0,0,0-4.05-6.18,11.54,11.54,0,0,0-3.44-2.92,3.17,3.17,0,0,0-.17-.37c-.15-.33-.9-.05-.92.33-.28,2.89.12,4.78,1.94,6.87,1.17,1.34,3.55,3.33,5.49,3.41C60.19,211.81,61.17,211.24,60.81,210.59Z" transform="translate(-30.94 -8.8)"/><path class="cls-12" d="M116.88,227.67a18.3,18.3,0,0,0-11.42-10,.18.18,0,0,0-.11,0c-.06,0-.09-.08-.14-.1-.34-.23-1.31,0-1.32.58,0,3.06,2.57,4.9,4.64,6.54,1.85,1.43,4.79,3.72,7.31,3.8C116.15,228.53,117.1,228.19,116.88,227.67Z" transform="translate(-30.94 -8.8)"/><path class="cls-12" d="M74.37,272.74a28.47,28.47,0,0,0-11.92-11c-.19-.16-.37-.33-.58-.48a.85.85,0,0,0-.55-.08,2.08,2.08,0,0,1-.3-.13.37.37,0,0,0-.44.18,2,2,0,0,1-.13.29.12.12,0,0,0,0,.13.76.76,0,0,0-.11.5c.86,5.33,7.74,11.27,12.86,11.79C73.74,274,74.76,273.44,74.37,272.74Z" transform="translate(-30.94 -8.8)"/><path class="cls-12" d="M148.75,294.23a12,12,0,0,0-1.05-1.47c-3.07-5.82-7.35-9.38-13.83-10.77,0,0,0,0,0,0a.88.88,0,0,0-.58-.11l-.48-.1c-.1-.06-.17-.16-.24-.2s-.23,0-.17.09.08.09.11.14c-.27.09-.51.44-.15.55h0a.66.66,0,0,0-.12.75,25.17,25.17,0,0,0,7,8.25c1.87,1.49,5.6,4.29,8.21,4.28C148,295.61,149.19,295,148.75,294.23Z" transform="translate(-30.94 -8.8)"/><path class="cls-12" d="M192.51,243l-2-1.9c-1.4-2.36-4.72-4.38-7.61-5.35a35.83,35.83,0,0,0-5.84-2.25,2.44,2.44,0,0,1-.23-.16c-.47-.31-1.73.09-1.54.88.68,3,4.3,5.39,6.62,6.76l1.17.68a11.74,11.74,0,0,0,4.62,2.09,10,10,0,0,0,4.1.45C192.32,244.14,193,243.51,192.51,243Z" transform="translate(-30.94 -8.8)"/><path class="cls-12" d="M277.39,248.59a31.61,31.61,0,0,0-6.53-5.87c-.45-.25-.93-.48-1.43-.74a41.21,41.21,0,0,0-5.7-2.47c-.52-.12-1.05-.25-1.58-.34q-.33,0-.69,0c-.08,0-.18-.1-.28-.13-.69-.08-1.41-.14-2.13-.18-.21.23-.29.45-.12.68a28.16,28.16,0,0,0,12.21,8.54c.25.14.51.3.8.45C273.63,248.64,275.62,249.08,277.39,248.59Z" transform="translate(-30.94 -8.8)"/><path class="cls-12" d="M340.54,245.74h0s0,0,0,0c-1.67-4-6.86-6.18-10.75-6.79a1,1,0,0,0-1,.66c-.54,2,3.05,4.5,4.22,5.3,2,1.27,4.6,2.89,7.16,1.57a1.24,1.24,0,0,0,.37-.36s0,0,.07,0,.15,0,.15,0S340.58,245.88,340.54,245.74Z" transform="translate(-30.94 -8.8)"/><path class="cls-12" d="M313.23,302.7c-.71-2.77-4.07-4.34-6.4-5.24a48,48,0,0,0-7.15-2.29s-2.56-.17-2.52.17h0l0,0c-.19-.08-.52.15-.49.33a.62.62,0,0,0-.14.71c1.1,2.3,3.81,3.76,6,4.84a20.7,20.7,0,0,0,9.65,2.52C312.51,303.67,313.4,303.37,313.23,302.7Z" transform="translate(-30.94 -8.8)"/><path class="cls-12" d="M241.44,310.54a11.15,11.15,0,0,0-4.85-4.68,21.8,21.8,0,0,0-7.52-4.19,32.8,32.8,0,0,0-6.93-2.1c-.13-.11-.31-.23-.46-.37a1,1,0,0,0-1.13.11c-.1,0-.23,0-.32-.07s-.28.16-.14.24a.27.27,0,0,1,.15,0,.59.59,0,0,0-.13.78c4.31,6.33,11.89,12.81,20.35,11.45C241,311.66,241.72,311.15,241.44,310.54Z" transform="translate(-30.94 -8.8)"/><path class="cls-12" d="M247.57,356c-.3.29-.49.61-.16,1,3.32,3.65,10.16,7.92,15.52,6.23a.16.16,0,0,1,.08,0C258.89,358.92,253.45,356.9,247.57,356Z" transform="translate(-30.94 -8.8)"/><path class="cls-12" d="M189.12,356c-4.08-2.67-9-4-13.84-4.92a.84.84,0,0,0,0,.54c2,4.61,8,7.59,12.18,9.7,2.41,1.23,6.94,3.34,10,2.21.08,0,.19-.11.32-.18C194.75,361.06,192.28,358.09,189.12,356Z" transform="translate(-30.94 -8.8)"/><path class="cls-12" d="M126.32,351.72c-3.45-5.61-11-9.08-16.93-11.11-.1-.05-.29.06-.34.16-.65.16-1.25.71-.87,1.3,3.71,5.9,9.39,10.54,16.59,11.25C125.46,353.37,126.87,352.58,126.32,351.72Z" transform="translate(-30.94 -8.8)"/><path class="cls-12" d="M66.05,335.85a22.41,22.41,0,0,0-3.64-4.3c-.76-.74-4.44-4.11-5.66-4.36-.5-.44-1.7.28-1.39.95.47,1.05.77,2.19,1.3,3.16a8.12,8.12,0,0,0,1.87,2.06A16.28,16.28,0,0,0,65,336.75C65.39,336.9,66.4,336.45,66.05,335.85Z" transform="translate(-30.94 -8.8)"/></g></g></svg>