<svg id="Layer_1" data-name="Layer 1" xmlns="http://www.w3.org/2000/svg" xmlns:xlink="http://www.w3.org/1999/xlink" viewBox="0 0 237.18 336.85"><defs><style>.cls-1,.cls-12,.cls-2,.cls-3,.cls-4,.cls-5,.cls-6,.cls-7,.cls-8{stroke:#534741;stroke-miterlimit:10;}.cls-1{fill:url(#linear-gradient);}.cls-2{fill:#8a9b6a;}.cls-3{fill:url(#linear-gradient-2);}.cls-4{fill:#9b5808;}.cls-5{fill:url(#linear-gradient-3);}.cls-6{fill:url(#linear-gradient-4);}.cls-7{fill:url(#linear-gradient-5);}.cls-8{fill:url(#linear-gradient-6);}.cls-9{fill:#88ab69;}.cls-10,.cls-11,.cls-9{fill-rule:evenodd;}.cls-10{fill:#a9c37c;}.cls-11{fill:#d08298;}.cls-12{fill:none;}</style><linearGradient id="linear-gradient" x1="-689.83" y1="-484.18" x2="-469.16" y2="-484.18" gradientTransform="matrix(0.81, -0.86, -0.97, -0.84, 190.8, -676.73)" gradientUnits="userSpaceOnUse"><stop offset="0.01" stop-color="#00600f"/><stop offset="1" stop-color="#788b62"/></linearGradient><linearGradient id="linear-gradient-2" x1="-648.03" y1="-435.8" x2="-486.5" y2="-435.8" gradientTransform="matrix(0.81, -0.86, -0.97, -0.84, 190.8, -676.73)" gradientUnits="userSpaceOnUse"><stop offset="0" stop-color="#005c0f"/><stop offset="0.99" stop-color="#788b62"/></linearGradient><linearGradient id="linear-gradient-3" x1="-679.79" y1="-404.95" x2="-488.21" y2="-404.95" gradientTransform="matrix(0.81, -0.86, -0.97, -0.84, 190.8, -676.73)" gradientUnits="userSpaceOnUse"><stop offset="0" stop-color="#005e0f"/><stop offset="0.99" stop-color="#788b62"/></linearGradient><linearGradient id="linear-gradient-4" x1="-757.26" y1="-606.09" x2="-535.18" y2="-606.09" gradientTransform="matrix(0.71, -0.72, -0.81, -0.73, 133.92, -652.47)" gradientUnits="userSpaceOnUse"><stop offset="0" stop-color="#005b0f"/><stop offset="0.99" stop-color="#788b62"/></linearGradient><linearGradient id="linear-gradient-5" x1="-714.42" y1="-560.5" x2="-551.86" y2="-560.5" gradientTransform="matrix(0.71, -0.72, -0.81, -0.73, 133.92, -652.47)" gradientUnits="userSpaceOnUse"><stop offset="0" stop-color="#00630f"/><stop offset="1" stop-color="#788b62"/></linearGradient><linearGradient id="linear-gradient-6" x1="-794.71" y1="-505.59" x2="-602.26" y2="-505.59" gradientTransform="matrix(0.66, -0.76, -0.85, -0.68, 129.22, -673.73)" gradientUnits="userSpaceOnUse"><stop offset="0" stop-color="#005e0f"/><stop offset="1" stop-color="#788b62"/></linearGradient></defs><g id="Sage"><path class="cls-1" d="M103.36,322.61s31.88,1,46.71-11.87c0,0,9.48-5,24.07-19.9l52.31-86.14L253.82,155s.33-12,11-37.64l-53.24,47.55s-11.92,8.32-32.62,36.39l-33.6,36.43s-5.11,7.53-10,13.74c0,0-25.39,7.48-33.08,52.93l-.07,8.93-3.74,6.8Z" transform="translate(-28.92 -42.9)"/><path class="cls-2" d="M264.9,117.35S119.48,331,98.38,320.26l5.07,2.39s19.81-12.34,33.22-28.59c0,0,91-109.59,94.52-121.44Z" transform="translate(-28.92 -42.9)"/><path class="cls-3" d="M113.26,257.12s44-30.68,58.52-64c0,0,14.68-73.26,61.51-75.59,0,0-66.09-6.59-88.32,28.42L112.7,196.65s-14.1,56.45-8.11,63.74Z" transform="translate(-28.92 -42.9)"/><path class="cls-2" d="M83.11,305S130.4,220,138.75,198.72s32.84-63,38.78-63.25,34.6-19,55.89-18c0,0-28.92-2.69-59.77,14.77,0,0-24.41,30-39.09,64.53L108.4,257.41Z" transform="translate(-28.92 -42.9)"/><path class="cls-4" d="M55.1,350.49,33.41,379.12l-3.72-1.73S53,345.63,52.15,343.67L63.74,324.2s-1.15-16.55.11-19.92c0,0,.59-14.45,4-25.7l4.86,1.33-2.3,17.31s-1.2,11.71-.17,13.43L70,314.12l-.18,1.76,7.07-7.81,6.46-6.33,4.6-6,4.13-7,12.49-28.6,8.55-3.22s-22.29,48.69-28.91,50.64a221.87,221.87,0,0,0-16.3,17.23L55.43,345.44" transform="translate(-28.92 -42.9)"/><path class="cls-5" d="M72.82,279.86l31.9-19.52s-2.87-26.11,8.11-63.74l13.57-21.15s21.79-77.72,20.91-85.63c0,0-7.39-42.09-3.62-46.6,0,0-12.82,17.46-16.09,21S54.23,202.66,54.23,202.66s-15.53,30,13.82,75.91Z" transform="translate(-28.92 -42.9)"/><path class="cls-2" d="M143.6,43.18S58.62,271,68,278.43l2.33.63s13.49-59.18,17.13-64.93S143.6,43.18,143.6,43.18Z" transform="translate(-28.92 -42.9)"/><path class="cls-6" d="M88.42,334.13s27.32,1.29,40.5-9.33c0,0,8.28-4.18,21.15-16.44l47.25-72.11,24.85-41.71s.56-10.14,10.47-31.58l-47.1,39.35s-10.5,7-29,30.29l-29.82,30.3s-4.58,6.23-9,11.46c0,0-22,5.93-29.76,44.25l-.4,7.61-3.46,5.6Z" transform="translate(-28.92 -42.9)"/><path class="cls-2" d="M232.88,163.16s-130.65,178.43-148.61,169l4.24,2.05s17.38-10.09,29.38-23.67c0,0,81.16-91.25,84.43-101.15Z" transform="translate(-28.92 -42.9)"/><path class="cls-4" d="M84.27,332.12l4.24,2.05S49,360.2,46.22,356.91l2.31-3.81C48.57,353,80.89,337.77,84.27,332.12Z" transform="translate(-28.92 -42.9)"/><path class="cls-7" d="M101.45,280.06s38.59-25.33,52-53.24c0,0,14.51-61.68,54.87-63,0,0-56.72-6.55-76.7,22.67l-29.06,42.26S89,276.27,94.06,282.56Z" transform="translate(-28.92 -42.9)"/><path class="cls-2" d="M96.73,280s20-31.29,27.64-49.11,29.87-52.73,35-52.91,30.33-15.4,48.58-14.35c0,0-24.79-2.74-51.89,11.6,0,0-21.8,24.93-35.25,54L96.73,280Z" transform="translate(-28.92 -42.9)"/><path class="cls-8" d="M69.41,299.63l27-17.74s-3.14-22,5.18-54.14l11-18.4s16.69-66.51,15.78-73c0,0-7.54-35.35-4.39-39.36,0,0-10.58,15.13-13.29,18.35S51.27,235.14,51.27,235.14,38.7,261,65.22,298.79Z" transform="translate(-28.92 -42.9)"/><path class="cls-2" d="M123.94,96.83s-67,195.78-58.86,201.79l2,.48s10-50.57,12.88-55.54C83.16,238.5,123.94,96.83,123.94,96.83Z" transform="translate(-28.92 -42.9)"/><path class="cls-9" d="M215.29,100a13.93,13.93,0,0,0,2.16-4c.94-2.32-2.4-3.67-3.5-1.75a4.61,4.61,0,0,0-3.08-2,2.13,2.13,0,0,0-2.1,1.19,13.58,13.58,0,0,0-.32,4.51h0a5.43,5.43,0,0,1-.55.54c-1.08,2.15-1.41,4.28-.09,6.33a1.77,1.77,0,0,1-.37.39c-2.52,2.75-4.29,6-6.26,9a1.79,1.79,0,0,0-.35.61,39.78,39.78,0,0,0-5.12,4.62,1.75,1.75,0,0,0-.19,2.08,1.66,1.66,0,0,0-.75.23A21.2,21.2,0,0,0,191.9,124a2.2,2.2,0,0,0-.88.83l-.41.48c-.69-.17-1.24-.4-1.93-.57-.09,0-.26.11-.31,0-.69-.17-1.32-.21-1.69-.36a2,2,0,0,0-2.3,1.66,2.8,2.8,0,0,0,.13,1c.09,0,.11.26.11.26,0,.67.06,1.43.15,2a38.23,38.23,0,0,0-5.22,4.35c-1.79,1.75-4.3,4.19-4.76,6.92-1.79,2.29-3.79,4.28-5.64,6.44l-.32,0c-2.27.27-2.25,4,0,4l1.39,0a1.81,1.81,0,0,0,1.06-.21l.8-.11a1.56,1.56,0,0,0,2,.16c1.68-.94,2.36-2.61.94-4.15l-.19-.08c1-1,1.95-2.12,2.84-3.27,5.15-.71,9.45-5.44,12.93-9.75,2.1.42,4.21,0,5.12-2.23a3.76,3.76,0,0,0-1.29-4.52l0-.1a6.41,6.41,0,0,1,1-.79,1.88,1.88,0,0,0,1.3,0,22.54,22.54,0,0,0,2.87-1.75,16.18,16.18,0,0,0,5.18-2.64,4.3,4.3,0,0,0,.82-5.72c.67-.59,1.47-1.23,2.23-1.79a2,2,0,0,0,.32-2.89l-.09,0a27.8,27.8,0,0,1,2.54-3.61,19,19,0,0,1,1.63-1.6,4.56,4.56,0,0,1,.54-.54,11.75,11.75,0,0,1,3.5-2.24C218.26,103,217.27,100.14,215.29,100Z" transform="translate(-28.92 -42.9)"/><path class="cls-10" d="M234.56,94c-2.71-2.62-6.54-3.31-10.27-2.88.52-.22.8-.65,1.28-.78,2.39-1.08.89-4.82-1.5-3.74-3,1.36-7,3.73-7.28,7.3a1.37,1.37,0,0,0-.57,1.39,4.31,4.31,0,0,0-.73,1,2.15,2.15,0,0,0-.1,2.12,5.72,5.72,0,0,1-.92.92,2.09,2.09,0,0,0,.36,2.85h0c2.75,2,7.39.41,10.23-.48,3.17-.88,7.82-2.22,9.89-4.94A1.93,1.93,0,0,0,234.56,94Z" transform="translate(-28.92 -42.9)"/><path class="cls-10" d="M215.46,86.55c-.14-2.32-.7-4.38-.3-6.7a2,2,0,0,0-1.66-2.3,2.86,2.86,0,0,0-1,.13c-2.27.8-5,2.27-5.3,5.07a7.25,7.25,0,0,0,1.16,4.58,9,9,0,0,0,1.52,4.5,2.4,2.4,0,0,0,.68.71c.55,1.3,2.31,2,3.23.56A9.84,9.84,0,0,0,215.46,86.55Z" transform="translate(-28.92 -42.9)"/><path class="cls-10" d="M193.78,112.5a1.75,1.75,0,0,0-2.67-.33c0,.09,0,.09-.17.15a8.4,8.4,0,0,0-3.65-3.76,2.15,2.15,0,0,0-2.88.45,2.6,2.6,0,0,0-.34.83,9.58,9.58,0,0,0,1.37,7.25,14.17,14.17,0,0,1,1.89,4.12c-.06,1-.12,1.89-.19,2.84a2,2,0,0,0,2.05,2.13,1.18,1.18,0,0,0,.84-.2,1.63,1.63,0,0,0,1.51-.79C194.74,121.31,196.8,117.29,193.78,112.5Z" transform="translate(-28.92 -42.9)"/><path class="cls-10" d="M213.63,129.53h0a1.57,1.57,0,0,0-2-.16,6.06,6.06,0,0,0-.95.48c-5.88-.67-11.15-6.81-17.64-3.07-1.41.82-.76,2.93.54,3.45,5.72,2.65,11.81,6,17.95,3.64a13.21,13.21,0,0,0,2.64-.12C216.62,132.8,216.09,128.8,213.63,129.53Z" transform="translate(-28.92 -42.9)"/><path class="cls-10" d="M203.32,149.3c-2.62-2-2.34-3-1.67-6A2,2,0,0,0,200,141a2.61,2.61,0,0,0-1,.12l-3.39,1.43a1.55,1.55,0,0,0-.79-1,6.16,6.16,0,0,0-2.1-1,2.94,2.94,0,0,0-.76-.52,4.11,4.11,0,0,0-3.41-.09,24.36,24.36,0,0,0-10.62,2.48,4.11,4.11,0,0,0-1.14-2.52c1.34-2.48.46-4.56-1.37-6.71-2.36-2.68-2.64-5.71-2.17-9a25.6,25.6,0,0,0,1.06-4.75c.24-2.17-3.21-3.25-3.8-1l-.13.59h0l-.08.19a29.61,29.61,0,0,0-.65,3.19c-.62,2.33-1.71,4.48-2.43,6.78-1.92-1.65-3.92-3.11-5.9-4.88s-4,1.16-2.6,2.94a2.1,2.1,0,0,0,.59,1.74,22.93,22.93,0,0,1,2.3,2.56,29.62,29.62,0,0,1,1.94,5.86,2.32,2.32,0,0,0,.66,1l.09,1.11a8.72,8.72,0,0,0,4.91,7.29,4.56,4.56,0,0,0,4.65-.27,1.86,1.86,0,0,0,.42.82,2.06,2.06,0,0,0,2,1.91l.13-.06.26-.11a2,2,0,0,0,1.6-.75,1.33,1.33,0,0,0,.51.1,13.79,13.79,0,0,0,4.3,0,12,12,0,0,1,3.68.52,2.74,2.74,0,0,0,.58,1.21c4,3.91,10.53,3.85,15.57,2.34C204.36,152.32,204.37,150.17,203.32,149.3Z" transform="translate(-28.92 -42.9)"/><path class="cls-10" d="M157.65,163.65c.93-6.53,4.79-12.3,2.75-19-1.14-3.59-3.3-7.82-7.71-7.34-4.62.49-4.87,7.19-4.83,10.56a16.24,16.24,0,0,0,.72,4.61,6.39,6.39,0,0,0,.57,2.82l.11.26c.2,1.92.35,3.92.68,5.78a24.61,24.61,0,0,1-.75,3.69c-.4,1.78,1.92,2.72,3.24,1.86l0-.09a2.42,2.42,0,0,0,1.82-.77c.25-.34.49-.67.69-.91a2,2,0,0,0,2.67-1A.58.58,0,0,1,157.65,163.65Z" transform="translate(-28.92 -42.9)"/><path class="cls-11" d="M217.81,155.63a14.87,14.87,0,0,0-2.35-5.38c-.11-.26-1.74-1.57-1.48-1.68,1-.79,1.76-1.66,2.64-2.49l0-.1c2.15,1.09,4.38-2,2.27-3.18-5.79-3.54-12.32-1-17.42,2.74a1.88,1.88,0,0,0-.36,2.77h0c2.11,3-4.6,8.38-5.86,11.22-1.47,3.07.42,7.19,3.57,8.47a2.6,2.6,0,0,0,3.24-1.06c1.87-2.48,2.73-1.15,5.74-1.12,4.14.17,5.81-2.6,5.77-6C215.87,159.59,218.35,158.55,217.81,155.63Z" transform="translate(-28.92 -42.9)"/><path class="cls-11" d="M212.33,110.43c0,.1-.26.11-.26.11s-.26.11-.3.21c-3.26,1.91-8.67,2.73-7.79,7.73a1.9,1.9,0,0,0,2.24,1.67h0c3.86-.48,6.29-3.27,8.21-6.38l.52-.22C216.91,112.19,214.42,109,212.33,110.43Z" transform="translate(-28.92 -42.9)"/><path class="cls-11" d="M237.2,76.61a2,2,0,0,0-3.39-.4c-1.52,1.86-4.19,2.07-6.06,3.47-2.16,1.6-2.79,4.48-3.49,7a2.13,2.13,0,0,0,.71,2.23c-.08,1.26.75,2.14,2.92,2.38C234.26,91.82,238.7,82,237.2,76.61Z" transform="translate(-28.92 -42.9)"/><path class="cls-11" d="M196.42,115.3a15.76,15.76,0,0,0-.32-8.77,11.53,11.53,0,0,1-.52-5.61,12.65,12.65,0,0,0,0-4.75,2,2,0,0,0-2.24-1.67,1.65,1.65,0,0,0-.91.39c-1.23.9-2.78,2.32-4.1-.27-1.25-2.23-4.86-.79-3.74,1.5s.71,4.61.85,6.94a5.84,5.84,0,0,0,.47,4.4c1.18,2.42,3.55,4,5.09,6.06,0,.1.06.13,0,.32a1.9,1.9,0,0,0,1.11,1.53,1.8,1.8,0,0,0,2.09,1,1.5,1.5,0,0,0,2-.92C196.48,115.43,196.52,115.34,196.42,115.3Z" transform="translate(-28.92 -42.9)"/><path class="cls-11" d="M185.45,160.06a4.67,4.67,0,0,0-1.4-2.4c-2.7-2.39-1.83-4-.74-6.67a2,2,0,0,0-1.1-2.61,1.57,1.57,0,0,0-.59-.13,8.28,8.28,0,0,0-4.28.42c-1.39.51-4.51,3.67-5.84,1.62a3.12,3.12,0,0,0-2.79-1.35c-2.05.25-3.15,1.09-4.91.38,1.56-5.42-.11-13-2.61-17.47a1.93,1.93,0,0,0,.23-1.1,30.2,30.2,0,0,0-.88-5c.13.49,2.46,1.65,3,1.88a3.9,3.9,0,0,0,2-.38c.38,2,3.66,2.14,3.93-.13.65-5.57,2.07-23.12-7.72-23.22-3.36,0-4.72,1.53-5.32,4.86-.34,1.37,1.17,6.41-.26,6.47-2.11-.1-5.05-.32-7.08.69-8.06,4.17-7,13.77,2,15,3.71.43,3.78-2.67,2.55,1.15-.54,1.61.41,3.51,1,4.94a38.61,38.61,0,0,1,2.66,10.7,7.45,7.45,0,0,0,1.83,5.06,7.15,7.15,0,0,0,.57.45,8.72,8.72,0,0,0-1.92,2.34c-1.39,2.89-3.19,5.72-1.18,8.48,1.1,1.53,2.37,0,2.12,2.49a13,13,0,0,0,.33,3.69c.78,2.59,4.31,2.94,6.32,1.71s6.69,2.4,9.66,2a10.38,10.38,0,0,0,7.24-4.51C184.13,166.76,185.91,163.17,185.45,160.06Z" transform="translate(-28.92 -42.9)"/><path class="cls-12" d="M216.86,98.24a14.59,14.59,0,0,0,2.29-4c1-2.41-2.51-3.94-3.65-1.92a4.14,4.14,0,0,0-3.2-2,1.89,1.89,0,0,0-2.15,1.29,13.53,13.53,0,0,0-.36,4.6h0a4.56,4.56,0,0,1-.54.54c-1.22,2.2-1.45,4.37-.07,6.55-.17.15-.21.24-.38.39a68.76,68.76,0,0,0-6.49,9.34,2.11,2.11,0,0,0-.31.74c-1.9,1.49-3.65,3.16-5.41,4.82a1.77,1.77,0,0,0-.2,2.08,2,2,0,0,0-.87.29,36.37,36.37,0,0,0-3,2.34,2.24,2.24,0,0,0-.87.83c-.17.15-.25.33-.41.48a6.91,6.91,0,0,0-2.06-.51c-.09,0-.26.11-.32,0a15.38,15.38,0,0,0-1.82-.31,2.09,2.09,0,0,0-2.27,1.88,1.56,1.56,0,0,0,.16.93c.09,0,.11.26.11.26a7.62,7.62,0,0,0,.17,2.23c-1.86,1.4-3.71,3-5.43,4.59-2,1.9-4.46,4.34-5,7.16-1.93,2.35-4,4.43-6,6.74l-.36.07c-2.26.27-2.41,4.09.05,4.13l1.4,0a2,2,0,0,0,1.06-.21l.8-.11a1.67,1.67,0,0,0,2,.29c1.73-.81,2.52-2.75,1.06-4.21l-.18-.07c1-1.11,2.07-2.18,3-3.33,5.37-.73,9.84-5.61,13.39-10.1,2.23.37,4.44,0,5.29-2.38A3.85,3.85,0,0,0,195,127l0-.09c.24-.34.76-.56,1-.8a1.93,1.93,0,0,0,1.43-.06,25.45,25.45,0,0,0,2.91-1.84,17.49,17.49,0,0,0,5.34-2.79,4.35,4.35,0,0,0,.76-5.85c.71-.68,1.6-1.29,2.31-2a2,2,0,0,0,.32-2.9c-.09,0-.09,0-.15-.17a23,23,0,0,1,2.71-3.75c.55-.54,1.13-1.16,1.67-1.7a2.15,2.15,0,0,1,.54-.53,10.5,10.5,0,0,1,3.69-2.17A2.19,2.19,0,0,0,216.86,98.24Z" transform="translate(-28.92 -42.9)"/><path class="cls-12" d="M236.74,92.08c-2.77-2.75-6.68-3.47-10.55-3,.53-.22.81-.65,1.38-.74,2.52-1.14.83-4.95-1.68-3.82-3.13,1.32-7.32,3.94-7.53,7.63a1.83,1.83,0,0,0-.7,1.44,4.61,4.61,0,0,0-.73,1,2,2,0,0,0-.14,2.21,11.89,11.89,0,0,1-.95,1,2.08,2.08,0,0,0,.41,3c2.9,2.15,7.61.4,10.68-.51,3.29-.93,8-2.24,10.19-5.14A2.19,2.19,0,0,0,236.74,92.08Z" transform="translate(-28.92 -42.9)"/><path class="cls-12" d="M216.94,84.24c-.1-2.41-.85-4.55-.31-6.93a2.14,2.14,0,0,0-2.87-2.24c-2.31.89-5.1,2.46-5.47,5.22a7.42,7.42,0,0,0,1.27,4.84,13,13,0,0,0,1.53,4.72,2.44,2.44,0,0,0,.69.71c.6,1.44,2.4,2.06,3.35.5A10.67,10.67,0,0,0,216.94,84.24Z" transform="translate(-28.92 -42.9)"/><path class="cls-12" d="M194.5,111.28a1.89,1.89,0,0,0-2.77-.37c0,.09-.17.15-.17.15a9.8,9.8,0,0,0-3.8-3.92,2.11,2.11,0,0,0-3,.41,2,2,0,0,0-.42,1,10.42,10.42,0,0,0,1.35,7.57,17.25,17.25,0,0,1,2.08,4.19c-.1,1-.13,1.89-.22,2.93a2.22,2.22,0,0,0,2.1,2.26,2.74,2.74,0,0,0,.89-.07,1.63,1.63,0,0,0,1.51-.79C195.37,120.27,197.61,116.11,194.5,111.28Z" transform="translate(-28.92 -42.9)"/><path class="cls-12" d="M215,128.8h0a1.54,1.54,0,0,0-2-.29c-.3.2-.65.27-.95.47-6.11-.64-11.62-7-18.15-3.17-1.41.83-.76,2.93.5,3.55,5.91,2.73,12.28,6.19,18.59,3.68a13.15,13.15,0,0,0,2.67-.21C218.15,132.23,217.65,128.14,215,128.8Z" transform="translate(-28.92 -42.9)"/><path class="cls-12" d="M204.23,149.46c-2.72-2.08-2.34-3-1.82-6.14a2.12,2.12,0,0,0-1.88-2.28,1.64,1.64,0,0,0-.93.17,31.14,31.14,0,0,0-3.43,1.52,1.52,1.52,0,0,0-.79-1,9.18,9.18,0,0,0-2.19-1,6.1,6.1,0,0,1-.62-.58,4.48,4.48,0,0,0-3.64-.08,27.54,27.54,0,0,0-11.07,2.52,6.29,6.29,0,0,0-1.1-2.61c1.37-2.57.44-4.78-1.44-7.06-2.42-2.82-2.75-6-2.19-9.21a22.14,22.14,0,0,0,1.14-4.93c.23-2.17-3.31-3.29-3.9-1l-.13.59h0l-.07.19a16.83,16.83,0,0,0-.69,3.28c-.63,2.34-1.7,4.71-2.51,7-2-1.69-4.07-3.28-6-5.05s-4.26,1.18-2.68,3.12a1.87,1.87,0,0,0,.68,1.79,18.38,18.38,0,0,1,2.4,2.59,37.89,37.89,0,0,1,2,6,2.27,2.27,0,0,0,.66,1l.09,1.11a8.59,8.59,0,0,0,5,7.55c1.67.68,3.6.71,4.61-.17a4.53,4.53,0,0,0,.38.91,2,2,0,0,0,2.13,1.94l.13-.05.26-.11a2,2,0,0,0,1.6-.75c.18.07.41.05.5.09a12.14,12.14,0,0,0,4.62.05,13,13,0,0,1,4,.63,5.35,5.35,0,0,0,.6,1.44c4.21,4,10.9,4,16.07,2.43A2.47,2.47,0,0,0,204.23,149.46Z" transform="translate(-28.92 -42.9)"/><path class="cls-12" d="M156.94,164.34c.91-6.76,5-12.77,2.92-19.65-1.19-3.72-3.36-7.95-7.91-7.64-4.81.42-5.07,7.43-5,10.93a21.16,21.16,0,0,0,.68,4.7,7.06,7.06,0,0,0,.54,2.92l.11.26c.25,2,.4,4,.63,5.87a28.55,28.55,0,0,1-.69,3.82c-.53,1.84,2,2.85,3.33,1.89l0-.09a2.31,2.31,0,0,0,1.92-.73l.73-1a2,2,0,0,0,2.71-.84C156.75,164.8,156.83,164.62,156.94,164.34Z" transform="translate(-28.92 -42.9)"/><path class="cls-12" d="M219.27,156a16.66,16.66,0,0,0-2.55-5.68c-.11-.26-1.73-1.57-1.57-1.72a21.45,21.45,0,0,0,2.77-2.54l0-.1c2.24,1.13,4.57-1.92,2.35-3.36-6-3.75-12.74-1.08-18.09,2.79a2.07,2.07,0,0,0-.41,2.86c2.08,3.11-4.65,8.79-6.14,11.64a6.67,6.67,0,0,0,3.78,8.77,2.89,2.89,0,0,0,3.46-1.08c1.91-2.57,2.77-1.24,5.93-1,4.27.12,6-2.75,6-6.2C217.3,160.06,219.77,159,219.27,156Z" transform="translate(-28.92 -42.9)"/><path class="cls-12" d="M213.71,109.16c0,.09-.26.11-.26.11a1.48,1.48,0,0,0-.43.26c-3.48,1.93-9.06,2.9-8.12,8a2,2,0,0,0,2.33,1.7c4-.53,6.46-3.41,8.54-6.67l.52-.22C218.42,110.86,215.87,107.56,213.71,109.16Z" transform="translate(-28.92 -42.9)"/><path class="cls-12" d="M239.43,74.06c-.44-1.58-2.59-1.59-3.58-.48-1.52,1.87-4.41,2.09-6.32,3.58-2.2,1.7-2.87,4.67-3.61,7.28a2.17,2.17,0,0,0,.72,2.23c-.09,1.27.67,2.33,3.06,2.55C236.48,89.81,240.88,79.51,239.43,74.06Z" transform="translate(-28.92 -42.9)"/><path class="cls-12" d="M197.23,114.12a16.59,16.59,0,0,0-.3-9.09,14.14,14.14,0,0,1-.54-5.83,17.91,17.91,0,0,0,0-4.85,2,2,0,0,0-2.33-1.7,1.52,1.52,0,0,0-.92.39c-1.27,1-3,2.34-4.23-.22-1.34-2.27-5.05-.86-3.87,1.56s.77,4.74.87,7.16a6,6,0,0,0,.44,4.49c1.26,2.46,3.59,4.16,5.29,6.36a.2.2,0,0,1,0,.32,2,2,0,0,0,1.29,1.6,2.08,2.08,0,0,0,2.15,1.09,1.73,1.73,0,0,0,2.17-.84C197.25,114.34,197.19,114.21,197.23,114.12Z" transform="translate(-28.92 -42.9)"/><path class="cls-12" d="M185.76,160.62a4,4,0,0,0-1.4-2.4c-2.82-2.34-1.94-4.25-.72-7a2,2,0,0,0-1.15-2.73l-.37-.15a9.41,9.41,0,0,0-4.46.34c-1.45.38-4.64,3.73-6.06,1.64a3.33,3.33,0,0,0-2.89-1.39c-2.18.3-3.24,1.06-5.09.3,1.63-5.6-.24-13.48-2.66-18.14a2,2,0,0,0,.23-1.09,26.38,26.38,0,0,0-.9-5.23c.12.49,2.51,1.78,3.24,1.86a2.92,2.92,0,0,0,2-.47,2.07,2.07,0,0,0,4.07-.18c.63-5.79,2.13-24.07-7.92-24.06-3.55,0-4.85,1.59-5.62,5.06-.25,1.41,1.23,6.54-.2,6.61-2.25,0-5.18-.27-7.25.83-8.33,4.28-7.32,14.29,2,15.59,3.81.47,3.92-2.72,2.56,1.15-.55,1.61.46,3.64,1,5.17,1.37,3.79,2.55,7,2.79,11.17a7.87,7.87,0,0,0,1.88,5.2,1.86,1.86,0,0,0,.58.44,9.76,9.76,0,0,0-2,2.44c-1.52,2.95-3.26,5.91-1.2,8.8,1.29,1.6,2.38,0,2.18,2.61a12.87,12.87,0,0,0,.34,3.92c.84,2.72,4.5,3,6.51,1.79,2.18-1.38,7,2.51,9.94,2.1a10.75,10.75,0,0,0,7.5-4.62C184.46,167.54,186.1,163.78,185.76,160.62Z" transform="translate(-28.92 -42.9)"/><path class="cls-9" d="M229.93,71.93A13.08,13.08,0,0,0,232.05,68c.95-2.31-2.39-3.67-3.49-1.74a4.59,4.59,0,0,0-3.08-2,2.12,2.12,0,0,0-2.1,1.2,13.31,13.31,0,0,0-.32,4.51h0a5.21,5.21,0,0,1-.55.53c-1.09,2.15-1.41,4.28-.09,6.33a1.57,1.57,0,0,1-.37.39c-2.52,2.75-4.29,6-6.2,9.14a1.73,1.73,0,0,0-.36.61,39.62,39.62,0,0,0-5.11,4.61,1.87,1.87,0,0,0-.29,2,1.65,1.65,0,0,0-.75.24,20.45,20.45,0,0,0-2.87,2.29,2.2,2.2,0,0,0-.88.83l-.41.48c-.69-.17-1.24-.4-1.93-.57-.09,0-.13,0-.31,0-.69-.17-1.32-.21-1.82-.31a2,2,0,0,0-2.29,1.66,2.61,2.61,0,0,0,.12,1c.09,0,.11.26.11.26.05.67.07,1.43.15,2a38.85,38.85,0,0,0-5.22,4.35c-1.79,1.75-4.3,4.19-4.76,6.92-1.79,2.29-3.79,4.28-5.64,6.45l-.32,0c-2.26.26-2.25,3.94,0,4l1.39,0a1.81,1.81,0,0,0,1.06-.21c.32,0,.48-.13.8-.11a1.71,1.71,0,0,0,2,.16c1.67-.94,2.35-2.6.93-4.15l-.19-.08c1-1,1.95-2.12,2.85-3.27,5.14-.71,9.44-5.44,12.92-9.75,2.1.42,4.22,0,5.12-2.23a3.76,3.76,0,0,0-1.29-4.52l0-.1c.24-.33.72-.46,1-.79a1.82,1.82,0,0,0,1.3,0A23.26,23.26,0,0,0,214,96.44a14.66,14.66,0,0,0,5.12-2.77A4.29,4.29,0,0,0,220,88c.67-.59,1.48-1.23,2.24-1.78a2,2,0,0,0,.31-2.9l-.09,0a27.05,27.05,0,0,1,2.55-3.6A19,19,0,0,1,226.59,78a6.81,6.81,0,0,1,.54-.54,9.23,9.23,0,0,1,3.56-2.11C232.91,75,231.92,72.09,229.93,71.93Z" transform="translate(-28.92 -42.9)"/><path class="cls-10" d="M249.24,65.86c-2.71-2.62-6.53-3.31-10.27-2.88.52-.22.81-.65,1.29-.78,2.38-1.08.88-4.82-1.5-3.74-3,1.36-7,3.73-7.29,7.3a1.35,1.35,0,0,0-.56,1.38,4.61,4.61,0,0,0-.73,1,2.12,2.12,0,0,0-.11,2.12c-.24.33-.67.59-.91.92a2.09,2.09,0,0,0,.35,2.85h0c2.76,2,7.39.41,10.33-.45,3.16-.87,7.81-2.22,9.89-4.93A2.32,2.32,0,0,0,249.24,65.86Z" transform="translate(-28.92 -42.9)"/><path class="cls-10" d="M230.14,58.41c-.13-2.32-.7-4.38-.29-6.7a2,2,0,0,0-1.66-2.3,2.8,2.8,0,0,0-1,.13c-2.27.8-5,2.27-5.31,5.07A7.21,7.21,0,0,0,223,59.19a9.05,9.05,0,0,0,1.51,4.5,2.53,2.53,0,0,0,.68.71c.55,1.3,2.31,2,3.23.56A12.17,12.17,0,0,0,230.14,58.41Z" transform="translate(-28.92 -42.9)"/><path class="cls-10" d="M208.43,84.45a1.84,1.84,0,0,0-2.67-.33c0,.09,0,.09-.17.15a8.72,8.72,0,0,0-3.65-3.76,1.93,1.93,0,0,0-2.72.3,2.12,2.12,0,0,0-.41,1,9.58,9.58,0,0,0,1.37,7.25,14.17,14.17,0,0,1,1.89,4.12c-.06.94-.13,1.89-.19,2.84a2,2,0,0,0,2.05,2.13,1.18,1.18,0,0,0,.84-.2,1.63,1.63,0,0,0,1.51-.79C209.33,93.13,211.49,89.15,208.43,84.45Z" transform="translate(-28.92 -42.9)"/><path class="cls-10" d="M228.22,101.35h0a1.57,1.57,0,0,0-2-.16,5.65,5.65,0,0,0-1,.48c-5.79-.63-11.16-6.8-17.55-3-1.42.83-.73,2.84.53,3.46,5.73,2.65,11.82,6,18,3.63a10.39,10.39,0,0,0,2.67-.2C231.3,104.66,230.77,100.66,228.22,101.35Z" transform="translate(-28.92 -42.9)"/><path class="cls-10" d="M217.84,121.31c-2.63-2-2.25-3-1.68-6a2,2,0,0,0-1.65-2.29,2.68,2.68,0,0,0-1,.12l-3.38,1.43a1.54,1.54,0,0,0-.8-1,5.37,5.37,0,0,0-2-.83,3.06,3.06,0,0,0-.75-.52,3.82,3.82,0,0,0-3.42-.1,24.64,24.64,0,0,0-10.62,2.48,4.12,4.12,0,0,0-1.13-2.51c1.33-2.48.45-4.56-1.38-6.71-2.36-2.69-2.64-5.72-2.17-9a25.78,25.78,0,0,0,1.06-4.75c.24-2.17-3.21-3.25-3.8-1l-.13.6h0l-.08.18c-.32,1.06-.45,2.19-.65,3.19-.68,2.21-1.71,4.49-2.43,6.79-1.92-1.65-3.92-3.11-5.9-4.89s-4,1.17-2.59,2.94a2.12,2.12,0,0,0,.58,1.75,22,22,0,0,1,2.31,2.56,30,30,0,0,1,1.93,5.86,2.32,2.32,0,0,0,.66,1l.09,1.12a8.62,8.62,0,0,0,4.92,7.29,4.54,4.54,0,0,0,4.64-.27,4.53,4.53,0,0,0,.38.91,2.07,2.07,0,0,0,2,1.91l.13-.06.26-.11a2,2,0,0,0,1.6-.75,1.28,1.28,0,0,0,.5.09,13.85,13.85,0,0,0,4.31,0,11.89,11.89,0,0,1,3.67.52,2.75,2.75,0,0,0,.59,1.21c4,3.91,10.52,3.85,15.56,2.34A2.19,2.19,0,0,0,217.84,121.31Z" transform="translate(-28.92 -42.9)"/><path class="cls-10" d="M172.3,135.61c.92-6.54,4.78-12.31,2.74-19-1.13-3.59-3.29-7.81-7.7-7.34-4.63.49-4.87,7.2-4.83,10.56a16.58,16.58,0,0,0,.71,4.61,6.4,6.4,0,0,0,.58,2.82l.11.26c.19,1.92.35,3.92.67,5.78a23.41,23.41,0,0,1-.74,3.69c-.4,1.78,1.91,2.73,3.24,1.86l0-.09a2.18,2.18,0,0,0,1.83-.77c.24-.33.49-.67.69-.91a1.93,1.93,0,0,0,2.66-1C172.05,135.94,172.22,135.79,172.3,135.61Z" transform="translate(-28.92 -42.9)"/><path class="cls-11" d="M232.36,127.54a14.87,14.87,0,0,0-2.35-5.38c-.11-.26-1.73-1.57-1.47-1.68,1-.79,1.75-1.66,2.63-2.49l0-.09c2.15,1.09,4.37-2,2.26-3.18-5.79-3.55-12.32-1-17.41,2.74a1.88,1.88,0,0,0-.37,2.76h0c2.12,3-4.54,8.52-5.86,11.22-1.47,3.08.42,7.19,3.57,8.47a2.59,2.59,0,0,0,3.24-1.06c1.87-2.47,2.64-1.19,5.74-1.12,4.14.18,5.81-2.6,5.78-6C230.42,131.5,232.81,130.42,232.36,127.54Z" transform="translate(-28.92 -42.9)"/><path class="cls-11" d="M227,82.39c0,.09-.26.11-.26.11s-.26.11-.3.2c-3.26,1.91-8.67,2.73-7.79,7.73a1.9,1.9,0,0,0,2.24,1.67h0c3.86-.48,6.29-3.27,8.2-6.38l.53-.22C231.5,84,229,80.84,227,82.39Z" transform="translate(-28.92 -42.9)"/><path class="cls-11" d="M251.67,48.49a2,2,0,0,0-3.4-.41c-1.51,1.87-4.19,2.08-6.05,3.48-2.17,1.6-2.8,4.47-3.5,7a2.13,2.13,0,0,0,.71,2.23c-.08,1.26.71,2.23,2.92,2.37C248.9,63.78,253.25,53.89,251.67,48.49Z" transform="translate(-28.92 -42.9)"/><path class="cls-11" d="M211.11,87.16a15.46,15.46,0,0,0-.32-8.77,11.41,11.41,0,0,1-.53-5.61,13.8,13.8,0,0,0,.09-4.71,2,2,0,0,0-2.24-1.67,1.55,1.55,0,0,0-.91.38c-1.23.91-2.78,2.33-4.11-.26-1.24-2.24-4.86-.79-3.74,1.5s.72,4.61.85,6.93a5.91,5.91,0,0,0,.48,4.41c1.21,2.32,3.54,4,5.09,6.06,0,.09.06.13,0,.32a1.88,1.88,0,0,0,1.11,1.52,1.79,1.79,0,0,0,2.09,1,1.5,1.5,0,0,0,2-.91C211,87.34,211.07,87.25,211.11,87.16Z" transform="translate(-28.92 -42.9)"/><path class="cls-11" d="M200.1,132a4,4,0,0,0-1.44-2.31c-2.7-2.4-1.83-4-.74-6.68a1.94,1.94,0,0,0-1.1-2.6,1.54,1.54,0,0,0-.59-.14,8.29,8.29,0,0,0-4.28.43c-1.39.51-4.51,3.66-5.84,1.61a3.12,3.12,0,0,0-2.79-1.35c-2,.25-3.15,1.1-4.91.38,1.56-5.41-.11-13-2.61-17.47a2,2,0,0,0,.23-1.09,30.2,30.2,0,0,0-.88-5c.13.48,2.46,1.64,3,1.87a3.9,3.9,0,0,0,2-.38c.38,2,3.66,2.14,3.93-.12.5-5.74,2-23.26-7.68-23.32-3.36,0-4.76,1.63-5.32,4.86-.34,1.37,1.17,6.41-.26,6.48-2.12-.11-5.05-.33-7.08.68-8.06,4.17-7,13.77,2,15,3.71.43,3.78-2.67,2.55,1.15-.55,1.61.41,3.51,1,5A38.21,38.21,0,0,1,172,119.71a7.05,7.05,0,0,0,1.83,5.06,7.15,7.15,0,0,0,.57.45,8.83,8.83,0,0,0-1.93,2.35c-1.39,2.89-3.15,5.62-1.18,8.48,1.11,1.52,2.38,0,2.12,2.48a9.32,9.32,0,0,0,.34,3.7c.78,2.58,4.31,2.94,6.32,1.7s6.69,2.4,9.66,2a10.39,10.39,0,0,0,7.23-4.51C198.78,138.71,200.38,135,200.1,132Z" transform="translate(-28.92 -42.9)"/><path class="cls-12" d="M230.11,70.71a14.79,14.79,0,0,0,2.29-4,2.07,2.07,0,0,0-3.65-1.91,4.44,4.44,0,0,0-3.2-2,1.85,1.85,0,0,0-2.14,1.28A13.35,13.35,0,0,0,223,68.7h0a4.39,4.39,0,0,1-.54.53c-1.22,2.2-1.49,4.47-.07,6.56-.17.14-.21.24-.38.38-2.56,2.85-4.41,6.09-6.59,9.31a1.1,1.1,0,0,0-.3.74c-1.9,1.49-3.66,3.15-5.41,4.81a1.59,1.59,0,0,0-.2,2.08,2,2,0,0,0-.87.29,36.85,36.85,0,0,0-3,2.34c-.29.21-.72.46-.87.84-.17.14-.25.33-.42.48a6.87,6.87,0,0,0-2-.52c-.1,0-.26.11-.32,0a11.92,11.92,0,0,0-1.82-.31A2.2,2.2,0,0,0,197.86,98a2.5,2.5,0,0,0,.13,1c.09,0,.11.26.11.26a7.29,7.29,0,0,0,.17,2.23,37.26,37.26,0,0,0-5.43,4.59c-1.93,1.81-4.47,4.34-5,7.16-1.93,2.34-4,4.43-6,6.74a.48.48,0,0,1-.35.07c-2.27.27-2.42,4.09.05,4.13l1.39,0A2,2,0,0,0,184,124l.8-.11a1.68,1.68,0,0,0,2,.29c1.74-.81,2.53-2.75,1.07-4.21-.09,0-.13,0-.19-.08,1-1.1,2.08-2.17,3-3.32,5.38-.73,9.84-5.61,13.4-10.1,2.22.37,4.43,0,5.28-2.38a3.86,3.86,0,0,0-1.34-4.65l0-.1c.38-.38.77-.55,1-.79a1.93,1.93,0,0,0,1.43-.06c1.08-.54,2-1.14,3-1.71a17.3,17.3,0,0,0,5.34-2.8,4.32,4.32,0,0,0,.76-5.84c.8-.65,1.61-1.29,2.28-1.88a2,2,0,0,0,.22-2.94c-.09,0-.09,0-.15-.16a22.11,22.11,0,0,1,2.72-3.76c.54-.53,1.12-1.16,1.66-1.7a2.15,2.15,0,0,1,.54-.53A10.59,10.59,0,0,1,230.53,75C233,73.84,232.22,70.81,230.11,70.71Z" transform="translate(-28.92 -42.9)"/><path class="cls-12" d="M250.16,64.4c-2.77-2.75-6.81-3.42-10.55-3,.53-.22.81-.64,1.38-.73,2.52-1.14.83-5-1.68-3.82-3.13,1.32-7.32,3.93-7.53,7.63a1.81,1.81,0,0,0-.7,1.44,4.38,4.38,0,0,0-.73,1,2,2,0,0,0-.14,2.21,5.72,5.72,0,0,1-.92.92,2.12,2.12,0,0,0,.32,2.94c2.91,2.15,7.61.39,10.68-.52s8-2.27,10.19-5.14A2.14,2.14,0,0,0,250.16,64.4Z" transform="translate(-28.92 -42.9)"/><path class="cls-12" d="M230.32,56.65c-.1-2.42-.85-4.56-.41-7a2.13,2.13,0,0,0-2.86-2.24c-2.31.89-5.2,2.42-5.47,5.22a6.67,6.67,0,0,0,1.27,4.84,11.48,11.48,0,0,0,1.57,4.63,8.57,8.57,0,0,0,.74.84c.6,1.43,2.4,2.06,3.36.5A11.5,11.5,0,0,0,230.32,56.65Z" transform="translate(-28.92 -42.9)"/><path class="cls-12" d="M207.79,83.65a1.89,1.89,0,0,0-2.77-.37.39.39,0,0,1-.17.15,9.8,9.8,0,0,0-3.8-3.92,2.11,2.11,0,0,0-3,.41,1.34,1.34,0,0,0-.34.83,10.33,10.33,0,0,0,1.35,7.57,17.21,17.21,0,0,1,2.07,4.19c-.1,1-.12,1.89-.22,2.93A2.23,2.23,0,0,0,203,97.7a3.15,3.15,0,0,0,.9-.07,1.61,1.61,0,0,0,1.5-.79C208.76,92.68,211,88.51,207.79,83.65Z" transform="translate(-28.92 -42.9)"/><path class="cls-12" d="M228.39,101.21h0a1.54,1.54,0,0,0-2-.29,6,6,0,0,0-.95.47c-6.11-.65-11.62-7-18.14-3.17-1.42.83-.89,3,.5,3.55,5.9,2.73,12.27,6.18,18.58,3.68a11,11,0,0,0,2.68-.21C231.49,104.73,231,100.65,228.39,101.21Z" transform="translate(-28.92 -42.9)"/><path class="cls-12" d="M217.61,121.87c-2.72-2.08-2.34-3-1.82-6.14a2.18,2.18,0,0,0-2-2.32,1.64,1.64,0,0,0-.93.17,33.16,33.16,0,0,0-3.43,1.52,1.52,1.52,0,0,0-.79-1,9.55,9.55,0,0,0-2.19-1c-.24-.21-.48-.41-.81-.65a4.65,4.65,0,0,0-3.64-.08A27.29,27.29,0,0,0,191,114.92a6.5,6.5,0,0,0-1.1-2.61c1.37-2.57.56-4.84-1.45-7.06-2.41-2.82-2.75-6-2.19-9.21a21.72,21.72,0,0,0,1.14-4.93c.24-2.17-3.3-3.29-3.89-1-.08.19-.06.41-.13.6h0l-.08.18a17.87,17.87,0,0,0-.69,3.29c-.62,2.33-1.7,4.7-2.51,7-2-1.68-4.06-3.27-6.17-5s-4.26,1.18-2.67,3.12a2,2,0,0,0,.67,1.79,18.38,18.38,0,0,1,2.4,2.59,36.9,36.9,0,0,1,2,6,2.3,2.3,0,0,0,.66,1l.09,1.11a8.59,8.59,0,0,0,5,7.55c1.67.68,3.47.77,4.61-.17a4.53,4.53,0,0,0,.39.91,2,2,0,0,0,2.12,1.94l.13,0,.26-.11a2,2,0,0,0,1.6-.75,1.67,1.67,0,0,0,.5.09,12.61,12.61,0,0,0,4.5.1,13,13,0,0,1,4,.64,6.19,6.19,0,0,0,.6,1.43c4.21,4,10.9,4,16.07,2.43A2.37,2.37,0,0,0,217.61,121.87Z" transform="translate(-28.92 -42.9)"/><path class="cls-12" d="M170.32,136.75c.91-6.76,5-12.77,2.92-19.65-1.15-3.82-3.35-7.95-7.91-7.64-4.81.41-5.07,7.43-5,10.92a22.37,22.37,0,0,0,.73,4.84,8.48,8.48,0,0,0,.54,2.91c.1,0,.06.14.11.27.25,2,.41,4,.64,5.87a30.23,30.23,0,0,1-.69,3.82c-.53,1.83,2,2.85,3.33,1.89l0-.09a2.32,2.32,0,0,0,1.91-.73l.73-1a2,2,0,0,0,2.72-.84C170.17,137.12,170.25,136.93,170.32,136.75Z" transform="translate(-28.92 -42.9)"/><path class="cls-12" d="M232.65,128.42a16.66,16.66,0,0,0-2.55-5.68c-.11-.26-1.77-1.48-1.56-1.72a14.85,14.85,0,0,0,2.67-2.58l0-.1c2.24,1.13,4.56-1.92,2.34-3.36-6-3.75-12.73-1.08-18.08,2.79a2.07,2.07,0,0,0-.41,2.86c2.08,3.11-4.65,8.79-6.14,11.64-1.54,3.26.41,7.51,3.78,8.77a2.88,2.88,0,0,0,3.46-1.08c2-2.53,2.77-1.24,5.93-1,4.27.12,6-2.75,6-6.2C230.64,132.56,233.15,131.43,232.65,128.42Z" transform="translate(-28.92 -42.9)"/><path class="cls-12" d="M227,81.53c0,.09-.26.11-.26.11a1.48,1.48,0,0,0-.43.26c-3.43,2.06-9.06,2.9-8.12,8a2,2,0,0,0,2.33,1.7c4-.53,6.46-3.41,8.54-6.67l.52-.22C231.67,83.32,229.26,80,227,81.53Z" transform="translate(-28.92 -42.9)"/><path class="cls-12" d="M252.76,46.34c-.44-1.58-2.72-1.54-3.59-.48-1.51,1.86-4.41,2.09-6.31,3.58-2.2,1.7-2.87,4.67-3.61,7.28A2.14,2.14,0,0,0,240,59c-.08,1.26.68,2.33,3.07,2.55C249.86,62.22,254.36,52,252.76,46.34Z" transform="translate(-28.92 -42.9)"/><path class="cls-12" d="M210.61,86.53a16.49,16.49,0,0,0-.3-9.09,14.32,14.32,0,0,1-.54-5.83,17.91,17.91,0,0,0,0-4.85A2.09,2.09,0,0,0,207.37,65a4.53,4.53,0,0,0-.91.39c-1.27,1-3,2.34-4.23-.21-1.34-2.28-5-.87-3.87,1.55s.68,4.7.87,7.16a6.06,6.06,0,0,0,.43,4.49c1.27,2.46,3.6,4.16,5.3,6.37,0,.13,0,.13,0,.31a2,2,0,0,0,1.29,1.61,2.11,2.11,0,0,0,2.15,1.09,1.59,1.59,0,0,0,2.08-.88Z" transform="translate(-28.92 -42.9)"/><path class="cls-12" d="M199.14,133a4,4,0,0,0-1.39-2.4c-2.83-2.34-1.95-4.25-.72-7a2,2,0,0,0-1.16-2.73l-.37-.16a9.54,9.54,0,0,0-4.46.35c-1.45.38-4.64,3.72-6.06,1.64a3.31,3.31,0,0,0-2.89-1.39c-2.17.3-3.24,1.05-5.09.3,1.63-5.6-.24-13.48-2.66-18.14a2,2,0,0,0,.23-1.09,26.25,26.25,0,0,0-.9-5.23c.13.49,2.51,1.78,3.24,1.86a3,3,0,0,0,2-.47A2.07,2.07,0,0,0,183,98.4c.63-5.79,2-24-7.92-24.06-3.54,0-4.85,1.59-5.62,5.06-.25,1.41,1.23,6.54-.2,6.61-2.25-.05-5.18-.27-7.25.83-8.42,4.24-7.32,14.29,2,15.59,3.81.47,3.92-2.73,2.56,1.15-.55,1.61.46,3.64,1,5.17,1.37,3.79,2.56,7,2.77,11a8,8,0,0,0,2,5.23,2,2,0,0,0,.57.45,9.56,9.56,0,0,0-2,2.44c-1.43,3-3.27,5.9-1.2,8.79,1.29,1.61,2.37,0,2.17,2.62a13.23,13.23,0,0,0,.35,3.92c.84,2.71,4.5,3,6.51,1.78,2.18-1.38,7,2.51,9.94,2.1a10.24,10.24,0,0,0,7.49-4.62C197.84,140,199.57,136.23,199.14,133Z" transform="translate(-28.92 -42.9)"/></g></svg>