<svg xmlns="http://www.w3.org/2000/svg" xmlns:xlink="http://www.w3.org/1999/xlink" viewBox="0 0 388.34 339.32"><defs><style>.cls-1,.cls-10,.cls-11,.cls-12,.cls-13,.cls-15,.cls-16,.cls-17,.cls-18,.cls-19,.cls-2,.cls-20,.cls-21,.cls-22,.cls-23,.cls-24,.cls-25,.cls-26,.cls-27,.cls-3,.cls-4,.cls-5,.cls-7,.cls-8,.cls-9{stroke:#42210b;}.cls-1,.cls-10,.cls-11,.cls-12,.cls-13,.cls-14,.cls-15,.cls-16,.cls-17,.cls-18,.cls-19,.cls-2,.cls-20,.cls-21,.cls-22,.cls-23,.cls-24,.cls-25,.cls-26,.cls-27,.cls-3,.cls-4,.cls-5,.cls-6,.cls-7,.cls-8,.cls-9{stroke-miterlimit:10;}.cls-1{fill:url(#linear-gradient);}.cls-2{fill:url(#linear-gradient-2);}.cls-3{fill:url(#linear-gradient-3);}.cls-4{fill:url(#linear-gradient-4);}.cls-5{fill:url(#linear-gradient-5);}.cls-6{fill:#c65900;stroke:#603813;}.cls-7{fill:url(#linear-gradient-6);}.cls-8{fill:url(#linear-gradient-7);}.cls-9{fill:url(#linear-gradient-8);}.cls-10{fill:url(#linear-gradient-9);}.cls-11{fill:url(#linear-gradient-10);}.cls-12{fill:url(#linear-gradient-11);}.cls-13{fill:url(#linear-gradient-12);}.cls-14,.cls-15{fill:#d33738;}.cls-14{stroke:#c1272d;}.cls-16{fill:url(#linear-gradient-13);}.cls-17{fill:url(#linear-gradient-14);}.cls-18{fill:url(#linear-gradient-15);}.cls-19{fill:url(#linear-gradient-16);}.cls-20{fill:url(#linear-gradient-17);}.cls-21{fill:url(#linear-gradient-18);}.cls-22{fill:url(#linear-gradient-19);}.cls-23{fill:url(#linear-gradient-20);}.cls-24{fill:url(#linear-gradient-21);}.cls-25{fill:url(#linear-gradient-22);}.cls-26{fill:url(#linear-gradient-23);}.cls-27{fill:url(#linear-gradient-24);}</style><linearGradient id="linear-gradient" x1="38.8" y1="287.58" x2="140.18" y2="287.58" gradientUnits="userSpaceOnUse"><stop offset="0" stop-color="#788b62"/><stop offset="1" stop-color="#78bf00"/></linearGradient><linearGradient id="linear-gradient-2" x1="45.09" y1="101.88" x2="146.27" y2="101.88" xlink:href="#linear-gradient"/><linearGradient id="linear-gradient-3" x1="19.66" y1="146.22" x2="125.63" y2="146.22" xlink:href="#linear-gradient"/><linearGradient id="linear-gradient-4" x1="5.51" y1="219.11" x2="135.74" y2="219.11" xlink:href="#linear-gradient"/><linearGradient id="linear-gradient-5" x1="185.11" y1="100.99" x2="264.49" y2="100.99" xlink:href="#linear-gradient"/><linearGradient id="linear-gradient-6" x1="144.28" y1="305.12" x2="221.72" y2="305.12" xlink:href="#linear-gradient"/><linearGradient id="linear-gradient-7" x1="185.67" y1="274.32" x2="311.28" y2="274.32" xlink:href="#linear-gradient"/><linearGradient id="linear-gradient-8" x1="222.49" y1="183.58" x2="392.85" y2="183.58" xlink:href="#linear-gradient"/><linearGradient id="linear-gradient-9" x1="222.56" y1="141.8" x2="349.17" y2="141.8" xlink:href="#linear-gradient"/><linearGradient id="linear-gradient-10" x1="114.92" y1="87.39" x2="173.64" y2="87.39" xlink:href="#linear-gradient"/><linearGradient id="linear-gradient-11" x1="156.76" y1="87.39" x2="211.22" y2="87.39" xlink:href="#linear-gradient"/><linearGradient id="linear-gradient-12" x1="209.42" y1="148.36" x2="270.87" y2="148.36" xlink:href="#linear-gradient"/><linearGradient id="linear-gradient-13" x1="259.13" y1="57.77" x2="189.68" y2="153.36" xlink:href="#linear-gradient"/><linearGradient id="linear-gradient-14" x1="316.53" y1="99.24" x2="252.08" y2="187.94" xlink:href="#linear-gradient"/><linearGradient id="linear-gradient-15" x1="330.34" y1="150" x2="275.14" y2="225.98" xlink:href="#linear-gradient"/><linearGradient id="linear-gradient-16" x1="254.9" y1="262.71" x2="247.63" y2="272.71" xlink:href="#linear-gradient"/><linearGradient id="linear-gradient-17" x1="204.67" y1="284.53" x2="174.87" y2="325.55" xlink:href="#linear-gradient"/><linearGradient id="linear-gradient-18" x1="125.43" y1="237.46" x2="56.7" y2="332.05" xlink:href="#linear-gradient"/><linearGradient id="linear-gradient-19" x1="84.72" y1="189.81" x2="34.45" y2="259" xlink:href="#linear-gradient"/><linearGradient id="linear-gradient-20" x1="77.47" y1="141.38" x2="67.03" y2="155.75" xlink:href="#linear-gradient"/><linearGradient id="linear-gradient-21" x1="94.92" y1="89.59" x2="83.46" y2="105.37" xlink:href="#linear-gradient"/><linearGradient id="linear-gradient-22" x1="145.21" y1="69.2" x2="137.38" y2="79.98" xlink:href="#linear-gradient"/><linearGradient id="linear-gradient-23" x1="211.91" y1="49.85" x2="160.31" y2="120.87" xlink:href="#linear-gradient"/><linearGradient id="linear-gradient-24" x1="236.85" y1="139.41" x2="217.1" y2="166.58" xlink:href="#linear-gradient"/></defs><title>sumac</title><g id="Sumac"><g id="sumac-2" data-name="sumac"><path class="cls-1" d="M140.09,244.93c.47,2.55-.87,4.69-3.51,8.78-1.37,2.12-1.68,2.28-5.27,7-3.41,4.51-3.34,4.64-5.27,7-3.1,3.84-3.31,3.54-5.26,6.15a66.77,66.77,0,0,0-5.27,8.77c-1.43,2.63-2.82,5.2-4.39,8.78-2.52,5.79-1.85,5.89-3.51,8.78-2.28,4-3.78,4.17-7,8.77-2.25,3.21-1.77,3.48-4.39,7.9-3.32,5.63-5.83,9.88-10.53,13.17-2.86,2-5.5,2.93-9.65,4.39a83.09,83.09,0,0,1-9.66,2.63c-5.78,1.32-5.37.82-8.77,1.75-6.11,1.67-7.29,3.22-11.41,3.51-2.9.21-5.77.72-7-.87-.31-.39-.93-1.41.87-7.9.57-2,1.25-4.15,2.64-7.9,1.57-4.23,2.35-6.34,3.51-8.78a75.4,75.4,0,0,1,4.39-7.9c3.32-5.26,4-4.94,6.14-8.77,2.36-4.16,1.69-4.67,4.39-9.66a37.37,37.37,0,0,1,5.26-7.9c2.22-2.45,2.7-2.17,7-6.14,3-2.78,5.28-5.2,6.15-6.14,3-3.23,3.16-3.9,6.14-7,2.36-2.47,2.4-2.23,4.39-4.39,3.34-3.63,3-4.13,5.27-6.15s2.36-1.42,6.14-4.38c3.27-2.57,2.89-2.8,5.26-4.39,2.83-1.89,3.68-1.78,5.27-3.51,1-1.12,1.36-1.91,2.63-2.64a8.92,8.92,0,0,1,3.51-.87c2-.29,4.1-.6,6.15-.88a37.17,37.17,0,0,0,5.26-.88c3.2-1.19,4.12-3.12,5.27-2.63.83.35.51,1.41,1.76,4.39.62,1.49.83,1.53,1.75,3.51A20.64,20.64,0,0,1,140.09,244.93Z" transform="translate(-5.01 -28.39)"/><path class="cls-2" d="M146.23,139.62c.21-1.08-.32-1.77-1.76-4.39-1.25-2.3-2.33-4.69-3.51-7-1.75-3.48-2.85-6.25-3.51-7.9-1.91-4.8-1.72-5.42-3.51-9.66a34.93,34.93,0,0,0-3.51-7c-1.12-1.61-2.17-2.7-7-7-4.16-3.71-7-6.14-7-6.14-6.55-5.59-9.83-8.38-10.53-8.78-4.68-2.65-5.7-1.5-13.17-5.26a60.75,60.75,0,0,1-6.14-3.52c-3.35-2.2-3.75-3-7.9-6.14s-3.81-2.45-8.78-6.14c-3.26-2.43-7-5.27-7-5.27a33.14,33.14,0,0,0-5.26-3.51c-3.46-1.77-5.35-1.79-6.15-1.75a6.5,6.5,0,0,0-3.51.87c-.64.43-2.3,1.81-2.63,11.41-.16,4.63.23,4.26,0,8.78-.16,3.06-.38,4.15,0,6.14.18.94.51,2.15,2.63,6.15a62.9,62.9,0,0,0,5.27,8.77,74.34,74.34,0,0,0,5.26,6.15c3.25,3.55,4.37,4.39,6.15,7,1.2,1.78.86,1.65,2.63,4.39s1.82,2.43,4.39,6.14c2.12,3.06,2.35,3.65,3.51,4.39,1.51,1,2.17.61,3.51,1.75s1,1.58,2.63,3.51c.57.68.53.54,2.64,2.64,2.42,2.41,2.44,2.56,3.51,3.51a15.58,15.58,0,0,0,8.77,4.39c3,.72,4.58,1.08,6.15.87,1.08-.14,1.8-.42,2.63,0s1.12,1.47,1.75,2.64a10.35,10.35,0,0,0,3.52,3.51c2.9,2.05,3.93.67,7,2.63,2.06,1.31,1.86,2.09,4.39,3.51,1.53.86,2,.79,3.51,1.76,2.46,1.56,2.42,2.48,3.51,2.63,1.74.23,2.46-2.06,6.14-5.27A55,55,0,0,1,141,144C144.61,141.61,146,141.09,146.23,139.62Z" transform="translate(-5.01 -28.39)"/><path class="cls-3" d="M19.85,118.55c.63-2,2.32-4.11,4.39-4.39,1-.13,1.07.29,3.51.88,3,.73,3.37.23,5.26.88s2.1,1.43,4.39,2.63,2.8.62,5.27,1.76c1.43.66,1.33.85,4.82,3.07,2.11,1.33,3.16,2,4.39,2.63,3,1.54,3.4,1.17,6.15,2.64,2.16,1.15,2.13,1.5,4.38,2.63A22.72,22.72,0,0,0,66.8,133c3,.82,3.59.18,6.15.88a35.89,35.89,0,0,1,5.26,2.63c3.12,1.71,4.68,2.56,6.14,3.51,2.89,1.89,3.1,2.42,5.27,3.52.49.24.53.24,4.39,1.75,4.95,1.94,5.39,2.13,6.14,2.63,1.11.74,1.2,1,3.51,2.64a29.16,29.16,0,0,0,2.64,1.75c2.26,1.25,3,.85,5.26,1.76,2.47,1,1.72,1.59,5.27,3.51a21.18,21.18,0,0,1,4.39,2.63A7.83,7.83,0,0,1,123,162c1.18,1.93,0,3.4,0,7.9,0,2.21,0,3.66.88,5.26s1.94,2.08,1.75,2.63c-.34,1-4.07.24-10.53,0-3.82-.13-7.64,0-9.65,0a68.47,68.47,0,0,1-7,0,21.73,21.73,0,0,1-6.15-.87c-3-1-2.78-2.09-6.14-3.51-1.86-.8-1.78-.42-6.14-1.76-2.41-.74-2.39-.84-5.27-1.75a60.41,60.41,0,0,0-6.14-1.76c-1.18-.24-3.14-.46-7-.88-4.73-.51-5.13-.5-6.15-.88-1.29-.47-1.86-.93-5.26-3.51-1.48-1.11-4.74-3.58-7-5.26-3.1-2.28-6-4.26-6.15-4.39-4.16-2.87-4.66-3-6.14-4.39a22.8,22.8,0,0,1-4.39-5.26c-1-1.65-.75-1.78-2.63-6.15s-2.12-4.28-2.64-6.14c-.29-1-.22-1.12-.87-6.15S19.5,119.64,19.85,118.55Z" transform="translate(-5.01 -28.39)"/><path class="cls-4" d="M106.65,222.55c-.07,1.44-1.56,1.79-7.9,6.15-.55.37-2.41,1.71-6.14,4.39-4.63,3.31-4.7,3.41-6.15,4.38-2.15,1.46-3.77,2.44-7,4.39a59.07,59.07,0,0,1-7.9,4.39,29.92,29.92,0,0,1-7,1.76c-1.89.23-2.55.11-7.9,0a82.16,82.16,0,0,0-8.77,0,32.22,32.22,0,0,0-8.78,2.63C35,252.34,35,253,30.29,255a30,30,0,0,1-7.9,2.63c-1.41.22-1.87.16-7.89,0-7.48-.19-8.31-.13-8.78-.88-1-1.54,1.52-3.51,5.26-11.41,1-2.06.86-2,3.52-7.9,2.3-5.09,2.78-6,3.51-7s1.78-2.38,6.14-6.14a97.73,97.73,0,0,1,8.78-7c5.07-3.53,6-3.28,12.28-7a158.88,158.88,0,0,0,14-9.66c6-4.47,7.34-5.88,11.41-7.9,2.57-1.27,3.21-1.28,7.89-3.51,4.84-2.29,5.72-3,8.78-4.38a53,53,0,0,1,10.53-3.52c2.42-.52,6.3-.63,14-.87.52,0-.1,0,10.53,0,4.59,0,6,0,7.9.87,3.14,1.51,6,4.93,5.26,7-.39,1.07-1.61,1.43-7,2.63-9.25,2-9.56,1.82-11.41,2.63-2.14.94-4.35,3-8.78,7-5.73,5.26-6.61,7.25-7,8.78a10.42,10.42,0,0,0,0,6.14C102.84,219.78,106.76,220.21,106.65,222.55Z" transform="translate(-5.01 -28.39)"/><path class="cls-5" d="M185.28,148c-.57-1.58.38-2.79,1.76-6.14,1.45-3.51.82-3.18,2.63-7.9.87-2.25.93-2.12,2.64-6.14,1.46-3.45,2.49-5.88,3.51-8.78,1.71-4.87,1.17-4.74,2.63-8.78a87,87,0,0,1,4.39-9.65c2.38-4.8,2.95-5.45,4.39-8.78s1.36-3.78,2.63-7a62.56,62.56,0,0,1,7.9-14.92c1-1.4,2.74-3.27,6.14-7,5.41-6,7-7.08,8.78-7.9a24.77,24.77,0,0,0,3.51-1.75,39.09,39.09,0,0,0,4.39-3.51c2.84-2.38,2.66-2,4.39-3.51s3.17-3.09,4.38-4.39c2.49-2.67,2.53-3,3.51-3.51,1.79-.92,2.42-.19,5.27-.88,3.43-.83,4.21-2.29,5.27-1.76,1.39.71,1.17,3.82.87,7.9-.26,3.63-.72,4.27-.87,7.9-.12,2.85.14,3.11,0,5.27a32.53,32.53,0,0,1-1.76,7.9c-1.74,6.15-.1,6.32-1.75,14.92a52.18,52.18,0,0,1-2.64,9.65c-.56,1.44-.6,1.33-2.63,6.14-1.74,4.12-1.87,4.58-2.63,6.15a58.73,58.73,0,0,1-3.51,6.14c-2.18,3.32-2.83,3.57-5.27,7-2,2.76-1.61,2.71-4.39,7a95.27,95.27,0,0,1-6.14,8.78c-2.83,3.53-3.05,3.14-6.15,7-2.73,3.43-2.48,3.63-5.26,7-2.35,2.86-2.77,3-5.27,6.15a48.71,48.71,0,0,1-3.51,4.39c-.44.44-.86.84-5.26,4.38-2.81,2.26-3,2.41-3.51,2.64-2.43,1.11-3.51.28-6.15.87-4.32,1-5.87,4.19-7,3.51-.93-.55.22-2.61,0-7-.13-2.68-.31-6.22-2.63-8.77C186.63,149.17,185.75,149.23,185.28,148Z" transform="translate(-5.01 -28.39)"/><path class="cls-6" d="M111.56,363c-.74-1.18-.47-2.34,0-5.27.83-5.12.42-4.14.88-6.14.79-3.49,1.35-3.55,2.63-7.9,1.12-3.77.68-3.65,1.76-7,1-2.95,1.23-2.89,2.63-7,.81-2.4.91-3,1.76-5.27.91-2.45,1.08-2.5,1.75-4.39,1.27-3.54.76-3.59,1.76-6.14,1.37-3.51,2.48-3.76,2.63-6.14.11-1.73-.43-2.21,0-3.51.58-1.77,2-2.15,3.51-3.51,2.27-2,1.27-3.06,4.39-8.78,1.69-3.1,2.26-3.31,3.51-6.14.43-1,.4-1.05,1.75-4.39,1.45-3.58,1.51-3.57,1.76-4.39.74-2.44,2.09-9.92,2.63-13.17.68-4.09.17.06,0,0a14.36,14.36,0,0,0-.87,1.76s.16-1.51.87-1.76c1.3-.45,3.88,3.33,5.27,6.15,1.25,2.53,2.26,4.6,1.75,7-.44,2.13-1.58,2.21-3.51,5.26-2,3.24-1.2,3.85-3.51,8.78-2.17,4.64-3,4.37-3.51,7-.39,2.26.06,3.49-.88,6.15a17.12,17.12,0,0,1-1.75,3.51,33.23,33.23,0,0,1-3.51,4.38,41.94,41.94,0,0,0-3.51,4.39c-2.26,3.58-.68,5.15-2.63,13.17-.64,2.62-1.55,5.47-1.76,6.14-.86,2.72-1.06,3-1.76,5.27a58.35,58.35,0,0,0-1.75,7c-.37,2.05-.55,3.88-.88,7-.18,1.77-.62,3.5-.88,5.27-.19,1.34-.27,2.06-.87,2.63s-1.35.36-3.51.88-2.42,1.05-3.52.87A3.94,3.94,0,0,1,111.56,363Z" transform="translate(-5.01 -28.39)"/><path class="cls-7" d="M180.46,243.18c1.52.55.88,2,3.51,4.39,1.75,1.58,2.78,1.61,4.39,3.51a30.72,30.72,0,0,1,1.75,2.63,44.31,44.31,0,0,0,3.51,4.39c2.95,3.2,3.8,2.95,5.27,5.27,1,1.55.58,1.64,1.75,3.51,1.29,2.05,1.89,2.12,3.51,4.38,1.07,1.48.76,1.38,2.64,4.39,2.07,3.33,2.34,3.29,2.63,4.39.52,2-.32,2.27,0,5.27.25,2.37.79,2.28.88,4.38.1,2.42-.57,3,0,4.39s1.48,1.23,2.63,2.64c.87,1.06,1.13,2.09,1.76,6.14.68,4.39.87,6.14.87,6.14.45,4,.72,7,.88,8.78.56,6.18.83,9.27.88,9.65.22,1.92.72,6.11,1.75,11.41.56,2.86,1,4.41,1.76,8.78a40.62,40.62,0,0,1,.88,6.14,36.52,36.52,0,0,1-.88,7.9c-.44,2.51-.77,3.62-1.76,4.39a5.32,5.32,0,0,1-2.63.88,13.12,13.12,0,0,1-5.26,0c-1.31-.3-1.85-.69-6.15-3.51-4.69-3.09-4.68-3.05-5.26-3.51a45.13,45.13,0,0,1-5.27-5.27c-3.62-4-3.5-4.26-6.14-7-3-3.09-3.26-2.9-5.27-5.27a56.66,56.66,0,0,1-4.39-6.14c-2.3-3.51-2.27-3.85-4.39-7-1.49-2.24-2.69-3.86-4.38-6.14-4-5.36-4.11-5.05-5.27-7a34.32,34.32,0,0,1-3.51-8.77c-1-3.62-.47-3.53-1.76-8.78a35.59,35.59,0,0,0-2.63-7.9c-1.34-2.69-1.63-2.19-2.63-4.39-1.77-3.85-.76-5.12-2.63-9.65-.89-2.13-1.38-3.31-2.64-4.39-1.44-1.23-2.57-1.19-3.51-2.63a7.44,7.44,0,0,1-.88-3.51,38.94,38.94,0,0,1,0-5.27c0-1.75,0-3.51,0-5.26v-4.39c-.09-3.63-.39-4,0-4.39,1.14-1.19,4.21,1.16,10.54,2.63a21.41,21.41,0,0,0,16.67-1.75C176.94,245,178.4,242.43,180.46,243.18Z" transform="translate(-5.01 -28.39)"/><path class="cls-8" d="M191,224.75c.46-.4,1.62-1.18,8.78,0,4.56.75,4.82,1.19,8.77,1.75,4.58.66,4.7.14,7,.88,3.09,1,3,2,7,3.51a36.65,36.65,0,0,0,6.14,1.76c3.25.62,3.52.2,5.26.87s1.72,1.21,5.27,3.52l4.39,2.63L248,242.3c3.23,2.08,3.25,2.49,5.26,3.51,1.69.86,1.71.59,4.39,1.76,2.32,1,2.93,1.48,5.27,2.63,3,1.48,3.22,1.29,6.14,2.63a65.36,65.36,0,0,1,7.9,4.39,39.24,39.24,0,0,1,6.14,4.39,40.53,40.53,0,0,1,5.27,6.14c1.69,2.25,1.8,2.67,4.39,6.15,1.35,1.82,1.55,2,2.63,3.51s2.31,3.21,3.51,5.26a56.1,56.1,0,0,1,2.63,5.27c1.71,3.71,2.78,6.23,3.51,7.9,4.07,9.3,4.38,8.08,5.27,11.41.52,1.94.64,5.09.88,11.41.12,3.11.07,4.47-.88,5.26-1.68,1.4-5,0-7-.87s-4.12-2.14-8.78-6.15-4.84-4.63-7.9-7-3.28-2.13-7.9-5.27c-8.38-5.7-7.81-6.66-12.28-8.77a57.23,57.23,0,0,0-10.53-3.51c-3.42-.83-4.46-.79-7-1.76-3.61-1.36-3.76-2.28-7.89-4.39-5.61-2.85-6.58-1.79-10.54-4.38-2.72-1.79-2.12-2.2-6.14-5.27-3.6-2.75-4.15-2.47-7.9-5.27a58.25,58.25,0,0,1-7-6.14c-2.63-2.74-2.85-3.56-5.27-6.14-3-3.24-3.56-2.81-7-6.15-3.26-3.15-2.61-3.28-7-7.9-3.45-3.61-4.16-3.86-4.39-5.26-.43-2.71,1.92-3.56,3.51-8.78C190.4,227.08,189.64,225.91,191,224.75Z" transform="translate(-5.01 -28.39)"/><path class="cls-9" d="M222.59,210.71c.14.27.37.37,3.51.87s4.87.79,6.14.88c1.84.14,2.45,0,6.14,0,3.22-.05,6.44,0,9.66,0h7c5.49,0,5.59-.07,7,0,3.72.19,4.41.59,7.9.88a57.54,57.54,0,0,0,8.77,0c3.78-.23,4.47-.57,12.29-1.76,6.36-1,9.55-1.45,13.17-1.75,4.92-.42,6-.22,9.65-.88s4.09-1.15,7.9-1.75c4-.64,4.76-.29,8.78-.88a60.17,60.17,0,0,0,7.9-1.76,70.27,70.27,0,0,0,12.28-4.39c2-.92.81-.51,10.53-6.14,5.72-3.31,6.58-3.72,8.78-5.27,3-2.11,3.47-2.79,6.14-4.38,1.89-1.13,1.83-.89,7-3.51a32,32,0,0,0,7-4.39c1.69-1.47,2.68-2.35,2.63-3.51-.08-1.94-3-3.3-5.27-4.39-3.56-1.69-4.42-1-7-2.63s-2.31-2.74-4.39-3.51c-2.61-1-3.51.59-7,0-1.07-.19-2.76-1-6.14-2.64-3.14-1.51-3.27-1.72-5.27-2.63a38.84,38.84,0,0,0-7-2.63,31.53,31.53,0,0,0-8.77-.88c-1.58,0-1.55.13-7.9.88l-7.9.87c-7.29.82-7,.79-7.9.88-6.28.64-6.28.46-8.78.88-4.06.67-4,1.12-7.9,1.75-4.2.68-4.46.2-8.77.88-2.73.43-2.64.63-7.9,1.76-6,1.29-5.86,1-8.78,1.75a94.35,94.35,0,0,0-9.65,3.51c-5.35,2.1-6.53,2.26-8.78,3.51-1.36.76-2.66,1.68-5.26,3.51-2.08,1.47-4.32,3-7,5.27-3.29,2.71-3.12,3-7,6.14-2.56,2.1-4.39,3.51-4.39,3.51-3.64,2.82-3.85,2.76-4.38,3.52-1.94,2.75.13,4.75-.88,8.77C227.31,206.68,221.69,209,222.59,210.71Z" transform="translate(-5.01 -28.39)"/><path class="cls-10" d="M222.59,173c.19-1.33,1.39-1.8,3.51-3.51a37.52,37.52,0,0,0,4.38-4.39c1.72-1.89,2.08-2.62,3.51-4.39,2.06-2.54,3.15-3.31,7-7,5.24-5,4.23-4.56,7-7,3.12-2.77,3.45-2.51,10.53-7.9,5.36-4.08,5.13-4.19,7-5.27,3.69-2.1,4.86-1.85,8.78-4.39a32.37,32.37,0,0,1,4.38-2.63c1.17-.55,1.38-.55,4.39-1.75,3.24-1.3,3.27-1.42,4.39-1.76,2-.6,2.58-.44,5.27-.88a33.6,33.6,0,0,0,7-1.75c2.35-.93,2.1-1.31,6.14-3.51s4.28-1.8,7-3.51c3.46-2.16,3.06-2.77,6.15-4.39,2.21-1.16,3.06-1.19,5.26-2.63,1.78-1.17,1.71-1.47,3.51-2.64a45,45,0,0,1,5.27-2.63c3.47-1.66,2.93-1.57,5.27-2.63,3.83-1.75,4-1.4,6.14-2.64s2.8-2,3.51-1.75c1.64.67.94,5.74.88,6.14a20.37,20.37,0,0,1-2.64,7c-1.16,2.18-1.26,1.89-4.38,7a25,25,0,0,0-2.64,5.27,32.15,32.15,0,0,0-.87,3.51c-1.31,6-.91,6.3-1.76,7.9-.95,1.8-1.4,1.34-3.51,4.39-1.45,2.09-1.25,2.33-2.63,4.39a40.94,40.94,0,0,1-4.39,5.26c-1.87,2-1.89,1.8-4.39,4.39-3.22,3.33-3.17,3.64-4.39,4.39a13.81,13.81,0,0,1-6.14,1.75c-3,.32-3.38-.31-6.15,0s-2.85,1-6.14,1.76c-3.77.88-4.22.13-8.78.88-2.81.46-2.26.69-7,1.75-4.32,1-4.89.81-8.77,1.76-1,.23-3.26.81-6.15,1.75a66.2,66.2,0,0,0-7,2.64c-4.26,2-4.3,3.06-11.41,7.89-4.43,3-4.87,2.9-7.9,5.27-3.33,2.61-6.14,5.27-6.14,5.27-4.15,3.92-5.09,5.6-6.14,5.26-1.61-.52.21-4.56-2.64-8.77a57.83,57.83,0,0,1-3.51-5.27C222.76,174.36,222.47,173.73,222.59,173Z" transform="translate(-5.01 -28.39)"/><path class="cls-11" d="M173.22,79.4c-.89-2.57-2.36-2.67-6.14-7-2.71-3.12-2.44-3.62-4.39-5.27s-3-1.77-6.14-3.51c-4.25-2.33-3.9-2.93-7.9-5.26-1.22-.72-4.05-2-9.66-4.39-6.73-2.93-7.52-3.21-8.77-3.51a35.22,35.22,0,0,0-8.78-.88c-3.63-.05-5.45-.05-6.14.88-1.08,1.46.22,4.06,2.63,8.77A87,87,0,0,0,123.2,68c3.37,5.11,3.76,5.15,5.26,7.9a62.64,62.64,0,0,1,3.51,7.9c2.35,6,1.92,6.66,3.51,8.78,1.75,2.32,2.63,2,5.27,5.26a33.5,33.5,0,0,1,3.51,5.27c2,3.52,1.58,4.1,3.51,7.9a66.43,66.43,0,0,0,4.39,7c2.47,3.66,3.33,4.53,4.39,5.26,1.29.9,3.61,2.51,5.26,1.76,1.92-.87,1.24-4.1,2.64-12.29a71.07,71.07,0,0,1,1.75-7.9,89.3,89.3,0,0,1,3.51-9.65c2.21-5.42,3-6.56,3.51-9.66C173.63,83,173.9,81.36,173.22,79.4Z" transform="translate(-5.01 -28.39)"/><path class="cls-12" d="M184.85,140.49c.6-2.53.57-2.09.87-3.51a40.57,40.57,0,0,0,.88-6.14c0-.63,0-.4,0-5.27v-9.65c0-1.76,0-3.51,0-5.27,0-4.58-.19-4.44,0-5.26.38-1.61,1.13-2.83,2.63-5.27.28-.45.78-1.18,1.76-2.63,2-2.94,2.3-3.24,2.63-3.51,1.47-1.18,2-.59,3.51-1.76.89-.69.78-1,2.64-3.51,1.59-2.18,1.78-2.13,2.63-3.51a27.2,27.2,0,0,0,1.75-3.51c.77-1.7,1.25-3,1.76-4.39A45.81,45.81,0,0,0,207.67,72a13.84,13.84,0,0,1,.87-3.51c.69-1.49,1.22-1.56,1.76-2.64.76-1.51.25-2.43,0-6.14a34.62,34.62,0,0,1,0-6.14c.27-2.67.68-2.63.88-5.27.09-1.3,0-1.51,0-5.27,0-4.32.09-4,0-4.38-.75-3-2.89-2.83-5.27-7C205,30,205,29.39,204.15,29c-.48-.21-1.94-.64-6.14,2.63a40.12,40.12,0,0,0-6.14,6.15,107.32,107.32,0,0,0-7,8.77,47.06,47.06,0,0,0-5.27,8.78c-1.4,3.21-1,3.52-2.63,7-1.45,3.1-2.21,3.81-3.51,7a45.88,45.88,0,0,0-1.76,5.27,68.36,68.36,0,0,0-1.75,8.78c-.64,4.6-.29,4.83-.88,7-.88,3.24-2.16,4.56-3.51,7-2.29,4.16-1.26,5.17-4.39,20.18a68.12,68.12,0,0,1-1.76,7c-1,3.2-1.27,3.15-1.75,5.26a40.58,40.58,0,0,0-.88,7.9h0s2.3,1.24,3.51,1.76c2,.84,2.83.5,6.15.87s5.4.61,7.89,1.76c1.43.66,2.34,1.32,5.27,2.63,2.33,1,3,1.16,3.51.88C183.88,145.36,183.9,144.45,184.85,140.49Z" transform="translate(-5.01 -28.39)"/><path class="cls-13" d="M209.42,161.56c-.07-.94,1-1.37,3.51-3.51s2.29-2.5,5.27-5.27a64.94,64.94,0,0,1,5.26-4.39c3-2.25,4-2.41,8.78-5.26,4.46-2.65,4.21-2.85,9.65-6.15a63.68,63.68,0,0,1,7.9-4.39c3.39-1.39,4.48-1.23,9.66-2.63,7.43-2,11.18-4,11.41-3.51s-3.91,2.58-11.41,7.9c-2,1.44-4.23,3-7,5.27-3.37,2.72-5.77,5-7.9,7-3,2.82-2.68,2.72-7.9,7.9-7.15,7.07-6.93,6.49-7.9,7.9a25.24,25.24,0,0,1-5.27,6.14c-2.2,1.79-3.11,1.79-3.51,1.75-2.07-.2-2.13-2.73-5.26-5.26C211.87,162.79,209.53,162.9,209.42,161.56Z" transform="translate(-5.01 -28.39)"/><path class="cls-14" d="M126,173c-.82-4.29-.87-4.68-.87-5.27a15.82,15.82,0,0,1,.87-5.26,20.79,20.79,0,0,1,2.64-5.27,25.11,25.11,0,0,1,6.14-6.14c2.29-1.73,2.5-1.42,5.27-3.51,2.55-1.94,2.59-2.37,4.38-3.52a20.28,20.28,0,0,1,6.15-2.63c1.26-.29,2-.3,7.9,0,7.64.39,11.08,1.39,12.28,1.76.83.24,0,.16,3.51,1.75a39.78,39.78,0,0,1,5.27,2.64A15.36,15.36,0,0,1,184,151a13.28,13.28,0,0,1,2.63,6.14,20.06,20.06,0,0,1,0,6.14c-.13,1.3-.38,2.63-.88,5.27-.27,1.44-.29,1.46-.87,4.39-.71,3.56-.67,3.53-.88,4.39a19.3,19.3,0,0,1-1.76,5.26c-.58,1-.52.59-3.51,4.39a43.63,43.63,0,0,0-2.63,3.51c-1,1.68-1,2.19-1.76,2.63-1.15.69-2-.05-4.38,0-.93,0-.73.13-4.39.88a39.54,39.54,0,0,1-5.27.88c-1.77.12-1.65-.09-3.51,0-2.73.12-3.1.57-6.14.88a16.26,16.26,0,0,1-5.27,0A14.11,14.11,0,0,1,141,194c-1.55-.91-1.57-1.28-3.51-2.63-2.59-1.82-3-1.46-4.39-2.64-1.26-1-2-2.46-3.51-5.26a29.23,29.23,0,0,1-2.63-6.14C126.82,177,126.56,175.65,126,173Z" transform="translate(-5.01 -28.39)"/><path class="cls-14" d="M177,193.15c.34-1.59,1.31-1.71,3.51-4.39.71-.86,1.64-2.33,3.51-5.26a46.35,46.35,0,0,0,2.63-4.39c1.4-3,.9-4,1.76-6.14,1.64-4,5.7-6,7.9-7a15.62,15.62,0,0,1,9.65-1.76,16.81,16.81,0,0,1,6.14,2.63,21.89,21.89,0,0,1,6.15,5.27c1.14,1.46.75,1.39,3.51,6.14,2.28,3.94,2.66,4.18,3.51,6.15a18.25,18.25,0,0,1,1.75,6.14,20.67,20.67,0,0,1-.87,7,21.2,21.2,0,0,1-1.76,5.27c-1.36,2.62-2.17,2.49-3.51,5.26-.71,1.49-.59,1.76-1.76,4.39a20.16,20.16,0,0,1-1.75,3.51c-1.35,1.8-3.09,2.57-5.27,3.51a28.68,28.68,0,0,1-6.14,1.76,33.1,33.1,0,0,1-7,.88c-2.68,0-4,0-5.27-.88-.79-.57-1-1.12-2.63-4.39s-2.35-4.82-2.63-5.27c-.8-1.27-.9-1.11-4.39-5.26-2.16-2.57-2.92-3.57-3.51-4.39a20.38,20.38,0,0,1-2.64-4.39C177.14,195.82,176.64,194.58,177,193.15Z" transform="translate(-5.01 -28.39)"/><path class="cls-14" d="M131.31,193.15c.6.22,1.5.55,2.63.88s1.66.43,3.51.88c3.73.9,4.51,1.25,5.27,1.75a3.94,3.94,0,0,1,1.75,5.27c-.67,1.55-1.72,1.41-3.51,3.51a27.42,27.42,0,0,0-1.75,2.63c-1.5,2.39-2.25,3.58-2.63,4.39a19.45,19.45,0,0,0-1.76,7,19.76,19.76,0,0,0,0,5.27,7.35,7.35,0,0,1,0,3.51,5.09,5.09,0,0,1-.88,1.75,6.65,6.65,0,0,1-2.63,1.76c-3.4,1.68-3,1.57-3.51,1.75-1.19.43-1.31.29-4.39.88-2.82.55-2.87.7-4.39.88a11.77,11.77,0,0,1-4.39,0c-1.12-.26-1.6-.63-3.51-1.76-4.81-2.83-4.79-2.28-6.14-3.51a27.64,27.64,0,0,1-3.51-4.38A18.08,18.08,0,0,1,99.71,223c-.86-2.51,1.17-4,2.64-8.77,1.21-4,.28-4.44,1.75-7.9a13.71,13.71,0,0,1,3.51-5.27c1.26-1.1,1.53-.84,4.39-2.63,3.59-2.24,3.36-2.77,5.27-3.51a15.53,15.53,0,0,1,6.14-.88c1.82.09,2.73.44,4.39,0,.21-.06,2-.63,2.53-.84l.1,0A1.63,1.63,0,0,1,131.31,193.15Z" transform="translate(-5.01 -28.39)"/><path class="cls-14" d="M140.09,236.16a32.4,32.4,0,0,0,1.75,3.51,14.38,14.38,0,0,0,3.51,3.51,16.85,16.85,0,0,0,4.39,2.63c1.67.65,3.77.74,7.9.88a54.51,54.51,0,0,0,6.14,0,22.66,22.66,0,0,0,6.15-.88c2.23-.74,1.84-1.19,6.14-3.51,3.11-1.67,4.18-1.9,6.14-3.51a13.85,13.85,0,0,0,2.64-2.63c1.64-2.24,2.05-4.46,2.63-7.9.65-3.83.15-3.88.88-7,.63-2.73,1.11-3.13.87-4.39-.32-1.78-1.5-2.22-4.38-5.27-.79-.82-2-2.3-4.39-5.26a62.1,62.1,0,0,0-4.39-5.27,17.9,17.9,0,0,0-4.39-3.51,14.12,14.12,0,0,0-6.14-1.75c-1.51-.07-1.64.2-7.9,1.75-3.8.94-4.55,1.05-6.14,1.76a18.79,18.79,0,0,0-4.39,2.63,19.63,19.63,0,0,0-4.39,5.27,34,34,0,0,0-4.39,10.53,34.49,34.49,0,0,0-.88,7.9c0,3.09,0,4.89.88,7C138.64,233.37,138.7,233.31,140.09,236.16Z" transform="translate(-5.01 -28.39)"/><path class="cls-15" d="M141.84,236.16a33.49,33.49,0,0,0,1.76,3.51,14.21,14.21,0,0,0,3.51,3.51,16.85,16.85,0,0,0,4.39,2.63c1.67.65,3.77.74,7.89.88a54.69,54.69,0,0,0,6.15,0,22.51,22.51,0,0,0,6.14-.88c2.23-.74,1.85-1.19,6.14-3.51,3.11-1.67,4.19-1.9,6.15-3.51a13.83,13.83,0,0,0,2.63-2.63c1.65-2.24,3.81-4.46,4.39-7.9.65-3.83-1.61-3.88-.88-7,.63-2.73,1.11-3.13.88-4.39-.33-1.78-1.51-2.22-4.39-5.27-.78-.82-2-2.3-4.39-5.26a58.33,58.33,0,0,0-4.39-5.27,17.85,17.85,0,0,0-4.38-3.51,14.17,14.17,0,0,0-6.15-1.75c-1.5-.07-1.63.2-7.9,1.75-3.79.94-4.54,1.05-6.14,1.76a19,19,0,0,0-4.39,2.63,19.63,19.63,0,0,0-4.39,5.27,33.89,33.89,0,0,0-4.38,10.53,34.49,34.49,0,0,0-.88,7.9c0,3.09,0,4.89.88,7C140.39,233.37,140.45,233.31,141.84,236.16Z" transform="translate(-5.01 -28.39)"/><path class="cls-15" d="M178.7,190.52c.34-1.59,1.31-1.71,3.51-4.39.71-.86,1.65-2.33,3.51-5.26a47.63,47.63,0,0,0,2.64-4.39c1.4-3,.89-4,1.75-6.15,1.64-4,5.71-6,7.9-7a15.75,15.75,0,0,1,9.66-1.75,16.71,16.71,0,0,1,6.14,2.63,21.75,21.75,0,0,1,6.14,5.27c1.15,1.46.76,1.38,3.51,6.14,2.29,3.94,2.67,4.18,3.51,6.14a18.54,18.54,0,0,1,1.76,6.15,20.44,20.44,0,0,1-.88,7,21,21,0,0,1-1.75,5.26c-1.37,2.63-2.18,2.49-3.51,5.27-.72,1.49-.6,1.75-1.76,4.39a19.27,19.27,0,0,1-1.76,3.51c-1.35,1.79-3.08,2.57-5.26,3.51,2.63-1.14,1.34,2.82-6.14,4.39-2.07.43-4.2-1.77-7-1.76-2.67,0-4,0-5.26-.88-.8-.56-1-1.11-2.64-4.38s-2.35-4.83-2.63-5.27c-.8-1.27-.89-1.12-4.39-5.27-2.16-2.56-2.91-3.56-3.51-4.38a20.1,20.1,0,0,1-2.63-4.39C178.89,193.18,178.4,192,178.7,190.52Z" transform="translate(-5.01 -28.39)"/><path class="cls-15" d="M131.31,193.15c.6.22,1.5.55,2.63.88s1.66.43,3.51.88c3.73.9,4.51,1.25,5.27,1.75a3.94,3.94,0,0,1,1.75,5.27c-.67,1.55-1.72,1.41-3.51,3.51a27.42,27.42,0,0,0-1.75,2.63c-1.5,2.39-2.25,3.58-2.63,4.39a19.45,19.45,0,0,0-1.76,7,19.76,19.76,0,0,0,0,5.27,7.35,7.35,0,0,1,0,3.51,5.09,5.09,0,0,1-.88,1.75,6.65,6.65,0,0,1-2.63,1.76c-3.4,1.68-3,1.57-3.51,1.75-1.19.43-1.31.29-4.39.88-2.82.55-2.87.7-4.39.88a11.77,11.77,0,0,1-4.39,0c-1.12-.26-1.6-.63-3.51-1.76-4.81-2.83-4.79-2.28-6.14-3.51a27.64,27.64,0,0,1-3.51-4.38A18.08,18.08,0,0,1,99.71,223c-.86-2.51,1.17-4,2.64-8.77,1.21-4,.28-4.44,1.75-7.9a13.71,13.71,0,0,1,3.51-5.27c1.26-1.1,1.53-.84,4.39-2.63,3.59-2.24,3.36-2.77,5.27-3.51a15.53,15.53,0,0,1,6.14-.88c1.82.09,2.73.44,4.39,0,.21-.06,2-.63,2.53-.84l.1,0A1.63,1.63,0,0,1,131.31,193.15Z" transform="translate(-5.01 -28.39)"/><path class="cls-15" d="M126,171.21c-.82-4.28-.87-4.68-.87-5.26a15.89,15.89,0,0,1,.87-5.27,21.13,21.13,0,0,1,2.64-5.27,25.3,25.3,0,0,1,6.14-6.14c2.29-1.72,2.5-1.42,5.27-3.51,2.55-1.93,2.59-2.36,4.38-3.51a19.73,19.73,0,0,1,6.15-2.63c1.26-.29,2-.3,7.9,0,7.64.39,11.08,1.39,12.28,1.75.83.25,0,.17,3.51,1.76a40.31,40.31,0,0,1,5.27,2.63,15.71,15.71,0,0,1,4.39,3.51,13.33,13.33,0,0,1,2.63,6.14,20.13,20.13,0,0,1,0,6.15c-.13,1.3-.38,2.62-.88,5.26-.27,1.44-.29,1.46-.87,4.39-.71,3.57-.67,3.53-.88,4.39a19.51,19.51,0,0,1-1.76,5.27c-.58,1-.52.58-3.51,4.38-1.47,1.87-2.2,2.81-2.63,3.51-1,1.69-1,2.2-1.76,2.64-1.15.69-2-.05-4.38,0-.93,0-.73.13-4.39.88a39.16,39.16,0,0,1-5.27.87c-1.77.12-1.65-.08-3.51,0-2.73.13-3.1.58-6.14.88a16,16,0,0,1-5.27,0,14.4,14.4,0,0,1-4.39-1.75c-1.55-.92-1.57-1.28-3.51-2.64-2.59-1.81-3-1.45-4.39-2.63-1.26-1.06-2-2.46-3.51-5.27a29,29,0,0,1-2.63-6.14C126.82,175.24,126.56,173.89,126,171.21Z" transform="translate(-5.01 -28.39)"/></g><path class="cls-16" d="M251.83,52.46s-41.54,96.07-55.59,105.67" transform="translate(-5.01 -28.39)"/><path class="cls-17" d="M234.86,175.43s88-47.67,98.88-63.68" transform="translate(-5.01 -28.39)"/><path class="cls-18" d="M240.14,200.56s55.57-19.18,125.2-25.13" transform="translate(-5.01 -28.39)"/><path class="cls-19" d="M201.94,239.41s38.19-6.47,91.43,66.53" transform="translate(-5.01 -28.39)"/><path class="cls-20" d="M165.16,255.82s12.36,50.35,49.22,98.44" transform="translate(-5.01 -28.39)"/><path class="cls-21" d="M50.55,327.58s32.76-21.4,81-85.65" transform="translate(-5.01 -28.39)"/><path class="cls-22" d="M19.66,248.25S49,215.83,99.51,200.56" transform="translate(-5.01 -28.39)"/><path class="cls-23" d="M30.07,127.88s35.7,33.94,84.85,40.7" transform="translate(-5.01 -28.39)"/><path class="cls-24" d="M53.48,59.48s33.71,55.79,72.15,75" transform="translate(-5.01 -28.39)"/><path class="cls-25" d="M125.63,55.39s23.24,12.4,31.13,38.67" transform="translate(-5.01 -28.39)"/><path class="cls-26" d="M198.58,40.17s-30,65.49-24.94,90.38" transform="translate(-5.01 -28.39)"/><path class="cls-27" d="M213.81,164.19s24.59-22,26.33-22.39" transform="translate(-5.01 -28.39)"/></g></svg>