<svg xmlns="http://www.w3.org/2000/svg" viewBox="0 0 346.24 372.04"><defs><style>.cls-1,.cls-6{fill:#d1a346;}.cls-2,.cls-8{fill:#ecc865;}.cls-2,.cls-6,.cls-7{opacity:0.5;}.cls-3{fill:#9b5808;}.cls-4{opacity:0.4;}.cls-5{fill:#b67d27;}</style></defs><title>tabacoo</title><g id="Tabacoo"><path class="cls-1" d="M365.81,260.82a9.67,9.67,0,0,1,.79,2.71,2.16,2.16,0,0,1-.37,1.54c-4,5.8-7.09,10.65-9.86,15.25a1,1,0,0,1-.17.24,227.05,227.05,0,0,0-13.95,20.18c-7.35,11.51-15,23.41-25.89,32.7-22.48,19.14-46.25,33.53-70.64,42.78-23.23,8.8-50.31,5.21-74.19,2l-7.79-1c-10.21-1.29-20.63-1.59-30.71-1.88-3.44-.09-6.89-.19-10.36-.32l-2.24-.1c-11.48-.41-23.34-.86-33.82-7.22a5.07,5.07,0,0,1-2-2.22,5.62,5.62,0,0,1-.49-2.21,10.1,10.1,0,0,1-.75-1.37,9.44,9.44,0,0,1,2.55-11.33l4.77-4.18c35.12-30.87,71.45-62.79,116.15-79.78,27.09-10.3,51.46-15.94,74.49-17.26,15.82-.91,31.56,1.19,46.77,3.23,8.71,1.16,17.71,2.37,26.6,3a1.86,1.86,0,0,1,.65.15c1.13.44,2.29.92,3.47,1.41,1.81.76,3.68,1.54,5.55,2.21a2.13,2.13,0,0,1,1.22,1.06Z" transform="translate(-30.32 -13.12)"/><path class="cls-2" d="M87.4,352.25a7.34,7.34,0,0,0-1,10.39,3.18,3.18,0,0,0,1.37,3.2c10.66,6.46,22.85,6.52,35,7,13.83.55,27.52.48,41.27,2.23,25.84,3.27,55.71,8.66,80.92-.9,25.6-9.71,49.19-24.69,70-42.39,17.11-14.57,25.78-35.51,39.55-52.59,3.14-5.22,6.49-10.32,9.92-15.36a7.4,7.4,0,0,0-.76-2.4c-3.12-1.11-6.18-2.51-9.09-3.64-24.44-1.69-48.44-7.63-73.08-6.21-25.54,1.46-50,8.07-73.83,17.12C161.31,286.3,124.14,320,87.4,352.25Z" transform="translate(-30.32 -13.12)"/><path class="cls-1" d="M356.75,266.1c-3.54,3.91-6.91,7.82-10.21,11.66-10,11.56-19.39,22.48-30.71,30.47-28.21,19.93-57.07,35.37-85.76,45.88-23.07,8.45-51.41,7.2-78.83,6-3.34-.15-6.63-.3-9.87-.42-14.14-.56-28,0-41.4.63q-6.34.29-12.7.52l-1.35.05C125.69,332.44,167,305,212.13,288.45c33-12.14,60.73-19.19,87.15-22.21,17.16-2,34.44-1.18,52.75-.36Z" transform="translate(-30.32 -13.12)"/><path class="cls-1" d="M148.58,320.81c-14.81,9.15-31.76,17.58-45.2,29.24-5.58,1.36-11.2,2.53-16.89,3.45-.5.35-1,.7-1.52,1l-.23.14c-4.71,2.71-9.88,3.6-15.21,4.06-1.81.46-3.61,1-5.41,1.55a.78.78,0,0,0,0,.16c-.15,2.48,1,4.18,1.38,6.43a80.88,80.88,0,0,0,8.71-2c3.42-1,6.94-2,10.52-1.42a1.16,1.16,0,0,1,.9.79l.44-.14c12.21-3.67,24.46-7.12,36.73-10.61,23.61-6.7,46.92-14.46,70-22.88,49.35-18,97.77-38.55,147.45-55.68,2.2-.76,1-4.6-1.18-3.93-28,8.47-55.7,18.06-83.26,27.92,23.88-10.32,48.19-19.65,71.09-32.05a1,1,0,0,0-.79-1.73c-37.33,13.7-75.44,27.67-109.79,48q-9.51,3.44-19,6.83c-25.08,8.93-50.25,17.62-75.79,25.15L117,346.41c13.72-8.34,27.71-16.21,41.52-24.49,21.16-12.69,43.75-23,64.56-36.17,2.42-1.53-.21-4.61-2.45-3.9C194.9,289.88,171.39,306.74,148.58,320.81Z" transform="translate(-30.32 -13.12)"/><path class="cls-3" d="M331.89,275.52c-26.18,9.22-52.3,19.41-77.65,29.28-20.36,7.94-41.4,16.14-62.26,23.76-24.88,9.1-47.72,16.57-69.8,22.85l-3.13.89c-11,3.12-22.44,6.36-33.64,9.72l-3.29,1a145.67,145.67,0,0,1-16.74,4.4,5.18,5.18,0,0,0-.26-.6q-.42-.92-.9-1.77l0-.22c-.17-1-.29-2-.41-3l0-.25a14,14,0,0,1,.17-2.4A107.53,107.53,0,0,1,78,356.9c2.27-.27,4.52-.54,6.72-.87,6-.9,12.29-2.16,19.17-3.83a2.28,2.28,0,0,0,.92-.49c9.65-8.37,21.26-15.12,32.5-21.65,4.12-2.4,8.38-4.89,12.43-7.37,4.22-2.61,8.47-5.32,12.77-8,18.72-11.93,38.09-24.24,58.78-30.7a.53.53,0,0,1,.33.11c-11.3,7.14-23.29,13.52-34.88,19.7C177,308.93,167,314.27,157.41,320c-6.19,3.72-12.42,7.34-18.64,11-7.53,4.4-15.32,8.93-22.9,13.54-.94.57-8.82,7.29-8.82,7.29s9.52-3,10.58-3.29l4.43-1.28c26.53-7.83,52.16-16.73,75.9-25.19q9.54-3.4,19-6.84a2.39,2.39,0,0,0,.37-.17c27.56-16.31,57.79-28.59,87.87-39.84-11,5.1-22.19,9.81-33.15,14.4-5.75,2.42-11.5,4.84-17.23,7.31-1.09.47-29.56,16.43-29.56,16.43s30.09-12,31.18-12.34C278.92,293,305.11,283.81,331.89,275.52Z" transform="translate(-30.32 -13.12)"/><g class="cls-4"><path class="cls-3" d="M201.77,271.07a1.83,1.83,0,0,0,2.21,2c11.65-2.34,23.15-4.07,34.72-6.9,12.81-3.13,26.49-2,39.47-4.42,1.21-.23,1.24-2.2-.06-2.22-13.22-.25-26.36,1.41-39.55,1.48-3.52,0-6.8.16-9.95.47q-10.58,3.23-21,7.17C205.66,269.44,203.72,270.26,201.77,271.07Z" transform="translate(-30.32 -13.12)"/><path class="cls-3" d="M271.62,315.76c24.83-9,49.43-18.4,74.05-28l3.39-1.31c1.74-2.46,3.53-4.9,5.43-7.25,1-1.61,2-3.19,3-4.78-6.28,2.69-12.61,5.26-18.95,7.78-23.4,9.28-46.91,16.68-69.14,28.72A2.67,2.67,0,0,0,271.62,315.76Z" transform="translate(-30.32 -13.12)"/><path class="cls-3" d="M314.29,253.05c-4.69,1.37-9.39,2.73-14.07,4.15a271.7,271.7,0,0,0-52.57,21.93.94.94,0,0,0,.79,1.71c17.28-6.94,35.65-12.53,53.37-18.39,8.28-2.72,16.61-5.36,25-7.81C322.63,254.08,318.45,253.53,314.29,253.05Z" transform="translate(-30.32 -13.12)"/><path class="cls-3" d="M198.9,359.37a230.81,230.81,0,0,0,56.78-17.71c9.64-4.41,19.13-9.19,28.51-14.12,8.1-4.25,17.19-7.72,24.43-13.34a2,2,0,0,0-1.59-3.47c-17.37,3.61-34.57,15.53-50.48,23.24-18.58,9-37.81,17.89-58.27,21.49C195.76,355.9,196.39,359.81,198.9,359.37Z" transform="translate(-30.32 -13.12)"/><path class="cls-3" d="M142.57,367.56c18.92,2.49,39.6,5,58.7,3.63,20.28-1.52,40.15-5.85,59.57-11.79A268.68,268.68,0,0,0,299.47,344q7.95-5.85,15.47-12.24a96.36,96.36,0,0,0,15.28-17q-9.29,6-18.92,11.5a311.64,311.64,0,0,1-51.05,23c-36.8,12.86-78.59,18.44-117.35,15.07A1.64,1.64,0,0,0,142.57,367.56Z" transform="translate(-30.32 -13.12)"/></g><path class="cls-1" d="M179.07,13.18a8.58,8.58,0,0,1,2.68.86,2.12,2.12,0,0,1,1,1.28c2.13,7.35,4,13.31,6,18.77a1.34,1.34,0,0,1,.09.31,248.42,248.42,0,0,0,7.3,25.72c4.55,14.08,9.26,28.64,9.72,44.87,1,33.39-2.71,65.19-10.95,94.49C187,227.39,166.7,251.6,148.77,273q-3,3.53-5.83,7c-7.61,9.16-14.55,19.13-21.27,28.76-2.3,3.31-4.6,6.61-6.94,9.9l-1.51,2.13c-7.73,10.92-15.72,22.2-27.61,28.59a4.74,4.74,0,0,1-5.15-.26,9.31,9.31,0,0,1-1.59-.09c-4.41-.63-7.28-4.19-7.49-9.3l-.32-7.15c-2.29-52.76-4.66-107.32,10.4-161.07,9.12-32.57,20.25-59.69,34-82.92,9.47-15.94,21.27-30,32.71-43.59,6.54-7.78,13.31-15.83,19.53-24.11a3.06,3.06,0,0,1,.53-.55c1.08-.83,2.22-1.66,3.37-2.52,1.78-1.31,3.62-2.67,5.35-4.08a2.29,2.29,0,0,1,1.66-.55Z" transform="translate(-30.32 -13.12)"/><path class="cls-5" d="M73.65,339.25c.23,5.44,3.94,7.66,7.73,7.25a2.84,2.84,0,0,0,3.46.58c12.06-6.49,20-18.33,28.16-29.89,9.34-13.14,18.1-26.5,28.35-38.84,19.27-23.2,42.84-49.05,51.36-79.34,8.64-30.76,11.74-62.74,10.84-93.64-.74-25.42-12-46.46-17-70.12-2.18-6.2-4.14-12.53-6-18.9a6.13,6.13,0,0,0-2.43-.7c-2.9,2.37-6,4.51-8.78,6.65-17.1,22.79-37.34,42.59-52,67.44-15.26,25.74-25.68,53.56-33.7,82.19C68,227.63,71.28,284.09,73.65,339.25Z" transform="translate(-30.32 -13.12)"/><path class="cls-6" d="M177.49,25.17c.88,5.8,1.86,11.43,2.83,17,2.91,16.66,5.66,32.4,4.82,48.22-2.08,39.46-8.2,76.83-18.18,111.09-8,27.54-27.27,54.4-45.89,80.37q-3.41,4.72-6.69,9.35c-9.54,13.44-18,27.3-26.13,40.71-2.57,4.23-5.14,8.45-7.76,12.67l-.83,1.35c2.65-55.83,7.12-112.56,22.78-166.45,11.47-39.46,23.61-70.67,38.17-98.21,9.47-17.89,21.22-34.25,33.66-51.58Z" transform="translate(-30.32 -13.12)"/><path class="cls-1" d="M87.66,260.78c-2.15,19.92-6.26,41.49-5.5,61.59-2.49,6.25-5.16,12.42-8.07,18.52,0,.7-.09,1.4-.17,2.09,0,.1,0,.2,0,.3-.84,6.23-3.45,11.79-6.52,17.25-.78,2.05-1.52,4.12-2.24,6.2l.12.13c1.91,1.63,4,1.57,6.09,2.52,1.47-3.15,2.83-6.35,4-9.66,1.42-3.92,2.82-8,5.62-11.1a1.2,1.2,0,0,1,1.21-.4c0-.17.12-.34.18-.51,4.9-14.1,10-28.11,15.07-42.15,9.79-27,18.54-54.38,26.57-81.88,17.21-58.9,31.82-118.37,50-177.06a2,2,0,0,0-3.92-1.2c-11.22,32.39-21.29,65.09-31.08,97.85,7.05-29.45,15.17-58.74,19.9-88.48.22-1.4-1.5-1.64-1.89-.27C144,99.1,130.75,144.61,125,190.27q-3.36,11.32-6.74,22.64c-8.93,29.78-18.13,59.52-28.49,88.92-.59,1.69-1.2,3.38-1.81,5.07,2.1-18.37,4.74-36.73,7-55.15,3.4-28.24,9.61-56.44,12.38-84.62.32-3.27-3.84-2.57-4.72.05C92.52,197.07,91,230.11,87.66,260.78Z" transform="translate(-30.32 -13.12)"/><path class="cls-3" d="M169.09,55.05c-9.4,31-18,62.6-26.34,93.21-6.71,24.59-13.63,50-20.91,74.91-8.67,29.7-17.34,56.43-26.49,81.7l-1.3,3.59c-4.58,12.62-9.31,25.68-13.79,38.59l-1.32,3.82a198.24,198.24,0,0,1-7.22,18.93l-.66-.1a19,19,0,0,0-2-.18.78.78,0,0,0-.2-.11c-.9-.42-1.77-.9-2.64-1.38l-.23-.11a12.64,12.64,0,0,1-1.83-1.62,146.68,146.68,0,0,1,7.2-15.11c1.24-2.38,2.47-4.73,3.62-7.07,3.14-6.4,6.17-13.26,9.24-21a2.91,2.91,0,0,0,.21-1.19c-.54-14.42,1.49-29.79,3.44-44.65.72-5.47,1.47-11.12,2-16.53.62-5.69,1.18-11.46,1.73-17.28,2.45-25.4,5-51.67,13.08-75.69a.58.58,0,0,1,.29-.26c-1.52,15.3-4.08,30.81-6.56,45.81-2.06,12.56-4.21,25.54-5.75,38.35-1,8.26-2.08,16.5-3.15,24.73-1.3,10-2.65,20.29-3.81,30.44-.15,1.26.2,13,.2,13s3.72-11.07,4.16-12.28q.92-2.54,1.81-5.09C102.68,272,112,241.64,120.45,213.43q3.39-11.31,6.73-22.64a1.88,1.88,0,0,0,.1-.47c4.59-36.65,14.14-73.46,24.41-109.52-3,13.79-6.36,27.5-9.71,40.94-1.75,7-3.5,14.1-5.19,21.16-.32,1.35-5.77,38.67-5.77,38.67s9.72-36.49,10.11-37.78C149.11,117.13,158.55,86.1,169.09,55.05Z" transform="translate(-30.32 -13.12)"/><g class="cls-4"><path class="cls-3" d="M81.77,179.08a1.9,1.9,0,0,0,3.06-.92c5.61-12.76,11.6-25,16.78-38,5.72-14.36,15.4-27,21.83-41.09.61-1.32-1-2.53-1.83-1.28-8.7,12.72-15.82,26.52-24.25,39.41-2.25,3.44-4.25,6.72-6,10q-4.18,12.22-7.69,24.72C83,174.31,82.37,176.7,81.77,179.08Z" transform="translate(-30.32 -13.12)"/><path class="cls-3" d="M162.76,137.92c8.7-29.59,17-59.19,25.05-88.94l1.13-4.1c-.87-3.17-1.68-6.38-2.36-9.63-.67-1.92-1.29-3.87-1.92-5.8-1.87,7.73-3.88,15.44-5.92,23.12-7.56,28.37-16.73,55.71-21.32,84.59C156.79,141.11,161.63,141.78,162.76,137.92Z" transform="translate(-30.32 -13.12)"/><path class="cls-3" d="M139.64,58.67c-1.91,5.4-3.84,10.79-5.71,16.2a366.71,366.71,0,0,0-16.14,64.37c-.22,1.39,1.52,1.66,1.89.27,5.52-21,12.83-42.24,19.52-63,3.12-9.71,6.35-19.4,9.76-29C145.84,51.19,142.71,54.91,139.64,58.67Z" transform="translate(-30.32 -13.12)"/><path class="cls-3" d="M151.15,235A315.08,315.08,0,0,0,173.4,169c2.64-12.05,4.9-24.16,7-36.26,1.78-10.45,4.84-21.37,5-31.8,0-2.2-2.91-2.65-3.82-.55-8.27,19.1-9.72,43-13.74,63.13-4.7,23.51-9.91,47.59-20.16,69.67C146.33,235.93,149.89,237.67,151.15,235Z" transform="translate(-30.32 -13.12)"/><path class="cls-3" d="M121.5,294.72c14.2-16.92,29.57-35.53,40.71-55,11.83-20.66,21.12-42.62,28.82-65.1a363,363,0,0,0,12.45-46.86c.27-7.52.28-15,.07-22.42a112.72,112.72,0,0,0-3.87-25.1q-1.1,12.66-2.9,25.33a417.88,417.88,0,0,1-14.34,63.52c-13.3,43.56-35.7,87.61-63.35,123.33C117.58,294.39,119.93,296.59,121.5,294.72Z" transform="translate(-30.32 -13.12)"/></g><path class="cls-1" d="M282,86a8.66,8.66,0,0,1,2.17,1.83,2.33,2.33,0,0,1,.54,1.59c-.22,7.81-.25,14.2-.11,20.12,0,.11,0,.23,0,.34-.91,9-.92,18.28-.92,27.23,0,15.12,0,30.76-4.33,46.4-8.88,32.16-21.47,61.05-37.43,85.86C226.71,293,201.34,308.37,179,322q-3.71,2.24-7.29,4.44c-9.53,5.86-18.69,12.74-27.55,19.39-3,2.28-6.07,4.56-9.13,6.81L133,354c-10.15,7.5-20.63,15.24-33.2,16.85a4.55,4.55,0,0,1-2.92-.59,5.21,5.21,0,0,1-1.64-1.6,10.79,10.79,0,0,1-1.41-.68c-3.78-2.27-5.33-6.74-4-11.69l1.8-6.93c13.33-51.11,27.1-104,56.34-149.47,17.72-27.58,35.65-49.22,54.82-66.15,13.16-11.63,27.9-20.57,42.16-29.21,8.16-4.94,16.61-10.06,24.62-15.6a2.26,2.26,0,0,1,.64-.32c1.23-.39,2.49-.76,3.77-1.13,2-.58,4-1.18,6-1.88a2.06,2.06,0,0,1,1.65.11Z" transform="translate(-30.32 -13.12)"/><path class="cls-2" d="M92,356.79c-1.38,5.27,1.32,8.77,4.85,9.81a2.85,2.85,0,0,0,3,1.86c12.76-1.64,23.31-9.95,34.08-17.85,12.24-9,24-18.44,36.86-26.32,24.12-14.83,52.89-30.58,69.4-56.22C256.87,242,269,212.75,277.18,183c6.76-24.48,2.71-48.78,5.18-73.17-.16-6.73-.08-13.49.11-20.26a6.68,6.68,0,0,0-2-1.58c-3.3,1.17-6.72,2-9.85,3-22,15.26-46,26.5-66.55,44.62-21.24,18.77-38.74,41.34-54.31,65.59C119.46,248.37,105.94,303.37,92,356.79Z" transform="translate(-30.32 -13.12)"/><path class="cls-1" d="M277.11,96.79c-.9,5.86-1.66,11.59-2.4,17.23-2.24,17-4.35,33-9.73,47.72-13.38,36.79-29.79,70.08-48.77,99C201,283.89,175.78,302.22,151.43,320q-4.44,3.23-8.75,6.38c-12.52,9.2-24.15,19.23-35.41,28.92-3.55,3.06-7.09,6.12-10.68,9.15l-1.14,1c18.68-52.17,39.25-104.51,69.06-149.93,21.85-33.26,41.88-58.41,63-79.15,13.75-13.47,29.11-24.63,45.36-36.44C274.3,98.83,275.69,97.81,277.11,96.79Z" transform="translate(-30.32 -13.12)"/><path class="cls-1" d="M127.49,287.34c-7.76,18.16-17.75,37.15-22.93,56.58-4.07,5-8.27,9.88-12.67,14.59-.26.65-.49,1.31-.77,1.93l-.12.27c-2.57,5.61-6.54,9.93-10.9,14-1.31,1.66-2.57,3.35-3.83,5.06l.08.17c1.24,2.27,3.13,3,4.74,4.69,2.24-2.44,4.41-5,6.44-7.68,2.43-3.2,4.88-6.53,8.31-8.45a1.06,1.06,0,0,1,1.2.07,4.13,4.13,0,0,0,.31-.42c8.53-11.58,17.2-23,25.88-34.45,16.69-22,32.55-44.82,47.8-68,32.68-49.62,63.2-100.75,96.66-149.8,1.47-2.17-1.64-4.74-3.18-2.63-19.56,26.63-38.16,54-56.53,81.49,14.94-25.39,30.79-50.23,43.73-76.77.61-1.25-.87-2.12-1.63-1-24.69,37.57-49.91,75.91-68.37,117.25q-6.33,9.51-12.67,19c-16.73,25-33.69,49.87-51.59,74l-3.12,4.15c7.26-16.71,15-33.19,22.36-49.91,11.29-25.61,25.11-50.13,35.82-75.92,1.25-3-2.71-3.89-4.27-1.74C150.44,228.49,139.42,259.37,127.49,287.34Z" transform="translate(-30.32 -13.12)"/><path class="cls-3" d="M260.82,122.09c-17.52,26-34.47,52.83-50.92,78.84-13.2,20.89-26.86,42.5-40.66,63.46-16.48,25-32.08,47.2-47.69,67.83l-2.22,2.93c-7.81,10.3-15.88,21-23.68,31.56l-2.31,3.13a179.74,179.74,0,0,1-12,15.32l-.55-.35c-.57-.34-1.16-.65-1.76-.94l-.15-.16c-.69-.75-1.34-1.53-2-2.31l-.16-.2A15.65,15.65,0,0,1,75.53,379a131.85,131.85,0,0,1,10.9-11.67c1.81-1.8,3.61-3.58,5.32-5.38,4.7-4.91,9.42-10.31,14.45-16.48a3.25,3.25,0,0,0,.53-1.05c3.71-13.95,10-27.82,16.12-41.24,2.24-4.92,4.56-10,6.67-15,2.21-5.18,4.39-10.47,6.59-15.79,9.61-23.28,19.54-47.34,33.86-67.17a.52.52,0,0,1,.34-.13c-5.83,14-12.66,27.8-19.27,41.15-5.53,11.18-11.25,22.74-16.37,34.36-3.3,7.49-6.68,14.93-10,22.37-4.09,9-8.31,18.32-12.31,27.55-.5,1.14-3.61,12.43-3.61,12.43s6.58-9.14,7.32-10.13c1-1.37,2.09-2.77,3.13-4.16,18.6-25,35.82-50.39,51.66-74.07q6.36-9.5,12.68-19a2.38,2.38,0,0,0,.23-.41c14.82-33.18,34.16-64.64,53.92-95.11-6.69,12-13.75,23.79-20.68,35.34q-5.46,9.08-10.86,18.19c-.67,1.16-16.47,34.66-16.47,34.66s19.41-31.09,20.13-32.17C224.72,173.68,242.28,147.69,260.82,122.09Z" transform="translate(-30.32 -13.12)"/><g class="cls-4"><path class="cls-3" d="M146,207.31a1.76,1.76,0,0,0,3,.28c8.77-10,17.74-19.43,26.18-29.84,9.34-11.51,21.76-19.93,31.65-30.91.93-1-.14-2.77-1.27-1.9-11.55,8.84-22,19.29-33.34,28.4-3,2.43-5.78,4.8-8.34,7.21q-7.35,10.08-14.14,20.66C148.46,203.22,147.24,205.27,146,207.31Z" transform="translate(-30.32 -13.12)"/><path class="cls-3" d="M231,198.63c16.47-24.92,32.56-50,48.51-75.28l2.22-3.47c.13-3.36.35-6.71.68-10.07-.05-2.07,0-4.16-.05-6.25-3.93,6.67-8,13.25-12.07,19.79-15.08,24.17-31.31,46.76-43.88,72.53C224.65,199.41,228.81,201.86,231,198.63Z" transform="translate(-30.32 -13.12)"/><path class="cls-3" d="M233.25,114.44c-3.3,4.42-6.61,8.84-9.87,13.28a347.86,347.86,0,0,0-33.32,55.22c-.6,1.23.9,2.15,1.63,1,11.1-17.92,23.88-35.4,36-52.67,5.64-8.07,11.38-16.08,17.26-24C241,109.65,237.11,112,233.25,114.44Z" transform="translate(-30.32 -13.12)"/><path class="cls-3" d="M192.2,286.65a292.19,292.19,0,0,0,39.27-54.41c5.89-10.47,11.45-21.16,16.84-31.9,4.65-9.28,10.59-18.54,13.74-28.42a2,2,0,0,0-3.29-2c-13,15.08-21.29,37.3-30.78,55-11.08,20.62-22.8,41.59-38.48,58.76C187.57,285.77,190.27,288.76,192.2,286.65Z" transform="translate(-30.32 -13.12)"/><path class="cls-3" d="M148.06,332.4c17.72-10.76,37-22.7,52.69-37,16.69-15.21,31.45-32.63,44.95-51.13a343.42,343.42,0,0,0,24.88-39.94c2.43-7.05,4.63-14.18,6.6-21.33A119.23,119.23,0,0,0,281,157.62q-4.68,11.65-10,23a399.27,399.27,0,0,1-31.43,55.09c-24.69,36.47-57.71,70-93,93.59C144.62,330.61,146.09,333.59,148.06,332.4Z" transform="translate(-30.32 -13.12)"/></g><path class="cls-1" d="M376.36,279c0,.1.05.2.07.3a8.9,8.9,0,0,1,0,2.67,2.18,2.18,0,0,1-1,1.54c-3.83,2.42-7.62,5.08-11.3,7.66s-7.46,5.23-11.32,7.68a2.19,2.19,0,0,1-.3.16l-.56.24c-3.26,1.42-6.34,2.77-9.27,4.24-10.18,5.09-18.78,11.76-27.87,18.84l-1.8,1.4c-18.38,14.26-38.73,28.54-63,36.33-22.22,7.13-46.72,11.33-74.89,12.86-14.92.8-27.36,1.21-39.15,1.28-2.65,0-5.32.08-8,.16a167.23,167.23,0,0,1-18-.14,1.85,1.85,0,0,1-.41-.07,36.21,36.21,0,0,0-13-.79,2.2,2.2,0,0,1-2.2-1.25,11,11,0,0,1-.47-1.2A8.41,8.41,0,0,1,95.32,363c30.37-38.95,80-62.07,116.34-74.61,43.21-14.92,88.71-15.21,132.71-15.51q7,0,14.11-.1a2.15,2.15,0,0,1,.43,0,98.87,98.87,0,0,1,13.71,3.61c1,.43,1.77.79,2.56,1.16A2.2,2.2,0,0,1,376.36,279Z" transform="translate(-30.32 -13.12)"/><path class="cls-5" d="M374.29,281.6a6.63,6.63,0,0,0,0-2c-.78-.37-1.56-.72-2.34-1.07A95.7,95.7,0,0,0,358.49,275c-49.35.51-98.73-.86-146.12,15.49C170.48,305,124.73,328.88,97.06,364.38a6.26,6.26,0,0,0-.76,6.75,38.36,38.36,0,0,1,13.84.86c8.57.67,17.32,0,25.87,0,13-.07,26-.57,39-1.27,25.23-1.37,50.24-5,74.33-12.76,23.39-7.5,43.09-21,62.32-36,9.72-7.54,19-14.94,30-20.46,3.16-1.58,6.53-3,9.94-4.53C359.36,292.07,366.58,286.47,374.29,281.6Z" transform="translate(-30.32 -13.12)"/><path class="cls-6" d="M365.14,279.6q-6.17,3.54-12.18,7l-3.07,1.79C321.18,305.1,289.94,322,256,332.79c-33.22,10.54-69.58,18.7-111.17,24.94-17.82,2.67-33.3,4.83-47.72,6.67,34.84-19.61,78.15-38.26,127-54.47C270.27,294.58,317,286.18,365.14,279.6Z" transform="translate(-30.32 -13.12)"/><path class="cls-3" d="M181.18,330.59c-9,2.12-18,4.4-27,7-28.58,8.3-51.93,28.62-79.87,38.62-.1,0-.18.08-.28.12.74,1.22,1.43,2.45,2.06,3.71.63.74,1.29,1.44,2,2.12,27.53-9.44,50.34-28.49,78-37.65,27.14-9,55.16-15.43,82.58-23.77,29-4.22,58.13-8.26,84.75-20.24.9-.4.24-1.82-.67-1.57-5,1.4-10.1,2.67-15.18,3.87,6.81-2,13.59-4,20.31-6.25,11.51-3.84,23.1-7.3,34.36-11.56-1.59-.33-3.18-.66-4.77-1a250.44,250.44,0,0,1-30.12,10.66c-23.05,6.29-46.28,11.88-69.4,18a1.87,1.87,0,0,0-.47.23C232,317.4,206.6,322,181.89,329.56A1,1,0,0,0,181.18,330.59Z" transform="translate(-30.32 -13.12)"/><g class="cls-7"><path class="cls-3" d="M268.61,278.42c-11.58,4.05-24.57,7.7-35.1,14A.87.87,0,0,0,234,294c12.24-.93,24.67-6.61,36.1-10.85,6.71-2.48,13.73-4.49,20.61-6.77-7.21.43-14.4,1-21.57,1.82Z" transform="translate(-30.32 -13.12)"/><path class="cls-3" d="M351.83,275.94c-16.28,1.34-32.1,5.35-47.58,10.59a1.41,1.41,0,0,0-1.44-1c-13,.36-26.12,4.43-38.73,7.27q-21.36,4.81-42.39,11a313.73,313.73,0,0,0-79.38,36.13.26.26,0,0,0,.28.44c25-15.16,52-25.6,80.28-32.78,12.89-3.28,25.68-6.78,38.67-9.67,7.81-1.73,16-2.93,24-4.54-12.19,4.79-24.22,10-36.14,14.87-.13.05-.06.26.07.21,33.55-13.25,67.26-24,102.5-31.51C352.58,276.83,352.41,275.89,351.83,275.94Z" transform="translate(-30.32 -13.12)"/><path class="cls-3" d="M179.84,366.33c29.79-6.14,62.18-8.88,91.79-17.76,5.5-2.84,10.83-6,16-9.35-17.78,3.49-35.16,8.73-52.85,12.8-18.49,4.25-37.06,8.12-55.48,12.66C178.24,365,178.77,366.56,179.84,366.33Z" transform="translate(-30.32 -13.12)"/><path class="cls-3" d="M149.44,352.72c27.71-6.93,55.63-12.29,83.45-18.58a.6.6,0,0,0-.19-1.17c-28.27,2.23-56.43,11-83.77,18.11C147.85,351.35,148.37,353,149.44,352.72Z" transform="translate(-30.32 -13.12)"/><path class="cls-3" d="M254.39,329.08c24.92-6.63,49.86-13.11,74.67-20.09a111.93,111.93,0,0,1,12.66-7.51l.7-.33c-29.39,9.17-59,17.49-88.44,26.61A.69.69,0,0,0,254.39,329.08Z" transform="translate(-30.32 -13.12)"/></g><path class="cls-8" d="M216.06,68.29l.29.14-1.13,1.9,1.23-1.84a6.67,6.67,0,0,1,.68.45,2.24,2.24,0,0,1,.83,2c-.56,5.25-1.18,10.51-1.84,15.75a2.38,2.38,0,0,1-.05.26c-2.8,11.09-4,22.79-5.2,34.11s-2.45,23.25-5.3,34.65c-6,24.1-16.15,48-26.19,70.22-9.53,21.14-21.56,42.76-36.77,66.1l-3.09,4.76c-9.36,14.4-19,29.29-30.32,42.59,0,.2-.26,1.29-.26,1.29a2.12,2.12,0,0,1-.46,1c-1.5,1.83-3,3.66-4.53,5.46-1.94,2-3.43,3.64-4.76,5.2a2.21,2.21,0,0,1-2.25.69,11.51,11.51,0,0,1-1.4-.47l-.34-.15a3.06,3.06,0,0,1-.84-.22,3.68,3.68,0,0,1-1.73-1.48l-.16-.15a2.5,2.5,0,0,1-.76-1.72,49.53,49.53,0,0,0-.82-9.68,2.33,2.33,0,0,1,0-.91c1.66-6.55,1.45-13.91,1.24-21-.08-2.66-.16-5.41-.14-8,.11-12,1.75-23.81,3.28-33.94,4.86-32.23,11.44-58.07,20.72-81.32,12-30,24.89-54.1,39.47-73.68a116.25,116.25,0,0,1,25.58-25.59l3.55-2.55c5.9-4.23,12-8.62,16.75-13.93a1.31,1.31,0,0,1,.23-.24l.23-.18a95.89,95.89,0,0,0,9.8-8.89,2.21,2.21,0,0,1,1.84-.71,2.18,2.18,0,0,1,.62.16l.16.07.05,0A2.2,2.2,0,0,1,216.06,68.29Z" transform="translate(-30.32 -13.12)"/><path class="cls-1" d="M97.48,275.53c-1.69,11.2-3.15,22.32-3.25,33.64-.09,9.48,1.21,20.18-1.17,29.58a51.86,51.86,0,0,1,.85,10.1c.17.15.31.31.48.45a1.37,1.37,0,0,0,1.36.89,8.18,8.18,0,0,0,1.76.67c1.53-1.79,3.14-3.51,4.76-5.19s3-3.61,4.5-5.42c.11-.63.26-1.25.35-1.88,12.61-14.74,23-31.33,33.64-47.58,13.72-21,26.28-42.91,36.61-65.81,10.13-22.42,20.07-45.95,26.06-69.85,5.65-22.53,4.84-46.32,10.5-68.76q1-7.84,1.84-15.7a3.87,3.87,0,0,0-.55-.34l-.82.35a.86.86,0,0,1-1.14-.36A103.12,103.12,0,0,1,203,79.6c-5.87,6.61-13.72,11.74-20.65,16.81a114.36,114.36,0,0,0-25.11,25.11c-16.55,22.23-28.95,47.54-39.18,73.19C107.71,220.64,101.64,248,97.48,275.53Z" transform="translate(-30.32 -13.12)"/><path class="cls-8" d="M209.05,81.77c-3.69,15.46-7.3,30.14-12,44.12-11.77,35.24-28.08,72-44,106.36-15,32.47-32.74,66.27-54.31,103.32l-5.81,10c.83-3.18,1.65-6.29,2.46-9.31,12.74-47.45,25.59-85.69,40.44-120.33,19.39-45.19,38.1-81.76,57.22-111.8A236.19,236.19,0,0,1,209.05,81.77Z" transform="translate(-30.32 -13.12)"/><path class="cls-3" d="M129.08,241.61c-6.49,21.84-11.83,44.07-19.8,65.44-3.84,10.28-8.21,20.27-13,30.14-4.63,9.56-10.91,20.81-12.88,31.2-.42,2.25,2.87,3.56,4.15,1.7,5.5-8,8.26-18.1,12.8-26.81,5-9.54,9.11-20,13.11-30,9-22.42,14.3-46.26,20.9-69.44,6.29-22.06,14.5-42.79,22.24-64.34,3.69-10.24,10.82-19.51,16-29.09,5.93-10.94,11.81-21.9,17.26-33.09.45-.9-1-1.46-1.42-.58-10.55,20.77-21.42,41.91-33,62.08C144.06,198.54,135.61,219.69,129.08,241.61Z" transform="translate(-30.32 -13.12)"/><g class="cls-4"><path class="cls-3" d="M132.77,179.12c-3.1,14.86-6.73,29.59-10.09,44.39-.36,1.64,2.22,2.24,2.81.73,4.69-11.82,7.39-24,10.09-36.44,3.17-14.54,8.2-29.9,9.24-44.72a1.33,1.33,0,0,0-1-1.43c-1.5,2.5-3,5-4.41,7.58C136.18,158.82,134.8,169.4,132.77,179.12Z" transform="translate(-30.32 -13.12)"/><path class="cls-3" d="M157.19,152.1c-2.25,3.92-3.44,8.59-5,12.85,0,.1.11.16.16.06,1.89-4.11,4.31-8.27,5.45-12.65A.35.35,0,0,0,157.19,152.1Z" transform="translate(-30.32 -13.12)"/><path class="cls-3" d="M199.23,169.84c-6.24,11.9-13.73,23.24-20.39,34.85a297.65,297.65,0,0,0-22.53,48.21,1,1,0,0,0,1.91.78c6.69-16.21,16.13-32,24.58-47.38,4.75-8.63,9-17.38,13-26.25Q197.62,175,199.23,169.84Z" transform="translate(-30.32 -13.12)"/><path class="cls-3" d="M166.27,139.47c6.32-10.73,12.22-21.55,17.87-32.67,3-5.89,6.68-12.19,9.54-18.68-3.28,2.56-6.68,4.95-10,7.3-.81,2-1.62,3.93-2.5,5.8-5.74,12.38-11.8,24.47-16.88,37.14C163.89,139.5,165.62,140.59,166.27,139.47Z" transform="translate(-30.32 -13.12)"/><path class="cls-3" d="M102.57,287.47c4.61-13.85,4.56-28.34,6.36-42.7,2-15.81,11.21-31.42,11-47.27,0-1.35-1.82-1.19-2.32-.29-.67,1.23-1.31,2.53-1.92,3.85-1.78,4.85-3.46,9.73-5,14.66-2.16,8.38-3.57,17.14-4.92,24.81-2.71,15.42-1.13,31.21-4.84,46.51C100.69,288,102.27,288.39,102.57,287.47Z" transform="translate(-30.32 -13.12)"/><path class="cls-3" d="M209.44,98.72c.83-1,1.67-2,2.53-3.16.55-3.08,1.2-6.15,2-9.19.42-3.34.79-6.69,1.17-10a181,181,0,0,0-7.2,21.75C207.68,99,208.93,99.3,209.44,98.72Z" transform="translate(-30.32 -13.12)"/><path class="cls-3" d="M157.79,208.88c-10.52,14.87-15.48,36.39-18.17,54.19a1.12,1.12,0,0,0,2.14.55c3.51-9.45,7.15-18.87,10.77-28.28,3.18-8.26,7.54-16.17,8.95-25A2.08,2.08,0,0,0,157.79,208.88Z" transform="translate(-30.32 -13.12)"/><path class="cls-3" d="M208.74,120.12c-4.91,7.52-6.87,15.61-9.52,24.16a2.41,2.41,0,0,0,4.45,1.83c.85-1.64,1.68-3.28,2.52-4.92C207.26,134.21,208,127.16,208.74,120.12Z" transform="translate(-30.32 -13.12)"/><path class="cls-3" d="M177,169.51c-.32,1.66,1.94,1.92,2.64.69,5.95-10.57,13.12-22.47,15.55-34.44.23-1.2-1.32-1.54-2-.81C184.67,144,179.31,157.51,177,169.51Z" transform="translate(-30.32 -13.12)"/><path class="cls-3" d="M122.2,315.9A52.68,52.68,0,0,0,131.28,301c.26-.61-.66-1.17-1-.59-3.14,4.84-5.78,10-9,14.76A.61.61,0,0,0,122.2,315.9Z" transform="translate(-30.32 -13.12)"/></g><path class="cls-1" d="M364,109.81a1.53,1.53,0,0,1,.17.27,7.83,7.83,0,0,1,.85,2.68,2.9,2.9,0,0,1-.59,2.09c-3.35,4.51-6.6,9.24-9.73,13.83s-6.36,9.31-9.74,13.88c-.09.1-.17.21-.28.32l-.51.54c-3.05,3.19-5.93,6.22-8.61,9.29-9.31,10.63-16.44,22-24,34.06L310,189.15c-15.25,24.33-32.62,49.73-56.14,70.69-21.54,19.2-46.4,36.67-76,53.43-15.68,8.86-28.83,16-41.38,22.42-2.82,1.45-5.65,3-8.49,4.49-6.26,3.36-12.74,6.84-19.3,9.61a2,2,0,0,1-.47.14,48.34,48.34,0,0,0-14.16,6.25,2.25,2.25,0,0,1-2.73-.07,8.86,8.86,0,0,1-.87-1c-1.75-2.3-2-5.4-.81-8.71,20.52-55.72,66.46-105.87,101.39-138.14,41.57-38.39,90-63.25,136.91-87.32q7.53-3.84,15-7.72a2.18,2.18,0,0,1,.48-.19,115.91,115.91,0,0,1,15.73-3.76c1.18-.1,2.14-.16,3.09-.22A1.87,1.87,0,0,1,364,109.81Z" transform="translate(-30.32 -13.12)"/><path class="cls-5" d="M362.57,113.61a6.1,6.1,0,0,0-.64-2l-2.84.19a113.78,113.78,0,0,0-15.39,3.67C291.18,142.64,238.06,167.93,192.47,210c-40.29,37.21-81.83,86.06-100.53,136.84-1.17,3.18-.38,5.69,1.26,7.21a51.61,51.61,0,0,1,15-6.6c9.36-3.94,18.49-9.33,27.59-14,13.87-7.09,27.62-14.64,41.27-22.36,26.52-15,52.09-32.2,75.45-53,22.67-20.2,39.55-44.5,55.53-70,8.08-12.86,15.69-25.32,25.81-36.87,2.89-3.29,6-6.6,9.22-9.93C349.84,132.23,355.83,122.67,362.57,113.61Z" transform="translate(-30.32 -13.12)"/><path class="cls-6" d="M352.21,116.52c-3.68,4.6-7.28,9.17-10.86,13.68l-2.74,3.47c-25.55,32.33-53.73,66.27-86.72,95.51-32.24,28.57-68.56,56.44-111,85.2-18.21,12.33-34.06,22.87-48.89,32.51,31.19-38.61,71.73-80.82,118.9-123.55C255.52,182.88,302.77,149.19,352.21,116.52Z" transform="translate(-30.32 -13.12)"/><path class="cls-3" d="M171.41,267.33c-9,7-17.89,14.18-26.65,21.64-28,23.8-46.69,56.92-73.47,82.09a3.53,3.53,0,0,1-.25.28A40.79,40.79,0,0,1,74.36,374,24.54,24.54,0,0,0,77.14,375c26.49-24.4,45-55.93,71.74-80.13,26.22-23.74,54.17-45.36,80.89-68.57,29.69-19.94,59.51-39.74,84.27-66.2a.85.85,0,1,0-1.19-1.22q-7.43,6.18-15,12.1c6.66-5.66,13.27-11.39,19.75-17.27,11.13-10.09,22.44-19.85,33.16-30.24q-2.7.81-5.41,1.55a381.53,381.53,0,0,1-28.9,27c-22.68,18.81-45.77,37-68.58,55.61a2.44,2.44,0,0,0-.43.49c-25.76,18.39-51.52,36.73-75.57,57.73A1.3,1.3,0,0,0,171.41,267.33Z" transform="translate(-30.32 -13.12)"/><g class="cls-7"><path class="cls-3" d="M248.82,167.46c-11.13,10.34-23.87,21-33.2,33.12-.63.82.14,1.86,1,1.33,12.77-7.54,24.31-20,35.21-30.44,6.39-6.13,13.27-11.95,19.92-18Q260.42,160,249.32,167Z" transform="translate(-30.32 -13.12)"/><path class="cls-3" d="M336.88,120c-17,10.15-32.62,22.75-47.56,36.39a1.37,1.37,0,0,0-1.83-.21c-13.73,7.37-26.52,18.59-39.12,28.26q-21.33,16.38-41.89,34a482.54,482.54,0,0,0-73.7,79.34c-.24.33.18.61.44.28,22.07-28.8,47.68-53.92,75.66-76.43,12.77-10.27,25.35-20.71,38.34-30.64,7.8-6,16.18-11.61,24.27-17.57-11.56,11.42-22.8,23.16-34,34.52-.12.11,0,.3.14.17,31.78-31.48,64.46-60.53,99.78-87.15C337.94,120.51,337.48,119.65,336.88,120Z" transform="translate(-30.32 -13.12)"/><path class="cls-3" d="M180.89,304.12c29.93-22.28,63.66-42.54,92.55-67.49,5-5.84,9.73-11.89,14.26-18.1-17.92,13.13-34.87,27.81-52.51,41.47-18.44,14.27-37.07,28.21-55.35,42.74C178.76,303.6,179.82,304.93,180.89,304.12Z" transform="translate(-30.32 -13.12)"/><path class="cls-3" d="M144.3,306.81c27.45-21.95,55.62-42.45,83.39-63.82.67-.51.14-1.49-.56-1.09-29.49,17.52-56.88,41.59-83.89,63.53C142.19,306.29,143.24,307.66,144.3,306.81Z" transform="translate(-30.32 -13.12)"/><path class="cls-3" d="M249.1,226.27c24.57-20.15,49.2-40.15,73.55-60.6a169.65,169.65,0,0,1,11.23-14.42c.21-.24.42-.47.64-.7-28.56,25.12-57.67,49.53-86.26,74.61C247.43,225.89,248.25,227,249.1,226.27Z" transform="translate(-30.32 -13.12)"/></g><path class="cls-8" d="M370.44,218.18a1.35,1.35,0,0,1,.14.3l-2.06.76,2.11-.65a5.88,5.88,0,0,1,.25.78,2.21,2.21,0,0,1-.6,2Q364.69,227,359,232.51a1.12,1.12,0,0,1-.2.17c-9.15,6.87-17.45,15.2-25.48,23.26s-16.5,16.56-25.89,23.63c-19.83,15-42.71,27.2-64.48,38.19-20.7,10.46-43.64,19.73-70.14,28.33l-5.4,1.76c-16.32,5.33-33.2,10.83-50.34,14.08l-1,.86a2.25,2.25,0,0,1-1,.49c-2.32.48-4.63,1-7,1.4-2.79.35-5,.67-7,1.05a2.22,2.22,0,0,1-2.18-.87,10.9,10.9,0,0,1-.8-1.24l-.18-.34a3.55,3.55,0,0,1-.5-.7,3.64,3.64,0,0,1-.42-2.24l0-.22a2.56,2.56,0,0,1,.48-1.81,50.73,50.73,0,0,0,5.46-8,1.88,1.88,0,0,1,.59-.69c5.41-4.06,9.87-9.92,14.18-15.6,1.6-2.11,3.27-4.3,4.93-6.32,7.62-9.27,16.33-17.43,23.88-24.35,24-22,45.38-38,67.21-50.25,28.15-15.81,53.34-26.45,77-32.53a116.32,116.32,0,0,1,36-3.84c1.43.07,2.89.16,4.36.25,7.27.42,14.78.84,21.79-.33a2,2,0,0,1,.34,0h.28a96.22,96.22,0,0,0,13.22-.76,2.19,2.19,0,0,1,1.87.61,1.89,1.89,0,0,1,.38.51l.09.16h.05A2.17,2.17,0,0,1,370.44,218.18Z" transform="translate(-30.32 -13.12)"/><path class="cls-1" d="M148,304.93c-8.35,7.65-16.47,15.38-23.67,24.13-6,7.32-11.73,16.46-19.48,22.29a53,53,0,0,1-5.68,8.38c0,.22,0,.44.08.66a1.41,1.41,0,0,0,.5,1.55,8,8,0,0,0,1,1.62c2.32-.42,4.64-.76,7-1,2.32-.44,4.61-.92,6.92-1.4.47-.42,1-.81,1.45-1.24,19.06-3.55,37.6-9.89,56.06-15.89a490.17,490.17,0,0,0,69.83-28.2c22-11.08,44.48-23.14,64.15-38,18.55-14,32.87-33,51.36-46.9q5.7-5.47,11.29-11.06a5.41,5.41,0,0,0-.2-.61l-.87-.24a.85.85,0,0,1-.65-1,101.69,101.69,0,0,1-13.8.79c-8.71,1.45-18.05.52-26.63.1a114.89,114.89,0,0,0-35.31,3.77c-26.84,6.9-52.39,18.8-76.46,32.33C190.44,268.66,168.55,286.1,148,304.93Z" transform="translate(-30.32 -13.12)"/><path class="cls-8" d="M356.53,224.27c-12.58,9.71-24.61,18.86-37,26.81-31.3,20-67.06,38.33-101,55.14-32,15.86-67.1,31-107.15,46.26,0,0-10.08,3.84-10.8,4.13,2.64-1.95,5.24-3.86,7.76-5.69C148,322,182,300.32,215.36,282.7c43.45-23,81-39.68,114.74-51A237.59,237.59,0,0,1,356.53,224.27Z" transform="translate(-30.32 -13.12)"/><path class="cls-3" d="M193.9,298.4c-18.78,12.91-36.89,26.85-56.53,38.46-9.44,5.59-19.11,10.62-29,15.31-9.6,4.54-21.56,9.34-29.62,16.18-1.74,1.49,0,4.58,2.17,3.93,9.32-2.79,17.79-8.89,26.79-12.81,9.88-4.3,19.68-9.88,29.08-15.15,21.07-11.81,40.19-27,59.89-40.9,18.74-13.2,38.16-24.18,57.72-36.08,9.3-5.65,20.67-8.38,30.73-12.57,11.49-4.79,22.95-9.62,34.22-14.9.92-.43.16-1.75-.74-1.35-21.25,9.53-43,19.15-64.71,27.54C232.6,274.29,212.74,285.45,193.9,298.4Z" transform="translate(-30.32 -13.12)"/><g class="cls-4"><path class="cls-3" d="M236,252.09c-11.75,9.61-23.83,18.79-35.74,28.2-1.31,1,.33,3.13,1.73,2.34,11.07-6.26,20.86-14.08,30.75-22,11.59-9.33,25.16-18.11,35.29-29a1.36,1.36,0,0,0,.15-1.72c-2.75,1-5.49,2-8.2,3.12C251.42,238.43,243.72,245.8,236,252.09Z" transform="translate(-30.32 -13.12)"/><path class="cls-3" d="M272,246.41c-4.22,1.64-8.08,4.52-11.94,6.87a.09.09,0,1,0,.09.15c4.05-2,8.54-3.73,12.18-6.42A.34.34,0,0,0,272,246.41Z" transform="translate(-30.32 -13.12)"/><path class="cls-3" d="M293.55,286.62c-12.33,5.34-25.28,9.45-37.74,14.31A296.78,296.78,0,0,0,208,324.28a1,1,0,0,0,1,1.82c15.39-8.42,32.65-14.77,48.89-21.44,9.12-3.73,17.93-7.86,26.62-12.23C287.56,290.55,290.57,288.61,293.55,286.62Z" transform="translate(-30.32 -13.12)"/><path class="cls-3" d="M287,242.28c11.65-4.37,23.05-9.09,34.42-14.19,6-2.7,12.86-5.28,19.17-8.54-4.17-.07-8.31-.34-12.33-.56-1.87,1-3.74,2-5.59,2.94-12.24,6-24.56,11.62-36.47,18.29C285.13,240.82,285.79,242.74,287,242.28Z" transform="translate(-30.32 -13.12)"/><path class="cls-3" d="M144.46,317.42c12.29-7.88,21.36-19.18,31.77-29.23,11.47-11.06,28.46-17.4,38.24-29.88.83-1.07-.67-2.07-1.62-1.68-1.31.54-2.61,1.14-3.91,1.8q-6.66,4-13.1,8.26c-6.94,5.16-13.55,11.08-19.41,16.21-11.79,10.3-20.49,23.57-33,33.15C142.67,316.64,143.65,317.94,144.46,317.42Z" transform="translate(-30.32 -13.12)"/><path class="cls-3" d="M346.18,237.7c1.27-.24,2.59-.54,3.95-.87q3.56-3.08,7.3-5.92c2.43-2.33,4.82-4.7,7.22-7.06a180.66,180.66,0,0,0-19.27,12.4C344.66,236.8,345.42,237.84,346.18,237.7Z" transform="translate(-30.32 -13.12)"/><path class="cls-3" d="M236.79,291c-17.52,4.95-34.9,18.58-48.17,30.73a1.12,1.12,0,0,0,1.31,1.78c8.67-5.15,17.42-10.18,26.15-15.23,7.66-4.43,16-7.85,22.64-13.79A2.08,2.08,0,0,0,236.79,291Z" transform="translate(-30.32 -13.12)"/><path class="cls-3" d="M332.19,253.92c-8.54,2.75-15.15,7.82-22.59,12.81a2.41,2.41,0,0,0,2.33,4.22l5-2.25C322.19,263.94,327.19,258.92,332.19,253.92Z" transform="translate(-30.32 -13.12)"/><path class="cls-3" d="M276.46,272.39c-1.3,1.09.31,2.72,1.62,2.19,11.26-4.48,24.32-9.24,33.73-17,.93-.77-.06-2-1-1.89C298.49,257.34,285.8,264.51,276.46,272.39Z" transform="translate(-30.32 -13.12)"/><path class="cls-3" d="M141.87,351.87A52.93,52.93,0,0,0,158.3,346c.59-.32.23-1.34-.43-1.11-5.48,1.79-10.77,4.13-16.29,5.82A.61.61,0,0,0,141.87,351.87Z" transform="translate(-30.32 -13.12)"/></g><path class="cls-1" d="M118.29,49.35l.3.06a8.45,8.45,0,0,1,2.47,1,2.21,2.21,0,0,1,1,1.52c.71,4.48,1.64,9,2.55,13.41s1.85,8.93,2.57,13.46c0,.11,0,.22,0,.33v.6c0,3.57,0,6.93.22,10.2.63,11.36,3.35,21.9,6.24,33.05l.57,2.21c5.81,22.53,10.84,46.87,8.36,72.24-2.26,23.22-8.11,47.38-17.89,73.85-5.18,14-9.75,25.6-14.35,36.44-1,2.44-2,4.91-3,7.4a169.71,169.71,0,0,1-7.28,16.51,1.74,1.74,0,0,1-.24.36,36.27,36.27,0,0,0-5.9,11.66,2.19,2.19,0,0,1-2,1.52,9.32,9.32,0,0,1-1.29,0A8.4,8.4,0,0,1,84,340.69C60.28,297.36,58.75,242.6,61.64,204.31c3.45-45.59,21.22-87.48,38.41-128q2.76-6.5,5.49-13a2,2,0,0,1,.21-.38A98.66,98.66,0,0,1,114.5,51.8c.78-.73,1.43-1.31,2.08-1.89A2.2,2.2,0,0,1,118.29,49.35Z" transform="translate(-30.32 -13.12)"/><path class="cls-5" d="M119.9,52.31a6.52,6.52,0,0,0-1.84-.76c-.65.58-1.29,1.15-1.92,1.73a95.77,95.77,0,0,0-8.57,10.9c-19.11,45.51-39.94,90.31-43.73,140.29-3.34,44.19.48,95.68,22.09,135.16a6.27,6.27,0,0,0,5.9,3.37,38.87,38.87,0,0,1,6.28-12.37c4-7.59,6.88-15.88,10.22-23.75,5.1-12,9.8-24.13,14.31-36.33,8.76-23.71,15.31-48.11,17.78-73.3,2.38-24.45-2.24-47.9-8.31-71.48-3.08-11.92-6.19-23.34-6.88-35.69-.2-3.51-.21-7.2-.22-10.9C123.59,70.17,121.31,61.31,119.9,52.31Z" transform="translate(-30.32 -13.12)"/><path class="cls-6" d="M114.44,59.91q.78,7.07,1.63,14l.42,3.54c3.91,33,7,68.35,3.46,103.82-3.5,34.68-10.43,71.29-21.19,112C94.14,310.6,90,325.68,86,339.63c-4.19-39.75-4.14-86.91.35-138.16C90.55,152.94,101.36,106.76,114.44,59.91Z" transform="translate(-30.32 -13.12)"/><path class="cls-3" d="M88.28,249c-1.64,9.13-3.11,18.29-4.28,27.54-3.72,29.52,5.67,59,3.77,88.64a2.81,2.81,0,0,0,0,.29c1.4-.19,2.81-.34,4.22-.41.93-.28,1.83-.62,2.73-1,2.25-29-6.19-57.51-3.64-86.52,2.5-28.49,7.72-56.76,10.94-85.23,7.64-28.33,15.47-56.65,15-85.83,0-1-1.57-1-1.7,0-.72,5.17-1.57,10.32-2.47,15.46.9-7,1.7-14.06,2.32-21.11,1-12.1,2.46-24.11,3-36.14-.94,1.34-1.87,2.67-2.84,4a249.71,249.71,0,0,1-2.16,31.88c-3.37,23.66-7.44,47.21-11,70.83a1.86,1.86,0,0,0,0,.53c-5.87,25.18-11.77,50.34-14.6,76A1,1,0,0,0,88.28,249Z" transform="translate(-30.32 -13.12)"/><g class="cls-7"><path class="cls-3" d="M75.07,148.05c-.88,12.24-2.68,25.61-1,37.79a.87.87,0,0,0,1.65.18c4-11.61,3.73-25.26,4.36-37.44.38-7.14,1.32-14.39,2-21.61-2.46,6.79-4.77,13.63-6.88,20.53Z" transform="translate(-30.32 -13.12)"/><path class="cls-3" d="M105.79,70.67c-5.23,15.48-7.81,31.59-9.16,47.89a1.41,1.41,0,0,0-1.46.93c-4.81,12-6.28,25.74-8.68,38.43q-4.06,21.54-6.73,43.28a313.72,313.72,0,0,0,1.68,87.2.26.26,0,0,0,.51-.09c-4-29-2.87-57.89,1.75-86.69,2.11-13.14,4-26.26,6.46-39.34,1.51-7.86,3.65-15.86,5.37-23.87-.44,13.09-.44,26.2-.69,39.07a.11.11,0,0,0,.22,0c1.15-36.05,4.66-71.25,11.73-106.59C106.9,70.34,106,70.12,105.79,70.67Z" transform="translate(-30.32 -13.12)"/><path class="cls-3" d="M120.55,264.41c6.18-29.78,16.51-60.6,20.11-91.3-.43-6.18-1.21-12.31-2.23-18.43-3.85,17.7-5.93,35.75-9.21,53.59-3.43,18.67-7.24,37.25-10.38,56C118.66,265.34,120.34,265.48,120.55,264.41Z" transform="translate(-30.32 -13.12)"/><path class="cls-3" d="M96,286.92c4.63-28.18,10.78-55.94,16-84,.13-.67-.94-.91-1.16-.28-9.16,26.82-12.27,56.17-16.6,84.08C94.12,287.84,95.82,288,96,286.92Z" transform="translate(-30.32 -13.12)"/><path class="cls-3" d="M115.93,181.2c3.79-25.5,7.73-51,11.17-76.51a109.44,109.44,0,0,1-1.87-14.61c0-.25,0-.51,0-.76-3.23,30.61-7.36,61.13-10.64,91.73A.69.69,0,0,0,115.93,181.2Z" transform="translate(-30.32 -13.12)"/></g><path class="cls-8" d="M84.83,43.78l.33,0L84.71,46l.57-2.13a5.22,5.22,0,0,1,.8.21,2.19,2.19,0,0,1,1.4,1.58q1.74,7.74,3.34,15.5a2,2,0,0,1,0,.26c.92,11.4,3.55,22.87,6.07,34s5.2,22.81,6.18,34.51c2.06,24.76.19,50.64-2.14,74.92-2.2,23.09-6.61,47.43-13.47,74.43l-1.4,5.5c-4.21,16.65-8.56,33.86-15,50.09l.18,1.31a2.21,2.21,0,0,1-.11,1.11c-.83,2.21-1.65,4.43-2.53,6.62-1.19,2.54-2.07,4.55-2.84,6.46A2.19,2.19,0,0,1,64,351.69a12.18,12.18,0,0,1-1.48,0l-.38,0a3.44,3.44,0,0,1-.85.06,3.71,3.71,0,0,1-2.13-.85l-.2-.09a2.49,2.49,0,0,1-1.27-1.38,49.38,49.38,0,0,0-3.9-8.89,2.12,2.12,0,0,1-.25-.88c-.56-6.73-3.13-13.64-5.63-20.31-.92-2.49-1.9-5.07-2.72-7.54-3.76-11.4-6-23.12-7.84-33.19-5.8-32.08-7.9-58.66-6.62-83.66,1.65-32.26,6.1-59.23,13.59-82.47A116.29,116.29,0,0,1,60.22,80q1.24-1.75,2.53-3.56c4.23-5.92,8.61-12,11.36-18.6a1.46,1.46,0,0,1,.16-.3l.13-.24a93.91,93.91,0,0,0,6.42-11.58,2.17,2.17,0,0,1,1.52-1.26,2,2,0,0,1,.64-.05h.17s0,0,0,0A2.19,2.19,0,0,1,84.83,43.78Z" transform="translate(-30.32 -13.12)"/><path class="cls-1" d="M39.46,278.2c2,11.14,4.23,22.14,7.78,32.89,3,9,7.66,18.71,8.44,28.37a53.07,53.07,0,0,1,4.06,9.28,6.54,6.54,0,0,0,.6.28,1.4,1.4,0,0,0,1.57.41,8.58,8.58,0,0,0,1.89.06c.88-2.19,1.83-4.33,2.84-6.45s1.68-4.38,2.5-6.59c-.09-.62-.16-1.25-.27-1.89,7.17-18,11.7-37.08,16.48-55.88,6.2-24.35,11-49.09,13.44-74.1,2.33-24.49,4.16-50,2.12-74.53C99,106.9,90.54,84.64,88.66,61.58q-1.59-7.74-3.32-15.45a4.44,4.44,0,0,0-.63-.15c-.23.2-.44.41-.67.6a.86.86,0,0,1-1.2,0,101,101,0,0,1-6.7,12.09C72.73,66.84,67,74.24,62,81.26a114.28,114.28,0,0,0-15.67,31.88c-8.5,26.38-12.06,54.34-13.48,81.91C31.45,223,34.5,250.77,39.46,278.2Z" transform="translate(-30.32 -13.12)"/><path class="cls-8" d="M82.56,58.8c1.5,15.83,2.82,30.89,2.91,45.62.23,37.16-3.37,77.17-7.3,114.86-3.68,35.56-9.6,73.28-18.07,115.31,0,0-2.13,10.57-2.27,11.34-.25-3.29-.46-6.5-.68-9.6-3.25-49-3.42-89.38-.54-127,3.77-49,9.69-89.68,18.09-124.27A238.51,238.51,0,0,1,82.56,58.8Z" transform="translate(-30.32 -13.12)"/><path class="cls-3" d="M58.44,235.9c.9,22.76,3,45.53,2.36,68.32-.31,11-1.23,21.84-2.56,32.72-1.28,10.54-3.61,23.21-2.11,33.68.32,2.27,3.86,2.45,4.47.27,2.61-9.37,2-19.79,3.47-29.49,1.64-10.65,2.15-21.93,2.71-32.68,1.26-24.13-1.39-48.41-2.61-72.49-1.18-22.89-.09-45.16.29-68.06.18-10.88,3.94-21.95,5.77-32.7,2.08-12.27,4.11-24.54,5.67-36.89.13-1-1.4-1.07-1.54-.09-3.29,23.06-6.75,46.57-11.25,69.42C58.71,190.3,57.55,213.05,58.44,235.9Z" transform="translate(-30.32 -13.12)"/><g class="cls-4"><path class="cls-3" d="M41.77,175.56c1.85,15.07,3.16,30.17,4.77,45.27.18,1.67,2.81,1.4,2.89-.22.62-12.69-.77-25.14-2.21-37.74-1.7-14.8-1.89-31-5.67-45.32a1.34,1.34,0,0,0-1.38-1c-.61,2.86-1.2,5.72-1.73,8.6C38.43,155.25,40.55,165.7,41.77,175.56Z" transform="translate(-30.32 -13.12)"/><path class="cls-3" d="M56.16,142.1c-.86,4.45-.49,9.24-.56,13.77,0,.11.16.11.18,0,.47-4.5,1.4-9.22,1.07-13.74A.35.35,0,0,0,56.16,142.1Z" transform="translate(-30.32 -13.12)"/><path class="cls-3" d="M101.67,145.34c-2.07,13.27-5.5,26.42-8,39.55a295.32,295.32,0,0,0-5.76,52.91,1,1,0,0,0,2.06.12c1.09-17.5,4.92-35.48,8-52.77,1.71-9.71,2.92-19.37,3.87-29.05C101.79,152.5,101.75,148.92,101.67,145.34Z" transform="translate(-30.32 -13.12)"/><path class="cls-3" d="M60.69,127.22c2.51-12.2,4.61-24.35,6.37-36.68.93-6.55,2.39-13.7,3-20.77-2.28,3.48-4.72,6.84-7,10.12-.13,2.13-.28,4.24-.49,6.3-1.44,13.57-3.28,27-4,40.6C58.44,128,60.42,128.49,60.69,127.22Z" transform="translate(-30.32 -13.12)"/><path class="cls-3" d="M48.14,287.86c-.11-14.61-4.83-28.3-7.76-42.47-3.23-15.6.47-33.36-4.87-48.29-.45-1.27-2.09-.53-2.27.47-.25,1.39-.43,2.82-.58,4.27-.13,5.17-.14,10.33,0,15.49C33.32,226,34.8,234.7,36,242.4c2.41,15.47,9,29.9,10.43,45.58C46.52,289,48.14,288.82,48.14,287.86Z" transform="translate(-30.32 -13.12)"/><path class="cls-3" d="M88.39,74.72c.47-1.19.92-2.48,1.37-3.8-.46-3.1-.84-6.21-1.1-9.34-.68-3.29-1.4-6.58-2.12-9.87a180.43,180.43,0,0,0,.19,22.91C86.82,75.53,88.11,75.44,88.39,74.72Z" transform="translate(-30.32 -13.12)"/><path class="cls-3" d="M75.05,195.65c-5.17,17.47-2.91,39.44.28,57.16a1.12,1.12,0,0,0,2.2-.17c.27-10.08.69-20.17,1.08-30.25.34-8.83,1.92-17.74.42-26.5A2.08,2.08,0,0,0,75.05,195.65Z" transform="translate(-30.32 -13.12)"/><path class="cls-3" d="M94.64,95.2c-2.23,8.7-1.47,17-1.22,26a2.41,2.41,0,0,0,4.81.28q.39-2.73.79-5.46C97.79,109,96.2,102.11,94.64,95.2Z" transform="translate(-30.32 -13.12)"/><path class="cls-3" d="M80.51,152.2c.23,1.67,2.47,1.19,2.73-.21,2.21-11.92,5.16-25.49,3.58-37.6-.14-1.21-1.73-1-2.15-.14C79.54,125.53,78.85,140.09,80.51,152.2Z" transform="translate(-30.32 -13.12)"/><path class="cls-3" d="M75.88,308.44a52.71,52.71,0,0,0,3.79-17.05c0-.66-1-.9-1.17-.23-1.4,5.59-2.25,11.31-3.76,16.88A.6.6,0,0,0,75.88,308.44Z" transform="translate(-30.32 -13.12)"/></g></g></svg>